<?xml version="1.0" encoding="utf-8"?>
<!-- Generator: Adobe Illustrator 27.5.0, SVG Export Plug-In . SVG Version: 6.00 Build 0)  -->
<svg version="1.1" xmlns="http://www.w3.org/2000/svg" xmlns:xlink="http://www.w3.org/1999/xlink" x="0px" y="0px"
	 viewBox="0 0 500 500" style="enable-background:new 0 0 500 500;" xml:space="preserve">
<g id="BACKGROUND">
	<rect x="0" style="fill:#FFFFFF;" width="500" height="500"/>
</g>
<g id="OBJECTS">
	<g>
		<path style="fill:#E3EDFC;" d="M465.107,194.854c-6.072-68.656-68.144-120.116-136.733-113.329
			c-41.655,4.122-76.497,28.259-95.941,61.94c-11.244,19.476-33.011,30.224-55.271,27.026c-9.929-1.426-20.193-1.671-30.628-0.598
			c-67.817,6.972-117.85,67.788-111.609,135.676c6.353,69.107,67.745,119.715,136.693,112.893
			c41.772-4.133,76.693-28.395,96.105-62.224c11.194-19.508,33.377-29.764,55.654-26.665c9.605,1.336,19.52,1.567,29.596,0.57
			C421.188,323.392,471.132,262.97,465.107,194.854z"/>
	</g>
	<g>
		<g>
			<path style="fill:#9F58D6;" d="M132.324,500c0,0,8.762-45.076,81.716-71.31c72.953-26.233,186.92-51.957,206.762,71.31H132.324z"
				/>
			<path style="fill:#7C49AD;" d="M380.544,424.84l-93.7-15.568c-25.526,3.785-50.997,11.577-72.804,19.418
				c-22.117,7.953-38.326,17.638-50.188,27.274c62.941-15.515,127.453,17.455,173.511,44.036h83.44
				C414.785,462.62,400.103,438.959,380.544,424.84z"/>
			<path style="fill:none;stroke:#1C1C26;stroke-width:3.1776;stroke-miterlimit:10;" d="M232.415,452.994
				C215.351,465.8,213.748,500,213.748,500"/>
			<path style="fill:none;stroke:#1C1C26;stroke-width:3.1776;stroke-miterlimit:10;" d="M241.458,453.971
				C224.393,466.776,222.22,500,222.22,500"/>
			<path style="fill:none;stroke:#1C1C26;stroke-width:3.1776;stroke-miterlimit:10;" d="M132.324,500
				c0,0,8.762-45.076,81.716-71.31c72.953-26.233,186.92-51.957,206.762,71.31"/>
		</g>
		<g>
			<g>
				<path style="fill:#9B736D;" d="M337.362,423.897c0,0-25.694-50.228-8.892-114.195l-160.742,53.614
					c36.081,7.284,36.657,28.756,32.468,59.238c-25.168,35.965,25.68,27.931,25.68,27.931L337.362,423.897z"/>
				<path style="fill:#825F5B;" d="M229.062,342.859l-61.334,20.457c24.726,4.992,32.775,16.648,34.046,33.3
					c27.44-22.571,33.916-54.958,33.916-54.958L229.062,342.859z"/>
				<path style="fill:none;stroke:#1C1C26;stroke-width:3.2805;stroke-miterlimit:10;" d="M337.362,423.897
					c0,0-25.694-50.228-8.892-114.195l-160.742,53.614c36.081,7.284,36.657,28.756,32.468,59.238
					c-25.168,35.965,25.68,27.931,25.68,27.931L337.362,423.897z"/>
				<g>
					<path style="fill:#1C1C26;" d="M230.458,380.664c-0.409,3.039-1.155,5.956-1.964,8.85c-0.853,2.878-1.773,5.733-2.859,8.527
						c-0.523,1.405-1.048,2.808-1.626,4.193c-0.551,1.394-1.138,2.776-1.747,4.149c-1.219,2.747-2.497,5.472-4.005,8.114
						c0.526-2.996,1.282-5.91,2.096-8.803c0.407-1.446,0.837-2.884,1.303-4.309c0.439-1.435,0.931-2.85,1.425-4.266
						c0.947-2.845,2.061-5.629,3.241-8.389C227.546,385.986,228.834,383.265,230.458,380.664z"/>
				</g>
			</g>
		</g>
		<g>
			<path style="fill:#B7887D;" d="M388.428,206.404c-7.385-77.309-78.083-99.92-146.705-105.777
				c-110.495-9.43-115.892,111.313-116.87,126.71c-10.832,18.609-16.181,19.941-31.499,34.684
				c-8.591,8.268-1.562,27.792,19.696,25.28c0,0-1.93,45.866,14.926,64.468c15.427,17.024,44.45,28.903,106.201-4.142
				c2.748,0.153,6.059,0.516,8.903,0.516C316.514,348.145,397.856,305.093,388.428,206.404z"/>
			<path style="fill:#9B736D;" d="M238.244,197.972c-57.485,59.592-53.95,55.441,4.025,81.13
				c57.974,25.688,33.793-88.376,33.793-88.376L238.244,197.972z"/>
			<path style="fill:#9B736D;" d="M138.803,361.135c17.078,11.194,45.011,14.663,94.538-11.841c2.748,0.153,5.539,0.239,8.383,0.239
				c60.86,0,128.083-30.527,143.952-97.161c-50.062-7.853-115.807-9.936-130.226,29.151
				C238.417,327.691,184.661,371.632,138.803,361.135z"/>
			<path style="fill:#825F5B;" d="M242.268,306.945c15.104,19.897,44.92,6.765,53.311-5.287
				c9.921-14.249-12.211-19.019-12.211-19.019l-31.057,6.463C249.531,295.18,246.153,301.169,242.268,306.945z"/>
			<path style="fill:#9B736D;" d="M120.623,275.962c-9.51,0-30.992,1.525-29.056-11.691c-5.543,9.079,1.969,25.338,21.484,23.032
				c0,0-0.043,1.022-0.06,2.813C126.478,284.384,130.691,275.962,120.623,275.962z"/>
			<g>
				<path style="fill:#1C1C26;" d="M367.777,289.22c2.77-4.117,5.281-8.401,7.529-12.824c2.199-4.448,4.093-9.04,5.743-13.72
					c1.548-4.715,2.901-9.497,3.885-14.368c0.958-4.872,1.733-9.789,2.108-14.75c0.471-4.952,0.54-9.936,0.5-14.913
					c-0.147-4.974-0.433-9.965-1.003-14.901c-1.139-9.871-3.516-19.594-7.285-28.752c-1.885-4.577-4.156-8.989-6.735-13.208
					c-2.589-4.215-5.547-8.197-8.769-11.951c-6.495-7.472-14.155-13.914-22.518-19.269c-8.355-5.378-17.375-9.723-26.692-13.267
					c-9.32-3.558-18.952-6.307-28.704-8.515c-9.761-2.187-19.649-3.831-29.595-5.049c-4.972-0.609-9.961-1.13-14.953-1.543
					c-4.964-0.398-9.94-0.554-14.908-0.445c-9.926,0.276-19.826,1.753-29.236,4.81c-9.408,3.043-18.265,7.732-26.021,13.851
					c-7.766,6.109-14.455,13.567-19.925,21.836c-5.5,8.259-9.873,17.264-13.327,26.603c-6.897,18.722-10.34,38.616-11.433,58.593
					l-0.02,0.373l-0.192,0.326c-1.907,3.234-3.892,6.437-6.098,9.52c-2.2,3.083-4.664,6.022-7.343,8.714
					c-2.674,2.7-5.509,5.165-8.293,7.622c-2.791,2.453-5.538,4.921-8.225,7.459c-0.654,0.629-1.379,1.286-1.974,1.891
					c-0.564,0.565-1.048,1.205-1.457,1.893c-0.826,1.374-1.27,2.976-1.422,4.606c-0.252,3.283,0.816,6.691,2.855,9.362
					c2.019,2.701,4.958,4.671,8.231,5.701c1.636,0.524,3.352,0.83,5.092,0.967c1.746,0.11,3.51,0.036,5.272-0.147l1.847-0.192
					l-0.073,1.837v0.001c-0.083,3.699,0.012,7.483,0.181,11.222c0.165,3.748,0.442,7.491,0.838,11.216
					c0.797,7.446,2.096,14.838,4.173,21.954c1.047,3.552,2.319,7.027,3.934,10.302c1.62,3.277,3.551,6.337,6.024,8.943
					c4.967,5.426,10.961,9.84,17.687,12.671c6.715,2.852,14.077,4.149,21.463,4.133c7.396,0.022,14.812-1.104,22.058-2.913
					c7.261-1.781,14.364-4.264,21.311-7.125l10.438-4.315c1.732-0.745,3.501-1.422,5.254-2.14c1.762-0.702,3.521-1.415,5.341-2.024
					c-1.537,1.139-3.136,2.173-4.732,3.22c-1.614,1.012-3.267,1.957-4.926,2.893c-1.647,0.961-3.378,1.756-5.067,2.641
					c-1.707,0.844-3.463,1.592-5.201,2.373c-7.015,2.986-14.217,5.602-21.645,7.519c-7.412,1.942-15.066,3.209-22.824,3.279
					c-7.74,0.108-15.618-1.158-22.892-4.151c-7.253-3.042-13.721-7.822-18.971-13.557c-2.747-2.895-4.902-6.313-6.63-9.815
					c-1.735-3.518-3.072-7.181-4.168-10.888c-2.186-7.424-3.362-15.038-4.12-22.645c-0.724-7.627-1.002-15.231-0.7-22.926l0-0.001
					l1.774,1.645c-1.938,0.204-3.898,0.287-5.867,0.161c-1.967-0.153-3.935-0.501-5.842-1.111c-3.811-1.198-7.357-3.545-9.8-6.818
					c-2.463-3.241-3.797-7.378-3.481-11.528c0.187-2.064,0.761-4.138,1.851-5.96c0.54-0.91,1.186-1.763,1.936-2.515
					c0.71-0.719,1.367-1.308,2.053-1.969c2.721-2.569,5.508-5.073,8.304-7.531c2.793-2.463,5.575-4.887,8.136-7.474
					c5.169-5.123,9.227-11.237,12.953-17.596l-0.213,0.698c1.106-20.176,4.589-40.404,11.625-59.496
					c3.526-9.531,8-18.757,13.662-27.26c5.63-8.511,12.546-16.234,20.606-22.573c8.048-6.35,17.258-11.224,27-14.374
					c9.746-3.167,19.955-4.683,30.136-4.966c5.094-0.112,10.187,0.047,15.256,0.455c5.037,0.417,10.06,0.941,15.077,1.556
					c10.032,1.229,20.023,2.889,29.905,5.103c9.874,2.236,19.647,5.023,29.137,8.645c9.486,3.609,18.704,8.044,27.28,13.564
					c8.582,5.496,16.485,12.135,23.201,19.861c3.332,3.881,6.393,8.003,9.073,12.365c2.67,4.366,5.018,8.931,6.966,13.66
					c3.895,9.462,6.338,19.477,7.505,29.594c0.584,5.063,0.875,10.127,1.025,15.212c0.042,5.083-0.03,10.176-0.511,15.246
					c-0.385,5.077-1.177,10.119-2.162,15.117c-1.01,4.998-2.399,9.912-3.992,14.758c-1.695,4.812-3.643,9.535-5.907,14.112
					c-2.312,4.551-4.896,8.96-7.746,13.194L367.777,289.22z"/>
			</g>
		</g>
		<g>
			<path style="fill:#49363F;" d="M186.07,113.863c-70.461,23.856-90.918-10.552-82.093-28.846
				c8.824-18.294,32.941-10.355,41.139-4.698c0,0-15.468-28.637,1.98-51.3c17.448-22.663,44.488-9.627,45.408,4.011
				c0,0,3.126-9.426,15.36-7.22c12.234,2.206,9.827,17.849,9.827,17.849s14.106-24.534,44.055-17.047
				c29.949,7.487,20.323,35.297,20.323,35.297s20.858-8.824,34.228,0c13.37,8.824,9.626,21.927,9.626,21.927
				s8.29-3.877,14.106-0.267c5.816,3.61,4.613,11.03,0,14.039c0,0,16.913-5.749,30.551,4.145
				c13.638,9.894,9.894,24.067,9.894,24.067s38.982,21.206,13.742,70.769L186.07,113.863z"/>
			<path style="fill:#634957;" d="M192.312,31.631c-2.578-13.09-28.367-24.497-45.216-2.612c-17.448,22.663-1.98,51.3-1.98,51.3
				c-8.197-5.657-32.314-13.596-41.139,4.698c-4.722,9.79-1.054,24.191,14.17,31.812c-16.555-26.003,0.233-36.977,12.638-29.987
				c0,0-0.86-12.27,26.317,4.454c0,0-15.412-21.396-9.505-47.036C155.269,10.959,188.239,21.181,192.312,31.631z"/>
			<path style="fill:#3A2E34;" d="M186.07,113.863l208.145,82.725c20.078-39.427-0.482-60.908-9.732-68.046
				c-5.996,0.184-9.967,2.342-9.967,2.342s2.091-14.634-12.282-22.137c-14.372-7.503-45.534-4.125-45.534-4.125
				c13.614-1.815,19.794-10.583,13.229-12.641c-6.565-2.058-18.782,1.927-18.782,1.927c8.231-6.663,10.322-24.825-10.844-24.041
				c-21.166,0.784-41.549,14.372-41.549,14.372c17.116-15.026,6.533-35.8-14.764-33.317C222.692,53.405,204.4,69.476,204.4,69.476
				c4.181-4.573,4.442-13.588-1.307-15.679c-5.749-2.09-10.845,1.633-10.845,1.633c3.528-27.634-34.493-34.101-34.885-3.724
				c-0.392,30.378,18.031,49.192,18.031,49.192c-26.661-17.506-50.809,5.26-29.648,21.062
				C156.798,121.66,170.154,119.252,186.07,113.863z"/>
			<path style="fill:#30282C;" d="M384.483,128.543c-5.996,0.184-9.967,2.342-9.967,2.342s0.607-4.287-1.109-9.409
				c-10.274,2.068-15.877,11.238-15.877,11.238c-2.613-37.107-52.263-21.167-52.263-21.167c13.98-8.493,19.598-14.503,11.106-13.98
				c-8.493,0.523-11.759,2.744-11.759,2.744c-0.791-6.486-9.669-2.221-9.669-2.221s13.719-18.161-2.874-19.468
				c-16.593-1.307-37.89,16.005-37.89,16.005c7.055-13.131-0.392-28.222-10.975-23.322c-10.583,4.9-10.792,23.322-10.792,23.322
				s-4.103-12.151-19.978-9.799c-9.171,1.359-20.043,14.035-18.859,32.018l200.639,79.742
				C414.293,157.162,393.733,135.68,384.483,128.543z"/>
			<path style="fill:none;stroke:#1C1C26;stroke-width:3.2641;stroke-miterlimit:10;" d="M186.07,113.863
				c-70.461,23.856-90.918-10.552-82.093-28.846c8.824-18.294,32.941-10.355,41.139-4.698c0,0-15.468-28.637,1.98-51.3
				c17.448-22.663,44.488-9.627,45.408,4.011c0,0,3.126-9.426,15.36-7.22c12.234,2.206,9.827,17.849,9.827,17.849
				s14.106-24.534,44.055-17.047c29.949,7.487,20.323,35.297,20.323,35.297s20.858-8.824,34.228,0
				c13.37,8.824,9.626,21.927,9.626,21.927s8.29-3.877,14.106-0.267c5.816,3.61,4.613,11.03,0,14.039c0,0,16.913-5.749,30.551,4.145
				c13.638,9.894,9.894,24.067,9.894,24.067s38.982,21.206,13.742,70.769L186.07,113.863z"/>
		</g>
		<g>
			<g>
				<path style="fill:#634957;" d="M198.23,118.363c-11.454,51.729-2.603,61.5,17.702,71.192c20.305,9.692,0,55.849,0,55.849
					l34.63,11.577c0,0,70.557,74.475,77.448,71.385c21.938-9.839,61.619-36.167,72.851-100.419
					C416.638,137.682,346.612,86.419,198.23,118.363z"/>
			</g>
			<path style="fill:#49363F;" d="M328.01,328.365c21.938-9.839,61.619-36.167,72.851-100.419c0.554-3.17,0.991-6.287,1.333-9.359
				c-14.272,60.227-59.066,105.799-144.466,45.878v0C275.847,283.269,322.473,330.848,328.01,328.365z"/>
			<g>
				<path style="fill:#3A2E34;" d="M223.984,218.748l38.624,8.023l1.884-3.624l-39.924-8.474
					C224.412,216.03,224.216,217.392,223.984,218.748z"/>
				<path style="fill:#3A2E34;" d="M254.988,232.619l-32.419-7.123c-0.34,1.384-0.699,2.736-1.07,4.045l31.15,8.611L254.988,232.619
					z"/>
				<path style="fill:#3A2E34;" d="M224.951,208.826l55.176,13.1v-1.326l-55.403-16.575
					C224.897,205.573,224.968,207.18,224.951,208.826z"/>
				<path style="fill:#3A2E34;" d="M258.24,244.962l-37.957-11.372c-0.955,3.005-1.899,5.624-2.663,7.628l41.002,11.227
					L258.24,244.962z"/>
			</g>
			<path style="fill:#705464;" d="M402.872,197.972c-3.69-71.129-73.604-107.819-204.642-79.609
				c-10.788,48.718-3.563,60.22,14.276,69.491c29.321,6.103,65.639-30.31,99.742-33.587
				C345.838,151.04,390.253,159.536,402.872,197.972z"/>
			<g>
				<path style="fill:none;stroke:#1C1C26;stroke-width:3.1776;stroke-miterlimit:10;" d="M198.23,118.363
					c-11.454,51.729-2.603,61.5,17.702,71.192c20.305,9.692,0,55.849,0,55.849l34.63,11.577c0,0,70.557,74.475,77.448,71.385
					c21.938-9.839,61.619-36.167,72.851-100.419C416.638,137.682,346.612,86.419,198.23,118.363z"/>
			</g>
		</g>
		<g>
			<g>
				<path style="fill:#F9A723;" d="M277.056,226.653c-6.5,2.714-13.995-0.366-16.708-6.865c-2.713-6.5,0.367-13.994,6.867-16.708
					c1.508-0.629,3.239,0.083,3.868,1.59c0.629,1.507-0.082,3.239-1.59,3.868c-3.49,1.457-5.144,5.482-3.687,8.971
					c1.457,3.489,5.481,5.143,8.972,3.686c1.508-0.629,3.239,0.083,3.868,1.59C279.275,224.291,278.564,226.023,277.056,226.653z"/>
			</g>
			<g>
				<path style="fill:none;stroke:#1C1C26;stroke-width:3.1776;stroke-miterlimit:10;" d="M277.056,226.653
					c-6.5,2.714-13.995-0.366-16.708-6.865c-2.713-6.5,0.367-13.994,6.867-16.708c1.508-0.629,3.239,0.083,3.868,1.59
					c0.629,1.507-0.082,3.239-1.59,3.868c-3.49,1.457-5.144,5.482-3.687,8.971c1.457,3.489,5.481,5.143,8.972,3.686
					c1.508-0.629,3.239,0.083,3.868,1.59C279.275,224.291,278.564,226.023,277.056,226.653z"/>
			</g>
		</g>
		<g>
			<g>
				<path style="fill:#F9A723;" d="M293.943,240.744c-5.255-4.691-5.713-12.781-1.023-18.035c4.69-5.254,12.781-5.713,18.035-1.022
					c1.219,1.088,1.324,2.957,0.237,4.176c-1.088,1.218-2.957,1.325-4.176,0.237c-2.822-2.519-7.166-2.273-9.684,0.549
					c-2.518,2.821-2.272,7.165,0.55,9.684c1.219,1.088,1.324,2.957,0.237,4.175C297.031,241.725,295.162,241.832,293.943,240.744z"
					/>
			</g>
			<g>
				<path style="fill:none;stroke:#1C1C26;stroke-width:3.1776;stroke-miterlimit:10;" d="M293.943,240.744
					c-5.255-4.691-5.713-12.781-1.023-18.035c4.69-5.254,12.781-5.713,18.035-1.022c1.219,1.088,1.324,2.957,0.237,4.176
					c-1.088,1.218-2.957,1.325-4.176,0.237c-2.822-2.519-7.166-2.273-9.684,0.549c-2.518,2.821-2.272,7.165,0.55,9.684
					c1.219,1.088,1.324,2.957,0.237,4.175C297.031,241.725,295.162,241.832,293.943,240.744z"/>
			</g>
		</g>
		<g>
			<path style="fill:#49363F;" d="M180.277,168.164c0,0-3.931-0.684-9.793-1.376l-1.273,8.499l-4.066-9.066
				c-11.915-1.127-28.094-1.696-37.908,1.943v19.27l59.336-4.268L180.277,168.164z"/>
			<polygon style="fill:#30282C;" points="183.426,175.668 173.536,177.449 170.61,172.234 169.223,175.207 169.211,175.287 
				169.199,175.259 167.049,179.866 159.596,170.835 154.489,177.576 151.913,172.743 151.277,177.576 149.877,172.743 
				127.237,174.63 127.237,187.434 186.573,183.166 			"/>
			<path style="fill:none;stroke:#1C1C26;stroke-width:3.1776;stroke-miterlimit:10;" d="M180.277,168.164
				c0,0-3.931-0.684-9.793-1.376l-1.273,8.499l-4.066-9.066c-11.915-1.127-28.094-1.696-37.908,1.943v19.27l59.336-4.268
				L180.277,168.164z"/>
		</g>
		<g>
			<path style="fill:#1C1C26;" d="M117.381,301.777c-2.41,45.128,53.434,36.203,55.232-8.162L117.381,301.777z"/>
			<path style="fill:#F37F8A;" d="M166.256,315.326c-14.595-1.751-21.297,8.993-21.297,8.993c0.694-5.015,6.007-7.985,6.007-7.985
				c-14.379,2.126-19.768,8.376-20.957,13.133C141.331,334.914,157.43,329.532,166.256,315.326z"/>
			<path style="fill:#AA616C;" d="M145.35,323.761c-0.258,0.348-0.391,0.558-0.391,0.558c0.024-0.173,0.066-0.338,0.1-0.506
				c-6.16,1.093-10.41,0.825-10.55-1.078c-2.607,2.211-3.973,4.618-4.501,6.732c10.631,5.114,25.472,0.681,34.551-11.638
				C157.707,320.726,150.809,322.765,145.35,323.761z"/>
			<path style="fill-rule:evenodd;clip-rule:evenodd;fill:#FFFFFF;" d="M171.976,299.834c0.33-1.989,0.549-4.061,0.637-6.219
				l-55.232,8.162c-0.148,2.765-0.074,5.324,0.19,7.688C134.813,316.252,155.546,308.897,171.976,299.834z"/>
			<path style="fill:#E3EDFC;" d="M117.571,309.465c0.215,0.085,0.433,0.157,0.649,0.237c12.133-7.394,32.015-11.205,51.613-8.712
				c0.721-0.382,1.437-0.766,2.143-1.156c0.33-1.989,0.549-4.061,0.637-6.219l-55.232,8.162
				C117.233,304.542,117.307,307.101,117.571,309.465z"/>
			<path style="fill:none;stroke:#1C1C26;stroke-width:2.7029;stroke-miterlimit:10;" d="M117.381,301.777
				c-2.41,45.128,53.434,36.203,55.232-8.162L117.381,301.777z"/>
			<path style="fill:#1C1C26;" d="M163.625,289.121l15.308,9.049C178.933,298.171,177.697,286.214,163.625,289.121z"/>
		</g>
		<g>
			<g>
				<g>
					<path style="fill:#B7887D;" d="M302.407,250.297c0.921-19.713-13.248-35.615-33.149-34.864
						c-18.252,0.689-33.062,15.671-33.554,33.929c-0.061,2.247,0.091,4.447,0.437,6.583c1.191,7.36,0.214,14.878-2.413,21.856
						c-1.055,2.804-1.516,5.9-1.227,9.134c0.893,9.993,9.08,18.634,19.113,18.638C272.516,305.581,300.908,282.383,302.407,250.297z
						"/>
				</g>
			</g>
			<g>
				<path style="fill:#CE978D;" d="M269.257,220.846c18.353-0.693,31.82,12.781,33.084,30.342c0.019-0.298,0.051-0.591,0.065-0.89
					c0.921-19.713-13.248-35.615-33.149-34.864c-18.252,0.689-33.062,15.671-33.554,33.929c-0.033,1.231,0.003,2.446,0.094,3.646
					C242.625,232.177,251.598,221.512,269.257,220.846z"/>
			</g>
			<g>
				<g>
					<g>
						<path style="fill:#1C1C26;" d="M240.507,301.66c2.181,0.873,4.26,1.559,6.351,1.92c1.042,0.184,2.079,0.292,3.109,0.33
							c0.515,0.024,1.029,0.009,1.541,0l1.593-0.099c2.128-0.159,4.257-0.503,6.352-1.039c2.093-0.547,4.142-1.287,6.148-2.135
							c8.018-3.471,15.085-9.091,20.788-15.739c2.83-3.356,5.299-7.006,7.383-10.857c2.057-3.865,3.689-7.95,4.835-12.167
							c1.151-4.204,1.777-8.594,1.832-12.914c0.065-4.289-0.64-8.582-2.162-12.562c-1.51-3.98-3.814-7.656-6.813-10.659
							c-2.989-3.009-6.655-5.333-10.662-6.754c-8.029-2.848-17.288-2.176-24.984,1.645c-7.737,3.787-13.939,10.695-16.829,18.875
							c-1.467,4.08-2.073,8.454-1.883,12.8c0.052,1.087,0.168,2.169,0.309,3.248c0.156,1.132,0.248,2.32,0.24,3.482
							c-0.022,2.333-0.341,4.668-1.175,6.867c-0.438-2.308-0.717-4.512-1.092-6.69l-0.579-3.253
							c-0.208-1.156-0.332-2.326-0.412-3.498c-0.283-4.683,0.299-9.451,1.824-13.916c3.006-8.953,9.635-16.61,18.088-20.918
							c8.432-4.365,18.633-5.218,27.711-2.115c4.531,1.555,8.717,4.148,12.134,7.522c3.423,3.369,6.089,7.49,7.797,11.96
							c1.711,4.473,2.494,9.266,2.424,14.015c-0.064,4.72-0.733,9.365-1.964,13.888c-1.226,4.516-2.972,8.884-5.165,13.007
							c-2.229,4.105-4.915,7.948-7.946,11.486c-6.126,7.002-13.639,12.878-22.294,16.537c-4.322,1.804-8.936,3.084-13.721,3.302
							c-0.6,0.013-1.193,0.019-1.799,0.002c-0.619-0.025-1.236-0.092-1.846-0.193c-1.22-0.199-2.408-0.548-3.529-1.026
							C243.872,305.046,241.902,303.554,240.507,301.66z"/>
					</g>
				</g>
			</g>
			<path style="fill:#9B736D;" d="M256.251,269.76c16.933,9.283,38.541-6.314,32.125-25.942
				c-6.416-19.628-29.956-14.305-38.219,1.874C241.894,261.872,255.344,263.052,256.251,269.76z"/>
			<path style="fill:#825F5B;" d="M254.331,265.903c18.694-1.933,20.285-27.807,5.02-26.418
				c-15.265,1.389-9.985,21.305-8.395,22.959C252.546,264.098,254.331,265.903,254.331,265.903z"/>
			<g>
				<path style="fill:#1C1C26;" d="M249.048,281.523c1.494-2.167,3.14-4.123,4.457-6.167c0.646-1.018,1.229-2.052,1.5-3.091
					c0.296-1.04,0.218-2.046-0.159-3.046c-0.802-2.014-2.601-3.89-4.269-5.802l-1.28-1.452c-0.22-0.26-0.408-0.458-0.655-0.77
					c-0.249-0.306-0.469-0.632-0.66-0.966c-0.764-1.348-1.103-2.807-1.235-4.215c-0.249-2.834,0.255-5.556,1.061-8.13
					c0.821-2.575,2.013-5.009,3.503-7.249c2.956-4.455,7.238-8.28,12.539-9.976c2.628-0.853,5.455-1.097,8.184-0.778
					c2.736,0.33,5.35,1.145,7.812,2.353c2.444,1.237,4.709,2.934,6.492,5.065c1.786,2.124,3.112,4.621,3.879,7.251
					c1.531,5.276,1.165,10.876-0.563,15.884c-0.889,2.501-2.12,4.873-3.697,6.976c-1.598,2.081-3.553,3.9-5.81,5.145
					c2.002-1.617,3.655-3.577,4.901-5.756c1.283-2.153,2.197-4.503,2.775-6.911c1.177-4.802,1.092-9.903-0.464-14.43
					c-1.51-4.522-4.564-8.457-8.829-10.656c-4.246-2.225-9.323-2.946-13.828-1.471c-4.539,1.424-8.363,4.815-11.03,8.868
					c-1.339,2.034-2.416,4.25-3.176,6.552c-0.743,2.296-1.18,4.722-0.988,7.011c0.093,1.138,0.371,2.23,0.863,3.123
					c0.12,0.225,0.255,0.437,0.404,0.632c0.143,0.198,0.385,0.476,0.572,0.71l1.223,1.467c0.824,0.983,1.663,1.975,2.468,3.045
					c0.794,1.076,1.58,2.242,2.084,3.654c0.509,1.403,0.573,3.085,0.11,4.503c-0.421,1.44-1.193,2.635-2.044,3.686
					C253.457,278.671,251.363,280.27,249.048,281.523z"/>
			</g>
			<g>
				<path style="fill:#1C1C26;" d="M267.432,257.484c1.229-2.659,2.123-5.486,1.997-8.253c-0.089-2.763-1.459-5.277-3.572-6.823
					c-2.107-1.561-4.864-2.202-7.4-1.844c-2.547,0.357-4.812,1.767-6.111,3.92l-2.461-1.521c0.867-1.431,2.113-2.657,3.555-3.524
					c1.439-0.881,3.079-1.363,4.71-1.525c3.274-0.334,6.59,0.714,9.049,2.821c1.227,1.049,2.235,2.372,2.86,3.857
					c0.618,1.489,0.848,3.102,0.749,4.652C270.583,252.367,269.182,255.144,267.432,257.484z"/>
			</g>
		</g>
		<g>
			<g>
				<path style="fill:#F9A723;" d="M146.05,474.138c7.853-25.263,10.581-30.86,47.63-50.194
					c37.049-19.334,183.577-107.274,183.577-107.274s18.791,4.857,19.571,33.171c0,0,60.299,9.68,73.306,92.574
					c12.231,77.951-175.641,18.161-217.953,13.074S179.408,442.927,146.05,474.138z"/>
				<path style="fill:#EF7F1B;" d="M396.828,349.841c-0.434-15.753-6.442-24.239-11.689-28.673
					c-0.297,12.8-9.31,21.431-37.601,30.665c-36.632,11.956-68.588,29.269-85.299,44.144c0,0,83.32-50.811,140.183-44.714
					C398.926,350.178,396.828,349.841,396.828,349.841z"/>
				<path style="fill:#EF7F1B;" d="M438.361,373.667c12.522,56.005-23.919,63.559-84.209,48.978
					c-19.569-4.733-133.107-20.796-178.414,32.725c23.047-8.163,46.846-3.44,76.443,0.119
					c42.312,5.088,230.184,64.878,217.953-13.074C464.886,408.97,451.939,387.448,438.361,373.667z"/>
				<path style="fill:none;stroke:#1C1C26;stroke-width:3.1776;stroke-miterlimit:10;" d="M146.05,474.138
					c7.853-25.263,10.581-30.86,47.63-50.194c37.049-19.334,183.577-107.274,183.577-107.274s18.791,4.857,19.571,33.171
					c0,0,60.299,9.68,73.306,92.574c12.231,77.951-175.641,18.161-217.953,13.074S179.408,442.927,146.05,474.138z"/>
			</g>
			<g>
				<path style="fill:#1C1C26;" d="M396.726,351.426c-8.013-0.363-16.114,0.54-24.076,2.09c-7.965,1.584-15.84,3.712-23.625,6.145
					c-7.791,2.422-15.461,5.265-23.065,8.269c-7.612,2.988-15.152,6.179-22.62,9.54c-14.961,6.671-29.583,14.102-44.118,21.695
					c-7.262,3.809-14.498,7.675-21.722,11.572c-7.2,3.941-14.403,7.882-21.572,11.908c6.758-4.685,13.683-9.129,20.702-13.412
					c7-4.318,14.101-8.473,21.283-12.486c3.595-1.999,7.207-3.969,10.833-5.914c3.644-1.91,7.285-3.828,10.961-5.679
					c7.336-3.733,14.733-7.353,22.218-10.793c14.942-6.932,30.235-13.194,46.008-18.166c7.887-2.472,15.894-4.64,24.067-6.14
					c8.162-1.492,16.524-2.38,24.93-1.8L396.726,351.426z"/>
			</g>
			<g>
				<path style="fill:#1C1C26;" d="M169.468,456.352c2.733-3.322,5.858-6.261,9.124-8.983c3.268-2.729,6.759-5.151,10.334-7.404
					c3.572-2.261,7.234-4.367,10.999-6.254c3.753-1.909,7.555-3.712,11.414-5.37c7.691-3.384,15.618-6.162,23.589-8.722
					c8.008-2.451,16.096-4.643,24.309-6.222c-4.001,1.209-7.969,2.497-11.918,3.838c-3.955,1.318-7.878,2.724-11.776,4.187
					c-7.824,2.845-15.499,6.063-23.043,9.511c-7.531,3.475-14.852,7.386-21.8,11.815c-1.748,1.094-3.424,2.283-5.113,3.456
					c-1.643,1.23-3.295,2.448-4.87,3.753c-3.174,2.581-6.146,5.388-8.815,8.439L169.468,456.352z"/>
			</g>
		</g>
		<g>
			<g>
				<path style="fill:#F9A723;" d="M277.056,226.653c-1.507,0.629-3.239-0.083-3.868-1.59c-0.629-1.507,0.082-3.239,1.59-3.868
					c3.489-1.457,5.143-5.481,3.686-8.971c-1.457-3.49-8.971-3.687-8.971-3.687l-2.279-5.458c0,0,12.191-3.952,16.707,6.866
					C286.635,216.445,283.555,223.939,277.056,226.653z"/>
			</g>
			<g>
				<path style="fill:none;stroke:#1C1C26;stroke-width:3.1776;stroke-miterlimit:10;" d="M267.215,203.079
					c6.499-2.713,13.994,0.367,16.707,6.866c2.713,6.499-0.367,13.994-6.866,16.707c-1.507,0.629-3.239-0.083-3.868-1.59
					c-0.629-1.507,0.082-3.239,1.59-3.868c3.489-1.457,5.143-5.481,3.686-8.971c-1.457-3.49-5.481-5.144-8.971-3.687"/>
			</g>
		</g>
		<g>
			<g>
				<path style="fill:#F9A723;" d="M293.943,240.744c-1.219-1.088-1.324-2.957-0.237-4.176c1.088-1.218,2.957-1.325,4.175-0.237
					c2.821,2.518,7.165,2.272,9.683-0.549c2.518-2.821-0.549-9.683-0.549-9.683l3.939-4.412c0,0,8.829,9.289,1.022,18.034
					C307.287,244.975,299.197,245.434,293.943,240.744z"/>
			</g>
			<g>
				<path style="fill:none;stroke:#1C1C26;stroke-width:3.1776;stroke-miterlimit:10;" d="M310.955,221.687
					c5.254,4.69,5.713,12.78,1.022,18.034c-4.69,5.254-12.78,5.713-18.034,1.022c-1.219-1.088-1.324-2.957-0.237-4.176
					c1.088-1.218,2.957-1.325,4.175-0.237c2.821,2.518,7.165,2.272,9.683-0.549c2.518-2.821,2.272-7.165-0.549-9.683"/>
			</g>
		</g>
		<path style="fill:#9B736D;" d="M142.201,197.561c20.186-22.02,40.112-5.609,45.842,14.056c5.73,19.665-37.898,1.823-37.898,1.823
			L142.201,197.561z"/>
		<g>
			<path style="fill:#FFFFFF;" d="M146.702,251.079c26.896,0,31.808-29.392,31.808-29.392s-11.513-24.192-31.808-24.192
				c0,0-8.179,5.382-8.179,26.792C138.523,245.697,146.702,251.079,146.702,251.079z"/>
			<path style="fill:#E3EDFC;" d="M146.702,197.496c0,0-4.274,2.818-6.642,12.467c7.178,6.041,28.499,0.349,38.363,12.181
				c0.058-0.286,0.087-0.455,0.087-0.455S166.997,197.496,146.702,197.496z"/>
			<ellipse style="fill:#1C1C26;" cx="146.825" cy="224.288" rx="10.983" ry="26.726"/>
			<path style="fill:#FFFFFF;" d="M160.779,216.2c0,3.214-1.73,5.82-3.864,5.82c-2.134,0-3.863-2.606-3.863-5.82
				c0-3.214,1.73-5.82,3.863-5.82C159.049,210.38,160.779,212.985,160.779,216.2z"/>
			<path style="fill:#1C1C26;" d="M176.634,216.631c-0.83-1.599-1.777-3.137-2.781-4.647c-2.037-2.998-4.444-5.786-7.215-8.238
				c-0.715-0.584-1.377-1.247-2.147-1.769l-2.284-1.62c-0.783-0.51-1.618-0.942-2.43-1.416c-0.411-0.229-0.817-0.472-1.235-0.688
				l-1.297-0.565c-3.87-1.901-8.67-2.808-12.438-3.394l-6.673,7.608l7.772-1.608c3.249,0.203,6.567,0.515,9.684,1.653l1.192,0.361
				c0.387,0.148,0.763,0.324,1.147,0.484c0.759,0.339,1.546,0.632,2.294,1.007l2.206,1.219c0.751,0.389,1.409,0.926,2.124,1.383
				c2.793,1.924,5.383,4.227,7.675,6.835c1.133,1.313,2.228,2.673,3.221,4.112c1.008,1.435,1.924,2.909,3.061,4.339
				C178.225,219.876,177.49,218.206,176.634,216.631z"/>
			<g>
				<path style="fill:#1C1C26;" d="M143.365,196.968c0.545-0.842,1.25-1.551,2.029-2.124c0.785-0.57,1.647-0.969,2.518-1.305
					c1.76-0.615,3.587-0.826,5.377-0.823c3.592,0.035,7.069,0.955,10.278,2.365c3.208,1.426,6.156,3.388,8.697,5.766
					c1.273,1.186,2.424,2.492,3.483,3.858c1.05,1.376,1.943,2.859,2.763,4.365c-0.966-1.422-2.037-2.757-3.16-4.036
					c-1.147-1.26-2.386-2.424-3.678-3.513c-2.616-2.145-5.54-3.889-8.651-5.133c-3.117-1.209-6.44-1.928-9.719-1.875
					c-1.634,0.04-3.249,0.307-4.727,0.837c-0.721,0.294-1.422,0.632-2.02,1.083c-0.593,0.454-1.1,0.987-1.483,1.592L143.365,196.968
					z"/>
			</g>
		</g>
	</g>
</g>
</svg>
