<?xml version="1.0" encoding="utf-8"?>
<!-- Generator: Adobe Illustrator 27.5.0, SVG Export Plug-In . SVG Version: 6.00 Build 0)  -->
<svg version="1.1" xmlns="http://www.w3.org/2000/svg" xmlns:xlink="http://www.w3.org/1999/xlink" x="0px" y="0px"
	 viewBox="0 0 500 500" style="enable-background:new 0 0 500 500;" xml:space="preserve">
<g id="BACKGROUND">
	<rect style="fill:#FFE6CA;" width="500" height="500"/>
</g>
<g id="OBJECTS">
	<ellipse style="fill:#F7CFA9;" cx="250" cy="404.154" rx="140.095" ry="28.579"/>
	<g>
		<g>
			<path style="fill:#D34E36;" d="M377.686,147.913c-0.038-0.223-0.076-0.441-0.114-0.664c-1.392-7.855-4.77-14.681-10.754-20.17
				c-3.884-3.563-8.154-6.582-12.712-9.198c-3.1-1.773-6.272-3.378-9.503-4.83c-6.081-2.742-12.375-4.961-18.799-6.859
				c-14.213-4.205-28.747-6.712-43.483-8.137c-9.704-0.941-19.43-1.316-25.217-1.311c-11.657,0.065-21.382,0.517-30.499,1.398
				c-4.02,0.386-7.92,0.859-11.814,1.42c-11.281,1.621-22.405,3.938-33.3,7.305c-9.704,2.997-19.109,6.723-27.872,11.934
				c-5.347,3.177-10.319,6.832-14.491,11.499c-1.034,1.153-1.996,2.366-2.72,3.748c-2.067,3.949-3.585,8.045-4.292,12.342
				c-0.332,1.964-0.484,3.971-0.446,6.021c0.136,6.99-0.12,13.979,0.223,20.969c0.5,10.074,0.984,20.142,2.431,30.14
				c0.783,5.396,1.79,10.743,2.785,16.101c0.027,0.147,0.054,0.299,0.082,0.446c0.033,0.185,0.071,0.37,0.103,0.555
				c0.99,5.352,2.508,10.585,4.384,15.698c1.692,4.591,3.683,9.051,6.065,13.332c2.355,4.232,5.233,8.127,7.969,12.108
				c2.121,3.09,4.64,5.858,7.186,8.6c0.702,0.756,1.414,1.496,2.143,2.214c3.122,3.111,6.495,5.935,10.079,8.507
				c5.276,3.786,11.042,6.734,16.803,9.666c6.62,3.362,13.49,6.174,20.594,8.339c5.624,1.719,11.309,3.237,17.129,4.161
				c4.439,0.702,8.866,1.425,13.359,1.675c4.83,0.272,9.65,0.642,14.501,0.435c3.035-0.125,6.07-0.266,9.106-0.479
				c4.977-0.343,9.9-1.093,14.817-1.926c5.749-0.968,11.412-2.323,17.009-3.933c5.021-1.447,9.922-3.258,14.714-5.358
				c6.342-2.785,12.467-5.973,18.26-9.797c2.703-1.784,5.216-3.824,7.751-5.836c4.042-3.209,7.403-7.093,10.852-10.884
				c1.605-1.768,3.03-3.71,4.417-5.657c1.991-2.801,3.982-5.613,5.777-8.545c1.926-3.144,3.563-6.462,5.119-9.813
				c2.567-5.532,4.536-11.292,6.364-17.096c1.257-4.003,2.116-8.11,2.856-12.239c0.968-5.369,1.768-10.759,2.393-16.177
				c0.305-2.568,0.566-5.135,0.789-7.713c0.544-6.321,0.854-12.652,1.023-18.995C378.953,163.219,378.926,155.533,377.686,147.913z
				 M226.126,248.7c-6.827-5.156-9.905-12.206-9.753-20.692c0.098-5.195,1.719-9.905,4.885-14.039
				c7.74-10.123,21.894-11.232,31.108-2.421c5.14,4.917,7.545,11.037,7.664,17.934c-0.092,6.739-2.187,12.516-6.859,17.227
				C245.795,254.14,234.487,255.021,226.126,248.7z M269.685,253.145c-0.517-1.887-2.399-3.019-4.58-2.725
				c-1.849,0.245-3.383,1.131-4.754,2.35c-0.299,0.261-0.566,0.571-0.897,0.783c-0.832,0.533-1.773,0.43-2.475-0.229
				c-0.696-0.647-0.854-1.588-0.408-2.459c0.065-0.136,0.136-0.267,0.234-0.381c2.094-2.459,6.674-5.211,11.129-3.938
				c3.476,0.995,5.739,3.906,5.679,7.659c-0.087,1.697-0.772,3.498-1.931,5.113c-1.42,1.974-3.22,3.53-5.369,4.673
				c-0.441,0.234-0.887,0.457-1.403,0.468c-0.789,0.016-1.414-0.37-1.648-1.039c-0.245-0.68-0.038-1.425,0.56-1.871
				c0.277-0.201,0.615-0.321,0.908-0.506c2.029-1.273,3.721-2.861,4.64-5.124C269.729,255.032,269.946,254.113,269.685,253.145z
				 M280.613,266.841c-0.506,0.468-1.104,0.865-1.719,1.186c-1.305,0.68-1.806,1.817-1.904,3.177
				c-0.071,0.995-0.016,1.991,0.141,2.986c0.332,2.067,0.642,4.15,0.778,6.239c0.038,0.533,0.06,1.066,0.071,1.599v0.043
				c0.044,2.905-0.152,5.842-2.192,8.186c-2.676,3.068-6.011,5.042-10.041,5.804c-2.72,0.511-5.434,0.691-8.181,0.201
				c-5.042-0.892-8.926-3.552-11.847-7.686c-0.054-0.076-0.109-0.158-0.163-0.239c-1.447-2.1-2.47-4.395-3.117-6.859
				c-0.06-0.218-0.114-0.435-0.163-0.653c-0.582-2.475-1.213-4.939-1.828-7.409c-0.566-2.285-1.333-4.498-2.453-6.576
				c-0.256-0.479-0.582-0.93-0.887-1.382c-0.413-0.609-0.892-0.903-1.632-0.452c-0.468,0.288-1.017,0.408-1.577,0.381
				c-0.881-0.043-1.55-0.56-1.768-1.36c-0.223-0.843,0.158-1.708,0.995-2.121c0.397-0.196,0.854-0.277,1.257-0.468
				c2.067-0.941,3.34-2.48,3.503-4.809c0.011-0.152-0.011-0.305,0.011-0.452c0.131-1.072,0.669-1.637,1.572-1.664
				c0.903-0.033,1.529,0.511,1.703,1.539c0.19,1.11-0.016,2.192-0.348,3.247c-0.158,0.484-0.103,0.838,0.316,1.18
				c3.9,3.166,7.98,5.989,12.935,7.305c2.665,0.707,5.363,1.153,9.361,1.12c3.878-0.054,8.741-1.213,13.381-3.345
				c1.224-0.566,2.431-1.159,3.65-1.724c0.745-0.348,1.11-0.169,1.213,0.642C281.804,265.465,281.288,266.226,280.613,266.841z
				 M303.23,246.704c-7.403,7.414-18.641,8.257-27.067,2.029c-6.168-4.558-9.786-11.951-9.775-21.013
				c0.082-5.461,2.159-11.194,6.772-15.878c7.272-7.392,18.353-8.322,26.806-2.306C311.944,218.055,313.549,236.364,303.23,246.704z
				 M365.001,156.556c-1.866,3.421-4.498,6.212-7.463,8.703c-2.97,2.486-6.179,4.585-9.541,6.429
				c-2.056,1.126-4.167,2.154-6.315,3.122c-9.416,4.237-19.283,7.082-29.346,9.263c-11.581,2.508-23.297,4.047-35.117,4.879
				c-7.022,0.5-14.061,0.696-19.952,0.772c-10.754-0.033-20.839-0.49-30.722-1.485c-3.345-0.337-6.674-0.74-9.992-1.208
				c-13.267-1.866-26.332-4.645-38.968-9.204c-6.734-2.426-13.234-5.347-19.245-9.269c-4.254-2.769-8.132-5.967-11.129-10.117
				c-2.018-2.796-3.432-5.847-3.868-9.301c-0.544-4.346,0.517-8.322,2.763-12.021c1.703-2.796,3.895-5.178,6.359-7.322
				c4.406-3.835,9.394-6.745,14.648-9.242c9.013-4.281,18.494-7.186,28.187-9.443c11.194-2.611,22.546-4.254,34.002-5.227
				c1.931-0.163,3.862-0.31,5.793-0.435c10.427-0.696,20.871-0.838,31.32-0.402c18.701,0.783,37.195,3.079,55.287,8.05
				c7.441,2.045,14.708,4.531,21.638,7.871c1.702,0.816,3.389,1.692,5.048,2.622c4.368,2.448,8.469,5.282,11.989,8.883
				c1.86,1.904,3.497,3.976,4.743,6.332C368.27,144.742,368.216,150.671,365.001,156.556z"/>
			<path style="fill:#C23D2A;" d="M378.752,170.911c-0.169,6.342-0.479,12.674-1.023,18.995c-0.223,2.578-0.484,5.146-0.789,7.713
				c-0.626,5.418-1.425,10.808-2.393,16.177c-0.74,4.128-1.599,8.235-2.856,12.239c-1.828,5.804-3.797,11.564-6.364,17.096
				c-1.556,3.351-3.193,6.669-5.119,9.813c-1.795,2.932-3.786,5.744-5.777,8.545c-1.387,1.947-2.812,3.889-4.417,5.657
				c-3.449,3.791-6.81,7.675-10.852,10.884c-2.535,2.013-5.048,4.052-7.751,5.836c-5.793,3.824-11.918,7.012-18.26,9.797
				c-4.792,2.1-9.693,3.911-14.714,5.358c-5.597,1.61-11.26,2.964-17.009,3.933c-4.917,0.832-9.84,1.583-14.817,1.926
				c-3.035,0.212-6.07,0.354-9.106,0.479c-4.852,0.207-9.671-0.163-14.501-0.435c-4.493-0.25-8.921-0.974-13.359-1.675
				c-5.82-0.925-11.505-2.442-17.129-4.161c-7.104-2.165-13.974-4.977-20.594-8.339c-5.76-2.932-11.526-5.88-16.803-9.666
				c-3.585-2.573-6.957-5.396-10.079-8.507c10.738,4.536,22.492,7.463,33.828,10.036c13.903,3.155,27.992,6.206,42.243,5.924
				c1.485-0.033,2.965-0.098,4.444-0.196c10.634-0.712,21.116-3.122,31.391-6.016c0.343-0.098,0.691-0.196,1.033-0.294
				c11.407-3.253,22.77-7.262,32.414-14.137c18.657-13.289,28.704-35.748,33.763-58.088c2.954-13.055,3.971-25.614,3.84-38.114
				c-0.163-15.144-2.007-30.2-4.15-45.963c-0.212-1.594-0.413-3.204-0.506-4.754c-0.19-3.024,0.016-5.837,1.262-7.92
				c3.231,1.452,6.402,3.057,9.503,4.83c4.558,2.616,8.828,5.635,12.712,9.198c5.983,5.488,9.361,12.315,10.754,20.17
				c0.038,0.223,0.076,0.441,0.114,0.664C378.926,155.533,378.953,163.219,378.752,170.911z"/>
			<path style="fill:#DB5549;" d="M247.014,129.179l-5.412,21.529c-0.789,13.784-6.478,26.659-15.056,37.532
				c-6.892,8.741-15.649,16.193-25.239,21.79c-18.706,10.922-41.579,15.845-62.467,10.096c-0.582-0.158-1.159-0.326-1.73-0.506
				c-0.995-5.358-2.002-10.705-2.785-16.101c-1.447-9.998-1.931-20.066-2.431-30.14c-0.343-6.99-0.087-13.979-0.223-20.969
				c-0.038-2.051,0.114-4.058,0.446-6.021c0.707-4.297,2.225-8.393,4.292-12.342c0.724-1.382,1.686-2.595,2.72-3.748
				c4.172-4.667,9.144-8.322,14.491-11.499c8.763-5.211,18.168-8.937,27.872-11.934c10.895-3.367,22.019-5.684,33.3-7.305
				c3.895-0.56,7.795-1.033,11.814-1.42c3.09,2.154,5.951,4.602,8.491,7.311C241.319,112.04,245.681,120.134,247.014,129.179z"/>
			<path style="fill:#F8F1F0;" d="M160.728,274.043c-0.245,0.381-0.457,0.37-0.642,0.37c-4.787-0.049-9.574-0.147-14.344-0.587
				c-5.956-0.555-11.874-1.398-17.798-2.208c-2.051-0.283-1.822-0.288-1.49-1.975c0.049-0.267,0.098-0.533,0.136-0.799
				c0.517-3.302,0.234-6.614-0.218-9.916c-0.065-0.484-0.283-0.963-0.06-1.594c1.73,0.277,3.476,0.566,5.227,0.821
				c3.748,0.555,7.523,0.881,11.298,1.197c1.741,0.147,3.481,0.305,5.227,0.261c0.963-0.022,1.55,0.359,2.078,1.137
				c0.62,0.908,1.24,1.817,1.876,2.72c1.762,2.529,3.596,5.004,5.684,7.278C158.71,271.84,159.716,272.939,160.728,274.043z"/>
			<path style="fill:#623022;" d="M255.537,233.127c-0.218,1.507-0.587,2.937-1.099,4.275c-1.365,3.585-3.775,6.56-7.256,8.796
				c-2.627,1.686-5.532,2.442-8.643,2.551c-1.382,0.043-2.312-0.441-3.1-1.605c-2.023-2.986-2.959-6.283-3.084-9.851
				c-0.022-0.598-0.005-1.197-0.005-1.795c-0.011-5.363,1.05-10.498,3.274-15.383c1.126-2.475,2.627-4.7,4.613-6.576
				c2.888-2.72,4.286-2.888,7.392-0.495c3.541,2.725,5.902,5.951,7.142,9.611C255.853,225.838,256.092,229.347,255.537,233.127z"/>
			<path style="fill:#FFFFFF;" d="M230.22,241.014c-0.95-6.34-0.36-12.549,1.757-18.589c1.668-4.758,4.262-8.9,8.447-11.889
				c0.131-0.093,0.185-0.215,0.124-0.397c-0.298-0.315-0.721-0.244-1.105-0.276c-5.803-0.477-10.597,1.57-14.325,5.973
				c-7.125,8.415-5.834,21.936,2.697,28.927c1.314,1.076,2.722,2.003,4.41,2.603c0.153-0.446-0.026-0.643-0.138-0.852
				C231.154,244.785,230.511,242.955,230.22,241.014z"/>
			<path style="fill:#C23D2A;" d="M411.356,184.466c-0.016,15.867-4.743,27.415-12.826,37.646
				c-4.613,5.842-10.618,9.459-17.537,11.445c-1.224,0.348-2.48,0.647-3.759,0.897c-1.023,0.201-2.072,0.294-3.111,0.435
				c-0.642,0.087-0.816-0.207-0.615-0.789c0.065-0.185,0.136-0.37,0.201-0.56c2.698-7.806,4.509-15.823,5.782-23.966
				c0.022-0.152,0.065-0.299,0.071-0.446c0.011-1.197,0.571-1.735,1.762-2.148c6.06-2.1,9.432-6.451,10.177-12.794
				c0.392-3.329-0.098-6.576-1.311-9.699c-1.246-3.188-3.394-5.499-6.712-6.565c-0.593-0.19-0.789-0.468-0.767-1.055
				c0.071-1.643,0.092-3.291,0.158-4.934c0.082-2.012,0.12-4.025,0.103-6.032c-0.016-4.819-0.299-9.633-0.936-14.436
				c-0.158-1.202-0.125-1.251,1.153-1.164c2.355,0.158,4.64,0.685,6.837,1.539c7.686,2.986,13.397,8.127,17.042,15.551
				C410.127,173.614,411.323,180.229,411.356,184.466z"/>
			<path style="fill:#F8F1F0;" d="M380.307,266.776c-1.218,2.888-2.295,5.815-2.801,8.899c-0.12,0.756-0.207,1.518-0.256,2.29
				c-0.076,1.208-0.152,1.251-1.376,1.088c-8.339-1.115-16.721-1.996-24.94-3.889c-0.653-0.152-1.382-0.169-2.018-0.729
				c1.164-1.273,2.301-2.502,3.427-3.748c1.289-1.425,2.491-2.921,3.65-4.449c0.8-1.05,1.577-2.116,2.35-3.182
				c0.517-0.718,0.99-0.816,1.746-0.642c5.341,1.235,10.759,2.056,16.193,2.752c1.431,0.185,2.888,0.092,4.275,0.484
				C380.802,266.123,380.449,266.439,380.307,266.776z"/>
			<path style="fill:#623022;" d="M305.918,230.141c-0.114,2.796-0.653,5.45-1.708,7.876c-1.36,3.144-3.59,5.913-6.886,8.121
				c-1.376,0.925-2.905,1.534-4.487,2.018c-0.729,0.223-1.327,0.114-1.937-0.381c-0.821-0.669-1.594-1.36-2.192-2.236
				c-6.56-9.579-7.904-19.832-3.938-30.755c0.517-1.414,1.207-2.736,2.159-3.916c0.653-0.811,1.409-1.148,2.47-1.028
				c3.971,0.446,7.392,2.062,10.232,4.819c1.953,1.898,3.421,4.009,4.444,6.348C305.27,223.733,305.858,226.769,305.918,230.141z"/>
			<path style="fill:#FFFFFF;" d="M284.362,210.301c-0.067-0.029-0.116-0.072-0.157-0.065c-0.196,0.028-0.394,0.055-0.584,0.108
				c-3.896,1.096-6.993,3.333-9.345,6.605c-4.883,6.793-4.999,16.392-0.262,23.529c2.771,4.175,6.571,6.9,11.515,7.937
				c0.659,0.138,1.332,0.306,2.094,0.098C278.889,236.366,277.46,223.676,284.362,210.301z"/>
			<ellipse style="fill:#E79A8D;" cx="214.587" cy="254.853" rx="10.179" ry="7.487"/>
			<ellipse style="fill:#E79A8D;" cx="311.201" cy="254.853" rx="10.179" ry="7.487"/>
			<path style="fill:#FFFFFF;" d="M255.537,233.127c-0.218,1.507-0.587,2.937-1.099,4.275c-0.446-1.18-1.164-2.274-2.045-3.166
				c-1.991-2.013-4.716-3.133-7.458-3.818c2.464-0.691,4.749-1.991,6.647-3.71c0.838-0.767,1.605-1.61,2.279-2.524
				c0.261-0.364,0.555-0.995,0.908-1.529C255.853,225.838,256.092,229.347,255.537,233.127z"/>
			<path style="fill:#FFFFFF;" d="M305.918,230.141c-0.114,2.796-0.653,5.45-1.708,7.876c-0.272-1.534-0.892-3.024-1.795-4.297
				c-1.822-2.573-4.7-4.308-7.773-5.015c2.703-0.169,5.396-1.257,7.262-3.231c1.278-1.349,1.828-2.829,2.17-4.466
				C305.27,223.733,305.858,226.769,305.918,230.141z"/>
			<g>
				<path style="fill:#623022;" d="M247.802,380.64c-1.708,1.648-3.623,2.965-5.755,3.998c-5.086,2.459-10.449,4.014-16.035,4.634
					c-7.158,0.794-14.186,2.198-21.181,3.851c-4.031,0.957-8.11,1.675-12.244,2.089c-6.701,0.68-13.006-0.582-18.989-3.623
					c-0.751-0.381-1.093-0.887-1.229-1.708c-0.93-5.608-0.25-11.059,1.751-16.329c1.512-3.993,3.693-7.648,6.326-10.999
					c3.726-4.754,8.491-7.708,13.996-9.334c1.447-0.43,2.943-0.767,4.488-1.023c4.721-0.778,9.35-0.332,13.909,1.017
					c2.143,0.636,3.938,1.915,5.624,3.345c1.556,1.333,2.992,2.796,4.417,4.265c0.451,0.462,0.908,0.93,1.36,1.398
					c0.364,0.381,0.789,0.729,1.289,0.326c0.479-0.381,0.288-0.908,0.044-1.365c-0.082-0.152-0.174-0.299-0.266-0.446
					c-0.141-0.239-0.288-0.468-0.441-0.702c-3.628-5.624-8.6-9.503-15.203-11.515c0.843-1.637,2.078-2.845,2.937-4.303
					c0.25-0.424,0.609-0.18,0.919-0.038c1.469,0.658,3.003,1.055,4.591,1.295c1.061,0.158,2.094,0.011,3.128-0.174
					c0.234-0.044,0.473-0.152,0.68-0.283c0.321-0.196,0.5-0.495,0.408-0.881c-0.076-0.305-0.261-0.528-0.598-0.593
					c-0.441-0.082-0.876-0.19-1.316-0.277c-1.898-0.359-3.552-1.273-5.157-2.301c-3.525-2.268-3.71-5.777-2.774-8.817
					c0.413-1.338,1.213-2.383,2.306-3.231l0.005-0.005c0.517-0.403,1.082-0.702,1.735-0.827c1.387-0.272,1.615-0.103,1.556,1.267
					c-0.049,1.202-0.011,2.399,0.174,3.585c0.375,2.431,1.643,4.254,3.808,5.423c0.528,0.283,1.082,0.528,1.648,0.713
					c2.899,0.963,5.88,1.153,8.866,0.587c4.221-0.8,6.56-3.269,7.251-7.474c0.207-1.251,0.245-1.246,1.518-1.278
					c1.083-0.027,2.247,0.359,3.122,1.131c0.859,0.762,1.436,1.898,1.371,3.394c-0.054,1.202-0.109,2.404-0.468,3.552
					c-0.772,2.48-2.383,4.205-4.776,5.244c-2.094,0.914-4.297,1.246-6.549,1.414c-0.451,0.033-1.175-0.207-1.267,0.424
					c-0.092,0.637,0.62,0.832,1.115,1.034c2.35,0.957,4.781,0.919,7.218,0.468c1.958-0.359,1.942-0.392,2.415,1.518
					c1.24,5.059,2.078,10.172,1.779,15.41c-0.179,3.106,0.354,6.049,1.703,8.866c0.778,1.621,1.278,3.351,1.518,5.151
					C248.646,379.378,248.444,380.02,247.802,380.64z"/>
				<path style="fill:#F8F1F0;" d="M289.001,331.293c-0.071,2.23-0.751,3.166-2.872,3.851c-2.323,0.756-4.705,0.887-7.088,0.321
					c-1.996-0.479-3.253-1.708-3.465-3.819c-0.147-1.49-0.272-2.981-0.337-4.477c-0.06-1.447-0.131-2.894-0.201-4.341
					c-0.152-2.834-0.337-5.668-0.566-8.496c-0.12-1.452-0.25-2.899-0.392-4.346c-0.114-1.137-0.038-1.273,1.159-1.431
					c2.121-0.272,4.232-0.598,6.332-1.001c1.616-0.305,3.231-0.598,4.846-0.914c1.028-0.196,1.104-0.212,1.208,0.881
					c0.092,0.957,0.163,1.915,0.228,2.872c0.071,1.033,0.13,2.067,0.19,3.106c0.142,2.421,0.332,4.841,0.528,7.256
					c0.152,1.866,0.305,3.731,0.441,5.597C289.012,328.002,289.055,329.65,289.001,331.293z"/>
				<path style="fill:#F8F1F0;" d="M237.119,310.721c-0.065,0.669-0.125,1.338-0.18,2.007c-0.277,3.182-0.49,6.364-0.664,9.557
					c-0.142,2.513-0.261,5.031-0.381,7.55c-0.027,0.593-0.152,1.186-0.201,1.784c-0.185,2.056-1.365,3.307-3.28,3.791
					c-2.731,0.68-5.445,0.511-8.067-0.577c-1.153-0.479-1.773-1.36-1.985-2.605c-0.277-1.648-0.038-3.285,0.022-4.923
					c0.027-0.702,0.065-1.398,0.098-2.094h-0.016c0.093-1.469,0.19-2.937,0.288-4.406c0.228-3.617,0.468-7.229,0.702-10.846
					c0.033-0.49,0.065-0.985,0.098-1.474c0.011-0.196,0.043-0.397,0.049-0.593c0.006-0.691,0.267-1.028,1.012-0.832
					c0.484,0.12,0.995,0.136,1.474,0.267c3.041,0.859,6.174,1.104,9.29,1.496c0.098,0.011,0.196,0.022,0.294,0.038
					C237.217,309.144,237.304,308.79,237.119,310.721z"/>
				<path style="fill:#623022;" d="M339.055,389.098c-0.201,1.43-0.794,2.257-2.127,2.899c-6.614,3.171-13.517,4.025-20.724,2.937
					c-5.184-0.778-10.324-1.779-15.394-3.111c-4.896-1.278-9.911-1.795-14.904-2.442c-5.624-0.729-11.069-2.105-16.226-4.526
					c-2.328-1.093-4.444-2.459-6.266-4.286c-0.588-0.587-0.778-1.153-0.674-1.991c0.261-2.062,0.936-3.987,1.784-5.848
					c1.034-2.274,1.545-4.624,1.409-7.12c-0.31-5.537,0.446-10.955,1.757-16.318c0.12-0.484,0.239-0.968,0.364-1.452
					c0.12-0.457,0.354-0.626,0.87-0.517c1.169,0.256,2.35,0.457,3.552,0.522c1.409,0.082,2.791-0.071,4.139-0.468
					c0.473-0.141,0.93-0.365,1.376-0.582c0.326-0.158,0.62-0.413,0.511-0.805c-0.092-0.337-0.462-0.316-0.762-0.332
					c-2.149-0.125-4.259-0.392-6.31-1.126c-4.944-1.773-6.402-5.875-5.837-10.373c0.092-0.74,0.473-1.414,1.023-1.953
					c1.05-1.044,2.72-1.616,4.145-1.262c0.337,0.082,0.522,0.245,0.577,0.587c0.06,0.392,0.141,0.783,0.207,1.18
					c0.528,3.351,2.518,5.548,5.652,6.533c3.944,1.24,7.903,0.99,11.684-0.734c2.703-1.229,4.02-3.492,4.237-6.402
					c0.076-1.044,0.011-2.094,0.038-3.144c0.022-0.892,0.19-1.028,1.088-0.947c1.746,0.152,2.948,1.202,3.808,2.584
					c0,0.005,0.005,0.016,0.011,0.022c1.425,2.301,1.529,4.797,0.664,7.343c-0.25,0.729-0.734,1.295-1.289,1.811
					c-1.822,1.708-3.949,2.856-6.375,3.454c-0.435,0.103-0.876,0.201-1.316,0.272c-0.446,0.071-0.756,0.261-0.789,0.745
					c-0.027,0.462,0.245,0.751,0.642,0.908c0.272,0.114,0.577,0.158,0.865,0.218c2.355,0.468,4.558-0.152,6.723-0.957
					c1.257-0.468,1.24-0.484,2.056,0.664c0.778,1.088,1.577,2.16,2.475,3.389c-2.829,0.898-5.276,2.013-7.523,3.514
					c-0.217,0.147-0.435,0.294-0.647,0.446c-3.139,2.236-5.597,5.091-7.61,8.355c-0.326,0.528-0.892,1.169-0.218,1.73
					c0.712,0.593,1.153-0.158,1.599-0.593c1.561-1.539,3.09-3.122,4.683-4.629c2.513-2.377,5.396-3.933,8.861-4.683
					c8.453-1.839,16.237-0.332,23.558,4.074c1.637,0.984,3.111,2.192,4.395,3.595c0.544,0.593,1.066,1.191,1.577,1.806
					c3.628,4.373,6.348,9.269,7.833,14.844C339.283,380.912,339.631,384.97,339.055,389.098z"/>
				<path style="fill:#FFFFFF;" d="M337.564,394.423c-0.577,1.637-1.474,3.073-2.79,4.259c-1.403,1.257-3.051,2.089-4.836,2.611
					c-6.359,1.86-12.815,2.47-19.392,1.425c-4.128-0.653-8.175-1.675-12.146-2.943c-0.016-0.005-0.038-0.011-0.054-0.016
					c-5.826-1.855-11.776-3.051-17.831-3.775c-4.401-0.533-8.567-1.898-12.576-3.726c-3.585-1.643-5.341-4.64-5.157-8.475
					c0.218-0.076,0.381,0.038,0.539,0.163c4.433,3.443,9.59,5.244,14.942,6.609c4.118,1.044,8.339,1.534,12.549,2.007
					c0.582,0.065,1.159,0.141,1.735,0.223c3.323,0.495,6.576,1.311,9.851,2.061c5.396,1.235,10.803,2.437,16.335,2.91
					c6.206,0.528,12.125-0.533,17.76-3.193c0.267-0.13,0.549-0.234,0.821-0.348C337.396,394.287,337.483,394.358,337.564,394.423z"
					/>
				<path style="fill:#FFFFFF;" d="M248.607,383.833c-0.277,2.54-0.691,4.977-2.758,6.794c-0.984,0.87-2.111,1.501-3.313,2.007
					c-4.156,1.752-8.442,3.062-12.94,3.525c-4.781,0.495-9.426,1.55-14.028,2.828c-1.496,0.413-2.992,0.854-4.482,1.305
					c-4.058,1.229-8.175,2.257-12.407,2.693c-6.136,0.631-12.157,0.005-18.016-1.936c-3.073-1.017-5.418-2.926-6.718-5.973
					c-0.092-0.223-0.152-0.457-0.229-0.68c0.424-0.316,0.713,0.005,0.99,0.141c6.946,3.345,14.235,3.998,21.763,2.774
					c5.07-0.827,10.107-1.822,15.078-3.117c4.308-1.126,8.725-1.605,13.125-2.154c0.196-0.027,0.397-0.049,0.593-0.076
					c5.706-0.745,11.287-1.991,16.563-4.406c2.051-0.936,4.031-1.964,5.809-3.367C247.857,384.018,248.053,383.74,248.607,383.833z"
					/>
				<path style="fill:#F0C930;" d="M236.276,322.285c-0.071,1.213-0.131,2.426-0.196,3.644c-0.06,1.3-0.125,2.6-0.185,3.905
					c-0.027,0.593-0.152,1.186-0.201,1.784c-0.185,2.056-1.365,3.307-3.28,3.791c-2.731,0.68-5.445,0.511-8.067-0.577
					c-1.153-0.479-1.773-1.36-1.985-2.605c-0.174-1.023-0.147-2.045-0.087-3.062c0.038-0.62,0.087-1.24,0.109-1.86
					c0.027-0.702,0.065-1.398,0.098-2.094h-0.016c0.093-1.469,0.19-2.937,0.288-4.406
					C227.334,321.801,231.702,322.552,236.276,322.285z"/>
				<path style="fill:#F0C930;" d="M289.023,330.303c-0.005,0.332-0.011,0.658-0.022,0.99c-0.071,2.23-0.751,3.166-2.872,3.851
					c-2.323,0.756-4.705,0.887-7.088,0.321c-1.996-0.479-3.253-1.708-3.465-3.819c-0.12-1.186-0.223-2.377-0.288-3.568
					c-0.022-0.305-0.038-0.604-0.049-0.908c-0.06-1.447-0.131-2.894-0.201-4.341c0.5,0.065,1.001,0.131,1.501,0.174
					c4.128,0.359,8.257-0.517,12.032-2.246c0.152,1.866,0.305,3.731,0.441,5.597C289.012,327.67,289.039,328.987,289.023,330.303z"
					/>
				<path style="fill:#57281D;" d="M248.526,378.513c-0.239-1.801-0.74-3.53-1.518-5.151c-1.349-2.818-1.882-5.76-1.703-8.866
					c0.299-5.238-0.538-10.351-1.779-15.41c-0.473-1.909-0.457-1.877-2.415-1.518c-2.437,0.452-4.868,0.49-7.218-0.468
					c-0.495-0.201-1.208-0.397-1.115-1.034c0.092-0.631,0.816-0.392,1.267-0.424c2.252-0.169,4.455-0.5,6.549-1.414
					c2.393-1.039,4.003-2.763,4.776-5.244c0.359-1.148,0.413-2.35,0.468-3.552c0.065-1.496-0.511-2.633-1.371-3.394
					c-0.277,2.6-1.262,5.129-2.867,7.196c-2.459,3.182-6.326,5.233-10.335,5.483c-0.838,0.049-1.942,0.245-2.04,1.077
					c-0.076,0.702,0.669,1.186,1.316,1.469c2.464,1.066,5.075,1.871,7.289,3.389c2.214,1.512,4.025,3.976,3.862,6.652
					c-0.125,2.078-1.393,3.916-1.752,5.962c-0.511,2.883,0.816,5.907,0.065,8.736c-0.783,2.959-3.688,4.923-6.647,5.684
					c-2.965,0.762-6.07,0.582-9.122,0.778c-3.781,0.245-7.523,1.083-11.048,2.464c-4.003,1.572-7.697,3.835-11.613,5.624
					c-3.911,1.795-8.192,3.128-12.467,2.665c-4.281-0.462-8.535-3.068-9.938-7.137c-1.137-3.298-0.76-8.53-0.212-11.976
					c0.526-3.313,2.043-8.591,4.633-10.931c-1.117,1.009-2.169,2.13-3.148,3.379c-2.633,3.351-4.814,7.006-6.326,10.999
					c-2.002,5.271-2.682,10.721-1.751,16.329c0.136,0.821,0.479,1.327,1.229,1.708c5.983,3.041,12.288,4.303,18.989,3.623
					c4.134-0.413,8.214-1.131,12.244-2.089c6.995-1.654,14.023-3.057,21.181-3.851c5.586-0.62,10.95-2.176,16.035-4.634
					c2.132-1.033,4.047-2.35,5.755-3.998C248.444,380.02,248.646,379.378,248.526,378.513z"/>
				<path style="fill:#723B2E;" d="M194.815,358.721c3.855-2.138,8.399-3.146,12.747-2.427c2.121,0.351,4.274,1.175,5.629,2.845
					c1.354,1.67,1.63,4.329,0.177,5.914c-1.479,1.612-3.968,1.57-6.15,1.737c-4.465,0.34-8.724,2.041-12.677,4.146
					c-1.376,0.733-2.746,1.525-4.261,1.895c-1.514,0.369-3.233,0.255-4.465-0.701C180.9,368.315,191.898,360.339,194.815,358.721z"
					/>
				<path style="fill:#57281D;" d="M225.305,360.737c-0.141-0.239-0.288-0.468-0.441-0.702c-3.628-5.624-8.6-9.503-15.203-11.515
					c0.843-1.637,2.078-2.845,2.937-4.303c0.25-0.424,0.609-0.18,0.919-0.038c1.469,0.658,3.003,1.055,4.591,1.295
					c1.061,0.158,2.094,0.011,3.128-0.174c0.234-0.044,0.473-0.152,0.68-0.283c0.321-0.196,0.5-0.495,0.408-0.881
					c-0.076-0.305-0.261-0.528-0.598-0.593c-0.441-0.082-0.876-0.19-1.316-0.277c-1.898-0.359-3.552-1.273-5.157-2.301
					c-3.525-2.268-3.71-5.777-2.774-8.817c0.413-1.338,1.213-2.383,2.306-3.231c-0.141,0.321-0.294,0.62-0.392,0.865
					c-0.555,1.382-0.805,2.856-0.62,4.335c0.332,2.638,1.991,5.08,4.324,6.353c1.251,0.685,2.687,1.061,3.775,1.98
					c1.088,0.919,1.67,2.703,0.707,3.753c-0.756,0.821-2.023,0.794-3.111,1.023c-1.093,0.234-2.284,1.246-1.833,2.263
					c0.207,0.451,0.674,0.718,1.11,0.963c1.567,0.887,3.057,1.964,4.199,3.356C224.527,355.738,225.37,358.246,225.305,360.737z"/>
				<path style="fill:#57281D;" d="M339.055,389.098c-0.201,1.43-0.794,2.257-2.127,2.899c-6.614,3.171-13.517,4.025-20.724,2.937
					c-5.184-0.778-10.324-1.779-15.394-3.111c-4.896-1.278-9.911-1.795-14.904-2.442c-5.624-0.729-11.069-2.105-16.226-4.526
					c-2.328-1.093-4.444-2.459-6.266-4.286c-0.588-0.587-0.778-1.153-0.674-1.991c0.261-2.062,0.936-3.987,1.784-5.848
					c1.034-2.274,1.545-4.624,1.409-7.12c-0.31-5.537,0.446-10.955,1.757-16.318c0.12-0.484,0.239-0.968,0.364-1.452
					c0.12-0.457,0.354-0.626,0.87-0.517c1.169,0.256,2.35,0.457,3.552,0.522c1.409,0.082,2.791-0.071,4.139-0.468
					c0.473-0.141,0.93-0.365,1.376-0.582c0.326-0.158,0.62-0.413,0.511-0.805c-0.092-0.337-0.462-0.316-0.762-0.332
					c-2.149-0.125-4.259-0.392-6.31-1.126c-4.944-1.773-6.402-5.875-5.837-10.373c0.092-0.74,0.473-1.414,1.023-1.953
					c0.082,0.974,0.114,1.893,0.201,2.557c0.468,3.421,2.497,6.38,5.891,7.49c1.708,0.555,3.579,0.571,5.233,1.278
					c1.659,0.707,3.095,2.529,2.47,4.216c-0.936,2.502-4.841,1.915-6.805,3.721c-1.577,1.452-1.414,4.004-0.734,6.038
					c0.68,2.04,1.762,4.047,1.615,6.185c-0.207,2.965-2.725,5.401-2.85,8.371c-0.109,2.649,1.8,5.053,4.134,6.326
					c2.328,1.267,5.031,1.637,7.659,1.996c3.884,0.533,7.849,1.131,11.303,2.975c2.66,1.42,4.917,3.536,7.626,4.863
					c3.47,1.702,7.447,2.002,11.314,2.062c4.313,0.06,8.97-0.272,12.309-2.997c2.742-2.236,4.129-5.733,4.868-9.187
					c1.12-5.276,0.936-10.808-0.457-16.014c3.628,4.373,6.348,9.269,7.833,14.844C339.283,380.912,339.631,384.97,339.055,389.098z"
					/>
				<path style="fill:#57281D;" d="M294.195,351.985c0.74-0.936,1.485-2.051,1.169-3.188c-0.337-1.202-1.719-1.795-2.965-1.882
					c-1.246-0.087-2.518,0.158-3.731-0.125c-1.213-0.288-2.399-1.398-2.127-2.622c0.256-1.164,1.594-1.681,2.72-2.078
					c2.475-0.876,4.879-2.165,6.587-4.156c2.029-2.366,2.198-4.749,2.203-7.332c0,0.005,0.005,0.016,0.011,0.022
					c1.425,2.301,1.529,4.797,0.664,7.343c-0.25,0.729-0.734,1.295-1.289,1.811c-1.822,1.708-3.949,2.856-6.375,3.454
					c-0.435,0.103-0.876,0.201-1.316,0.272c-0.446,0.071-0.756,0.261-0.789,0.745c-0.027,0.462,0.245,0.751,0.642,0.908
					c0.272,0.114,0.577,0.158,0.865,0.218c2.355,0.468,4.558-0.152,6.723-0.957c1.257-0.468,1.24-0.484,2.056,0.664
					c0.778,1.088,1.577,2.16,2.475,3.389C298.89,349.368,296.442,350.483,294.195,351.985z"/>
				<path style="fill:#723B2E;" d="M311.484,356.133c4.098,0.327,8.19,1.88,11.07,4.814c2.88,2.934,4.376,7.337,3.323,11.311
					c-0.833,3.144-3.793,6.022-6.999,5.468c-2.839-0.49-4.578-3.26-6.587-5.324c-2.542-2.612-5.987-4.329-9.603-4.786
					c-2.355-0.298-5.322-0.082-6.999-2.12c-1.583-1.924-0.512-3.892,1.184-5.298C300.728,357,306.592,355.743,311.484,356.133z"/>
				<path style="fill:#E0E0E0;" d="M225.267,391.965c-0.169,0.082-0.337,0.174-0.5,0.267c-3.329,1.855-6.261,4.314-9.198,6.756
					c-1.496,0.413-2.992,0.854-4.482,1.305c-4.058,1.229-8.175,2.257-12.407,2.693c-6.136,0.631-12.157,0.005-18.016-1.936
					c-3.073-1.017-5.418-2.926-6.718-5.973c-0.092-0.223-0.152-0.457-0.229-0.68c0.424-0.316,0.713,0.005,0.99,0.141
					c6.946,3.345,14.235,3.998,21.763,2.774c5.07-0.827,10.107-1.822,15.078-3.117c4.308-1.126,8.725-1.605,13.125-2.154
					C224.87,392.014,225.071,391.992,225.267,391.965z"/>
				<path style="fill:#E0E0E0;" d="M337.564,394.423c-0.577,1.637-1.474,3.073-2.79,4.259c-1.403,1.257-3.051,2.089-4.836,2.611
					c-6.359,1.86-12.815,2.47-19.392,1.425c-4.128-0.653-8.175-1.675-12.146-2.943c-1.028-1.311-2.002-2.676-3.062-3.965
					c-0.87-1.061-1.806-2.072-2.79-3.024c3.323,0.495,6.576,1.311,9.851,2.061c5.396,1.235,10.803,2.437,16.335,2.91
					c6.206,0.528,12.125-0.533,17.76-3.193c0.267-0.13,0.549-0.234,0.821-0.348C337.396,394.287,337.483,394.358,337.564,394.423z"
					/>
				<path style="fill:#ECB52B;" d="M236.08,325.93c-0.06,1.3-0.125,2.6-0.185,3.905c-0.027,0.593-0.152,1.186-0.201,1.784
					c-0.185,2.056-1.365,3.307-3.28,3.791c-2.731,0.68-5.445,0.511-8.067-0.577c-1.153-0.479-1.773-1.36-1.985-2.605
					c-0.174-1.023-0.147-2.045-0.087-3.062c1.594,0.941,3.454,1.441,5.303,1.376C230.951,330.417,233.883,328.546,236.08,325.93z"/>
				<path style="fill:#ECB52B;" d="M289.023,330.303c-0.005,0.332-0.011,0.658-0.022,0.99c-0.071,2.23-0.751,3.166-2.872,3.851
					c-2.323,0.756-4.705,0.887-7.088,0.321c-1.996-0.479-3.253-1.708-3.465-3.819c-0.12-1.186-0.223-2.377-0.288-3.568
					c2.241,2.328,5.537,3.677,8.796,3.536C285.808,331.538,287.489,331.076,289.023,330.303z"/>
				<path style="fill:#D5C4C3;" d="M237.119,310.721c-0.065,0.669-0.125,1.338-0.18,2.007c-4.313-0.745-8.611-1.637-12.886-2.627
					c-0.201-0.044-0.397-0.092-0.598-0.141c0.033-0.49,0.065-0.985,0.098-1.474c0.011-0.196,0.043-0.397,0.049-0.593
					c0.006-0.691,0.267-1.028,1.012-0.832c0.484,0.12,0.995,0.136,1.474,0.267c3.041,0.859,6.174,1.104,9.29,1.496
					c0.098,0.011,0.196,0.022,0.294,0.038C237.217,309.144,237.304,308.79,237.119,310.721z"/>
				<path style="fill:#D5C4C3;" d="M287.853,310.395c-4.237,2.056-8.768,3.258-13.381,3.938c-0.12-1.452-0.25-2.899-0.392-4.346
					c-0.114-1.137-0.038-1.273,1.159-1.431c2.121-0.272,4.232-0.598,6.332-1.001c1.616-0.305,3.231-0.598,4.846-0.914
					c1.028-0.196,1.104-0.212,1.208,0.881C287.717,308.48,287.788,309.437,287.853,310.395z"/>
			</g>
			<path style="fill:#D5C4C3;" d="M160.728,274.043c-0.245,0.381-0.457,0.37-0.642,0.37c-4.787-0.049-9.574-0.147-14.344-0.587
				c-5.956-0.555-11.874-1.398-17.798-2.208c-2.051-0.283-1.822-0.288-1.49-1.975c0.049-0.267,0.098-0.533,0.136-0.799
				c0.234,0,0.473,0.022,0.724,0.049c5.624,0.696,10.52,2.219,16.204,0.506c3.334-1.001,6.429-3.15,8.502-5.929
				c1.762,2.529,3.596,5.004,5.684,7.278C158.71,271.84,159.716,272.939,160.728,274.043z"/>
			<path style="fill:#D5C4C3;" d="M377.506,275.675c-0.12,0.756-0.207,1.518-0.256,2.29c-0.076,1.208-0.152,1.251-1.376,1.088
				c-8.339-1.115-16.721-1.996-24.94-3.889c-0.653-0.152-1.382-0.169-2.018-0.729c1.164-1.273,2.301-2.502,3.427-3.748
				c1.289-1.425,2.491-2.921,3.65-4.449c0.468,1.18,0.794,2.72,1.643,3.639c1.915,2.089,4.667,3.193,7.392,3.982
				C369.08,275.033,373.291,275.642,377.506,275.675z"/>
			<g>
				<path style="fill:#FFFFFF;" d="M123.212,264.007c0.114,3.503-0.402,6.881-1.713,10.123c-0.577,1.414-1.354,2.633-2.818,3.323
					c-2.491,1.164-4.662,0.016-5.059-2.698c-0.31-2.083-0.288-4.177-0.239-6.272c0.005-0.196,0.043-0.397,0.054-0.593
					c0.022-0.37-0.054-0.712-0.424-0.881c-0.462-0.212-0.772,0.103-1.017,0.408c-0.435,0.549-0.696,1.202-0.963,1.849
					c-0.451,1.11-0.898,2.219-1.42,3.296c-1.452,2.992-3.78,4.928-7.001,5.853c-2.154,0.62-4.297,1.3-6.348,2.23
					c-3.96,1.795-7.305,4.455-10.411,7.441c-2.013,1.931-3.965,3.933-5.983,5.858c-2.11,2.018-4.422,3.726-7.289,4.547
					c-0.99,0.277-1.991,0.343-2.916-0.098c-0.049-0.027-0.098-0.049-0.147-0.076c-2.247-1.213-2.698-2.654-2.078-4.836
					c0.56-1.958,1.654-3.628,2.997-5.124c2.344-2.595,4.906-4.961,7.697-7.082c0.952-0.718,1.849-1.017,3.008-0.43
					c0.658,0.332,1.36,0.577,2.062,0.816c0.337,0.114,0.674,0.223,1.012,0.343c0.326,0.12,0.674,0.229,1.017,0.245
					c0.364,0.011,0.664-0.207,0.794-0.571c0.065-0.19,0.082-0.37,0.027-0.528c-0.043-0.147-0.141-0.277-0.315-0.386
					c-0.207-0.136-0.419-0.266-0.636-0.386c-0.8-0.43-1.572-0.892-2.317-1.376c0,0,0-0.005-0.005-0.005
					c-0.506-0.326-0.995-0.669-1.474-1.023c0,0-0.006-0.011-0.011-0.011c-3.166-2.317-5.88-5.151-8.344-8.252
					c-1.338-1.681-2.29-3.617-3.302-5.505c-0.201-0.37-0.272-1.001-0.848-0.865c-0.517,0.12-0.446,0.729-0.501,1.142
					c-0.087,0.685-0.06,1.365,0.038,2.04c0.076,0.555,0.201,1.104,0.337,1.654c0.354,1.409,0.37,1.42-0.914,2.252
					c-2.812,1.828-5.45,3.862-7.686,6.375c-0.299,0.337-0.62,0.664-0.843,1.05c-0.522,0.881-1.273,1.039-2.187,0.805
					c-0.049-0.016-0.092-0.044-0.141-0.054c-0.897-0.25-1.648-0.593-2.246-1.012c-2.024-1.425-2.301-3.748-0.625-6.424
					c0.81-1.3,1.915-2.285,3.188-3.1c4.199-2.709,8.148-5.744,11.853-9.089c2.426-2.187,4.308-4.819,5.978-7.61
					c2.339-3.906,4.89-7.642,8.219-10.797c0.593-0.566,1.034-0.838,1.768-0.277c0.386,0.294,0.876,0.468,1.338,0.653
					c0.588,0.234,1.197,0.31,1.61-0.305c0.386-0.566,0.049-1.028-0.315-1.474c-1.485-1.811-2.872-3.699-4.074-5.717
					c-3.209-5.385-1.452-13.163,3.737-16.667c1.235-0.838,2.595-1.284,4.052-1.425c0.131-0.011,0.261-0.022,0.381-0.022
					c1.839-0.054,2.828,0.957,2.899,2.943c0.055,1.501-0.13,2.981-0.522,4.433c-0.413,1.545-0.767,3.095-0.979,4.683
					c-0.196,1.469-0.054,2.899,0.283,4.308c0.582,2.393,1.937,4.248,4.123,5.445c1.528,0.832,3.035,1.724,4.629,2.421
					c2.584,1.131,4.4,3.046,5.885,5.341c1.855,2.872,3.035,5.983,3.28,9.399c0.022,0.185,0.033,0.37,0.038,0.56
					c0.016,0.294,0.022,0.593,0.049,0.892c0.038,0.506,0.239,0.849,0.821,0.854c0.576,0.011,0.783-0.343,0.865-0.832
					c0.092-0.538,0.142-1.088,0.278-1.621c0.419-1.643,0.816-3.285,2.208-4.466c1.893-1.605,4.433-1.023,5.325,1.3
					c0.402,1.033,0.751,2.083,1.05,3.133c0,0-0.005,0.005,0,0.011C122.902,257.349,123.315,260.64,123.212,264.007z"/>
				<path style="fill:#FFFFFF;" d="M75.383,279.058c-2.051,1.496-4.009,3.111-5.875,4.847c-1.942,1.806-3.77,3.699-4.961,6.103
					c-0.386,0.789-0.963,0.898-1.719,0.718c-0.517-0.125-1.006-0.348-1.436-0.658c-1.229-0.865-2.034-2.399-1.996-4.188
					c0.071-1.208,0.604-2.573,1.414-3.862c1.773-2.823,4.188-5.037,6.723-7.142c0.767-0.631,1.61-1.175,2.388-1.795
					c0.49-0.381,0.849-0.381,1.235,0.147c0.827,1.126,1.746,2.17,2.725,3.155c0.522,0.533,1.066,1.05,1.621,1.556
					C76.057,278.443,75.899,278.688,75.383,279.058z"/>
				<path style="fill:#E0E0E0;" d="M75.383,279.058c-2.051,1.496-4.009,3.111-5.875,4.847c-1.942,1.806-3.77,3.699-4.961,6.103
					c-0.386,0.789-0.963,0.898-1.719,0.718c-0.517-0.125-1.006-0.348-1.436-0.658c0.131-0.952,0.49-1.882,0.979-2.714
					c0.789-1.349,1.909-2.48,3.068-3.53c1.637-1.485,3.383-2.85,5.271-4.003c0.8-0.49,1.643-0.957,2.268-1.659
					c0.446-0.506,0.756-1.126,0.903-1.779c0.522,0.533,1.066,1.05,1.621,1.556C76.057,278.443,75.899,278.688,75.383,279.058z"/>
				<path style="fill:#E0E0E0;" d="M82.78,278.998c-0.506-0.326-0.995-0.669-1.474-1.023
					C81.861,278.248,82.372,278.569,82.78,278.998z"/>
				<path style="fill:#E0E0E0;" d="M123.212,264.007c0.114,3.503-0.402,6.881-1.713,10.123c-0.577,1.414-1.354,2.633-2.818,3.323
					c-2.491,1.164-4.662,0.016-5.059-2.698c-0.31-2.083-0.288-4.177-0.239-6.272c0.005-0.196,0.043-0.397,0.054-0.593
					c0.022-0.37-0.054-0.712-0.424-0.881c-0.462-0.212-0.772,0.103-1.017,0.408c-0.435,0.549-0.696,1.202-0.963,1.849
					c-0.451,1.11-0.898,2.219-1.42,3.296c-1.452,2.992-3.78,4.928-7.001,5.853c-2.154,0.62-4.297,1.3-6.348,2.23
					c-3.96,1.795-7.305,4.455-10.411,7.441c-2.013,1.931-3.965,3.933-5.983,5.858c-2.11,2.018-4.422,3.726-7.289,4.547
					c-0.99,0.277-1.991,0.343-2.916-0.098c0.31-0.669,0.702-1.3,1.175-1.871c0.827-1.001,1.866-1.806,2.899-2.589
					c3.557-2.698,7.392-5.488,9.04-9.639c0.332-0.838,0.566-1.757,0.424-2.633c0.337,0.114,0.674,0.223,1.012,0.343
					c0.326,0.12,0.674,0.229,1.017,0.245c0.364,0.011,0.664-0.207,0.794-0.571c0.065-0.19,0.082-0.37,0.027-0.528
					c0.141-0.043,0.277-0.087,0.413-0.136c6.397-2.268,12.717-5.352,17.265-10.389c1.501-1.664,2.823-3.546,4.678-4.803
					c1.86-1.257,4.498-1.73,6.293-0.386c1.11,0.832,1.686,2.187,2.176,3.492c0.277,0.745,0.62,1.583,1.365,1.877
					c1.311,0.522,2.491-1.023,2.921-2.372c1.458-4.564,0.783-9.481,0.832-14.29C122.902,257.349,123.315,260.64,123.212,264.007z"/>
				<path style="fill:#E0E0E0;" d="M67.762,270.431c-2.812,1.828-5.45,3.862-7.686,6.375c-0.299,0.337-0.62,0.664-0.843,1.05
					c-0.522,0.881-1.273,1.039-2.187,0.805c-0.049-0.016-0.092-0.044-0.141-0.054c-0.897-0.25-1.648-0.593-2.246-1.012
					c0.832-0.13,1.626-0.5,2.317-1.001c1.115-0.816,1.98-1.92,2.867-2.981c0.887-1.055,1.844-2.105,3.073-2.736
					c1.115-0.571,2.41-0.778,3.432-1.496c0.979-0.685,1.572-1.719,1.991-2.856c0.076,0.555,0.201,1.104,0.337,1.654
					C69.029,269.588,69.046,269.599,67.762,270.431z"/>
				<path style="fill:#E0E0E0;" d="M111.365,254.314c-0.587-4.341-3.313-8.35-7.147-10.471c-3.041-1.675-6.636-2.198-9.563-4.063
					c-4.123-2.627-6.337-7.947-5.287-12.723c0.419-1.909,1.289-3.677,1.942-5.516c0.593-1.675,0.995-3.465,0.691-5.244
					c-0.054-0.31-0.147-0.631-0.234-0.957c1.839-0.054,2.828,0.957,2.899,2.943c0.055,1.501-0.13,2.981-0.522,4.433
					c-0.413,1.545-0.767,3.095-0.979,4.683c-0.196,1.469-0.054,2.899,0.283,4.308c0.582,2.393,1.937,4.248,4.123,5.445
					c1.528,0.832,3.035,1.724,4.629,2.421c2.584,1.131,4.4,3.046,5.885,5.341C109.939,247.787,111.12,250.898,111.365,254.314z"/>
			</g>
			<g>
				<path style="fill:#FFFFFF;" d="M437.917,310.106c-0.06,0.631-0.239,1.213-0.522,1.735c-0.832,1.577-2.551,2.562-4.439,2.388
					c-0.56-0.049-0.919-0.19-1.044-0.816c-0.849-4.118-3.215-7.468-5.548-10.824c-0.821-1.175-1.724-2.295-2.633-3.503
					c0.87-0.517,1.702-0.995,2.518-1.485c0.337-0.201,0.669-0.402,1.001-0.609c0.8-0.5,1.561-1.072,2.328-1.621
					c0.865-0.62,0.876-0.637,1.539,0.158c1.534,1.839,2.905,3.797,4.129,5.858c0.968,1.643,1.746,3.351,2.312,5.173
					C437.922,307.729,438.025,308.904,437.917,310.106z"/>
				<path style="fill:#FFFFFF;" d="M446.93,301.414c-0.81,2.018-3.024,3.258-5.505,2.622c-0.555-0.141-0.984-0.413-1.213-0.995
					c-1.474-3.726-3.911-6.816-6.538-9.775c-0.881-0.99-0.881-1.001-0.239-2.149c0.212-0.375,0.408-0.751,0.582-1.142
					c0,0,0,0,0-0.005c0.343-0.745,0.609-1.512,0.772-2.323c0.087-0.446,0.386-1.066-0.218-1.338
					c-0.495-0.223-0.767,0.326-1.066,0.636c-0.734,0.745-1.447,1.518-2.176,2.268c-1.86,1.898-3.916,3.53-6.277,4.798
					c-2.595,1.387-5.14,2.872-7.947,3.808c-0.995,0.326-2.023,0.549-3.041,0.8c-0.484,0.12-0.865,0.348-0.811,0.892
					c0.054,0.582,0.441,0.881,1.028,0.838c1.349-0.098,2.709-0.103,4.025-0.359c1.191-0.229,1.904,0.256,2.562,1.088
					c1.79,2.285,3.367,4.705,4.776,7.24c0.903,1.616,1.735,3.253,2.154,5.075c0.239,1.028,0.402,2.056,0.283,3.111
					c-0.065,0.566-0.234,1.082-0.5,1.529c-0.908,1.594-2.894,2.383-4.776,1.659c-1.235-0.479-2.268-1.251-3.215-2.148
					c-1.599-1.529-2.867-3.313-3.976-5.222c-1.431-2.459-2.883-4.901-4.346-7.338c-3.101-5.14-7.099-9.405-12.364-12.342
					c-3.851-2.149-5.945-5.342-6.37-9.688c-0.071-0.696-0.163-1.387-0.266-2.078c-0.071-0.489-0.136-0.99-0.283-1.463
					c-0.147-0.473-0.348-1.039-0.947-1.012c-0.615,0.027-0.702,0.577-0.799,1.093c-0.37,2.018-1.001,3.954-1.724,5.875
					c-1.371,3.666-4.504,3.068-6.212,1.175c-0.854-0.946-1.186-2.067-1.338-3.264c-0.054-0.392-0.087-0.789-0.109-1.191
					c-0.027-0.446-0.043-0.897-0.071-1.349c-0.071-2.105,0.185-4.167,0.674-6.223c0.946-4.003,2.257-7.86,4.455-11.368
					c0.528-0.843,1.072-1.686,1.675-2.475c1.278-1.686,3.846-1.659,5.14,0.033c0.685,0.898,1.099,1.909,1.126,3.041
					c0.022,1.044-0.011,2.094-0.027,3.144c-0.005,0.348-0.054,0.696-0.022,1.044c0.038,0.403,0.332,0.593,0.713,0.642
					c0.386,0.043,0.674-0.087,0.81-0.495c0.169-0.517,0.37-1.028,0.549-1.55c0.011-0.027,0.022-0.06,0.033-0.087
					c1.529-4.39,4.45-7.659,8.273-10.188c0.968-0.642,2.023-1.077,3.166-1.305c1.616-0.321,3.215-0.707,4.83-1.017
					c4.961-0.963,7.539-3.818,8.301-9.427c0.212-1.577,0.169-3.188,0.218-4.787c0.027-1.153,0.218-2.29,0.5-3.4
					c0.566-2.208,1.985-2.975,4.074-2.187c0.033,0.011,0.071,0.022,0.109,0.038c3.307,1.305,5.118,3.933,5.869,7.262
					c1.126,5.015-0.109,9.378-3.982,12.902c-1.333,1.208-2.752,2.306-4.178,3.4c-0.158,0.125-0.326,0.228-0.49,0.343
					c-0.49,0.343-0.827,0.778-0.587,1.393c0.267,0.691,0.87,0.734,1.507,0.636c0.49-0.076,1.012-0.092,1.463-0.277
					c0.8-0.321,1.164,0.033,1.534,0.68c1.751,3.035,3.215,6.185,4.237,9.552c1.001,3.285,1.871,6.62,3.454,9.709
					c1.953,3.802,4.678,7.066,7.24,10.433c1.023,1.349,2.192,2.589,3.323,3.851c1.164,1.295,1.942,2.79,2.339,4.466
					C447.36,299.57,447.267,300.56,446.93,301.414z"/>
				<path style="fill:#E0E0E0;" d="M427.582,318.032c-0.908,1.594-2.894,2.383-4.776,1.659c-1.235-0.479-2.268-1.251-3.215-2.148
					c-1.599-1.529-2.867-3.313-3.976-5.222c-1.431-2.459-2.883-4.901-4.346-7.338c-3.101-5.14-7.099-9.405-12.364-12.342
					c-3.851-2.149-5.945-5.342-6.37-9.688c-0.071-0.696-0.163-1.387-0.266-2.078c-0.071-0.489-0.136-0.99-0.283-1.463
					c-0.147-0.473-0.348-1.039-0.947-1.012c-0.615,0.027-0.702,0.577-0.799,1.093c-0.37,2.018-1.001,3.954-1.724,5.875
					c-1.371,3.666-4.504,3.068-6.212,1.175c-0.854-0.946-1.186-2.067-1.338-3.264c-0.054-0.392-0.087-0.789-0.109-1.191
					c0.31,0.484,0.702,0.908,1.365,1.055c2.682,0.609,3.933-2.758,5.01-4.493c0.713-1.148,1.675-2.176,2.905-2.731
					c1.229-0.555,2.742-0.577,3.873,0.158c1.55,1.006,2.002,3.062,2.04,4.906c0.043,1.849-0.174,3.775,0.549,5.472
					c1.284,3.008,4.879,4.09,7.653,5.82c3.726,2.317,6.25,6.136,8.311,10.009c2.067,3.873,3.824,7.953,6.555,11.39
					c1.485,1.866,3.345,3.574,5.646,4.188C425.678,318.108,426.641,318.162,427.582,318.032z"/>
				<path style="fill:#E0E0E0;" d="M425.275,234.134c-0.413,0.212-0.789,0.511-1.082,1.023c-0.832,1.463-0.62,3.378-0.549,4.988
					c0.125,2.883-0.011,5.82-0.93,8.562c-0.914,2.736-2.687,5.271-5.222,6.658c-1.702,0.93-3.65,1.3-5.526,1.806
					c-6.032,1.637-11.619,4.874-16.052,9.274c1.529-4.39,4.45-7.659,8.273-10.188c0.968-0.642,2.023-1.077,3.166-1.305
					c1.616-0.321,3.215-0.707,4.83-1.017c4.961-0.963,7.539-3.818,8.301-9.427c0.212-1.577,0.169-3.188,0.218-4.787
					c0.027-1.153,0.218-2.29,0.5-3.4C421.767,234.112,423.187,233.345,425.275,234.134z"/>
				<path style="fill:#E0E0E0;" d="M437.395,311.842c-0.832,1.577-2.551,2.562-4.439,2.388c-0.56-0.049-0.919-0.19-1.044-0.816
					c-0.849-4.118-3.215-7.468-5.548-10.824c-0.821-1.175-1.724-2.295-2.633-3.503c0.87-0.517,1.702-0.995,2.518-1.485
					c0.696,0.473,1.295,1.137,1.833,1.795c1.866,2.29,3.449,4.814,4.694,7.49c0.506,1.082,0.963,2.203,1.692,3.155
					C435.181,310.982,436.22,311.749,437.395,311.842z"/>
				<path style="fill:#E0E0E0;" d="M446.93,301.414c-0.81,2.018-3.024,3.258-5.505,2.622c-0.555-0.141-0.984-0.413-1.213-0.995
					c-1.474-3.726-3.911-6.816-6.538-9.775c-0.881-0.99-0.881-1.001-0.239-2.149c0.212-0.375,0.408-0.751,0.582-1.142
					c0.158,0.413,0.402,0.8,0.691,1.12c0.685,0.762,1.588,1.289,2.344,1.98c1.708,1.561,2.546,3.829,3.884,5.711
					c1.338,1.882,3.677,3.487,5.847,2.693C446.832,301.463,446.881,301.441,446.93,301.414z"/>
			</g>
			<path style="fill:#B2271C;" d="M392.301,205.489c-2.404,2.687-5.38,4.836-7.686,7.615c-4.618,5.581-5.848,13.604-3.623,20.452
				c-1.224,0.348-2.48,0.647-3.759,0.897c-1.023,0.201-2.072,0.294-3.111,0.435c-0.642,0.087-0.816-0.207-0.615-0.789
				c0.065-0.185,0.136-0.37,0.201-0.56c2.698-7.806,4.509-15.823,5.782-23.966c0.022-0.152,0.065-0.299,0.071-0.446
				c0.011-1.197,0.571-1.735,1.762-2.148c6.06-2.1,9.432-6.451,10.177-12.794c0.392-3.329-0.098-6.576-1.311-9.699
				c-1.246-3.188-3.394-5.499-6.712-6.565c-0.593-0.19-0.789-0.468-0.767-1.055c0.071-1.643,0.092-3.291,0.158-4.934
				c0.082-2.012,0.12-4.025,0.103-6.032c0.854,0.207,1.795,0.588,2.818,1.164c5.711,3.226,10.161,8.714,11.94,15.051
				C399.982,190.15,397.866,199.267,392.301,205.489z"/>
			<path style="fill:#E38071;" d="M377.571,147.249c-4.188,27.747-52.235,49.624-119.962,49.624
				c-68.428,0-121.822-22.334-125.494-50.484c0.707-4.297,2.225-8.393,4.292-12.342c0.724-1.382,1.686-2.595,2.72-3.748
				c4.172-4.667,9.144-8.322,14.491-11.499c8.763-5.211,18.168-8.937,27.872-11.934c10.895-3.367,22.019-5.684,33.3-7.305
				c12.723-1.828,25.511-2.725,42.313-2.818c5.788-0.005,15.513,0.37,25.217,1.311c14.735,1.425,29.27,3.933,43.483,8.137
				c9.84,2.91,19.375,6.571,28.302,11.689c4.558,2.616,8.828,5.635,12.712,9.198C372.801,132.568,376.179,139.395,377.571,147.249z"
				/>
			<path style="fill:#623022;" d="M360.644,155.718c-1.73,2.671-3.944,4.89-6.419,6.865c-5.151,4.118-10.96,7.093-17.025,9.606
				c-9.628,3.987-19.642,6.652-29.852,8.654c-16.911,3.318-34.007,4.64-51.212,4.727c-15.709-0.071-31.326-1.191-46.807-3.889
				c-12.418-2.16-24.603-5.189-36.254-10.112c-5.396-2.285-10.574-4.955-15.285-8.475c-2.611-1.947-5.015-4.123-6.957-6.761
				c-1.741-2.361-3.013-4.923-3.372-7.893c-0.348-2.883,0.305-5.554,1.621-8.089c1.12-2.154,2.6-4.02,4.292-5.711
				c0.392-0.397,0.794-0.778,1.208-1.153c1.991-1.811,4.139-3.4,6.391-4.83c1.49-0.946,3.03-1.822,4.596-2.649
				c8.121-4.286,16.748-7.235,25.598-9.568c10.591-2.791,21.355-4.607,32.234-5.793c14.425-1.572,28.883-2.051,43.374-1.42
				c17.646,0.767,35.106,2.921,52.213,7.457c8.219,2.181,16.237,4.917,23.868,8.703c4.123,2.045,8.061,4.395,11.63,7.332
				c1.616,1.327,3.122,2.763,4.444,4.362c0.647,0.778,1.246,1.594,1.795,2.459c0.936,1.48,1.616,2.959,2.029,4.439
				C363.869,147.902,363.162,151.813,360.644,155.718z"/>
			<path style="fill:#57291F;" d="M360.644,155.718c-1.73,2.671-3.944,4.89-6.419,6.865c-5.151,4.118-10.96,7.093-17.025,9.606
				c-9.628,3.987-19.642,6.652-29.852,8.654c-16.911,3.318-34.007,4.64-51.212,4.727c-15.709-0.071-31.326-1.191-46.807-3.889
				c-12.418-2.16-24.603-5.189-36.254-10.112c-5.396-2.285-10.574-4.955-15.285-8.475c-2.611-1.947-5.015-4.123-6.957-6.761
				c-1.741-2.361-3.013-4.923-3.372-7.893c-0.348-2.883,0.305-5.554,1.621-8.089c1.12-2.154,2.6-4.02,4.292-5.711
				c-0.267,1.425-0.37,2.932-0.283,4.536c0.636,11.57,11.978,19.375,22.65,23.906c26.349,11.2,55.548,13.822,84.181,13.778
				c18.103-0.022,36.336-1.083,53.856-5.614c17.531-4.526,34.41-12.696,47.236-25.462c0.593-0.587,1.175-1.191,1.741-1.806
				C363.869,147.902,363.162,151.813,360.644,155.718z"/>
			<path style="fill:#884F40;" d="M195.568,158.402c36.497,12.673,77.756,14.699,114.587,2.88
				c9.245-2.966,18.604-7.091,24.263-14.47c2.03-2.647,3.158-6.962,0.151-8.637c-1.602-0.892-3.669-0.513-5.408,0.123
				c-3.702,1.355-6.857,3.703-10.119,5.814c-12.288,7.954-26.861,12.862-41.804,14.079c-1.685,0.137-3.632,0.136-4.749-1.038
				c-1.406-1.478-0.471-3.978,1.299-5.072c1.77-1.094,4.021-1.19,6.147-1.299c13.094-0.675,27.04-3.735,35.66-12.871
				c2.13-2.258,3.738-6.008,1.282-7.963c-1.756-1.397-4.459-0.827-6.565,0.065c-5.615,2.38-10.185,6.427-15.455,9.405
				c-6.247,3.531-13.5,5.525-20.818,5.723c-2.705,0.073-6.109-0.597-6.697-3.039c-0.406-1.686,0.912-3.392,2.57-4.187
				c1.658-0.795,3.586-0.904,5.446-1.064c7.878-0.677,16.234-2.908,21.025-8.728c0.702-0.853,1.337-1.846,1.284-2.916
				c-0.077-1.561-1.666-2.785-3.331-3.055c-1.665-0.27-3.363,0.205-4.929,0.795c-8.146,3.068-15.402,9.474-24.179,8.933
				c-1.094-0.067-2.283-0.301-2.96-1.098c-1.534-1.805,0.825-4.252,3.042-5.285c2.217-1.034,5.016-2.542,4.545-4.796
				c-0.36-1.724-2.631-2.568-4.509-2.306c-1.878,0.262-3.515,1.278-5.252,1.987c-7.057,2.882-15.206,0.61-22.497-1.72
				c-2.429-0.776-5.009-1.566-7.519-1.057c-2.51,0.509-4.764,2.871-4.006,5.141c1.178,3.527,7.084,2.811,10.059,5.273
				c0.259,0.215,0.503,0.468,0.587,0.78c0.236,0.876-0.835,1.553-1.767,1.821c-6.526,1.881-13.281-1.738-18.955-5.262
				c-1.925-1.196-4.178-2.456-6.414-1.887c-2.543,0.647-3.786,3.615-2.982,5.937c0.804,2.322,3.126,3.959,5.599,4.809
				c2.472,0.849,5.138,1.051,7.743,1.433c3.406,0.5,6.758,1.32,9.985,2.443c1.63,0.567,3.526,1.662,3.285,3.256
				c-0.224,1.478-2.129,2.121-3.728,2.327c-7.384,0.952-15.16-1.067-20.927-5.434c-2.782-2.106-5.126-4.734-8.216-6.434
				c-3.089-1.701-7.361-2.242-10.097-0.085c-3.403,2.683-2.42,8.112,0.805,10.977c3.225,2.865,7.845,3.838,12.22,4.695
				c4.748,0.93,9.497,1.86,14.245,2.791c1.032,0.202,2.158,0.458,2.784,1.242c0.894,1.12,0.252,2.832-0.977,3.635
				c-1.229,0.804-2.826,0.916-4.332,0.898c-10.987-0.133-21.004-5.658-29.867-11.662c-2.475-1.677-6.219-4.097-9.327-2.175
				c-2.503,1.547-1.894,3.918-0.381,5.948C179.43,153.458,189.261,156.212,195.568,158.402z"/>
			<path style="opacity:0.15;fill:#3D191A;" d="M224.766,213.242c0.372-0.593-3.22,30.825,30.078,28.295
				c0,0-6.272,13.05-25.134,7.215C229.71,248.752,209.469,237.626,224.766,213.242z"/>
			<path style="opacity:0.15;fill:#3D191A;" d="M275.5,213.242c0.372-0.593-3.22,30.825,30.078,28.295c0,0-6.272,13.05-25.134,7.215
				C280.444,248.752,260.203,237.626,275.5,213.242z"/>
			<path style="fill:#E79A8D;" d="M263.108,252.262c0.905-0.001,1.845,0.075,2.633,0.521c0.547,0.309,0.987,0.781,1.341,1.3
				c1.683,2.469,1.244,6.16-0.985,8.15c1.956-1.324,3.462-3.239,4.547-5.337c0.641-1.24,1.151-2.582,1.192-3.977
				c0.041-1.395-0.443-2.855-1.51-3.754c-1.56-1.314-3.892-1.131-5.834-0.505c-1.004,0.324-4.561,1.454-4.883,2.559
				C259.069,253.068,261.969,252.263,263.108,252.262z"/>
			<path style="fill:#B02D23;" d="M236.174,269.573c1.202,5.231,1.888,10.614,3.801,15.629c1.913,5.015,5.306,9.775,10.273,11.811
				c1.744,0.715,3.616,1.068,5.488,1.283c4.243,0.486,8.66,0.253,12.588-1.425c3.927-1.678,7.306-4.951,8.425-9.072
				c-6.802,4.66-16.18,5.253-23.515,1.488c-3.158-1.621-5.982-4.048-7.607-7.204c-2.499-4.852-1.942-10.834-4.416-15.698
				c-0.866-1.702-4.243-5.688-6.478-3.543C233.181,264.328,235.793,267.913,236.174,269.573z"/>
			<path style="fill:#FFFFFF;" d="M259.299,278.509c0.92,0.409,1.415,0.375,2.178-0.316c2.475-2.243,5.381-3.155,8.717-2.375
				c1.178,0.275,2.201,0.899,3.521,1.599c-0.358-2.218-0.941-4.126-0.988-6.092c-0.173-0.041-0.275-0.099-0.358-0.079
				c-0.387,0.092-0.769,0.206-1.153,0.311c-4.068,1.108-8.18,1.801-12.421,1.358c-5.143-0.537-9.93-2.112-14.34-4.826
				c-0.254-0.156-0.499-0.551-0.958-0.22c1.474,3.807,1.838,7.894,2.747,11.763c0.479,0.087,0.659-0.109,0.854-0.249
				C250.987,276.604,255.105,276.644,259.299,278.509z"/>
			<path style="fill:#A52E1A;" d="M269.587,291.362c-2.388,1.093-4.923,1.621-7.838,1.735c-1.654-0.043-3.275-0.283-4.83-0.745
				c-2.557-0.761-4.939-2.127-7.017-4.232c-0.816-0.827-1.452-1.773-1.947-2.823c-0.538-1.148-0.549-1.365,0.511-2.132
				c2.763-2.002,5.771-2.85,9.171-1.822c1.507,0.457,2.752,1.224,3.846,2.198c0.816,0.718,1.539,1.55,2.225,2.453
				c0.392,0.517,0.756,1.055,1.191,1.534c0.261,0.288,0.647,0.544,1.061,0.299c0.457-0.266,0.506-0.707,0.321-1.175
				c-0.365-0.936-0.8-1.828-1.305-2.676c-0.479-0.816-1.023-1.599-1.632-2.344c-0.897-1.093-0.892-1.099,0.158-1.964
				c2.442-2.013,5.499-2.295,8.012-1.001c1.055,0.544,2.013,1.365,2.785,2.453c0.386,0.544,0.587,1.131,0.626,1.806
				C275.147,286.488,273.112,289.752,269.587,291.362z"/>
			<path style="fill:#8C2112;" d="M257.637,281.343c1.507,0.457,2.752,1.224,3.846,2.198c-1.055-0.365-2.132-0.702-3.253-0.723
				c-1.262-0.022-2.6,0.419-3.351,1.436c-1.202,1.626-0.473,3.933,0.462,5.728c0.441,0.843,0.93,1.675,1.578,2.371
				c-2.557-0.761-4.939-2.127-7.017-4.232c-0.816-0.827-1.452-1.773-1.947-2.823c-0.538-1.148-0.549-1.365,0.511-2.132
				C251.229,281.163,254.237,280.315,257.637,281.343z"/>
			<path style="fill:#8C2112;" d="M271.513,278.666c-1.403-0.109-2.829,0.169-4.036,0.925c-1.48,0.93-2.421,2.671-2.502,4.384
				c-0.479-0.816-1.023-1.599-1.632-2.344c-0.897-1.093-0.892-1.099,0.158-1.964C265.943,277.655,269,277.372,271.513,278.666z"/>
			<path style="fill:#884F40;" d="M173.002,136.415c-0.591-3.138-4.02-4.313-6.788-4.313c-2.682,0-5.461,2.413-4.932,5.222
				c0.591,3.138,4.02,4.313,6.788,4.313C170.751,141.637,173.531,139.224,173.002,136.415z"/>
			<path style="fill:#884F40;" d="M186.671,127.561c-0.381-2.331-3.027-3.199-5.035-3.199c-2.026,0-4,1.786-3.658,3.874
				c0.382,2.331,3.027,3.199,5.035,3.199C185.039,131.434,187.012,129.648,186.671,127.561z"/>
			<path style="fill:#884F40;" d="M350.292,144.119c-0.387-2.366-3.072-3.246-5.11-3.246c-2.056,0-4.059,1.813-3.713,3.931
				c0.387,2.365,3.072,3.246,5.11,3.246C348.636,148.05,350.639,146.237,350.292,144.119z"/>
			<path style="fill:#884F40;" d="M336.184,130.34c-0.36-2.201-2.859-3.021-4.755-3.021c-1.914,0-3.778,1.687-3.455,3.658
				c0.36,2.201,2.859,3.021,4.755,3.021C334.643,133.998,336.506,132.312,336.184,130.34z"/>
			<path style="fill:#884F40;" d="M309.865,122.066c-0.352-2.15-2.793-2.951-4.645-2.951c-1.869,0-3.69,1.648-3.375,3.574
				c0.352,2.15,2.793,2.951,4.645,2.951C308.359,125.64,310.18,123.992,309.865,122.066z"/>
			<g>
				<path style="fill:#FFFFFF;" d="M170.444,244.636c-2.11-4.004-4.821-7.665-6.834-11.741c-1.923-3.894-3.44-7.976-4.631-12.136
					c-2.449-8.553-3.334-17.41-2.763-26.274c0.307-4.769-8.86-5.434-9.307-0.664c-0.901,9.626,0.041,19.372,2.719,28.671
					c2.579,8.958,6.652,19.044,13.268,25.937C165.676,251.324,172.728,248.969,170.444,244.636z"/>
				<path style="fill:#FFFFFF;" d="M187.742,265.352c-3.679-2.093-6.321-5.112-8.477-8.638c-2.381-3.894-10.475-1.831-8.238,3.033
					c2.295,4.99,6.558,8.917,11.366,11.668c1.995,1.141,5.108,0.917,6.659-0.864C190.627,268.742,189.646,266.435,187.742,265.352z"
					/>
			</g>
		</g>
		<g>
			<path style="fill:#3D191A;" d="M446.675,290.241c-1.655-1.866-3.336-3.717-4.868-5.682c-2.793-3.583-4.6-7.692-6.073-11.958
				c-1.547-4.482-3.054-8.977-5.744-12.957c-0.83-1.227-0.745-1.24,0.335-2.303c4.538-4.461,6.324-9.853,5.137-16.103
				c-0.938-4.939-3.496-8.756-8.264-10.833c-4.498-1.96-8.634,0-9.981,4.691c-0.53,1.848-0.668,3.726-0.681,5.628
				c-0.012,1.651-0.076,3.299-0.495,4.905c-0.527,2.022-1.644,3.501-3.805,3.987c-1.412,0.317-2.803,0.739-4.225,0.993
				c-4.303,0.77-7.616,3.09-10.304,6.428c-0.461,0.572-0.911,1.153-1.329,1.684c-0.465-0.054-0.581-0.361-0.752-0.591
				c-2.436-3.284-8.46-3.38-10.94,0.264c-0.565,0.83-1.129,1.661-1.437,2.612c-0.229,0.707-0.587,0.936-1.32,0.823
				c-1.429-0.22-2.876-0.327-4.305-0.549c-3.598-0.559-7.2-1.102-10.781-1.759c-1.648-0.303-3.353-0.422-4.962-1.064
				c0.074-0.631,0.41-1.063,0.69-1.52c0.495-0.808,1.001-1.611,1.475-2.432c2.624-4.543,4.977-9.221,6.922-14.094
				c0.331-0.828,0.845-1.134,1.676-1.201c1.641-0.132,3.282-0.27,4.907-0.567c9.407-1.718,17.555-5.833,23.667-13.265
				c9.24-11.236,14.398-24.089,14.299-38.808c-0.055-8.118-1.723-15.856-5.743-22.995c-2.334-4.145-5.298-7.768-9.177-10.537
				c-5.405-3.857-11.357-6.221-18.121-6.135c-1.139,0.014-1.157-0.012-1.331-1.093c-0.142-0.886-0.214-1.784-0.353-2.671
				c-0.824-5.271-3.179-9.842-6.445-13.986c-3.495-4.436-7.736-8.058-12.367-11.245c-6.697-4.611-13.948-8.161-21.501-11.113
				c-15.858-6.198-32.359-9.768-49.193-11.937c-10.011-1.29-20.066-1.991-30.16-2.193c-9.494-0.189-18.976,0.033-28.442,0.743
				c-8.066,0.605-16.095,1.556-24.078,2.888c-11.886,1.983-23.575,4.748-34.949,8.758c-8.781,3.096-17.242,6.88-25.076,11.964
				c-5.137,3.334-9.852,7.163-13.765,11.913c-5.09,6.179-7.825,13.149-7.262,21.273c0.211,3.038,0.231,6.089,0.111,9.135
				c-0.182,4.594-0.187,9.184,0.084,13.776c0.388,6.578,0.547,13.166,1.156,19.735c1.183,12.754,3.429,25.323,6.641,37.704
				c1.834,7.068,4.663,13.792,8.274,20.165c0.847,1.495,1.659,3.009,2.49,4.518c-0.505,0.252-0.906,0.138-1.297,0.104
				c-3.181-0.276-6.365-0.527-9.54-0.855c-3.125-0.324-6.241-0.74-9.363-1.091c-0.702-0.079-1.042-0.355-1.129-1.103
				c-0.103-0.885-0.297-1.778-0.589-2.62c-1.248-3.606-5.201-5.527-8.841-4.375c-0.96,0.304-1.69,1.004-2.618,1.467
				c-0.338-0.802-0.629-1.542-0.96-2.264c-1.688-3.683-4.093-6.702-7.827-8.519c-1.344-0.654-2.62-1.443-3.958-2.109
				c-2.335-1.162-3.079-3.129-2.892-5.571c0.095-1.245,0.324-2.471,0.673-3.675c0.586-2.021,0.955-4.092,0.898-6.192
				c-0.131-4.817-3.063-7.35-7.183-7.237c-3.944,0.108-7.227,1.815-9.74,4.86c-5.012,6.073-5.509,14.112-1.307,20.756
				c0.526,0.831,0.628,0.967-0.185,1.734c-1.849,1.745-3.708,3.488-5.18,5.582c-1.491,2.12-2.968,4.25-4.445,6.379
				c-3.183,4.588-6.89,8.632-11.727,11.553c-1.533,0.925-3.004,1.972-4.414,3.078c-2.445,1.917-4.235,4.352-5.255,7.303
				c-1.227,3.55,0.16,6.859,3.534,8.506c0.626,0.306,1.28,0.557,1.928,0.815c1.17,0.465,1.152,0.453,0.819,1.626
				c-0.19,0.668-0.364,1.353-0.436,2.041c-0.45,4.297,2.209,8.11,6.543,9.3c0.837,0.23,1.273,0.497,1.301,1.444
				c0.099,3.323,4.601,6.775,7.574,6.682c3.518-0.11,6.472-1.471,9.219-3.473c2.631-1.918,4.853-4.297,7.106-6.614
				c4.525-4.653,9.621-8.338,15.876-10.324c2.92-0.927,5.692-2.187,7.646-4.775c0.496,0.316,0.599,0.664,0.773,0.959
				c0.799,1.354,1.982,2.212,3.454,2.707c4.306,1.447,9.067-1.607,9.994-4.919c0.342-1.223,0.422-1.23,1.634-1.004
				c5.789,1.08,11.621,1.847,17.477,2.441c6.663,0.676,13.347,0.784,20.035,0.691c1.033-0.014,1.805,0.288,2.546,0.967
				c1.173,1.076,2.379,2.124,3.626,3.112c5.486,4.348,11.554,7.767,17.728,11.009c4.804,2.523,9.688,4.885,14.75,6.846
				c3.106,1.204,6.256,2.3,9.444,3.28c2.095,0.644,4.187,1.284,6.324,1.784c1.186,0.278,1.235,0.42,1.164,1.516
				c-0.344,5.331-0.679,10.663-1.05,15.992c-0.146,2.1,0.007,1.728-1.87,1.835c-2.642,0.151-4.495,1.42-5.754,3.699
				c-1.886,3.413-2.894,6.913-1.197,10.717c0.388,0.87,0.228,1.612-0.323,2.371c-1.318,1.818-2.608,3.658-3.866,5.519
				c-0.377,0.558-0.854,0.591-1.422,0.565c-1.8-0.081-3.591,0.011-5.376,0.278c-7.59,1.132-14.329,4.069-19.562,9.789
				c-5.096,5.571-8.77,11.995-10.394,19.454c-1.243,5.707-1.239,11.388,0.494,17.023c1.717,5.581,5.319,9.241,10.905,10.981
				c3.986,1.242,8.078,1.799,12.224,2.05c5.036,0.304,9.957-0.459,14.825-1.661c1.695-0.418,3.404-0.805,5.061-1.348
				c6.809-2.233,13.799-3.566,20.89-4.509c4.382-0.583,8.538-2.065,12.494-4.01c3.494-1.718,5.822-4.449,6.667-8.355
				c1.186-5.486,0.843-10.828-1.476-15.965c-0.969-2.147-1.383-4.333-1.312-6.682c0.075-2.492,0.173-4.998-0.157-7.482
				c-0.506-3.813-1.199-7.593-2.265-11.294c-0.192-0.665-0.158-1.237,0.181-1.854c0.527-0.962,0.97-1.97,1.451-2.957
				c0.639-1.313,1.063-2.696,1.238-4.143c0.448-3.697-0.464-6.827-3.748-8.987c-1.48-0.974-3.108-1.294-4.834-1.339
				c-1.142-0.03-1.158-0.048-1.164-1.173c-0.007-1.348-0.011-2.697,0.033-4.045c0.122-3.693,0.257-7.386,0.417-11.077
				c0.044-1.008,0.098-1.03,1.054-0.937c3.329,0.326,6.662,0.504,10.007,0.594c2.198,0.059,4.391-0.007,6.579-0.081
				c3.733-0.126,7.459-0.455,11.189-0.691c1.224-0.078,1.22-0.068,1.277,1.085c0.236,4.789,0.389,9.58,0.393,14.375
				c0.002,1.852,0.012,1.898-1.887,1.972c-3.889,0.151-7.845,3.514-7.898,7.92c-0.026,2.186,0.256,4.278,1.19,6.263
				c0.467,0.994,0.9,2.009,1.443,2.96c0.457,0.802,0.455,1.533,0.224,2.418c-1.478,5.665-2.692,11.382-2.382,17.287
				c0.163,3.108-0.362,6.003-1.646,8.863c-1.961,4.366-2.093,8.999-1.388,13.67c0.582,3.857,2.4,6.952,5.791,9.009
				c0.723,0.439,1.477,0.843,2.253,1.177c4.282,1.839,8.69,3.253,13.34,3.806c5.662,0.674,11.228,1.774,16.668,3.523
				c3.324,1.068,6.716,1.915,10.134,2.645c8.184,1.747,16.277,1.348,24.272-1.047c5.539-1.659,9.111-5.311,10.847-10.836
				c1.867-5.94,1.754-11.895,0.385-17.894c-1.397-6.118-4.477-11.406-8.182-16.35c-2.826-3.771-6.42-6.686-10.665-8.771
				c-5.06-2.485-10.392-3.806-16.043-3.638c-0.986,0.029-1.541-0.274-2.061-1.082c-0.998-1.552-2.075-3.058-3.2-4.521
				c-0.846-1.101-1.036-2.178-0.449-3.459c0.682-1.488,0.83-3.079,0.586-4.694c-0.366-2.415-1.314-4.6-2.728-6.578
				c-0.976-1.365-2.318-2.174-3.982-2.425c-0.444-0.067-0.893-0.101-1.341-0.14c-1.462-0.127-1.448-0.126-1.535-1.535
				c-0.155-2.491-0.319-4.982-0.497-7.472c-0.227-3.187-0.263-6.387-0.672-9.56c-0.08-0.624,0.137-0.921,0.745-1.037
				c0.733-0.139,1.461-0.313,2.179-0.514c6.665-1.867,13.233-4.015,19.573-6.818c6.014-2.659,11.845-5.659,17.403-9.189
				c4.637-2.945,8.945-6.309,13.008-9.989c0.569-0.515,1.038-0.592,1.736-0.424c2.765,0.663,5.525,1.375,8.321,1.874
				c7.075,1.265,14.178,2.364,21.364,2.783c0.807,0.047,1.12,0.323,1.152,1.155c0.111,2.831,1.603,4.873,3.892,6.38
				c2.953,1.944,6.336,1.607,8.891-0.834c0.141-0.135,0.303-0.249,0.578-0.473c0.57,1.109,1.128,2.159,1.904,3.068
				c1.447,1.695,3.275,2.918,5.086,4.156c3.752,2.568,6.994,5.638,9.399,9.52c2.023,3.265,3.959,6.583,5.965,9.859
				c1.5,2.45,3.345,4.624,5.715,6.261c3.241,2.238,6.631,2.897,10.212,0.659c1.419-0.888,2.443-2.051,2.963-3.627
				c0.192-0.582,0.496-0.808,1.083-0.735c0.246,0.031,0.499,0.02,0.748,0.015c4.969-0.098,8.594-4.276,8.477-8.528
				c-0.011-0.399,0.012-0.801-0.029-1.197c-0.062-0.611,0.142-0.935,0.799-0.962c0.597-0.024,1.193-0.108,1.787-0.185
				c4.48-0.581,6.965-3.871,6.273-8.346C450.374,295.788,448.956,292.815,446.675,290.241z M64.549,290.008
				c-0.391,0.79-0.967,0.896-1.721,0.718c-1.989-0.471-3.48-2.427-3.432-4.846c0.073-1.207,0.601-2.572,1.412-3.863
				c1.775-2.826,4.191-5.04,6.726-7.14c0.766-0.634,1.607-1.178,2.388-1.794c0.488-0.385,0.845-0.382,1.234,0.146
				c1.272,1.729,2.758,3.269,4.342,4.708c0.556,0.505,0.4,0.749-0.115,1.124c-2.055,1.496-4.013,3.108-5.877,4.842
				C67.565,285.71,65.739,287.603,64.549,290.008z M121.498,274.128c-0.574,1.418-1.352,2.637-2.817,3.323
				c-2.49,1.167-4.66,0.018-5.061-2.694c-0.308-2.085-0.289-4.176-0.234-6.271c0.005-0.199,0.04-0.397,0.052-0.597
				c0.021-0.371-0.054-0.713-0.424-0.882c-0.465-0.212-0.77,0.104-1.015,0.412c-0.438,0.55-0.7,1.2-0.964,1.849
				c-0.451,1.107-0.897,2.22-1.419,3.295c-1.454,2.991-3.784,4.929-7.001,5.855c-2.154,0.62-4.298,1.297-6.349,2.226
				c-3.96,1.796-7.307,4.456-10.413,7.442c-2.013,1.935-3.965,3.932-5.983,5.861c-2.108,2.015-4.422,3.726-7.285,4.544
				c-1.044,0.298-2.095,0.348-3.061-0.172c-2.25-1.212-2.7-2.654-2.078-4.837c0.558-1.957,1.651-3.629,2.997-5.121
				c2.343-2.598,4.905-4.963,7.696-7.081c0.951-0.722,1.848-1.02,3.008-0.433c0.972,0.491,2.04,0.794,3.072,1.162
				c0.327,0.116,0.674,0.227,1.015,0.24c0.367,0.013,0.664-0.204,0.794-0.57c0.13-0.367,0.064-0.69-0.285-0.913
				c-0.21-0.134-0.422-0.268-0.641-0.386c-4.871-2.621-8.749-6.385-12.152-10.667c-1.334-1.679-2.286-3.618-3.302-5.505
				c-0.198-0.367-0.268-0.999-0.849-0.863c-0.515,0.121-0.444,0.727-0.498,1.139c-0.164,1.254,0.075,2.482,0.377,3.694
				c0.352,1.41,0.369,1.42-0.915,2.254c-2.812,1.827-5.451,3.86-7.689,6.377c-0.298,0.335-0.617,0.664-0.843,1.045
				c-0.521,0.882-1.273,1.04-2.186,0.806c-0.048-0.012-0.091-0.042-0.139-0.055c-3.936-1.086-5.043-3.963-2.875-7.434
				c0.812-1.3,1.918-2.284,3.189-3.102c4.2-2.704,8.148-5.74,11.854-9.085c2.428-2.191,4.308-4.823,5.979-7.613
				c2.338-3.904,4.888-7.642,8.217-10.799c0.592-0.561,1.036-0.837,1.766-0.278c0.387,0.297,0.877,0.472,1.339,0.655
				c0.588,0.233,1.197,0.31,1.612-0.303c0.384-0.568,0.049-1.028-0.316-1.472c-1.487-1.813-2.871-3.703-4.071-5.718
				c-3.21-5.387-1.452-13.163,3.735-16.671c1.234-0.835,2.596-1.282,4.051-1.424c2.084-0.203,3.203,0.807,3.281,2.922
				c0.056,1.502-0.133,2.983-0.524,4.436c-0.415,1.542-0.766,3.093-0.978,4.682c-0.195,1.465-0.057,2.897,0.285,4.306
				c0.581,2.396,1.935,4.25,4.118,5.443c1.529,0.835,3.038,1.727,4.63,2.423c2.583,1.13,4.405,3.044,5.887,5.342
				c1.955,3.03,3.163,6.321,3.32,9.957c0.013,0.298,0.022,0.596,0.046,0.893c0.04,0.505,0.241,0.851,0.821,0.857
				c0.576,0.006,0.784-0.343,0.867-0.833c0.092-0.54,0.143-1.091,0.277-1.62c0.418-1.643,0.817-3.286,2.21-4.468
				c1.889-1.603,4.428-1.02,5.325,1.299c1.62,4.188,2.399,8.529,2.26,13.006C123.326,267.509,122.811,270.886,121.498,274.128z
				 M381.004,198.699c0.627-5.391,1.106-10.793,1.429-16.21c0.006-0.099,0.007-0.199,0.017-0.298
				c0.099-0.928,0.276-1.017,1.118-0.51c0.909,0.548,1.647,1.278,2.219,2.176c2.936,4.616,2.324,12.307-1.305,16.381
				c-1.007,1.13-2.171,2.016-3.829,2.482C380.531,201.238,380.855,199.972,381.004,198.699z M379.56,209.129
				c0.013-1.197,0.576-1.737,1.767-2.15c6.055-2.099,9.43-6.453,10.176-12.795c0.391-3.325-0.096-6.577-1.312-9.697
				c-1.243-3.187-3.396-5.497-6.711-6.567c-0.592-0.191-0.791-0.467-0.766-1.051c0.069-1.645,0.093-3.292,0.158-4.938
				c0.268-6.845,0.067-13.669-0.833-20.467c-0.159-1.202-0.124-1.25,1.155-1.164c2.355,0.16,4.637,0.686,6.835,1.539
				c7.685,2.984,13.396,8.128,17.043,15.552c3.057,6.222,4.255,12.838,4.285,17.075c-0.015,15.866-4.744,27.411-12.828,37.647
				c-5.427,6.872-12.783,10.666-21.292,12.338c-1.026,0.201-2.073,0.294-3.11,0.435c-0.646,0.088-0.816-0.205-0.618-0.784
				c0.065-0.189,0.137-0.375,0.202-0.563c2.7-7.803,4.508-15.821,5.779-23.968C379.512,209.424,379.558,209.277,379.56,209.129z
				 M160.083,274.412c-4.787-0.047-9.571-0.145-14.342-0.587c-5.956-0.552-11.875-1.396-17.798-2.208
				c-2.052-0.281-1.82-0.288-1.491-1.975c0.698-3.571,0.406-7.147-0.078-10.717c-0.066-0.484-0.287-0.96-0.063-1.591
				c1.731,0.273,3.476,0.565,5.227,0.822c3.75,0.551,7.524,0.876,11.3,1.196c1.741,0.147,3.482,0.305,5.226,0.262
				c0.964-0.024,1.549,0.36,2.081,1.137c2.359,3.452,4.722,6.905,7.561,9.995c1.005,1.095,2.008,2.192,3.02,3.297
				C160.482,274.422,160.273,274.414,160.083,274.412z M245.851,390.629c-0.985,0.868-2.112,1.498-3.314,2.005
				c-4.156,1.754-8.442,3.064-12.942,3.525c-6.337,0.65-12.438,2.302-18.509,4.135c-4.061,1.226-8.178,2.254-12.41,2.69
				c-6.134,0.632-12.155,0.005-18.013-1.934c-3.074-1.017-5.418-2.93-6.718-5.977c-0.094-0.221-0.155-0.456-0.231-0.681
				c0.424-0.313,0.715,0.01,0.991,0.143c6.947,3.346,14.235,3.997,21.761,2.774c5.071-0.824,10.107-1.821,15.08-3.118
				c4.31-1.124,8.723-1.604,13.127-2.152c5.913-0.736,11.694-1.985,17.154-4.479c2.05-0.937,4.034-1.965,5.808-3.369
				c0.222-0.175,0.413-0.451,0.97-0.358C248.328,386.371,247.918,388.808,245.851,390.629z M241.347,330.908
				c2.154-0.051,4.621,1.519,4.491,4.527c-0.052,1.2-0.108,2.404-0.465,3.552c-0.772,2.479-2.386,4.201-4.776,5.241
				c-2.096,0.912-4.298,1.244-6.548,1.414c-0.454,0.034-1.176-0.207-1.268,0.427s0.617,0.828,1.113,1.03
				c2.351,0.957,4.78,0.921,7.218,0.47c1.957-0.362,1.944-0.394,2.413,1.515c1.244,5.063,2.081,10.175,1.781,15.412
				c-0.178,3.107,0.353,6.047,1.704,8.866c0.778,1.622,1.275,3.35,1.518,5.151c0.117,0.868-0.082,1.509-0.728,2.13
				c-1.708,1.645-3.618,2.962-5.753,3.995c-5.084,2.461-10.451,4.014-16.034,4.633c-7.16,0.795-14.187,2.199-21.186,3.855
				c-4.027,0.953-8.107,1.671-12.239,2.088c-6.705,0.677-13.006-0.581-18.991-3.624c-0.75-0.381-1.094-0.889-1.23-1.707
				c-0.933-5.612-0.249-11.058,1.749-16.333c1.512-3.992,3.696-7.644,6.326-10.996c4.71-6.004,11.067-9.131,18.483-10.357
				c4.725-0.78,9.354-0.331,13.911,1.016c2.145,0.634,3.94,1.912,5.622,3.347c1.559,1.33,2.992,2.793,4.419,4.262
				c0.452,0.466,0.907,0.929,1.357,1.396c0.366,0.381,0.792,0.729,1.292,0.329c0.477-0.382,0.291-0.908,0.041-1.364
				c-0.215-0.393-0.461-0.771-0.704-1.148c-3.628-5.628-8.6-9.504-15.204-11.517c0.845-1.639,2.076-2.845,2.936-4.3
				c0.253-0.427,0.613-0.182,0.921-0.043c1.466,0.663,3.004,1.057,4.592,1.296c1.06,0.16,2.091,0.012,3.124-0.174
				c0.238-0.043,0.476-0.153,0.684-0.28c0.32-0.196,0.499-0.497,0.405-0.884c-0.074-0.306-0.26-0.525-0.597-0.59
				c-0.441-0.085-0.876-0.194-1.317-0.278c-1.901-0.362-3.55-1.272-5.156-2.303c-3.527-2.265-3.712-5.775-2.773-8.815
				c0.414-1.34,1.218-2.389,2.308-3.238c0.517-0.403,1.085-0.7,1.74-0.828c1.384-0.27,1.613-0.102,1.556,1.269
				c-0.05,1.202-0.01,2.396,0.173,3.584c0.376,2.434,1.639,4.254,3.808,5.422c0.525,0.283,1.079,0.527,1.644,0.714
				c2.902,0.962,5.88,1.152,8.867,0.587c4.224-0.798,6.559-3.271,7.251-7.477C240.032,330.934,240.073,330.938,241.347,330.908z
				 M222.463,325.21c0.364-5.574,0.727-11.149,1.091-16.723c0.013-0.199,0.044-0.398,0.046-0.597
				c0.006-0.688,0.267-1.026,1.016-0.833c0.481,0.124,0.992,0.136,1.469,0.27c3.041,0.856,6.178,1.101,9.292,1.493
				c0.099,0.012,0.198,0.024,0.296,0.041c1.546,0.279,1.632-0.07,1.446,1.859c-0.614,6.358-0.925,12.734-1.225,19.112
				c-0.028,0.596-0.15,1.187-0.203,1.783c-0.181,2.058-1.362,3.312-3.281,3.792c-2.729,0.683-5.441,0.513-8.062-0.576
				c-1.154-0.48-1.778-1.361-1.988-2.603c-0.279-1.65-0.04-3.285,0.022-4.926c0.026-0.698,0.063-1.395,0.095-2.093
				C222.474,325.211,222.468,325.211,222.463,325.21z M334.772,398.682c-1.403,1.26-3.053,2.089-4.836,2.611
				c-6.356,1.861-12.814,2.469-19.389,1.426c-4.148-0.658-8.213-1.686-12.204-2.959c-5.823-1.857-11.772-3.05-17.828-3.778
				c-4.4-0.529-8.568-1.894-12.576-3.726c-3.584-1.639-5.34-4.639-5.157-8.47c0.219-0.08,0.383,0.035,0.54,0.158
				c4.43,3.445,9.59,5.248,14.94,6.609c4.121,1.048,8.337,1.539,12.549,2.009c3.932,0.439,7.746,1.405,11.586,2.286
				c5.395,1.237,10.802,2.439,16.336,2.91c6.207,0.527,12.124-0.534,17.757-3.194c0.269-0.127,0.549-0.23,0.824-0.344
				c0.083,0.068,0.166,0.136,0.249,0.205C336.986,396.059,336.09,397.498,334.772,398.682z M293.118,332.109
				c0.077-1.043,0.013-2.096,0.04-3.143c0.022-0.891,0.19-1.029,1.088-0.95c1.756,0.154,2.957,1.217,3.815,2.605
				c1.425,2.305,1.53,4.798,0.666,7.343c-0.248,0.729-0.735,1.299-1.286,1.815c-1.824,1.705-3.95,2.857-6.376,3.452
				c-0.436,0.107-0.875,0.203-1.318,0.273c-0.444,0.071-0.758,0.263-0.788,0.745c-0.029,0.463,0.244,0.753,0.64,0.911
				c0.274,0.109,0.575,0.156,0.868,0.215c2.353,0.468,4.555-0.152,6.723-0.958c1.254-0.466,1.236-0.482,2.054,0.665
				c0.776,1.089,1.576,2.161,2.475,3.39c-3.099,0.985-5.749,2.23-8.169,3.956c-3.141,2.241-5.6,5.096-7.611,8.358
				c-0.326,0.529-0.895,1.169-0.217,1.731c0.714,0.592,1.154-0.159,1.597-0.595c1.565-1.541,3.093-3.121,4.687-4.63
				c2.512-2.379,5.395-3.931,8.859-4.683c8.453-1.836,16.238-0.329,23.56,4.077c1.633,0.983,3.11,2.192,4.394,3.594
				c4.416,4.82,7.719,10.297,9.406,16.647c1.059,3.987,1.407,8.043,0.829,12.171c-0.201,1.431-0.794,2.258-2.125,2.897
				c-6.613,3.176-13.519,4.028-20.723,2.942c-5.184-0.782-10.326-1.783-15.396-3.111c-4.896-1.282-9.909-1.799-14.906-2.446
				c-5.624-0.729-11.067-2.104-16.225-4.524c-2.328-1.092-4.442-2.462-6.267-4.289c-0.584-0.585-0.779-1.149-0.672-1.989
				c0.261-2.062,0.935-3.986,1.783-5.849c1.036-2.274,1.546-4.624,1.407-7.121c-0.307-5.534,0.449-10.955,1.76-16.315
				c0.119-0.485,0.238-0.969,0.364-1.452c0.119-0.457,0.352-0.628,0.872-0.516c1.168,0.253,2.346,0.455,3.547,0.521
				c1.412,0.078,2.793-0.072,4.143-0.47c0.474-0.14,0.927-0.362,1.374-0.579c0.325-0.157,0.623-0.416,0.513-0.808
				c-0.095-0.338-0.464-0.313-0.763-0.33c-2.147-0.123-4.257-0.39-6.308-1.125c-4.947-1.773-6.406-5.873-5.84-10.374
				c0.271-2.151,2.999-3.755,5.172-3.213c0.334,0.083,0.522,0.246,0.574,0.585c0.061,0.395,0.144,0.785,0.206,1.18
				c0.526,3.355,2.517,5.552,5.655,6.537c3.941,1.237,7.901,0.989,11.683-0.735C291.587,337.28,292.903,335.022,293.118,332.109z
				 M275.24,308.558c2.121-0.275,4.232-0.602,6.333-1c1.614-0.306,3.23-0.603,4.842-0.914c1.032-0.199,1.105-0.211,1.209,0.881
				c0.189,1.987,0.302,3.982,0.418,5.975c0.25,4.286,0.66,8.563,0.97,12.855c0,1.646,0.043,3.294-0.01,4.939
				c-0.072,2.232-0.755,3.164-2.873,3.852c-2.323,0.755-4.707,0.888-7.089,0.319c-1.993-0.476-3.25-1.707-3.462-3.815
				c-0.149-1.489-0.273-2.984-0.337-4.479c-0.245-5.738-0.596-11.467-1.162-17.183C273.967,308.849,274.044,308.713,275.24,308.558z
				 M339.162,278.031c-2.535,2.012-5.046,4.05-7.752,5.837c-5.789,3.822-11.917,7.01-18.26,9.793
				c-4.788,2.101-9.69,3.916-14.713,5.361c-5.596,1.611-11.256,2.964-17.008,3.934c-4.918,0.829-9.842,1.58-14.819,1.924
				c-3.032,0.21-6.068,0.352-9.106,0.479c-4.851,0.203-9.669-0.164-14.498-0.435c-4.493-0.252-8.923-0.976-13.358-1.678
				c-5.823-0.922-11.504-2.442-17.129-4.158c-7.107-2.168-13.974-4.977-20.593-8.342c-5.763-2.93-11.531-5.881-16.804-9.664
				c-4.422-3.172-8.516-6.726-12.225-10.723c-2.546-2.743-5.064-5.51-7.185-8.597c-2.736-3.983-5.614-7.877-7.968-12.111
				c-2.38-4.279-4.373-8.74-6.062-13.333c-1.88-5.113-3.398-10.342-4.389-15.696c-1.053-5.688-2.133-11.372-2.965-17.102
				c-1.451-10-1.934-20.067-2.432-30.141c-0.346-6.99-0.086-13.978-0.223-20.967c-0.128-6.546,1.723-12.613,4.738-18.364
				c0.724-1.381,1.682-2.594,2.717-3.751c4.171-4.665,9.148-8.32,14.493-11.5c8.76-5.211,18.166-8.932,27.872-11.931
				c10.894-3.366,22.02-5.685,33.301-7.307c12.722-1.828,25.51-2.726,42.309-2.818c5.792-0.004,15.515,0.372,25.217,1.311
				c14.739,1.427,29.273,3.934,43.488,8.138c9.838,2.91,19.372,6.571,28.298,11.691c4.561,2.616,8.828,5.636,12.714,9.199
				c6.149,5.639,9.546,12.696,10.87,20.829c1.24,7.623,1.266,15.309,1.063,23c-0.167,6.34-0.477,12.672-1.024,18.993
				c-0.693,8.013-1.754,15.975-3.178,23.891c-0.743,4.13-1.603,8.237-2.861,12.239c-1.824,5.806-3.794,11.562-6.363,17.096
				c-1.555,3.352-3.193,6.668-5.119,9.814c-1.793,2.929-3.784,5.742-5.778,8.543c-1.387,1.948-2.813,3.89-4.417,5.657
				C346.567,270.937,343.205,274.822,339.162,278.031z M380.305,266.774c-1.51,3.597-2.814,7.243-3.055,11.19
				c-0.074,1.207-0.154,1.252-1.374,1.089c-8.342-1.115-16.721-1.999-24.941-3.892c-0.655-0.151-1.382-0.168-2.022-0.725
				c1.164-1.271,2.305-2.504,3.432-3.75c2.175-2.405,4.099-5.011,5.996-7.632c0.518-0.716,0.994-0.811,1.746-0.638
				c5.345,1.232,10.76,2.053,16.196,2.751c1.427,0.183,2.888,0.094,4.277,0.486C380.805,266.125,380.446,266.437,380.305,266.774z
				 M437.917,310.106c-0.234,2.534-2.445,4.351-4.961,4.124c-0.56-0.05-0.917-0.193-1.045-0.816
				c-0.846-4.119-3.213-7.468-5.55-10.825c-0.82-1.178-1.722-2.298-2.633-3.505c1.231-0.728,2.393-1.383,3.52-2.092
				c0.8-0.503,1.561-1.07,2.33-1.621c0.864-0.62,0.873-0.637,1.537,0.157c1.538,1.839,2.905,3.796,4.128,5.86
				c0.971,1.639,1.748,3.352,2.315,5.173C437.923,307.729,438.028,308.904,437.917,310.106z M441.423,304.038
				c-0.554-0.141-0.984-0.417-1.213-0.997c-1.472-3.728-3.91-6.814-6.537-9.774c-0.88-0.992-0.882-1.003-0.237-2.151
				c0.615-1.094,1.103-2.241,1.35-3.471c0.09-0.447,0.39-1.063-0.213-1.334c-0.5-0.225-0.769,0.325-1.07,0.633
				c-0.733,0.749-1.444,1.519-2.177,2.268c-1.86,1.901-3.916,3.534-6.275,4.797c-2.595,1.389-5.142,2.876-7.95,3.809
				c-0.991,0.329-2.019,0.549-3.035,0.798c-0.489,0.12-0.867,0.351-0.814,0.895c0.056,0.582,0.443,0.878,1.032,0.835
				c1.344-0.098,2.709-0.099,4.023-0.355c1.189-0.232,1.905,0.254,2.56,1.088c1.791,2.281,3.367,4.702,4.78,7.235
				c0.902,1.619,1.732,3.258,2.154,5.077c0.238,1.026,0.401,2.057,0.283,3.114c-0.285,2.557-2.862,4.109-5.277,3.182
				c-1.235-0.474-2.269-1.247-3.214-2.149c-1.602-1.528-2.868-3.31-3.979-5.218c-1.43-2.458-2.88-4.904-4.348-7.34
				c-3.096-5.138-7.097-9.405-12.362-12.343c-3.851-2.149-5.943-5.339-6.371-9.685c-0.068-0.694-0.162-1.387-0.264-2.077
				c-0.073-0.492-0.138-0.993-0.284-1.466c-0.146-0.471-0.347-1.036-0.948-1.01c-0.614,0.027-0.702,0.577-0.797,1.093
				c-0.373,2.016-1.003,3.955-1.722,5.876c-1.372,3.665-4.507,3.069-6.215,1.171c-0.851-0.945-1.182-2.065-1.339-3.26
				c-0.11-0.84-0.121-1.692-0.176-2.539c-0.071-2.107,0.186-4.169,0.673-6.225c0.949-4.005,2.257-7.859,4.453-11.368
				c0.529-0.845,1.074-1.684,1.675-2.477c1.278-1.686,3.847-1.658,5.145,0.036c0.685,0.894,1.099,1.907,1.124,3.04
				c0.023,1.047-0.012,2.095-0.026,3.142c-0.005,0.349-0.057,0.7-0.025,1.044c0.038,0.404,0.335,0.596,0.715,0.641
				c0.387,0.046,0.675-0.084,0.809-0.49c0.171-0.521,0.372-1.033,0.55-1.552c1.522-4.435,4.457-7.729,8.308-10.278
				c0.965-0.638,2.02-1.073,3.163-1.302c1.614-0.323,3.216-0.708,4.832-1.021c4.958-0.96,7.536-3.818,8.298-9.427
				c0.214-1.576,0.172-3.188,0.217-4.783c0.032-1.156,0.218-2.291,0.503-3.4c0.577-2.247,2.032-3.001,4.183-2.151
				c3.31,1.31,5.119,3.932,5.868,7.262c1.129,5.017-0.109,9.38-3.982,12.902c-1.331,1.211-2.749,2.31-4.173,3.404
				c-0.158,0.121-0.328,0.228-0.491,0.343c-0.488,0.34-0.828,0.775-0.59,1.389c0.268,0.692,0.875,0.738,1.506,0.638
				c0.493-0.078,1.014-0.095,1.467-0.278c0.797-0.323,1.16,0.033,1.533,0.678c1.751,3.036,3.215,6.186,4.238,9.552
				c0.999,3.288,1.87,6.622,3.457,9.712c1.953,3.804,4.673,7.064,7.237,10.435c1.025,1.348,2.193,2.589,3.326,3.852
				c1.161,1.293,1.94,2.786,2.334,4.462C447.943,302.051,444.954,304.936,441.423,304.038z"/>
			<path style="fill:#3D191A;" d="M365.003,156.554c3.213-5.886,3.265-11.81,0.121-17.746c-1.249-2.358-2.884-4.43-4.744-6.331
				c-3.523-3.602-7.621-6.434-11.993-8.886c-8.412-4.717-17.417-7.942-26.681-10.489c-18.095-4.975-36.586-7.271-55.291-8.052
				c-12.387-0.518-24.757-0.216-37.112,0.837c-11.454,0.976-22.805,2.619-34.004,5.228c-9.69,2.258-19.173,5.16-28.188,9.446
				c-5.249,2.496-10.239,5.407-14.647,9.238c-2.463,2.141-4.653,4.524-6.356,7.324c-2.249,3.698-3.311,7.675-2.764,12.019
				c0.435,3.455,1.847,6.508,3.865,9.303c2.999,4.152,6.877,7.348,11.13,10.119c6.014,3.918,12.513,6.839,19.245,9.267
				c12.637,4.558,25.7,7.336,38.969,9.204c13.121,1.848,26.319,2.647,40.716,2.691c5.89-0.075,12.924-0.275,19.951-0.771
				c11.817-0.835,23.534-2.371,35.114-4.879c10.066-2.18,19.929-5.03,29.347-9.266c5.665-2.548,11.069-5.541,15.854-9.553
				C360.503,162.77,363.133,159.979,365.003,156.554z M354.228,162.583c-5.156,4.12-10.964,7.092-17.027,9.604
				c-9.629,3.989-19.645,6.655-29.851,8.656c-16.911,3.317-34.007,4.642-51.217,4.73c-15.704-0.073-31.323-1.195-46.806-3.89
				c-12.417-2.162-24.602-5.191-36.251-10.115c-5.394-2.28-10.576-4.953-15.285-8.471c-2.612-1.951-5.015-4.122-6.958-6.76
				c-1.741-2.364-3.015-4.928-3.374-7.893c-0.349-2.883,0.308-5.556,1.623-8.093c1.374-2.65,3.302-4.866,5.497-6.86
				c3.312-3.008,7.048-5.401,10.989-7.482c8.121-4.288,16.751-7.237,25.601-9.569c10.588-2.79,21.354-4.608,32.234-5.794
				c14.423-1.572,28.881-2.049,43.371-1.42c17.648,0.766,35.105,2.924,52.216,7.462c8.215,2.178,16.234,4.913,23.865,8.7
				c4.125,2.047,8.063,4.397,11.629,7.332c2.403,1.978,4.567,4.177,6.241,6.824c3.421,5.409,3.389,10.801-0.082,16.176
				C358.916,158.392,356.698,160.609,354.228,162.583z"/>
			<path style="fill:#3D191A;" d="M253.171,246.707c4.671-4.707,6.768-10.484,6.858-17.227c-0.119-6.897-2.519-13.014-7.664-17.934
				c-9.212-8.809-23.364-7.697-31.106,2.421c-3.165,4.137-4.788,8.849-4.884,14.043c-0.155,8.484,2.926,15.534,9.752,20.692
				C234.486,255.02,245.794,254.141,253.171,246.707z M232.224,247.366c-1.688-0.6-3.097-1.527-4.41-2.603
				c-8.53-6.991-9.821-20.512-2.697-28.927c3.728-4.403,8.523-6.45,14.325-5.973c0.384,0.032,0.807-0.039,1.105,0.276
				c0.06,0.182,0.007,0.303-0.124,0.397c-4.185,2.99-6.779,7.131-8.447,11.889c-2.117,6.04-2.707,12.249-1.757,18.589
				c0.291,1.942,0.934,3.772,1.866,5.501C232.198,246.722,232.377,246.92,232.224,247.366z M235.439,247.147
				c-2.026-2.99-2.96-6.287-3.087-9.853c-0.021-0.598-0.003-1.197-0.003-1.795c-0.011-5.361,1.049-10.498,3.275-15.383
				c1.128-2.475,2.624-4.702,4.61-6.574c2.89-2.724,4.286-2.892,7.396-0.499c6.62,5.094,9.098,11.949,7.907,20.083
				c-0.81,5.532-3.575,9.997-8.356,13.072c-2.625,1.688-5.529,2.444-8.64,2.549C237.159,248.794,236.226,248.308,235.439,247.147z"
				/>
			<path style="fill:#3D191A;" d="M299.969,209.537c-8.455-6.015-19.533-5.087-26.808,2.306c-4.609,4.684-6.692,10.418-6.771,15.878
				c-0.013,9.063,3.607,16.454,9.776,21.012c8.427,6.227,19.664,5.384,27.065-2.03C313.549,236.365,311.943,218.055,299.969,209.537
				z M285.529,248.415c-4.944-1.037-8.745-3.763-11.515-7.937c-4.737-7.137-4.621-16.737,0.262-23.529
				c2.352-3.272,5.449-5.509,9.345-6.605c0.19-0.054,0.388-0.08,0.584-0.108c0.042-0.006,0.09,0.036,0.157,0.065
				c-6.901,13.375-5.473,26.065,3.261,38.212C286.861,248.721,286.188,248.553,285.529,248.415z M297.324,246.137
				c-1.379,0.925-2.905,1.533-4.487,2.019c-0.731,0.225-1.329,0.114-1.938-0.383c-0.818-0.667-1.596-1.359-2.194-2.233
				c-6.558-9.581-7.904-19.832-3.934-30.757c0.513-1.412,1.204-2.734,2.157-3.916c0.651-0.808,1.411-1.149,2.473-1.03
				c3.967,0.446,7.388,2.062,10.232,4.823c4.232,4.109,6.179,9.206,6.286,15.48C305.657,236.562,303.158,242.223,297.324,246.137z"
				/>
			<path style="fill:#3D191A;" d="M264.731,261.04c-0.295,0.185-0.635,0.304-0.911,0.51c-0.597,0.445-0.802,1.19-0.56,1.868
				c0.238,0.667,0.862,1.056,1.647,1.04c0.519-0.011,0.964-0.233,1.405-0.468c2.149-1.145,3.951-2.697,5.37-4.674
				c1.158-1.614,1.842-3.413,1.93-5.113c0.064-3.749-2.204-6.66-5.68-7.656c-4.451-1.275-9.034,1.477-11.126,3.937
				c-0.096,0.113-0.169,0.247-0.236,0.38c-0.444,0.872-0.287,1.813,0.408,2.461c0.703,0.657,1.648,0.761,2.476,0.226
				c0.33-0.214,0.601-0.52,0.898-0.784c1.37-1.219,2.907-2.101,4.755-2.348c2.182-0.292,4.064,0.836,4.578,2.725
				c0.264,0.969,0.047,1.887-0.313,2.773C268.449,258.184,266.759,259.77,264.731,261.04z"/>
			<path style="fill:#3D191A;" d="M280.468,263.837c-1.221,0.568-2.431,1.16-3.654,1.723c-4.638,2.135-9.5,3.296-13.382,3.348
				c-3.999,0.03-6.691-0.414-9.361-1.122c-4.954-1.313-9.033-4.14-12.933-7.304c-0.42-0.341-0.472-0.697-0.318-1.181
				c0.335-1.054,0.54-2.136,0.351-3.244c-0.176-1.032-0.8-1.574-1.703-1.545c-0.904,0.03-1.444,0.597-1.575,1.668
				c-0.018,0.148,0.003,0.3-0.008,0.449c-0.165,2.332-1.435,3.867-3.501,4.813c-0.406,0.186-0.861,0.267-1.26,0.464
				c-0.834,0.412-1.22,1.281-0.993,2.123c0.214,0.797,0.888,1.317,1.765,1.357c0.564,0.026,1.111-0.092,1.582-0.379
				c0.737-0.45,1.219-0.155,1.629,0.451c0.307,0.454,0.629,0.902,0.888,1.383c1.119,2.077,1.886,4.289,2.452,6.574
				c0.612,2.469,1.248,4.933,1.827,7.411c0.656,2.807,1.781,5.402,3.442,7.75c2.923,4.131,6.805,6.794,11.849,7.687
				c2.749,0.487,5.46,0.311,8.179-0.203c4.032-0.762,7.368-2.735,10.041-5.804c2.044-2.346,2.237-5.279,2.193-8.184
				c-0.04-2.643-0.431-5.271-0.846-7.885c-0.157-0.993-0.215-1.99-0.143-2.985c0.099-1.361,0.6-2.495,1.903-3.175
				c0.615-0.32,1.211-0.719,1.721-1.185c0.672-0.615,1.186-1.376,1.064-2.361C281.577,263.669,281.214,263.49,280.468,263.837z
				 M246.245,279.632c-0.909-3.869-1.274-7.956-2.747-11.763c0.459-0.331,0.704,0.064,0.958,0.22
				c4.41,2.714,9.197,4.289,14.34,4.826c4.24,0.443,8.352-0.25,12.421-1.358c0.384-0.104,0.766-0.219,1.153-0.311
				c0.083-0.02,0.185,0.038,0.358,0.079c0.047,1.965,0.63,3.874,0.988,6.092c-1.32-0.7-2.343-1.324-3.521-1.599
				c-3.336-0.78-6.242,0.132-8.717,2.375c-0.762,0.691-1.258,0.725-2.178,0.316c-4.193-1.865-8.311-1.904-12.2,0.875
				C246.904,279.523,246.723,279.72,246.245,279.632z M269.588,291.364c-2.389,1.091-4.921,1.617-7.839,1.735
				c-4.38-0.123-8.506-1.591-11.845-4.98c-0.815-0.827-1.456-1.773-1.948-2.82c-0.538-1.147-0.55-1.368,0.51-2.135
				c2.764-2.002,5.774-2.85,9.173-1.822c2.623,0.793,4.467,2.549,6.066,4.65c0.393,0.516,0.759,1.056,1.193,1.535
				c0.262,0.29,0.646,0.542,1.06,0.301c0.457-0.266,0.506-0.707,0.323-1.178c-0.712-1.829-1.698-3.497-2.939-5.017
				c-0.895-1.096-0.891-1.099,0.16-1.967c3.464-2.86,8.183-2.223,10.797,1.451c0.388,0.546,0.586,1.134,0.628,1.807
				C275.148,286.487,273.115,289.753,269.588,291.364z"/>
		</g>
	</g>
</g>
</svg>
