<?xml version="1.0" encoding="utf-8"?>
<!-- Generator: Adobe Illustrator 27.5.0, SVG Export Plug-In . SVG Version: 6.00 Build 0)  -->
<svg version="1.1" xmlns="http://www.w3.org/2000/svg" xmlns:xlink="http://www.w3.org/1999/xlink" x="0px" y="0px"
	 viewBox="0 0 500 500" style="enable-background:new 0 0 500 500;" xml:space="preserve">
<g id="Floor">
	<ellipse id="Floor_20_" style="fill:#F5F5F5;" cx="249.648" cy="342.831" rx="238.452" ry="129.217"/>
</g>
<g id="Pictures">
	<g id="Picture_00000055682981014324957660000012054867892422805135_">
		<g id="Frame_00000127022866898025490090000002074075124439037100_">
			<polygon id="XMLID_00000140007091269092244880000010075585711265827261_" style="fill:#FAFAFA;" points="43.653,130.143 
				45.974,131.526 93.599,104.03 91.279,102.645 			"/>
			<g id="XMLID_00000000192801574856100130000007852875428432741053_">
				<g id="XMLID_00000027596682658757112520000007647042074356685223_">
					<g id="XMLID_00000062891590123133492710000002825560563879328168_">
						<polygon id="XMLID_00000158008978127240932130000009345750229691328183_" style="fill:#FFFFFF;" points="91.279,102.645 
							45.974,128.796 45.975,81.354 91.28,55.219 						"/>
					</g>
				</g>
			</g>
			<path id="XMLID_00000114053273530851588330000001642847901510685887_" style="fill:#F0F0F0;" d="M97.98,46.272L41.595,78.826
				l0,60.285l56.385-32.554L97.98,46.272z M93.599,104.03l-47.625,27.496l0.001-50.173L93.6,53.857L93.599,104.03z"/>
			<polygon id="XMLID_00000082328496051126023100000002425776159746725792_" style="fill:#E0E0E0;" points="93.599,104.03 
				91.279,102.645 91.28,55.219 93.6,53.857 			"/>
			<polygon id="XMLID_00000062185990925325965400000016245816752348419480_" style="fill:#FAFAFA;" points="97.98,46.272 
				95.623,44.923 39.238,77.477 41.595,78.826 			"/>
			<polygon id="XMLID_00000063619284696963360940000012317035970181562516_" style="fill:#E0E0E0;" points="39.238,77.477 
				41.595,78.826 41.595,139.111 39.238,137.762 			"/>
		</g>
		<g id="Land_00000001655633758112173950000013301236395825407122_">
			<polygon style="fill:#F0F0F0;" points="89.51,101.227 47.744,125.342 47.744,113.284 58.187,89.17 64.691,95.199 62.351,105.305 
				76.773,74.463 89.51,89.17 			"/>
			<path style="fill:#F0F0F0;" d="M64.298,77.526c-1.706,0.985-3.089,3.381-3.089,5.351s1.383,2.769,3.089,1.784
				c1.706-0.985,3.089-3.381,3.089-5.351S66.004,76.541,64.298,77.526z"/>
		</g>
	</g>
	<g id="Picture_00000136412003794483749450000016150365752736407175_">
		<g id="Frame_00000099650617013304915110000011375059557626759591_">
			<polygon id="XMLID_00000134929541412833784070000000177801196685434043_" style="fill:#FAFAFA;" points="43.653,218.877 
				45.974,220.26 93.599,192.764 91.279,191.379 			"/>
			<g id="XMLID_00000098209074953189758630000015252593063039299236_">
				<g id="XMLID_00000148625346038938242350000014165422744793762184_">
					<g id="XMLID_00000145771320130333223740000012480038326987994528_">
						<polygon id="XMLID_00000018200085769046291120000000579381872508643994_" style="fill:#FFFFFF;" points="91.279,191.379 
							45.974,217.53 45.975,170.088 91.28,143.953 						"/>
					</g>
				</g>
			</g>
			<path id="XMLID_00000092453846602699576150000000630366781782672025_" style="fill:#F0F0F0;" d="M97.98,135.006L41.595,167.56
				l0,60.286l56.385-32.554L97.98,135.006z M93.599,192.764L45.974,220.26l0.001-50.173l47.624-27.496L93.599,192.764z"/>
			<polygon id="XMLID_00000081639150920912602090000015166814497180814774_" style="fill:#E0E0E0;" points="93.599,192.764 
				91.279,191.379 91.28,143.953 93.599,142.591 			"/>
			<polygon id="XMLID_00000086656357903399848560000005081551794041400968_" style="fill:#FAFAFA;" points="97.98,135.006 
				95.623,133.657 39.238,166.211 41.595,167.56 			"/>
			<polygon id="XMLID_00000070832752003336357230000000312162338288331709_" style="fill:#E0E0E0;" points="39.238,166.211 
				41.595,167.56 41.595,227.845 39.238,226.496 			"/>
		</g>
		<g id="Land_00000037660121623731594690000018283963164426616748_">
			<polygon style="fill:#F0F0F0;" points="89.51,189.961 47.744,214.076 47.744,202.018 58.186,177.904 64.691,183.933 
				62.351,194.04 76.773,163.197 89.51,177.904 			"/>
			<path style="fill:#F0F0F0;" d="M64.298,166.261c-1.706,0.985-3.089,3.381-3.089,5.351c0,1.97,1.383,2.769,3.089,1.784
				c1.706-0.985,3.089-3.38,3.089-5.351C67.387,166.074,66.004,165.276,64.298,166.261z"/>
		</g>
	</g>
</g>
<g id="Shelf_00000182511901680162942560000004766085920610184632_">
	<g id="Shelf_00000176730811152915410620000002132036755527042453_">
		<g id="Shelf">
			<g>
				<g>
					<polygon style="fill:#EBEBEB;" points="320.59,103.457 363.273,78.811 475.684,143.641 475.684,148.325 433,172.971 
						320.59,108.142 					"/>
				</g>
				<g>
					<polygon style="fill:#FAFAFA;" points="433,168.286 320.59,103.457 363.273,78.811 475.684,143.641 					"/>
				</g>
				<g>
					<polygon style="fill:#E6E6E6;" points="433,168.286 433,172.971 475.684,148.325 475.684,143.641 					"/>
				</g>
			</g>
			<g id="XMLID_1621_">
				<g id="XMLID_1622_">
					<polygon id="XMLID_1628_" style="fill:#EBEBEB;" points="356.718,33.658 329.038,49.648 329.038,102.307 356.718,86.32 					
						"/>
					<path id="XMLID_1626_" style="fill:#FFFFFF;" d="M329.929,50.523l26.79-15.374c1.38,1.595,3.426,2.708,6.125,3.349
						l-26.562,15.308C336.281,53.806,334.566,53.404,329.929,50.523z"/>
					<path id="XMLID_1625_" style="fill:#FAFAFA;" d="M338.856,53.714c-1.422,0.816-3.727,0.816-5.148,0l-4.51-2.589
						c-1.422-0.816-1.422-2.139,0-2.954l26.402-15.152l1.119,0.639l-25.967,14.997c-0.853,0.49-0.853,1.282,0.001,1.771l4.192,2.378
						c0.854,0.489,2.237,0.488,3.09-0.001l25.958-14.967l1.267,0.727L338.856,53.714z"/>
					<path id="XMLID_1624_" style="fill:#E0E0E0;" d="M365.256,38.561v52.66l-26.4,15.15c-1.421,0.815-3.727,0.815-5.148,0
						l-4.512-2.588c-0.707-0.408-1.064-0.94-1.064-1.477v-52.66c0,0.538,0.357,1.069,1.064,1.477l4.512,2.594
						c1.421,0.815,3.728,0.815,5.148,0L365.256,38.561z"/>
					<path id="XMLID_1623_" style="fill:#F0F0F0;" d="M336.282,54.328c-0.932,0-1.863-0.204-2.574-0.611l-4.512-2.594
						c-0.707-0.408-1.064-0.939-1.064-1.477v52.66c0,0.537,0.357,1.069,1.064,1.477l4.512,2.588
						c0.711,0.408,1.642,0.611,2.574,0.612V54.328z"/>
				</g>
			</g>
			<g id="XMLID_1609_">
				<polygon id="XMLID_485_" style="fill:#EBEBEB;" points="367.468,42.804 339.789,58.794 348.387,113.046 376.066,97.059 				"/>
				<path id="XMLID_484_" style="fill:#FFFFFF;" d="M340.882,59.551l26.803-15.382c1.729,1.393,4.109,2.314,7.129,2.769
					l-26.566,15.31C348.249,62.249,346.33,61.965,340.882,59.551z"/>
				<path id="XMLID_483_" style="fill:#FAFAFA;" d="M351.026,62.04c-1.422,0.816-3.921,0.928-5.582,0.25l-5.268-2.151
					c-1.66-0.678-1.853-1.889-0.431-2.706l26.415-15.16l1.306,0.531l-25.966,14.997c-0.853,0.49-0.737,1.216,0.259,1.622
					l4.892,1.974c0.996,0.406,2.496,0.338,3.349-0.151l25.961-14.969l1.479,0.604L351.026,62.04z"/>
				<path id="XMLID_1611_" style="fill:#E0E0E0;" d="M377.439,46.879l8.597,54.252l-26.413,15.158
					c-1.422,0.816-3.922,0.928-5.582,0.25l-5.269-2.151c-0.826-0.339-1.291-0.809-1.369-1.301l-8.597-54.252
					c0.078,0.492,0.542,0.962,1.369,1.301l5.27,2.156c1.659,0.678,4.16,0.566,5.581-0.25L377.439,46.879z"/>
				<path id="XMLID_1610_" style="fill:#F0F0F0;" d="M348.325,62.728c-1.01,0.045-2.05-0.096-2.88-0.435l-5.27-2.156
					c-0.827-0.339-1.29-0.809-1.369-1.301l8.597,54.252c0.078,0.492,0.543,0.962,1.369,1.301l5.269,2.151
					c0.83,0.339,1.87,0.48,2.88,0.435L348.325,62.728z"/>
			</g>
			<g id="Picture_1_">
				<g id="Frame_16_">
					<polygon id="XMLID_1608_" style="fill:#FAFAFA;" points="413.464,141.354 411.502,142.299 375.185,121.331 377.146,120.386 
											"/>
					<g id="XMLID_00000037683390221141893570000016761716597175725751_">
						<g id="XMLID_479_">
							<g id="XMLID_1606_">
								<polygon id="XMLID_1607_" style="fill:#FFFFFF;" points="377.146,120.386 411.694,140.328 416.719,88.653 382.17,68.723 
																	"/>
							</g>
						</g>
					</g>
					<path id="XMLID_00000050660964908752993320000013003862896306795433_" style="fill:#F0F0F0;" d="M371.49,123.054l42.997,24.824
						l5.928-60.948l-42.997-24.824L371.49,123.054z M380.402,67.685l36.316,20.968l-5.217,53.646l-36.317-20.967L380.402,67.685z"/>
					<polygon id="XMLID_456_" style="fill:#E0E0E0;" points="375.185,121.331 377.146,120.386 382.17,68.723 380.402,67.685 					
						"/>
					<polygon id="XMLID_415_" style="fill:#FAFAFA;" points="377.417,62.106 379.405,61.187 422.402,86.011 420.414,86.93 					"/>
					<polygon id="XMLID_00000116232056597381421460000008804281306879544727_" style="fill:#E0E0E0;" points="422.402,86.011 
						420.414,86.93 414.486,147.878 416.474,146.959 					"/>
				</g>
				<g id="Land_2_">
					<polygon style="fill:#F0F0F0;" points="378.666,119.404 410.515,137.792 411.362,129.087 405.439,103.513 399.792,112.24 
						400.961,119.592 391.544,92.459 379.512,110.699 					"/>
					<path style="fill:#F0F0F0;" d="M405.928,92.745c1.301,0.751,2.244,2.513,2.105,3.936c-0.138,1.422-1.306,1.967-2.607,1.215
						c-1.301-0.751-2.243-2.513-2.105-3.935C403.46,92.539,404.627,91.994,405.928,92.745z"/>
				</g>
			</g>
			<g id="Pot_9_">
				<path id="Shadow_41_" style="opacity:0.05;" d="M431.354,137.767c-5.892,3.402-5.892,8.918,0,12.32
					c5.892,3.402,15.446,3.402,21.338,0c5.892-3.402,5.892-8.917-0.001-12.32C446.799,134.365,437.246,134.365,431.354,137.767z"/>
				<g id="XMLID_1588_">
					<path id="XMLID_301_" style="fill:#F5F5F5;" d="M451.616,146.348c5.132-5.236,8.146-18.311,3.141-22.463H429.29
						c-5.004,4.152-1.993,17.219,3.136,22.459c0.044,0.049,0.094,0.096,0.141,0.144c0.059,0.058,0.117,0.117,0.176,0.173
						c0.145,0.14,0.299,0.278,0.464,0.413c0.041,0.034,0.082,0.064,0.123,0.096c0.126,0.099,0.25,0.197,0.387,0.293
						c0.219,0.155,0.439,0.3,0.663,0.424c4.221,2.437,11.065,2.437,15.286,0h0h0c0.226-0.125,0.448-0.271,0.668-0.427
						c0.128-0.089,0.243-0.181,0.36-0.272c0.051-0.04,0.101-0.077,0.152-0.119c0.16-0.13,0.308-0.263,0.447-0.398
						c0.069-0.064,0.136-0.132,0.204-0.2C451.537,146.429,451.58,146.389,451.616,146.348z"/>
					<path id="XMLID_00000011729894691791214340000010957422813996747665_" style="fill:#FFFFFF;" d="M431.502,121.892
						c-5.811,3.355-5.811,8.794,0,12.149c5.811,3.355,15.232,3.355,21.043,0c5.811-3.355,5.811-8.794,0-12.149
						C446.734,118.538,437.312,118.538,431.502,121.892z"/>
					<path id="XMLID_1590_" style="fill:#EBEBEB;" d="M435.621,124.271c-3.535,2.041-3.535,5.35,0.001,7.392
						c3.535,2.041,9.267,2.041,12.802,0c3.535-2.041,3.535-5.35,0-7.392C444.889,122.23,439.157,122.23,435.621,124.271z"/>
					<path id="XMLID_1589_" style="fill:#E0E0E0;" d="M448.424,127.779c-3.536-2.041-9.267-2.041-12.802,0
						c-0.982,0.567-1.682,1.234-2.118,1.942c0.437,0.709,1.136,1.375,2.118,1.942c3.535,2.041,9.267,2.041,12.802,0
						c0.982-0.567,1.681-1.233,2.118-1.942C450.105,129.013,449.406,128.346,448.424,127.779z"/>
				</g>
				<g id="XMLID_00000075128982102362709950000018429910358211607474_">
					<path id="XMLID_00000163033339199743086930000009769604638236819126_" style="fill:#EBEBEB;" d="M436.402,129.721
						c0,0-2.492-2.374-4.63-6.156c-2.138-3.781-2.533-8.847-1.428-9.472c1.105-0.625,5.605,4.428,5.605,4.428
						s-0.662-3.087-0.474-6.454c0.189-3.368,1.01-6.428,1.974-7.046c0.964-0.618,3.122,3.632,4.048,6.711
						c0.926,3.079,1.478,5.609,1.478,5.609s0.632-4.161,1.659-7.085c1.122-3.196,2.141-3.919,2.93-3.603
						c0.79,0.316,1.31,1.807,1.541,6.065c0.162,2.981-0.19,6.093-0.19,6.093s1.586-1.744,3.348-3.437
						c1.934-1.858,2.762-2.114,3.315-1.76c0.553,0.354,0.706,3.245-2.29,8.664c-2.644,4.781-5.655,7.443-5.655,7.443
						S443.487,132.395,436.402,129.721z"/>
				</g>
			</g>
		</g>
	</g>
</g>
<g id="Shadow">
	<path id="Shadow_00000001627707893412416270000012881471934777936276_" style="fill:#E0E0E0;" d="M155.577,365.182
		c14.871,11.082,32.982,17.182,51.295,20.115c18.313,2.933,36.96,2.855,55.504,2.611c-8.332,20.51,0.874,46.546,20.245,57.261
		c4.02,2.224,10.814,4.581,14.134,0.168c3.215-4.275,4.783-9.846,5.439-15.079c1.061-8.461,0.264-17.123,0.258-25.63
		c13.114,8.385,25.913,17.38,38.498,26.525c4.121,2.984,8.223,6.143,11.202,10.268c5.041,6.981,6.791,15.079,15.86,17.866
		c4.7,1.444,9.734,1.559,14.418,3.055c5.112,1.633,9.576,4.834,14.546,6.857c11.202,4.559,24.161,2.734,35.277-2.031
		c4.885-2.094,9.665-4.841,12.922-9.041c1.653-2.132,2.906-4.818,2.418-7.471c-0.471-2.56-2.505-4.608-4.829-5.779
		c-2.324-1.171-4.937-1.607-7.5-2.054c-23.664-4.127-47.763-10.93-65.097-28.415c-7.885-7.954-14.337-17.197-19.993-26.831
		c-2.241-3.817-7.033-9.773-6.937-14.348c0.083-3.997,3.327-9.561,5.11-13.109c5.004-9.957,11.561-20.56,20.156-42.175
		c3.317-8.344,3.188-13.661,2.621-17.237c-2.127-13.43-18.207-21.326-29.111-26.546c-12.557-6.012-26.025-9.989-39.741-12.284
		c-27.334-4.572-55.891-2.597-82.628,3.295c-30.181,6.651-65.795,20.857-84.2,47.076c-4.258,6.066-6.085,14.162-12.224,18.312
		c-2.603,1.76-5.707,2.586-8.745,3.383c-12.852,3.371-25.703,6.743-38.555,10.114c-3.167,0.831-7.159,3.003-6.226,6.141
		c0.287,0.965,1.028,1.728,1.822,2.348c4.361,3.403,10.391,3.392,15.92,3.227c7.574-0.227,15.149-0.454,22.724-0.682
		c-2.922,1.136-6.01,2.396-7.837,4.944c-1.827,2.548-1.629,6.79,1.183,8.178c1.747,0.862,3.827,0.377,5.71-0.124
		c7.993-2.127,15.987-4.254,23.98-6.382C141.998,359.363,148.307,359.763,155.577,365.182z"/>
</g>
<g id="Cushion">
	<g id="Cushion_00000054250690380181772850000016598345028841264309_">
		<path style="fill:#BA68C8;" d="M347.958,161.201c7.603-1.402,15.883,7.078,30.135,12.404
			c26.556,9.923,39.632,19.829,53.573,32.081c13.941,12.253,17.727,9.692,22.846,17.611c5.118,7.919-3.642,12.2-5.768,24.192
			c-3.583,20.212-10.344,34.139-18.526,43.099c-14.443,15.817-9.712,25.646-17.654,26.189c-8.462,0.578-9.353-6.751-23.683-10.865
			c-33.903-9.733-49.033-19.613-67.978-40.016c-7.4-7.97-14.469-6.682-17.514-14.707c-1.523-4.014,3.914-6.673,6.595-19.865
			c4.455-21.923,14.445-42.954,26.053-54.394C341.104,171.936,340.221,162.627,347.958,161.201z"/>
		<path style="opacity:0.3;" d="M347.958,161.201c7.603-1.402,15.883,7.078,30.135,12.404c26.556,9.923,39.632,19.829,53.573,32.081
			c13.941,12.253,17.727,9.692,22.846,17.611c5.118,7.919-3.642,12.2-5.768,24.192c-3.583,20.212-10.344,34.139-18.526,43.099
			c-14.443,15.817-9.712,25.646-17.654,26.189c-8.462,0.578-9.353-6.751-23.683-10.865c-33.903-9.733-49.033-19.613-67.978-40.016
			c-7.4-7.97-14.469-6.682-17.514-14.707c-1.523-4.014,3.914-6.673,6.595-19.865c4.455-21.923,14.445-42.954,26.053-54.394
			C341.104,171.936,340.221,162.627,347.958,161.201z"/>
		<path style="opacity:0.2;" d="M448.79,237.641c-4.685,9.978-1.865,19.329-11.922,37.785
			c-9.659,17.725-18.173,23.166-20.558,30.969c-1.979,6.477-5.831,9.741-8.394,2.555c-2.563-7.186-1.159-28.445,8.366-47.301
			c10.971-21.718,19.05-30.339,24.991-33.874C450.586,222.233,452.473,229.797,448.79,237.641z"/>
		<path style="opacity:0.2;" d="M352.105,291.533c9.788,5.476,21.331,9.944,36.776,14.378c7.639,2.193,11.459,5.3,14.643,7.636
			c-5.578-5.615-7.541-13.299-16.819-15.609C379.97,296.261,364.399,296.512,352.105,291.533z M304.282,253.06
			c3.394,5.977,9.865,5.557,16.621,12.835c6.559,7.065,12.662,12.866,19.245,17.838c-8.215-8.011-9.505-16.89-15.895-21.43
			C316.561,256.84,310.274,258.724,304.282,253.06z"/>
		<path style="opacity:0.3;fill:#BA68C8;" d="M362.628,179.117c19.19,1.99,39.645,10.08,55.293,23.349
			c2.973,2.698,5.194,6.507,5.601,10.503c0.513,5.036-0.911,9.321-5.039,12.355c-3.832,2.816-10.187,3.331-14.846,3.11
			c-9.819-0.466-15.972-2.526-28.38-1.729c-3.661,0.235-8.736,1.756-12.35,4.363c-5.404,3.898-9.164,8.118-13.915,11.424
			c-6.544,4.553-19.983,3.792-25.459-0.409c-5.851-4.488-8.447-11.721-6-21.25C322.97,199.665,336.846,178.352,362.628,179.117z"/>
	</g>
</g>
<g id="Character">
	<g id="Character_00000132809858767863339630000011728864347676906683_">
		<g id="Bottom_00000093862706175024367480000016512639780190015902_">
			<g>
				<g>
					<path style="fill:#263238;" d="M280.811,366.237c-6.099,1.901-2.756,13.546-3.475,18.313c-0.618,4.095-1.354,5.261-2.6,10.455
						c-1.381,5.757-4.6,11.269,1.596,24.801c6.279,13.714,14.071,19.345,20.425,22.025c3.338,1.407,7.342,0.806,7.348,0.805
						c1.584-0.238,3.386-1.741,4.05-3.148c0.78-1.652,0.897-3.579,0.692-5.371c-0.715-6.249-3.218-12.071-4.484-18.211
						c-1.273-6.176-1.909-12.462-2.378-18.744c-0.509-6.817-0.892-13.893-4.09-19.934c-1.749-3.305-4.301-6.172-7.332-8.362
						c-1.264-0.913-2.621-1.716-4.093-2.232c-1.063-0.373-2.18-0.592-3.305-0.65C282.256,365.938,281.477,366.029,280.811,366.237z"
						/>
				</g>
				<g>
					<path style="fill:#FFBDA7;" d="M351.431,241.422c-28.845,2.148-101.775,16.819-101.775,16.819l-8.657,62.186l10.983,6.623
						l56.392-12.466l-2.097,6.464c-0.496,1.528-1.085,3.342-1.716,5.289c0,0-4.544,14.007-4.648,14.329
						c-1.863,5.741-3.245,9.743-5.643,13.194c-0.98,1.41-2.062,2.717-3.294,3.846c-3.418,3.132-8.135,4.625-9.792,9.228
						c-1.619,4.497-0.817,9.393-0.404,14.028c0.3,3.369,0.084,6.783-0.638,10.088c-0.546,2.502-1.38,4.936-1.897,7.445
						c-2.52,12.209,2.927,25.178,12.001,33.725c2.46,2.318,5.443,4.254,8.503,5.689c1.181,0.554,2.399,1.096,3.698,1.211
						c3.412,0.304,6.481-2.498,7.65-5.718c1.74-4.793,0.295-9.428-0.339-14.207c-0.985-7.427-1.944-15.209-1.154-22.657
						c0.736-6.935,2.188-12.743,5.009-19.15c2.797-6.35,8.421-13.629,12.247-18.514c3.826-4.885,17.429-24.771,17.429-24.771l0,0
						c12.769-18.644,29.011-43.526,35.825-58.88C385.38,261.1,380.864,239.231,351.431,241.422z"/>
					<path style="fill:#455A64;" d="M277.051,398.733c0,0,4.053-3.798,12.001-3.562c10.515,0.312,17.906,6.329,20.172,12.672
						c0.587,4.751,1.809,12.614,2.359,17.001c0.55,4.386,1.827,10.562-5.063,14.866c-7.064,2.497-15.313-3.521-20.809-10.404
						C280.216,422.423,274.907,410.279,277.051,398.733z"/>
					<path style="fill:#F0997A;" d="M310.323,290.574c-3.242,5.792-6.051,10.997-8.391,15.928c-2.339,4.931-8.295,5.985-17.046,4.92
						c-10.875-1.323-19.854-3.872-27.159-6.348c5.112-12.383,2.116-26.876,2.116-26.876c-1.238,7.833-17.148,30.037-17.148,30.037
						l-1.697,12.191l10.983,6.623l56.391-12.466c8.178-24.953,10.169-35.272,22.283-41.231
						C330.656,273.353,319.924,273.419,310.323,290.574z"/>
				</g>
			</g>
			<g>
				<g>
					<path style="fill:#263238;" d="M368.9,445.721c0.368,6.378,12.475,5.953,16.927,7.805c3.823,1.591,4.776,2.588,9.515,5.053
						c5.252,2.733,9.82,7.191,24.45,4.455c14.826-2.772,22.176-8.97,26.314-14.487c2.173-2.898,2.559-6.929,2.56-6.935
						c0.152-1.595-0.87-3.706-2.074-4.691c-1.414-1.157-3.256-1.736-5.044-1.971c-6.236-0.819-12.491,0.201-18.755-0.058
						c-6.3-0.26-12.554-1.164-18.762-2.23c-6.737-1.156-13.695-2.498-20.331-0.857c-3.631,0.897-7.029,2.679-9.888,5.09
						c-1.192,1.005-2.3,2.128-3.156,3.431c-0.619,0.942-1.102,1.972-1.431,3.05C368.96,444.247,368.86,445.024,368.9,445.721z"/>
				</g>
				<path style="fill:#FFBDA7;" d="M441.157,433.566c-4.229-2.849-9.076-2.568-13.867-3.11c-7.444-0.843-15.227-1.796-22.262-4.365
					c-6.551-2.392-12.929-5.463-18.462-9.751c-4.747-3.68-9.416-10.348-13.059-15.249c0,0,0,0,0,0s-17.442-25.786-39.386-57.189
					c-8.613-12.326-18.751-17.788-30.863-21.373c-19.44-5.754-54.659-15.042-54.659-15.042
					c14.814-20.051,12.375-41.187,8.386-50.481c0,0-105.212-2.909-107.12,32.172c-1.495,27.482,12.136,60.075,40.312,68.88
					c39.327,12.29,79.546,13.143,101.2,15.682c8.403,11.76,19.478,21.184,32.975,30.257c19.355,13.011,27.614,18.615,28.456,19.186
					c2.716,1.908,4.964,3.767,7.342,6.485c1.131,1.292,2.137,2.658,2.934,4.127c2.211,4.074,2.519,9.012,6.583,11.734
					c3.971,2.66,8.916,3.067,13.513,3.788c3.341,0.525,6.602,1.56,9.633,3.061c2.295,1.136,4.455,2.534,6.764,3.643
					c11.236,5.401,25.138,3.254,35.628-3.48c2.844-1.826,5.445-4.251,7.578-6.873c0.823-1.011,1.643-2.063,2.07-3.295
					C445.974,439.136,443.998,435.48,441.157,433.566z"/>
				<g>
					<path style="fill:#F0997A;" d="M190.177,358.057c24.577,7.517,50.14,10.898,75.678,13.039
						c8.517,0.755,17.049,1.346,25.564,2.286l0.157,0.017l0.094,0.131c10.167,14.324,24.578,24.755,39.125,34.279
						c4.83,3.246,17.115,11.502,21.779,14.637c4.817,3.315,9.477,7.43,11.823,12.946c2.303,6.389,3.555,10.15,10.706,11.934
						c5.601,1.393,11.734,1.442,17.03,4.11c2.712,1.226,5.154,2.862,7.738,4.088c10.476,4.975,23.149,3.247,33.057-2.331
						c3.785-2.079,7.055-4.94,9.729-8.318c0.89-1.111,1.669-2.267,1.851-3.569c0.667-6.005-5.909-9.383-11.185-9.741
						c-8.665-0.784-17.552-1.614-25.955-4.142c-8.339-2.782-16.534-6.54-23.133-12.461c-8.877-8.48-26.677-36.932-34.374-47.517
						c-2.021-2.934-12.721-18.54-14.544-21.188c-9.02-14.214-21.171-20.964-37.222-24.914c-6.882-1.963-41.967-11.724-49.495-13.858
						c7.759,2.038,42.788,11.615,49.623,13.42c13.842,3.271,26.048,9.039,34.683,20.75c1.768,2.297,4.203,6.011,5.911,8.427
						c7.375,10.674,27.426,39.694,35.067,50.752c2.667,3.593,7.014,9.693,11.01,13.426c13.315,11.734,31.297,15.058,48.56,16.188
						c2.921,0.324,5.962,1.097,8.44,2.942c2.459,1.867,4.257,4.915,3.775,8.103c-0.23,1.624-1.171,2.977-2.081,4.122
						c-2.741,3.494-6.166,6.5-10.055,8.649c-5.152,2.908-10.917,4.732-16.816,5.246c-5.887,0.511-11.967-0.371-17.34-2.954
						c-2.68-1.287-5.104-2.921-7.709-4.105c-7.681-4.171-18.396-1.542-24.541-8.616c-1.891-2.464-2.545-5.435-3.663-8.052
						c-3.24-7.918-11.911-12.818-18.677-17.448c-18.873-13.02-40.328-25.235-53.702-44.388
						C258.584,371.288,222.433,368.4,190.177,358.057L190.177,358.057z"/>
				</g>
				<path style="fill:#455A64;" d="M399.52,457.235c0,0-2.703-4.852-0.551-12.506c2.848-10.127,10.475-15.842,17.178-16.505
					c4.752,0.58,12.677,1.298,17.066,1.826c4.389,0.528,10.691,0.784,13.198,8.51c0.713,7.459-7.123,14.005-15.132,17.672
					C423.272,459.899,410.203,462.111,399.52,457.235z"/>
			</g>
			<g>
				<path style="fill:#455A64;" d="M151.989,260.491c-4.518,25.59-5.802,49.413,4.445,70.007
					c10.246,20.594,28.273,28.464,44.283,32.131c16.01,3.667,26.32,5.126,26.32,5.126s-6.587-17.92,3.891-38.375
					c11.906-23.241,31.245-18.276,31.245-18.276l21.399,5.828c0,0-9.144-11.171-9.495-34.567
					c-0.351-23.397,10.225-30.743,10.225-30.743s-17.155,2.887-23.345,2.654c-6.19-0.233-13.41-13.246-13.41-13.246
					s-5.907,13.949-34.375,22.428C186.751,271.328,163.124,266.699,151.989,260.491z"/>
				<path style="fill:#37474F;" d="M199.243,277.259c16.212-1.948,38.56-8.334,54.546-27.5c-0.282-0.307-0.56-0.619-0.831-0.937
					c-15.736,18.968-37.837,25.281-53.863,27.205c-9.776,1.175-19.214,0.974-27.472,0.046c0.039-0.648,0.037-1.305,0.067-1.948
					c0.04-0.869,0.096-1.738,0.166-2.606c0.067-0.831,0.141-1.661,0.224-2.49c0.074-0.744,0.282-1.582,0.144-2.324
					c-0.05-0.271-0.566-0.724-0.758-0.315c-0.362,0.772-0.386,1.74-0.493,2.577c-0.107,0.84-0.191,1.681-0.26,2.525
					c-0.069,0.84-0.125,1.68-0.167,2.522c-0.032,0.632-0.078,1.287-0.065,1.93c-0.924-0.113-1.837-0.233-2.729-0.363
					c0.117-0.222,0.104-0.484,0.135-0.786c0.035-0.356,0.072-0.713,0.11-1.069c0.086-0.802,0.18-1.602,0.281-2.402
					c0.097-0.771,0.201-1.54,0.313-2.309c0.127-0.882,0.409-1.822,0.323-2.716c-0.024-0.25-0.518-0.721-0.698-0.339
					c-0.36,0.764-0.415,1.71-0.553,2.537c-0.14,0.838-0.273,1.678-0.396,2.518c-0.124,0.841-0.24,1.684-0.347,2.527
					c-0.054,0.422-0.106,0.844-0.155,1.267c-0.032,0.273-0.031,0.454,0.04,0.621c-6.717-1.038-12.421-2.527-16.521-4.066
					c-0.058,0.426-0.113,0.85-0.168,1.275c2.959,1.103,6.666,2.169,10.944,3.063c-0.006,0.025-0.019,0.044-0.02,0.074
					c-0.069,8.29,0.322,16.695,1.741,24.874c1.242,7.158,3.422,14.243,7.13,20.526c0.585,0.991,1.219,1.942,1.876,2.873
					c0.031,0.197,0.144,0.367,0.335,0.464c3.294,4.545,7.413,8.371,12.183,11.433c5.869,3.768,12.389,6.411,18.933,8.752
					c7.106,2.542,14.372,5.043,21.828,6.4c0.024-0.484,0.056-0.976,0.095-1.474c-6.314-1.251-12.455-3.111-18.567-5.204
					c-6.44-2.205-12.865-4.584-18.811-7.934c-5.477-3.085-10.368-7.051-14.13-12.076c5.225-1.171,8.599-6.329,9.328-11.467
					c0.526-3.707-0.143-7.502-0.976-11.112c-0.888-3.844-1.888-7.642-2.493-11.546c-0.328-2.115-0.575-4.244-0.754-6.377
					c-0.166-1.989-0.154-4.012-0.414-5.992c2.743,0.149,5.581,0.211,8.493,0.167C190.853,278.028,195.009,277.767,199.243,277.259z
					 M177.266,283.063c0.105,1.814,0.27,3.622,0.502,5.424c0.467,3.633,1.214,7.204,2.081,10.76
					c1.512,6.207,3.227,13.277-0.404,19.098c-1.506,2.415-3.827,4.415-6.719,4.79c-0.059-0.085-0.124-0.164-0.181-0.25
					c-3.924-5.831-6.379-12.586-7.826-19.432c-1.914-9.053-2.021-18.279-2.569-27.476c-0.001-0.021-0.014-0.039-0.019-0.059
					c4.509,0.892,9.609,1.585,15.118,1.933C177.073,279.578,177.166,281.334,177.266,283.063z"/>
				<path style="fill:#37474F;" d="M247.787,300.854c0,0,8.489-12.388,4.081-27.253c-0.631,23.701-16.105,30.499-16.105,30.499
					l26.141,6.944c0.172,0.036,0.269,0.06,0.269,0.06l21.399,5.828c0,0-1.632-2.001-3.543-6.065L247.787,300.854z"/>
				<path style="fill:#263238;" d="M278.128,315.395l11.138,3.046c0,0-5.367-6.406-8.751-25.819
					c-3.383-19.412,2.171-34.775,8.809-41.912l-12.485,2.063c0,0-9.24,15.693-6.695,39.679
					C271.839,308.422,278.128,315.395,278.128,315.395z"/>
				<path style="fill:#263238;" d="M263.844,311.555l-15.245-4.069c0,0-17.301-1.485-27.967,22.411
					c-10.373,23.239-0.696,37.965-0.696,37.965l10.482,1.07c0,0-8.644-22.051,2.358-39.579
					C243.778,311.826,257.247,311.654,263.844,311.555z"/>
			</g>
		</g>
		<g id="Top">
			<g id="Hair_00000057827819088581969010000016036646556090055301_">
				<path id="Hair_00000001626442113992008850000015366881792372740030_" style="fill:#263238;" d="M172.443,60.344
					c-11.132,0.431-21.018,6.454-27.156,15.645c-2.99,4.477-5.074,9.552-6.185,14.816c-1.234,5.85,0.478,12.339-2.255,17.748
					c-1.253,2.482-3.171,4.572-4.504,7.012c-2.575,4.713-2.731,10.669-0.407,15.51c1.318,2.745,3.416,5.284,3.55,8.326
					c0.243,5.491-5.713,9.001-8.217,13.893c-3.214,6.28-0.036,14.374,5.525,18.715c5.561,4.34,12.855,5.702,19.882,6.331
					c10.05,0.899,20.289,0.56,30.058-1.966c6.608-1.709,12.992-4.41,19.764-5.262c6.887-0.866,13.877,0.222,20.806-0.203
					c6.928-0.425,14.342-2.803,18.101-8.639c3.544-6.039,3.487-12.982,1.53-19.569c-2.119-7.13-6.976-12.35-11.203-18.344
					c-1.786-2.533-3.624-5.188-4.089-8.253c-0.334-2.198,0.068-4.431,0.242-6.647c0.471-6.026-0.945-12.127-3.769-17.452
					c-3.038-5.727-7.335-9.162-12.335-13.016c-5.438-4.192-12.036-6.493-18.33-9.295c-3.653-1.626-7.307-3.253-10.96-4.879
					c-1.827-0.813-3.654-1.626-5.48-2.439C175.895,61.88,173.636,60.298,172.443,60.344z"/>
			</g>
			<g id="Arm_00000170988412148057630290000012269408425903610812_">
				<path style="fill:#F0997A;" d="M214.714,154.172c15.497-0.255,21.292,1.583,32.234,9.245
					c10.942,7.662,40.209,48.076,40.209,48.076l-4.163,20.294c-15.416-1.223-21.171-6.944-33.637-20.864
					C234.374,194.195,214.714,154.172,214.714,154.172z"/>
			</g>
			<g id="Chest_00000074427972453100076070000007352601808979475865_">
				<path style="fill:#F0F0F0;" d="M246.975,228.584l0.569,12.449c0,0-5.901,13.946-34.366,22.424
					c-26.432,7.876-50.047,3.245-61.189-2.964c-4.951-15.906-12.638-42.295-14.483-49.724c-5.707-22.866-0.308-36.605,7.156-46.238
					c7.876-2.211,17.256-4.817,17.256-4.817s13.803-2.602,36.25-5.29l16.548-0.254c14.985,7.643,25.783,20.108,34.981,33.357
					C258.749,200.594,255.954,218.182,246.975,228.584z"/>
				<path style="fill:#E0E0E0;" d="M217.474,225.468c0,0-8.023,11.704-25.881,11.148c-18.425-0.573-23.198-15.416-23.198-15.416
					s0.82,19.884,22.832,20.575C211.526,242.412,217.474,225.468,217.474,225.468z"/>
			</g>
			<g id="Head_00000084499233183832619340000003345730201468396172_">
				<g>
					<path style="fill:#263238;" d="M224.379,78.01c-1.203-2.644-2.718-5.144-4.622-7.377c-4.977-5.835-12.4-9.51-20.145-10.951
						c-8.46-1.574-17.589-1.887-25.751,0.624c-6.746,2.075-10.734,4.256-17.324,9.311c-13.524,10.376-16.307,29.684-7.194,47.463
						c4.684,9.138,10.51,15.661,17.629,23.272l6.923-2.108c2.386-5.645,8.326-4.504,13.819-5.732
						c3.508-1.453,5.559-5.153,9.066-6.607c3.564-1.478,7.699-0.29,11.533-0.882c2.717-0.419,5.37-1.833,8.182-1.489
						c1.485,0.182,1.685,0.893,2.516-0.396c0.624-0.969,0.574-3.128,0.785-4.264c1.076-5.806,2.153-11.611,3.229-17.417
						c2.084,0.005,4.169-0.157,6.226-0.484c-0.531-5.337-1.067-10.697-2.411-15.901C226.218,82.665,225.414,80.285,224.379,78.01z"
						/>
				</g>
				<path style="fill:#FFBDA7;" d="M200.953,153.805c-2.655,0.247-2.694-1.49-2.726-2.493l-0.212-4.556
					c5.665,0.066,11.814-1.387,15.067-3.74c5.462-3.949,9.702-8.323,9.668-27.219c-0.013-7.347-2.684-14.317-2.553-16.033
					c0.697-9.115-0.508-17.245-9.658-21.77c-7.131-3.527-16.307-2.66-23.904-1.35c-2.678,0.462-8.924,1.043-10.15,4.124
					c-0.118,0.297-0.03,0.631,0.05,0.941c1.72,6.656-1.424,14.268-7.339,17.771c1.123,2.282,1.779,4.794,1.916,7.334
					c0.064,1.186,0.009,2.408-0.445,3.506c-0.454,1.098-1.366,2.06-2.525,2.318c-2.639,0.589-3.202-2.667-4.544-4.208
					c-1.292-1.484-2.952-2.66-4.836-3.259c-3.31-1.053-7.096-0.152-9.13,2.784c-3.256,4.7-3.26,11.998,2.826,18.728
					c5.928,6.556,12.667,2.47,12.768,1.158c0,0,0.975,20.865,1.067,24.364c0.092,3.498-0.041,5.483-4.38,7.51
					c-0.013,0.006,9.892,9.227,29.257,6.304C205.467,163.861,200.953,153.805,200.953,153.805z"/>
				<path style="fill:#FFA8A7;" d="M186.551,114.821c0.137,3.527-2.612,6.496-6.139,6.633c-3.527,0.136-6.497-2.612-6.633-6.139
					c-0.137-3.527,2.612-6.496,6.139-6.633C183.445,108.546,186.415,111.294,186.551,114.821z"/>
				<path style="fill:#FFA8A7;" d="M213.937,111.387c0.137,3.527,3.107,6.275,6.633,6.139c0.773-0.03,1.497-0.217,2.173-0.494
					c0.004-0.407,0.008-0.813,0.007-1.234c-0.007-4.045-0.819-7.97-1.527-10.972c-0.374-0.053-0.756-0.086-1.147-0.071
					C216.549,104.89,213.801,107.86,213.937,111.387z"/>
				<g>
					<g>
						<path id="XMLID_00000129890215523398344570000013482759392712994221_" style="fill:#263238;" d="M217.726,96.875l-7.599-2.162
							c0.522-2.138,2.648-3.386,4.746-2.789C216.971,92.521,218.249,94.738,217.726,96.875z"/>
						<path id="XMLID_00000178922554932104239330000010390322516378960006_" style="fill:#263238;" d="M181.342,98.407l7.365-3.123
							c-0.792-2.083-3.084-3.072-5.118-2.209C181.556,93.938,180.549,96.325,181.342,98.407z"/>
						<path style="fill:#263238;" d="M190.683,108.598c0.458,2.216-1.867,0.028-4.083,0.486c-2.216,0.458-3.483,3.388-3.941,1.172
							c-0.458-2.216,0.967-4.383,3.183-4.841C188.058,104.957,190.225,106.382,190.683,108.598z"/>
						<path style="fill:#263238;" d="M216.336,107.179c-0.048,2.262-1.826-0.389-4.088-0.438c-2.262-0.048-4.152,2.525-4.103,0.263
							c0.048-2.262,1.921-4.057,4.183-4.008C214.59,103.044,216.385,104.917,216.336,107.179z"/>
					</g>
					<g id="XMLID_00000152947011030580416620000005600716088829289146_">
						<path id="XMLID_00000122704278676930793390000000359055677763791535_" style="fill:#F0997A;" d="M198.015,146.756
							c-12.558-0.824-22.722-3.099-27.33-12.685c0,0,1.744,8.256,8.581,12.162c8.13,4.645,18.921,4.196,18.921,4.196
							L198.015,146.756z"/>
					</g>
					<g>
						<polygon style="fill:#F0997A;" points="210.15,116.645 199.917,121.97 197.094,101.999 						"/>
					</g>
				</g>
				<path style="fill:#263238;" d="M177.808,103.142c3.646-0.477,7.251-1.27,10.761-2.367c0.307-0.096,0.63-0.205,0.836-0.451
					c0.216-0.258,0.262-0.613,0.295-0.948c0.512-5.164,0.164-10.413-1.026-15.464c2.291,4.982,4.094,10.188,5.374,15.52
					c2.417-0.235,4.829-0.511,7.236-0.827c0.29-0.038,0.597-0.084,0.819-0.275c0.286-0.246,0.349-0.657,0.385-1.033
					c0.386-4.035-0.213-8.092-0.809-12.102c1.859,3.713,3.211,7.68,4.008,11.755c5.143,0.133,10.287,0.194,15.432,0.183
					c-0.915-6.641-2.027-13.656-6.334-18.792c-4.226-5.039-10.894-7.41-17.418-8.243c-6.381-0.814-13.294-0.229-18.497,3.554
					c-1.391,1.011-2.621,2.223-3.845,3.43c-0.622,0.613-1.698,1.307-1.83,2.203c-0.108,0.734,0.598,2.071,0.798,2.782
					c0.649,2.308,1.225,4.637,1.725,6.982C176.711,93.697,177.41,98.407,177.808,103.142z"/>
				<path style="fill:#BA68C8;" d="M155.155,104.809c0.828-18.437,11.972-43.122,39.487-45.886
					c-8.388-4.419-22.988,1.462-22.988,1.462s-28.535,12.76-19.067,45.103L155.155,104.809z"/>
			</g>
			<g id="Arm_00000140719049003587721030000004249055620874988685_">
				<path style="fill:#FFBDA7;" d="M243.116,154.804c-1.664-5.548-1.696-7.695-3.011-9.183c-1.314-1.488-4.113-4.545-6.184-5.831
					c-1.418-0.881-2.956,1.05-1.879,3.498c1.077,2.448,3.195,5.396,3.195,5.396l1.176,6.135L243.116,154.804z"/>
				<path style="fill:#FFBDA7;" d="M242.852,157.964c3.36,1.192,5.501,3.791,7.565,6.92c2.064,3.129,5.767,9.347,6.062,11.126
					c0.619,3.732-1.688,8.096-0.869,10.295c0.553,1.485,2.391,3.054,4.216,4.375c8.682,6.285,17.069,12.074,21.145,14.895
					c5.798,4.014,8.927,9.256,10.843,15.286c2.186,6.881,1.336,14.142-8.332,13.924c-6.644-0.15-10.856-0.694-16.746-3.582
					c-2.817-1.381-5.666-3.679-7.956-5.836c-2.47-2.327-4.608-4.977-6.711-7.631c-8.032-10.138-16.758-20.264-23.059-31.68
					c-2.095-3.796-3.749-7.882-4.528-12.16c-0.261-1.432-0.599-2.85,0.312-4.089c0.898-1.22,2.57-2.259,3.701-3.257
					C229.682,165.5,241.211,155.189,242.852,157.964z"/>
				<g id="Bubble_Tea">
					<g id="Straw_00000119834479641246995690000012687163141940226951_">
						<path style="fill:#BA68C8;" d="M219.962,150.717c-0.101-0.133-12.587-16.57-17.088-22.495l-5.371,0.208
							c0.017,0.164,0.065,0.311,0.154,0.428c0.123,0.162,18.565,24.44,18.688,24.602c0.203,0.267,0.582,0.401,1.09,0.337
							c1.015-0.128,2.161-0.996,2.558-1.939C220.191,151.385,220.165,150.984,219.962,150.717z"/>
						<path style="opacity:0.15;" d="M219.962,150.717c-0.101-0.133-12.587-16.57-17.088-22.495l-1.995,0.077
							c0.333,0.199,0.653,0.457,0.922,0.809c3.017,3.94,17.152,22.459,17.152,22.459l0.721,0.827
							c0.128-0.174,0.241-0.352,0.318-0.536C220.191,151.385,220.165,150.984,219.962,150.717z"/>
						<path style="fill:#BA68C8;" d="M219.992,151.857c0.199-0.472,0.173-0.873-0.03-1.14c-0.203-0.267-0.582-0.4-1.09-0.337
							c-1.016,0.128-2.161,0.996-2.558,1.94c-0.199,0.472-0.173,0.873,0.03,1.14c0.203,0.267,0.582,0.4,1.09,0.337
							C218.45,153.669,219.595,152.801,219.992,151.857z"/>
						<path style="opacity:0.45;" d="M219.992,151.857c0.199-0.472,0.173-0.873-0.03-1.14c-0.203-0.267-0.582-0.4-1.09-0.337
							c-1.016,0.128-2.161,0.996-2.558,1.94c-0.199,0.472-0.173,0.873,0.03,1.14c0.203,0.267,0.582,0.4,1.09,0.337
							C218.45,153.669,219.595,152.801,219.992,151.857z"/>
					</g>
					<g id="Straw_00000091716293790525799010000014232104626864152510_">
						<path style="fill:#BA68C8;" d="M215.682,145.079c-0.577,0.258-1.145,0.534-1.695,0.845c-0.799,0.452-1.548,0.932-2.295,1.406
							c2.599,3.424,4.609,6.072,4.652,6.129c0.203,0.267,0.582,0.401,1.09,0.337c1.016-0.128,2.161-0.996,2.558-1.939
							c0.199-0.472,0.172-0.873-0.03-1.14C219.921,150.663,218.097,148.261,215.682,145.079z"/>
						<path style="opacity:0.15;" d="M215.682,145.079c-0.415,0.185-0.816,0.397-1.218,0.607c2.529,3.313,4.489,5.881,4.489,5.881
							l0.721,0.827c0.128-0.174,0.241-0.352,0.318-0.536c0.199-0.472,0.172-0.873-0.03-1.14
							C219.921,150.663,218.098,148.261,215.682,145.079z"/>
						<path style="fill:#BA68C8;" d="M219.992,151.857c0.199-0.472,0.173-0.873-0.03-1.14c-0.203-0.267-0.582-0.4-1.09-0.337
							c-1.016,0.128-2.161,0.996-2.558,1.94c-0.199,0.472-0.173,0.873,0.03,1.14c0.203,0.267,0.582,0.4,1.09,0.337
							C218.45,153.669,219.595,152.801,219.992,151.857z"/>
						<path style="opacity:0.45;" d="M219.992,151.857c0.199-0.472,0.173-0.873-0.03-1.14c-0.203-0.267-0.582-0.4-1.09-0.337
							c-1.016,0.128-2.161,0.996-2.558,1.94c-0.199,0.472-0.173,0.873,0.03,1.14c0.203,0.267,0.582,0.4,1.09,0.337
							C218.45,153.669,219.595,152.801,219.992,151.857z"/>
					</g>
					<g>
						<path id="Sphere_1_x2F_2_00000174588049604855713910000018108615375795637145_" style="opacity:0.1;fill:#BA68C8;" d="
							M233.415,142.393c1.518,2.328,1.497,5.656-0.421,9.438c-3.835,7.561-13.808,14.063-22.273,14.523
							c-4.235,0.23-7.288-1.094-8.806-3.422c-5.671-8.698-3.22-20.347,5.48-26.02C216.092,131.241,227.743,133.695,233.415,142.393z
							"/>
						<path style="opacity:0.1;fill:#BA68C8;" d="M232.59,152.582c-2.587,3.486-6.817,7.499-11.976,8.766
							c-5.232,1.286-10.287,0.474-14.475-2.915c-4.188-3.389-6.417-9.278-4.873-14.44c0.139-0.463,0.304-0.916,0.49-1.361
							c-3.792,6.023-3.984,13.948,0.158,20.3c1.518,2.328,4.572,3.651,8.806,3.422C218.904,165.909,228.495,159.817,232.59,152.582z
							"/>
						<g id="Sphere_1_x2F_2_00000055696372757136140910000014536263750607053758_" style="opacity:0.3;">
							<path style="fill:#BA68C8;" d="M207.507,137.085c8.59-5.601,20.134-3.169,25.735,5.42c1.542,2.365,1.389,5.643-0.432,9.232
								c-1.839,3.625-5.152,7.121-9.329,9.845c-4.177,2.724-8.713,4.345-12.771,4.566c-4.019,0.218-7.081-0.964-8.622-3.329
								C196.486,154.23,198.918,142.686,207.507,137.085 M207.395,136.913c-8.7,5.673-11.152,17.322-5.48,26.02
								c1.518,2.328,4.572,3.651,8.806,3.422c4.233-0.23,8.842-1.971,12.873-4.599c4.031-2.628,7.483-6.144,9.4-9.924
								c1.918-3.782,1.939-7.11,0.421-9.438C227.743,133.695,216.092,131.241,207.395,136.913L207.395,136.913z"/>
						</g>
						<g>
							<path style="opacity:0.2;fill:#BA68C8;" d="M206.338,142.105c-0.106-0.423-0.029-0.942,0.26-1.512
								c0.779-1.535,2.804-2.855,4.524-2.95c0.637-0.034,1.143,0.105,1.487,0.373c-0.176-0.719-0.879-1.16-1.962-1.101
								c-1.721,0.094-3.745,1.415-4.524,2.95C205.633,140.831,205.753,141.653,206.338,142.105z"/>
							<path style="opacity:0.2;fill:#FFFFFF;" d="M206.338,142.105c0.344,0.267,0.85,0.407,1.489,0.372
								c1.719-0.093,3.745-1.412,4.524-2.95c0.288-0.569,0.365-1.088,0.259-1.511c-0.344-0.267-0.85-0.407-1.487-0.373
								c-1.721,0.094-3.745,1.415-4.524,2.95C206.309,141.163,206.232,141.682,206.338,142.105z"/>
						</g>
						<path style="opacity:0.6;fill:#FFFFFF;" d="M229.069,140.511c-0.072-2.275-3.878-3.569-5.669-4.358
							c-2.082-0.859-9.876-2.414-9.534,1.297c0.289,1.584,1.9,2.788,3.375,3.132c0.98,0.23,2.33,0.189,3.337,0.213
							c2.407,0.056,4.777,0.465,7.161,0.696C228.443,141.618,229.027,141.265,229.069,140.511z M231.068,140.861
							c-0.727-0.148-1.458,0.596-1.397,1.313c0.032,0.382,0.263,0.852,0.602,1.128c0.646,0.525,1.697,0.251,2.022-0.477
							C232.66,142.008,231.922,141.023,231.068,140.861z"/>
					</g>
					<g>
						<g>
							<g>
								<path style="fill:#BA68C8;" d="M237.412,149.639c-0.067,1.725-0.599,3.605-1.59,5.558
									c-3.982,7.85-14.375,14.627-23.16,15.102c-4.377,0.238-7.739-1.09-9.467-3.739l1.405-0.916
									c1.456,2.233,4.375,3.347,8.22,3.138c4.088-0.221,8.551-1.909,12.452-4.452c1.951-1.272,3.763-2.76,5.319-4.384
									c1.554-1.627,2.854-3.39,3.779-5.216c1.742-3.434,1.9-6.555,0.444-8.788l1.405-0.916
									C237.083,146.353,237.478,147.917,237.412,149.639z"/>
								<path style="opacity:0.65;fill:#FFFFFF;" d="M237.412,149.639c-0.067,1.725-0.599,3.605-1.59,5.558
									c-3.982,7.85-14.375,14.627-23.16,15.102c-4.377,0.238-7.739-1.09-9.467-3.739l1.405-0.916
									c1.456,2.233,4.375,3.347,8.22,3.138c4.088-0.221,8.551-1.909,12.452-4.452c1.951-1.272,3.763-2.76,5.319-4.384
									c1.554-1.627,2.854-3.39,3.779-5.216c1.742-3.434,1.9-6.555,0.444-8.788l1.405-0.916
									C237.083,146.353,237.478,147.917,237.412,149.639z"/>
							</g>
						</g>
					</g>
					<g>
						<g>
							<path style="fill:#BA68C8;" d="M225.595,141.368c-6.556,0.46-12.768,3.897-17.399,8.489c-1.597,1.616-3.056,3.51-4.066,5.508
								c-1.94,3.827-1.857,7.168-0.164,9.42l1.552,2.064l4.876,6.433l2.02,2.668c0,0,0.001,0.002,0.003,0.001
								c0.432,0.57,0.994,1.025,1.635,1.324l5.214,6.746l2.374,3.131l0.002,0.003c0.428,0.566,0.998,0.999,1.643,1.27l4.221,5.775
								c1.192,1.718,3.504,2.691,6.686,2.519c6.509-0.353,14.174-5.351,17.121-11.164c0.721-1.421,1.093-2.76,1.147-3.965
								c0.057-1.205-0.206-2.28-0.752-3.171l-3.574-6.18c0.018-0.704-0.161-1.407-0.507-2.03l-0.002-0.004l-0.002-0.003
								l-5.977-10.922c-0.015-0.706-0.205-1.404-0.553-2.03l0-0.001l-5.546-9.981l-1.263-2.253
								C232.903,142.56,229.881,141.136,225.595,141.368z"/>
							<path style="opacity:0.5;fill:#FFFFFF;" d="M225.595,141.368c-6.555,0.461-12.769,3.898-17.399,8.489
								c-1.597,1.616-3.056,3.509-4.066,5.508c-1.94,3.827-1.857,7.168-0.164,9.42l1.552,2.064l0.604,0.798l4.272,5.635l2.02,2.668
								c0,0,0.001,0.002,0.003,0.001c0.432,0.57,0.995,1.026,1.634,1.324l5.214,6.746l2.374,3.131l0.002,0.003
								c0.428,0.565,0.999,0.999,1.644,1.27l4.221,5.776c1.191,1.716,3.504,2.691,6.685,2.519
								c6.508-0.354,14.174-5.353,17.122-11.164c0.721-1.422,1.092-2.76,1.146-3.965c0.057-1.204-0.205-2.28-0.751-3.17
								l-3.574-6.181c0.017-0.705-0.161-1.407-0.508-2.03l-0.004-0.007l-5.977-10.923c-0.015-0.706-0.205-1.404-0.553-2.029
								l-5.06-9.107l-0.486-0.874l-1.263-2.253C232.903,142.56,229.881,141.136,225.595,141.368z"/>
							<path style="opacity:0.5;fill:#FFFFFF;" d="M225.593,141.37c-6.555,0.455-12.768,3.896-17.397,8.49
								c-1.598,1.607-3.05,3.505-4.065,5.504c-1.938,3.82-1.851,7.167-0.158,9.422l1.543,2.07l0.607,0.794l4.266,5.63l0.613,0.804
								l0.62,0.814l0.787,1.047l0.007,0.01c0.303,0.397,0.655,0.732,1.078,0.992c0.007,0.01,0.007,0.01,0.007,0.01
								c0.171,0.126,0.357,0.228,0.546,0.313l0.007,0.01l5.211,6.738l2.371,3.135c0.429,0.567,1.005,0.994,1.648,1.274l4.226,5.775
								c1.188,1.708,3.502,2.681,6.677,2.513c6.516-0.355,14.181-5.353,17.124-11.166c0.723-1.422,1.102-2.755,1.149-3.959
								c0.057-1.212-0.212-2.285-0.745-3.171l-3.584-6.18c0.014-0.708-0.162-1.41-0.508-2.032l-0.007-0.01l-5.97-10.911l-0.007-0.01
								c-0.008-0.218-0.027-0.428-0.063-0.643c-0.078-0.484-0.249-0.952-0.49-1.39l-0.644-1.17l-0.492-0.868l-3.92-7.06
								l-0.482-0.875l-1.261-2.254C232.908,142.56,229.88,141.131,225.593,141.37z"/>
							<g id="Straw_00000107546080907372518720000008592120165402371738_">
								<path style="fill:#BA68C8;" d="M215.682,145.079c-0.577,0.258-1.145,0.534-1.695,0.845
									c-0.799,0.452-1.548,0.932-2.295,1.406c2.599,3.424,4.609,6.072,4.652,6.129c0.203,0.267,0.582,0.401,1.09,0.337
									c1.016-0.128,2.161-0.996,2.558-1.939c0.199-0.472,0.172-0.873-0.03-1.14C219.921,150.663,218.097,148.261,215.682,145.079z
									"/>
								<path style="opacity:0.15;" d="M215.682,145.079c-0.415,0.185-0.816,0.397-1.218,0.607c2.529,3.313,4.489,5.881,4.489,5.881
									l0.721,0.827c0.128-0.174,0.241-0.352,0.318-0.536c0.199-0.472,0.172-0.873-0.03-1.14
									C219.921,150.663,218.098,148.261,215.682,145.079z"/>
								<path style="fill:#BA68C8;" d="M219.992,151.857c0.199-0.472,0.173-0.873-0.03-1.14c-0.203-0.267-0.582-0.4-1.09-0.337
									c-1.016,0.128-2.161,0.996-2.558,1.94c-0.199,0.472-0.173,0.873,0.03,1.14c0.203,0.267,0.582,0.4,1.09,0.337
									C218.45,153.669,219.595,152.801,219.992,151.857z"/>
								<path style="opacity:0.45;" d="M219.992,151.857c0.199-0.472,0.173-0.873-0.03-1.14c-0.203-0.267-0.582-0.4-1.09-0.337
									c-1.016,0.128-2.161,0.996-2.558,1.94c-0.199,0.472-0.173,0.873,0.03,1.14c0.203,0.267,0.582,0.4,1.09,0.337
									C218.45,153.669,219.595,152.801,219.992,151.857z"/>
							</g>
						</g>
						<g>
							<path style="fill:#BA68C8;" d="M250.843,178.957l-3.732-6.448l0.002-0.291c0.017-0.508-0.105-1.017-0.375-1.503
								l-6.102-11.154l-0.004-0.252c-0.014-0.54-0.165-1.071-0.42-1.546l-2.969-5.351c-0.135-0.356-0.304-0.694-0.523-1.024
								c-0.066-0.09-0.118-0.182-0.196-0.27c-1.268-1.708-3.596-2.887-6.67-3.387c-0.452-0.064-0.929-0.124-1.416-0.169
								c-2.102-0.194-4.315-0.067-6.528,0.287c-2.196,0.377-4.403,0.995-6.463,1.816c-4.132,1.644-7.736,4.109-9.822,6.979
								c-1.961,2.71-2.277,5.375-0.903,7.494l-0.013,0.002l0.291,0.381l6.174,8.164l1.468,1.927l0.564,0.739
								c0.325,0.438,0.763,0.795,1.256,1.029l0.231,0.1l5.355,6.949l2.39,3.15c0.319,0.401,0.738,0.723,1.215,0.934l0.258,0.109
								l4.403,6.009c1.03,1.495,3.097,2.238,5.811,2.091c2.978-0.153,6.313-1.349,9.399-3.363c3.086-2.013,5.536-4.59,6.875-7.248
								c0.648-1.268,0.993-2.461,1.051-3.556C251.488,180.566,251.292,179.69,250.843,178.957z"/>
							<path style="opacity:0.2;fill:#FFFFFF;" d="M250.843,178.957l-3.732-6.448l0.002-0.291c0.017-0.508-0.105-1.017-0.375-1.503
								l-6.102-11.154l-0.004-0.252c-0.014-0.54-0.165-1.071-0.42-1.546l-2.969-5.351c-0.135-0.356-0.304-0.694-0.523-1.024
								c-0.066-0.09-0.118-0.182-0.196-0.27c-1.268-1.708-3.596-2.887-6.67-3.387c-0.452-0.064-0.929-0.124-1.416-0.169
								c-2.102-0.194-4.315-0.067-6.528,0.287c-2.196,0.377-4.403,0.995-6.463,1.816c-4.132,1.644-7.736,4.109-9.822,6.979
								c-1.961,2.71-2.277,5.375-0.903,7.494l-0.013,0.002l0.291,0.381l6.174,8.164l1.468,1.927l0.564,0.739
								c0.325,0.438,0.763,0.795,1.256,1.029l0.231,0.1l5.355,6.949l2.39,3.15c0.319,0.401,0.738,0.723,1.215,0.934l0.258,0.109
								l4.403,6.009c1.03,1.495,3.097,2.238,5.811,2.091c2.978-0.153,6.313-1.349,9.399-3.363c3.086-2.013,5.536-4.59,6.875-7.248
								c0.648-1.268,0.993-2.461,1.051-3.556C251.488,180.566,251.292,179.69,250.843,178.957z"/>
							<path style="fill:#BA68C8;" d="M244.643,176.695c5.951-0.464,8.485,3.422,5.66,8.68c-2.825,5.258-9.938,9.897-15.889,10.361
								c-5.951,0.464-8.485-3.422-5.66-8.68C231.578,181.797,238.692,177.159,244.643,176.695z"/>
							<g>
								<g id="Bubble">
									<g>
										<path style="fill:#455A64;" d="M228.536,188.805c-0.134,0.128-0.242,0.27-0.328,0.423
											c-0.063,0.122-0.117,0.256-0.163,0.404c-0.154,0.58-0.012,1.225,0.432,1.69c0.679,0.712,1.806,0.737,2.517,0.058
											c0.712-0.679,0.738-1.805,0.058-2.517C230.375,188.152,229.248,188.126,228.536,188.805z"/>
										<path style="fill:#37474F;" d="M231.076,190.403c0.079-0.384-0.322-0.527-0.798-0.206
											c-0.476,0.321-0.764,0.862-0.249,1.067c-0.791,0.31-1.988-0.465-2.024-1.421c-0.073,0.521,0.082,1.069,0.474,1.479
											c0.679,0.711,1.806,0.737,2.517,0.058c0.657-0.628,0.728-1.637,0.199-2.348
											C231.348,189.287,231.483,189.892,231.076,190.403z"/>
										<path style="opacity:0.2;fill:#FFFFFF;" d="M230.713,188.937c0.063,0.119,0.062,0.279-0.028,0.378
											c-0.136,0.15-0.375,0.101-0.575,0.075c-0.516-0.066-1.037,0.121-1.473,0.403c-0.054,0.035-0.109,0.072-0.172,0.087
											c-0.063,0.014-0.137,0-0.176-0.051c-0.034-0.045-0.056-0.136-0.045-0.191c0.03-0.144,0.091-0.281,0.177-0.4
											c0.218-0.304,0.559-0.527,0.916-0.638c0.356-0.11,0.745-0.099,1.08,0.073C230.535,188.733,230.65,188.818,230.713,188.937
											z"/>
										<path style="opacity:0.2;fill:#FFFFFF;" d="M230.173,189.219c0.07,0.03,0.146,0.044,0.221,0.037
											c0.046-0.004,0.092-0.016,0.129-0.043c0.386-0.276-0.611-0.803-0.639-0.369c-0.005,0.074,0.028,0.145,0.072,0.205
											C230.012,189.122,230.088,189.182,230.173,189.219z"/>
									</g>
								</g>
								<g id="Bubble_00000177448651664213204520000014933491791673505942_">
									<g>
										<path style="fill:#455A64;" d="M246.155,177.643c-0.155,0.101-0.288,0.22-0.4,0.355c-0.084,0.108-0.162,0.23-0.235,0.367
											c-0.259,0.542-0.238,1.201,0.113,1.741c0.536,0.825,1.639,1.058,2.463,0.523c0.825-0.536,1.059-1.638,0.522-2.463
											C248.082,177.342,246.98,177.107,246.155,177.643z"/>
										<path style="fill:#37474F;" d="M248.355,179.683c0.149-0.363-0.219-0.577-0.746-0.35c-0.527,0.228-0.91,0.706-0.442,1.003
											c-0.835,0.158-1.868-0.825-1.727-1.771c-0.168,0.498-0.117,1.065,0.192,1.54c0.536,0.824,1.638,1.058,2.462,0.522
											c0.762-0.495,1.018-1.475,0.629-2.271C248.829,178.637,248.85,179.257,248.355,179.683z"/>
										<path style="opacity:0.2;fill:#FFFFFF;" d="M248.269,178.175c0.04,0.129,0.009,0.286-0.098,0.367
											c-0.161,0.122-0.387,0.03-0.579-0.033c-0.494-0.16-1.041-0.073-1.522,0.124c-0.059,0.024-0.12,0.05-0.186,0.053
											c-0.064,0.003-0.135-0.025-0.163-0.083c-0.025-0.051-0.03-0.144-0.009-0.196c0.056-0.136,0.142-0.259,0.248-0.361
											c0.27-0.258,0.647-0.415,1.018-0.458c0.37-0.043,0.751,0.041,1.048,0.271
											C248.132,177.942,248.229,178.046,248.269,178.175z"/>
										<path style="opacity:0.2;fill:#FFFFFF;" d="M247.687,178.352c0.063,0.042,0.135,0.07,0.211,0.077
											c0.046,0.004,0.094,0.001,0.135-0.019c0.431-0.2-0.452-0.903-0.56-0.481c-0.018,0.072,0.001,0.148,0.033,0.214
											C247.547,178.228,247.61,178.301,247.687,178.352z"/>
									</g>
								</g>
								<g id="Bubble_00000108294600133185392280000000246505818539543201_">
									<g>
										<path style="fill:#455A64;" d="M237.638,174.852c-0.039,0.181-0.049,0.359-0.033,0.534
											c0.017,0.136,0.047,0.277,0.092,0.426c0.198,0.567,0.678,1.02,1.307,1.155c0.962,0.207,1.908-0.406,2.115-1.366
											c0.207-0.962-0.404-1.908-1.366-2.115C238.792,173.279,237.845,173.89,237.638,174.852z"/>
										<path style="fill:#37474F;" d="M240.637,174.747c-0.15-0.362-0.563-0.255-0.775,0.278
											c-0.213,0.533-0.147,1.142,0.394,1.023c-0.48,0.701-1.906,0.732-2.473-0.038c0.232,0.472,0.669,0.838,1.223,0.957
											c0.961,0.207,1.908-0.405,2.114-1.366c0.191-0.889-0.318-1.764-1.155-2.054
											C240.235,173.671,240.686,174.096,240.637,174.747z"/>
										<path style="opacity:0.2;fill:#FFFFFF;" d="M239.512,173.738c0.119,0.063,0.208,0.196,0.189,0.329
											c-0.028,0.2-0.253,0.294-0.434,0.385c-0.463,0.235-0.79,0.682-0.992,1.161c-0.025,0.059-0.05,0.12-0.094,0.169
											c-0.044,0.047-0.113,0.077-0.174,0.056c-0.053-0.018-0.123-0.081-0.144-0.132c-0.056-0.136-0.083-0.284-0.079-0.431
											c0.01-0.374,0.166-0.751,0.399-1.042c0.232-0.291,0.561-0.5,0.934-0.547C239.251,173.67,239.393,173.675,239.512,173.738z
											"/>
										<path style="opacity:0.2;fill:#FFFFFF;" d="M239.225,174.275c0.074-0.014,0.145-0.046,0.204-0.094
											c0.035-0.029,0.067-0.065,0.083-0.108c0.164-0.446-0.957-0.322-0.736,0.053c0.037,0.064,0.105,0.104,0.174,0.129
											C239.037,174.285,239.134,174.292,239.225,174.275z"/>
									</g>
								</g>
								<g id="Bubble_00000178165823312277349420000002746292035887956105_">
									<g>
										<path style="fill:#455A64;" d="M233.255,177.256c-0.06,0.148-0.095,0.299-0.107,0.45
											c-0.006,0.118-0.001,0.243,0.016,0.376c0.086,0.512,0.428,0.968,0.943,1.175c0.789,0.317,1.685-0.065,2.001-0.853
											c0.317-0.789-0.064-1.684-0.853-2.001C234.469,176.087,233.573,176.468,233.255,177.256z"/>
										<path style="fill:#37474F;" d="M235.824,177.607c-0.075-0.331-0.441-0.3-0.701,0.123
											c-0.259,0.423-0.293,0.951,0.185,0.928c-0.512,0.526-1.73,0.344-2.1-0.396c0.128,0.436,0.446,0.811,0.901,0.994
											c0.788,0.317,1.684-0.065,2.001-0.853c0.293-0.729-0.012-1.548-0.682-1.919
											C235.64,176.632,235.962,177.06,235.824,177.607z"/>
										<path style="opacity:0.2;fill:#FFFFFF;" d="M235.015,176.583c0.092,0.071,0.149,0.198,0.113,0.308
											c-0.053,0.166-0.259,0.213-0.426,0.264c-0.429,0.132-0.773,0.465-1.015,0.843c-0.03,0.047-0.06,0.095-0.105,0.13
											c-0.044,0.034-0.108,0.049-0.157,0.022c-0.043-0.024-0.093-0.087-0.104-0.134c-0.027-0.124-0.029-0.254-0.004-0.378
											c0.063-0.317,0.252-0.615,0.493-0.829c0.241-0.214,0.551-0.344,0.876-0.328
											C234.802,176.487,234.923,176.512,235.015,176.583z"/>
										<path style="opacity:0.2;fill:#FFFFFF;" d="M234.691,176.998c0.066-0.001,0.13-0.018,0.187-0.05
											c0.035-0.02,0.067-0.046,0.087-0.08c0.205-0.355-0.768-0.414-0.635-0.063c0.022,0.06,0.074,0.104,0.13,0.135
											C234.53,176.979,234.611,176.999,234.691,176.998z"/>
									</g>
								</g>
								<g id="Bubble_00000152978631127308858620000008152622064586830737_">
									<g>
										<path style="fill:#455A64;" d="M241.552,178.889c-0.139,0.078-0.261,0.174-0.365,0.284
											c-0.078,0.088-0.153,0.189-0.223,0.303c-0.253,0.453-0.272,1.023,0.001,1.507c0.417,0.741,1.355,1.003,2.095,0.587
											c0.741-0.417,1.004-1.354,0.587-2.095C243.231,178.736,242.293,178.473,241.552,178.889z"/>
										<path style="fill:#37474F;" d="M243.336,180.77c0.148-0.304-0.157-0.51-0.624-0.343c-0.467,0.167-0.824,0.558-0.437,0.84
											c-0.729,0.09-1.565-0.815-1.391-1.623c-0.173,0.42-0.16,0.912,0.08,1.339c0.416,0.741,1.354,1.003,2.095,0.587
											c0.684-0.385,0.96-1.215,0.669-1.924C243.803,179.894,243.786,180.43,243.336,180.77z"/>
										<path style="opacity:0.2;fill:#FFFFFF;" d="M243.346,179.465c0.027,0.113-0.008,0.247-0.105,0.311
											c-0.146,0.096-0.335,0.004-0.498-0.061c-0.417-0.165-0.894-0.121-1.32,0.022c-0.052,0.018-0.107,0.037-0.163,0.036
											c-0.055-0.001-0.115-0.029-0.136-0.081c-0.018-0.045-0.018-0.126,0.003-0.169c0.056-0.114,0.136-0.216,0.234-0.298
											c0.248-0.208,0.581-0.322,0.903-0.338c0.321-0.016,0.645,0.077,0.889,0.292
											C243.24,179.257,243.319,179.352,243.346,179.465z"/>
										<path style="opacity:0.2;fill:#FFFFFF;" d="M242.834,179.586c0.052,0.04,0.112,0.068,0.177,0.078
											c0.039,0.006,0.081,0.006,0.118-0.008c0.383-0.149-0.339-0.803-0.456-0.446c-0.02,0.061-0.008,0.128,0.016,0.187
											C242.72,179.47,242.77,179.537,242.834,179.586z"/>
									</g>
								</g>
								<g id="Bubble_00000092419867959610032840000008019638977601015465_">
									<g>
										<path style="fill:#455A64;" d="M229.647,174.019c-0.184-0.011-0.363,0.006-0.533,0.048
											c-0.132,0.037-0.267,0.088-0.407,0.155c-0.53,0.282-0.905,0.825-0.943,1.467c-0.059,0.982,0.69,1.825,1.671,1.883
											c0.982,0.059,1.825-0.689,1.883-1.671C231.377,174.921,230.629,174.078,229.647,174.019z"/>
										<path style="fill:#37474F;" d="M230.205,176.967c0.335-0.203,0.167-0.595-0.392-0.724
											c-0.559-0.13-1.151,0.027-0.951,0.544c-0.765-0.368-1.012-1.773-0.337-2.45c-0.431,0.301-0.727,0.788-0.761,1.353
											c-0.059,0.981,0.689,1.824,1.671,1.883c0.907,0.054,1.695-0.581,1.855-1.453
											C231.208,176.407,230.856,176.917,230.205,176.967z"/>
										<path style="opacity:0.2;fill:#FFFFFF;" d="M231.032,175.703c-0.044,0.127-0.162,0.236-0.296,0.237
											c-0.202,0.002-0.329-0.206-0.446-0.371c-0.303-0.422-0.794-0.677-1.298-0.805c-0.062-0.016-0.127-0.031-0.181-0.067
											c-0.053-0.036-0.094-0.1-0.082-0.164c0.01-0.056,0.061-0.134,0.109-0.163c0.126-0.076,0.268-0.125,0.414-0.143
											c0.371-0.047,0.767,0.051,1.09,0.237c0.323,0.186,0.58,0.479,0.682,0.841C231.06,175.434,231.076,175.575,231.032,175.703
											z"/>
										<path style="opacity:0.2;fill:#FFFFFF;" d="M230.458,175.5c0.026,0.071,0.067,0.137,0.124,0.187
											c0.034,0.031,0.075,0.056,0.12,0.065c0.466,0.095,0.173-0.994-0.164-0.72c-0.057,0.047-0.087,0.119-0.101,0.192
											C230.419,175.316,230.427,175.413,230.458,175.5z"/>
									</g>
								</g>
								<g id="Bubble_00000097483804551869881000000014548669775773315754_">
									<g>
										<path style="fill:#455A64;" d="M224.661,179.437c-0.184-0.011-0.363,0.006-0.533,0.048
											c-0.132,0.037-0.267,0.088-0.407,0.155c-0.53,0.282-0.905,0.825-0.943,1.467c-0.059,0.982,0.69,1.825,1.671,1.883
											c0.982,0.059,1.825-0.689,1.883-1.671C226.39,180.339,225.643,179.496,224.661,179.437z"/>
										<path style="fill:#37474F;" d="M225.219,182.385c0.335-0.203,0.167-0.595-0.392-0.724
											c-0.559-0.13-1.151,0.027-0.951,0.544c-0.766-0.369-1.012-1.773-0.337-2.451c-0.431,0.301-0.727,0.788-0.761,1.353
											c-0.059,0.981,0.689,1.825,1.671,1.883c0.907,0.054,1.695-0.581,1.855-1.453
											C226.222,181.825,225.87,182.335,225.219,182.385z"/>
										<path style="opacity:0.2;fill:#FFFFFF;" d="M226.046,181.121c-0.044,0.127-0.162,0.236-0.296,0.237
											c-0.202,0.002-0.329-0.206-0.446-0.37c-0.303-0.422-0.794-0.677-1.298-0.805c-0.062-0.016-0.127-0.031-0.181-0.067
											c-0.053-0.036-0.094-0.1-0.082-0.164c0.01-0.055,0.061-0.134,0.109-0.163c0.126-0.076,0.268-0.125,0.414-0.143
											c0.371-0.047,0.767,0.051,1.09,0.237c0.323,0.186,0.58,0.479,0.682,0.84C226.074,180.852,226.09,180.993,226.046,181.121z
											"/>
										<path style="opacity:0.2;fill:#FFFFFF;" d="M225.472,180.918c0.026,0.071,0.067,0.136,0.124,0.187
											c0.034,0.031,0.075,0.056,0.12,0.065c0.465,0.095,0.173-0.994-0.164-0.72c-0.057,0.047-0.087,0.119-0.101,0.192
											C225.433,180.734,225.441,180.83,225.472,180.918z"/>
									</g>
								</g>
								<g id="Bubble_00000136388173891870898920000000672711205899809157_">
									<g>
										<path style="fill:#455A64;" d="M234.853,188.342c0.024,0.183,0.074,0.355,0.147,0.514c0.061,0.122,0.137,0.246,0.229,0.37
											c0.376,0.468,0.98,0.734,1.618,0.651c0.976-0.127,1.663-1.02,1.536-1.995c-0.127-0.975-1.019-1.663-1.995-1.536
											C235.415,186.474,234.726,187.366,234.853,188.342z"/>
										<path style="fill:#37474F;" d="M237.644,187.24c-0.263-0.291-0.615-0.052-0.638,0.521s0.243,1.126,0.713,0.832
											c-0.218,0.821-1.551,1.327-2.344,0.791c0.376,0.367,0.91,0.566,1.472,0.493c0.975-0.127,1.663-1.02,1.536-1.994
											c-0.117-0.901-0.889-1.556-1.776-1.549C236.906,186.36,237.473,186.61,237.644,187.24z"/>
										<path style="opacity:0.2;fill:#FFFFFF;" d="M236.247,186.665c0.133,0.02,0.262,0.115,0.288,0.247
											c0.04,0.198-0.141,0.362-0.28,0.508c-0.358,0.377-0.516,0.907-0.546,1.426c-0.004,0.064-0.007,0.13-0.032,0.19
											c-0.025,0.059-0.081,0.111-0.145,0.111c-0.056,0.001-0.143-0.035-0.18-0.076c-0.098-0.109-0.173-0.24-0.218-0.38
											c-0.116-0.356-0.094-0.763,0.027-1.115c0.122-0.352,0.361-0.659,0.697-0.827
											C235.978,186.689,236.113,186.646,236.247,186.665z"/>
										<path style="opacity:0.2;fill:#FFFFFF;" d="M236.155,187.267c0.065-0.038,0.121-0.092,0.16-0.157
											c0.024-0.04,0.041-0.084,0.042-0.13c0.006-0.475-1.009,0.017-0.676,0.297c0.057,0.047,0.134,0.063,0.207,0.063
											C235.982,187.34,236.075,187.314,236.155,187.267z"/>
									</g>
								</g>
								<g id="Bubble_00000157285712580601581000000009175846424920339379_">
									<g>
										<path style="fill:#455A64;" d="M238.145,182.311c-0.162,0.088-0.304,0.197-0.426,0.323
											c-0.092,0.101-0.179,0.216-0.263,0.348c-0.3,0.52-0.33,1.179-0.022,1.744c0.471,0.864,1.553,1.181,2.415,0.711
											c0.864-0.471,1.182-1.551,0.711-2.415C240.09,182.16,239.009,181.841,238.145,182.311z"/>
										<path style="fill:#37474F;" d="M240.181,184.515c0.176-0.35-0.174-0.593-0.717-0.406
											c-0.543,0.187-0.962,0.633-0.518,0.965c-0.844,0.093-1.798-0.966-1.585-1.899c-0.206,0.484-0.198,1.053,0.073,1.551
											c0.47,0.863,1.552,1.181,2.415,0.711c0.798-0.435,1.129-1.392,0.803-2.216
											C240.735,183.509,240.707,184.128,240.181,184.515z"/>
										<path style="opacity:0.2;fill:#FFFFFF;" d="M240.212,183.005c0.03,0.132-0.013,0.286-0.126,0.358
											c-0.17,0.109-0.388,0-0.575-0.077c-0.481-0.197-1.033-0.153-1.527,0.006c-0.061,0.02-0.124,0.041-0.189,0.039
											c-0.064-0.002-0.133-0.035-0.156-0.095c-0.021-0.053-0.019-0.146,0.006-0.196c0.067-0.131,0.161-0.248,0.275-0.341
											c0.29-0.237,0.677-0.364,1.05-0.378c0.372-0.014,0.745,0.098,1.024,0.351
											C240.093,182.762,240.182,182.873,240.212,183.005z"/>
										<path style="opacity:0.2;fill:#FFFFFF;" d="M239.618,183.137c0.059,0.047,0.129,0.08,0.204,0.093
											c0.045,0.008,0.093,0.008,0.136-0.008c0.445-0.166-0.381-0.935-0.521-0.523c-0.024,0.07-0.011,0.148,0.016,0.216
											C239.488,183.002,239.545,183.08,239.618,183.137z"/>
									</g>
								</g>
								<g id="Bubble_00000109738990756146175960000004540212582962480052_">
									<g>
										<path style="fill:#455A64;" d="M239.865,185.151c-0.182-0.031-0.361-0.034-0.535-0.011
											c-0.135,0.022-0.275,0.059-0.422,0.11c-0.558,0.222-0.99,0.72-1.099,1.354c-0.167,0.97,0.485,1.89,1.453,2.056
											c0.97,0.167,1.889-0.484,2.056-1.453C241.484,186.239,240.834,185.318,239.865,185.151z"/>
										<path style="fill:#37474F;" d="M240.094,188.143c0.356-0.165,0.231-0.573-0.31-0.763c-0.542-0.19-1.147-0.1-1.005,0.436
											c-0.72-0.451-0.811-1.874-0.065-2.473c-0.462,0.251-0.809,0.703-0.905,1.261c-0.166,0.969,0.484,1.889,1.453,2.056
											c0.896,0.154,1.749-0.391,2.004-1.24C241.153,187.697,240.747,188.165,240.094,188.143z"/>
										<path style="opacity:0.2;fill:#FFFFFF;" d="M241.055,186.977c-0.058,0.122-0.187,0.216-0.321,0.203
											c-0.201-0.02-0.304-0.241-0.403-0.417c-0.255-0.453-0.715-0.761-1.202-0.943c-0.06-0.022-0.122-0.045-0.173-0.087
											c-0.049-0.042-0.082-0.11-0.063-0.172c0.016-0.054,0.076-0.126,0.126-0.15c0.134-0.062,0.28-0.094,0.427-0.097
											c0.374-0.006,0.757,0.135,1.058,0.355c0.3,0.22,0.523,0.54,0.585,0.91C241.113,186.713,241.113,186.856,241.055,186.977z"
											/>
										<path style="opacity:0.2;fill:#FFFFFF;" d="M240.508,186.712c0.018,0.074,0.052,0.143,0.102,0.199
											c0.031,0.034,0.068,0.064,0.112,0.078c0.452,0.145,0.281-0.969-0.084-0.733c-0.062,0.04-0.1,0.109-0.121,0.18
											C240.489,186.525,240.486,186.622,240.508,186.712z"/>
									</g>
								</g>
								<g id="Bubble_00000023994479930722746390000012944262144337135544_">
									<g>
										<path style="fill:#455A64;" d="M229.406,182.92c-0.06,0.148-0.095,0.299-0.107,0.45c-0.006,0.118-0.001,0.243,0.016,0.376
											c0.086,0.512,0.428,0.968,0.943,1.175c0.789,0.317,1.684-0.065,2.001-0.853c0.317-0.789-0.064-1.684-0.853-2.001
											C230.62,181.75,229.724,182.131,229.406,182.92z"/>
										<path style="fill:#37474F;" d="M231.975,183.271c-0.075-0.331-0.441-0.3-0.701,0.123
											c-0.259,0.423-0.293,0.951,0.185,0.928c-0.512,0.526-1.73,0.343-2.1-0.396c0.128,0.436,0.446,0.811,0.9,0.994
											c0.788,0.317,1.684-0.064,2.001-0.852c0.293-0.729-0.012-1.548-0.682-1.919
											C231.791,182.295,232.113,182.724,231.975,183.271z"/>
										<path style="opacity:0.2;fill:#FFFFFF;" d="M231.166,182.247c0.092,0.071,0.149,0.198,0.113,0.308
											c-0.053,0.166-0.259,0.213-0.426,0.264c-0.429,0.132-0.773,0.465-1.015,0.843c-0.03,0.047-0.06,0.095-0.105,0.13
											c-0.044,0.034-0.108,0.049-0.157,0.022c-0.043-0.024-0.093-0.087-0.104-0.134c-0.027-0.124-0.029-0.254-0.004-0.378
											c0.063-0.317,0.252-0.615,0.493-0.829c0.241-0.214,0.551-0.344,0.876-0.328
											C230.953,182.15,231.074,182.175,231.166,182.247z"/>
										<path style="opacity:0.2;fill:#FFFFFF;" d="M230.842,182.661c0.066-0.001,0.13-0.018,0.187-0.05
											c0.035-0.02,0.067-0.046,0.087-0.08c0.205-0.356-0.768-0.414-0.635-0.063c0.023,0.06,0.074,0.104,0.13,0.135
											C230.681,182.643,230.762,182.663,230.842,182.661z"/>
									</g>
								</g>
								<g id="Bubble_00000164504130388088409330000006415968827490545070_">
									<g>
										<path style="fill:#455A64;" d="M240.78,175.347c-0.034,0.156-0.042,0.311-0.029,0.462c0.014,0.117,0.04,0.24,0.079,0.368
											c0.171,0.49,0.586,0.881,1.13,0.998c0.831,0.179,1.649-0.351,1.827-1.18c0.179-0.831-0.349-1.649-1.18-1.827
											C241.778,173.988,240.959,174.516,240.78,175.347z"/>
										<path style="fill:#37474F;" d="M243.372,175.256c-0.13-0.313-0.486-0.22-0.67,0.24c-0.184,0.461-0.128,0.987,0.34,0.883
											c-0.415,0.606-1.647,0.633-2.137-0.033c0.201,0.408,0.578,0.724,1.057,0.827c0.831,0.179,1.648-0.35,1.827-1.18
											c0.165-0.768-0.275-1.524-0.998-1.775C243.025,174.326,243.414,174.694,243.372,175.256z"/>
										<path style="opacity:0.2;fill:#FFFFFF;" d="M242.4,174.385c0.103,0.055,0.18,0.17,0.163,0.284
											c-0.025,0.173-0.219,0.254-0.375,0.333c-0.4,0.203-0.683,0.59-0.857,1.004c-0.021,0.051-0.043,0.104-0.081,0.146
											c-0.038,0.041-0.098,0.067-0.151,0.049c-0.046-0.016-0.106-0.07-0.125-0.114c-0.048-0.118-0.071-0.245-0.068-0.372
											c0.008-0.323,0.144-0.649,0.345-0.901c0.201-0.251,0.485-0.432,0.807-0.472C242.174,174.326,242.297,174.33,242.4,174.385
											z"/>
										<path style="opacity:0.2;fill:#FFFFFF;" d="M242.151,174.848c0.064-0.013,0.125-0.039,0.176-0.081
											c0.031-0.025,0.058-0.056,0.072-0.094c0.142-0.385-0.827-0.278-0.636,0.046c0.032,0.055,0.09,0.09,0.151,0.111
											C241.989,174.857,242.073,174.863,242.151,174.848z"/>
									</g>
								</g>
								<g id="Bubble_00000166661623954331878090000006380693422751047056_">
									<g>
										<path style="fill:#455A64;" d="M243.5,186.338c-0.034,0.156-0.042,0.31-0.029,0.462c0.014,0.117,0.041,0.24,0.079,0.368
											c0.171,0.49,0.586,0.881,1.13,0.998c0.831,0.179,1.649-0.351,1.827-1.181c0.179-0.831-0.35-1.648-1.181-1.827
											C244.497,184.979,243.678,185.507,243.5,186.338z"/>
										<path style="fill:#37474F;" d="M246.091,186.248c-0.13-0.313-0.486-0.22-0.67,0.24c-0.184,0.461-0.127,0.987,0.34,0.883
											c-0.415,0.606-1.647,0.633-2.137-0.033c0.2,0.408,0.578,0.724,1.056,0.827c0.83,0.179,1.649-0.35,1.827-1.18
											c0.165-0.768-0.275-1.524-0.998-1.775C245.744,185.318,246.134,185.685,246.091,186.248z"/>
										<path style="opacity:0.2;fill:#FFFFFF;" d="M245.119,185.376c0.103,0.055,0.18,0.169,0.164,0.284
											c-0.025,0.173-0.219,0.254-0.375,0.333c-0.4,0.203-0.682,0.59-0.857,1.004c-0.021,0.051-0.043,0.104-0.081,0.146
											c-0.038,0.041-0.098,0.067-0.151,0.049c-0.046-0.016-0.107-0.07-0.125-0.114c-0.048-0.118-0.071-0.245-0.068-0.372
											c0.008-0.323,0.144-0.648,0.345-0.9c0.201-0.251,0.485-0.432,0.807-0.472
											C244.893,185.317,245.016,185.321,245.119,185.376z"/>
										<path style="opacity:0.2;fill:#FFFFFF;" d="M244.871,185.839c0.064-0.012,0.125-0.039,0.176-0.081
											c0.031-0.025,0.058-0.056,0.072-0.094c0.142-0.385-0.827-0.278-0.636,0.046c0.032,0.055,0.091,0.09,0.151,0.111
											C244.709,185.848,244.792,185.855,244.871,185.839z"/>
									</g>
								</g>
								<g id="Bubble_00000170979107386536809370000015476587238790301349_">
									<g>
										<path style="fill:#455A64;" d="M242.23,169.466c-0.137,0.082-0.256,0.18-0.357,0.293c-0.076,0.09-0.148,0.193-0.215,0.309
											c-0.242,0.459-0.245,1.029,0.039,1.507c0.435,0.73,1.38,0.968,2.109,0.533c0.73-0.435,0.969-1.379,0.533-2.109
											C243.905,169.27,242.961,169.03,242.23,169.466z"/>
										<path style="fill:#37474F;" d="M244.062,171.301c0.141-0.308-0.17-0.506-0.632-0.327
											c-0.462,0.179-0.809,0.579-0.415,0.851c-0.726,0.109-1.585-0.774-1.432-1.587c-0.162,0.425-0.136,0.916,0.115,1.337
											c0.435,0.73,1.379,0.968,2.109,0.533c0.674-0.402,0.928-1.239,0.619-1.94
											C244.507,170.413,244.503,170.949,244.062,171.301z"/>
										<path style="opacity:0.2;fill:#FFFFFF;" d="M244.038,169.996c0.03,0.112-0.001,0.247-0.096,0.313
											c-0.143,0.1-0.335,0.013-0.499-0.048c-0.422-0.154-0.897-0.098-1.319,0.056c-0.052,0.019-0.106,0.039-0.162,0.04
											c-0.055,0-0.116-0.026-0.138-0.077c-0.02-0.045-0.021-0.126-0.001-0.169c0.053-0.115,0.131-0.219,0.226-0.303
											c0.242-0.214,0.573-0.337,0.894-0.361c0.321-0.024,0.647,0.06,0.896,0.269
											C243.928,169.79,244.008,169.883,244.038,169.996z"/>
										<path style="opacity:0.2;fill:#FFFFFF;" d="M243.53,170.129c0.053,0.039,0.114,0.065,0.179,0.074
											c0.039,0.005,0.081,0.004,0.117-0.011c0.379-0.159-0.36-0.794-0.467-0.434c-0.018,0.061-0.004,0.128,0.021,0.186
											C243.413,170.017,243.465,170.082,243.53,170.129z"/>
									</g>
								</g>
								<g id="Bubble_00000115492740975663392830000011613221471197330361_">
									<g>
										<path style="fill:#455A64;" d="M236.244,190.351c-0.137,0.082-0.256,0.18-0.357,0.294
											c-0.076,0.09-0.148,0.193-0.215,0.309c-0.242,0.459-0.245,1.029,0.039,1.507c0.435,0.73,1.38,0.968,2.109,0.533
											c0.73-0.435,0.969-1.379,0.533-2.109C237.918,190.155,236.974,189.916,236.244,190.351z"/>
										<path style="fill:#37474F;" d="M238.076,192.186c0.141-0.308-0.17-0.506-0.632-0.327
											c-0.462,0.179-0.809,0.579-0.415,0.851c-0.726,0.109-1.585-0.774-1.432-1.587c-0.162,0.425-0.136,0.916,0.115,1.337
											c0.435,0.73,1.379,0.968,2.109,0.533c0.674-0.402,0.928-1.239,0.619-1.94C238.52,191.298,238.517,191.834,238.076,192.186
											z"/>
										<path style="opacity:0.2;fill:#FFFFFF;" d="M238.052,190.881c0.03,0.113-0.001,0.247-0.096,0.313
											c-0.143,0.1-0.335,0.013-0.499-0.048c-0.422-0.154-0.897-0.098-1.319,0.056c-0.052,0.019-0.106,0.039-0.162,0.04
											c-0.055,0-0.116-0.026-0.138-0.077c-0.02-0.045-0.021-0.126-0.001-0.169c0.053-0.115,0.131-0.219,0.226-0.303
											c0.242-0.214,0.573-0.337,0.894-0.361c0.321-0.024,0.647,0.06,0.896,0.269
											C237.941,190.675,238.022,190.768,238.052,190.881z"/>
										<path style="opacity:0.2;fill:#FFFFFF;" d="M237.543,191.015c0.053,0.039,0.114,0.065,0.179,0.074
											c0.04,0.005,0.081,0.004,0.117-0.011c0.379-0.159-0.36-0.794-0.467-0.434c-0.018,0.061-0.004,0.128,0.021,0.186
											C237.426,190.902,237.479,190.968,237.543,191.015z"/>
									</g>
								</g>
								<g id="Bubble_00000008845533100648325490000012319310669957107080_">
									<g>
										<path style="fill:#455A64;" d="M223.626,184.355c0.031,0.157,0.084,0.302,0.157,0.435c0.06,0.102,0.132,0.204,0.219,0.306
											c0.351,0.382,0.887,0.577,1.432,0.469c0.834-0.165,1.375-0.975,1.21-1.808c-0.165-0.834-0.974-1.375-1.808-1.21
											C224.003,182.712,223.46,183.521,223.626,184.355z"/>
										<path style="fill:#37474F;" d="M225.969,183.245c-0.243-0.236-0.533-0.01-0.52,0.486c0.014,0.496,0.274,0.957,0.662,0.676
											c-0.141,0.721-1.261,1.233-1.975,0.816c0.346,0.295,0.817,0.436,1.298,0.34c0.833-0.165,1.375-0.974,1.21-1.808
											c-0.153-0.77-0.856-1.29-1.62-1.234C225.282,182.529,225.785,182.712,225.969,183.245z"/>
										<path style="opacity:0.2;fill:#FFFFFF;" d="M224.731,182.83c0.116,0.009,0.232,0.084,0.263,0.196
											c0.046,0.169-0.1,0.32-0.212,0.454c-0.287,0.345-0.393,0.812-0.389,1.261c0.001,0.055,0.002,0.113-0.017,0.166
											c-0.019,0.052-0.063,0.1-0.119,0.104c-0.049,0.004-0.125-0.022-0.16-0.056c-0.091-0.089-0.163-0.197-0.21-0.315
											c-0.12-0.3-0.125-0.652-0.04-0.963c0.085-0.311,0.274-0.589,0.554-0.753C224.501,182.865,224.615,182.821,224.731,182.83z
											"/>
										<path style="opacity:0.2;fill:#FFFFFF;" d="M224.687,183.354c0.054-0.037,0.099-0.086,0.129-0.144
											c0.018-0.035,0.031-0.075,0.029-0.114c-0.022-0.41-0.869,0.072-0.566,0.294c0.051,0.038,0.119,0.047,0.182,0.042
											C224.542,183.426,224.621,183.399,224.687,183.354z"/>
									</g>
								</g>
								<g id="Bubble_00000123401000844730734220000007199369963460938666_">
									<g>
										<path style="fill:#455A64;" d="M244.814,181.608c-0.06,0.148-0.095,0.299-0.107,0.45
											c-0.006,0.118-0.001,0.243,0.016,0.376c0.086,0.512,0.428,0.968,0.944,1.175c0.789,0.318,1.684-0.065,2.001-0.853
											c0.317-0.789-0.064-1.684-0.853-2.001C246.027,180.438,245.131,180.819,244.814,181.608z"/>
										<path style="fill:#37474F;" d="M247.382,181.959c-0.075-0.331-0.441-0.3-0.701,0.123
											c-0.259,0.423-0.293,0.951,0.185,0.928c-0.512,0.526-1.73,0.344-2.1-0.396c0.128,0.436,0.446,0.811,0.901,0.994
											c0.788,0.317,1.684-0.064,2.001-0.852c0.293-0.729-0.012-1.548-0.682-1.919
											C247.198,180.984,247.52,181.412,247.382,181.959z"/>
										<path style="opacity:0.2;fill:#FFFFFF;" d="M246.573,180.935c0.092,0.071,0.149,0.198,0.113,0.308
											c-0.054,0.166-0.259,0.213-0.426,0.264c-0.429,0.132-0.773,0.465-1.015,0.843c-0.03,0.047-0.06,0.095-0.105,0.13
											c-0.044,0.033-0.108,0.049-0.157,0.022c-0.043-0.023-0.093-0.087-0.104-0.134c-0.027-0.124-0.029-0.254-0.004-0.378
											c0.063-0.317,0.252-0.615,0.493-0.829c0.241-0.214,0.551-0.344,0.876-0.328
											C246.361,180.838,246.481,180.864,246.573,180.935z"/>
										<path style="opacity:0.2;fill:#FFFFFF;" d="M246.249,181.349c0.066-0.001,0.13-0.018,0.187-0.05
											c0.035-0.02,0.067-0.046,0.087-0.08c0.205-0.355-0.768-0.414-0.635-0.063c0.023,0.06,0.074,0.104,0.13,0.135
											C246.088,181.331,246.169,181.351,246.249,181.349z"/>
									</g>
								</g>
								<g id="Bubble_00000060743028795799826560000007653422848823190452_">
									<g>
										<path style="fill:#455A64;" d="M230.565,190.945c-0.031,0.157-0.038,0.311-0.022,0.462
											c0.016,0.117,0.044,0.239,0.085,0.367c0.179,0.487,0.599,0.872,1.145,0.981c0.834,0.166,1.643-0.375,1.809-1.208
											c0.166-0.834-0.374-1.643-1.208-1.809C231.541,189.571,230.731,190.112,230.565,190.945z"/>
										<path style="fill:#37474F;" d="M233.154,190.816c-0.135-0.311-0.489-0.213-0.666,0.25
											c-0.177,0.463-0.112,0.989,0.354,0.878c-0.406,0.612-1.637,0.657-2.137-0.001c0.207,0.405,0.589,0.715,1.069,0.811
											c0.833,0.166,1.643-0.375,1.809-1.208c0.154-0.77-0.298-1.52-1.025-1.76C232.793,189.891,233.188,190.252,233.154,190.816
											z"/>
										<path style="opacity:0.2;fill:#FFFFFF;" d="M232.169,189.958c0.104,0.053,0.183,0.167,0.168,0.282
											c-0.022,0.173-0.215,0.257-0.37,0.338c-0.397,0.209-0.674,0.6-0.842,1.016c-0.021,0.051-0.042,0.105-0.079,0.147
											c-0.037,0.041-0.097,0.068-0.15,0.051c-0.046-0.015-0.108-0.068-0.126-0.112c-0.05-0.117-0.075-0.244-0.074-0.371
											c0.003-0.323,0.134-0.651,0.331-0.906c0.197-0.255,0.478-0.44,0.8-0.484C231.943,189.903,232.066,189.906,232.169,189.958
											z"/>
										<path style="opacity:0.2;fill:#FFFFFF;" d="M231.928,190.426c0.064-0.014,0.125-0.041,0.175-0.084
											c0.03-0.026,0.057-0.057,0.07-0.095c0.136-0.387-0.831-0.265-0.636,0.056c0.033,0.054,0.092,0.089,0.152,0.109
											C231.766,190.437,231.85,190.442,231.928,190.426z"/>
									</g>
								</g>
								<g id="Bubble_00000147187122381512132480000002590492086549742233_">
									<g>
										<path style="fill:#455A64;" d="M232.363,182.828c-0.06,0.148-0.095,0.299-0.107,0.45
											c-0.006,0.118-0.001,0.243,0.016,0.376c0.086,0.512,0.428,0.968,0.944,1.175c0.789,0.317,1.684-0.065,2.001-0.853
											c0.317-0.789-0.064-1.684-0.853-2.001C233.577,181.659,232.68,182.04,232.363,182.828z"/>
										<path style="fill:#37474F;" d="M234.932,183.179c-0.075-0.33-0.441-0.3-0.701,0.123c-0.259,0.423-0.293,0.951,0.185,0.928
											c-0.512,0.526-1.73,0.343-2.1-0.396c0.128,0.436,0.446,0.812,0.901,0.994c0.788,0.317,1.684-0.064,2.001-0.853
											c0.293-0.729-0.012-1.548-0.682-1.919C234.748,182.204,235.07,182.632,234.932,183.179z"/>
										<path style="opacity:0.2;fill:#FFFFFF;" d="M234.122,182.155c0.092,0.071,0.148,0.198,0.113,0.308
											c-0.054,0.166-0.259,0.213-0.426,0.264c-0.429,0.132-0.773,0.465-1.015,0.843c-0.03,0.047-0.06,0.095-0.105,0.13
											c-0.044,0.034-0.108,0.049-0.157,0.022c-0.043-0.024-0.093-0.087-0.103-0.134c-0.027-0.124-0.029-0.254-0.004-0.378
											c0.063-0.317,0.252-0.615,0.493-0.829c0.241-0.214,0.551-0.344,0.876-0.328
											C233.91,182.059,234.03,182.084,234.122,182.155z"/>
										<path style="opacity:0.2;fill:#FFFFFF;" d="M233.799,182.57c0.066-0.001,0.13-0.018,0.187-0.05
											c0.035-0.02,0.067-0.046,0.086-0.08c0.205-0.356-0.767-0.414-0.635-0.063c0.023,0.06,0.074,0.104,0.13,0.135
											C233.637,182.551,233.719,182.571,233.799,182.57z"/>
									</g>
								</g>
							</g>
						</g>
					</g>
					<g>
						<g>
							<path style="opacity:0.3;fill:#FFFFFF;" d="M241.365,167.684c-7.416,0.403-16.153,6.1-19.515,12.725
								c-0.988,1.954-1.385,3.757-1.278,5.335l0.645,0.851c-0.103-1.563,0.249-3.334,1.23-5.271
								c3.361-6.627,12.098-12.324,19.515-12.725c2.176-0.117,3.941,0.278,5.334,1.008l-0.51-0.932
								C245.384,167.934,243.562,167.565,241.365,167.684z"/>
							<path style="opacity:0.3;fill:#FFFFFF;" d="M246.917,171.144c-0.975-0.208-2.068-0.289-3.276-0.223
								c-7.503,0.407-16.34,6.169-19.737,12.869c-0.549,1.082-0.917,2.118-1.12,3.096c-0.087,0.418-0.09,0.844-0.034,1.261
								c0.172,0.105,0.35,0.2,0.536,0.278l0.013,0.018c0.154-1.16,0.537-2.409,1.208-3.728c3.397-6.7,12.234-12.463,19.737-12.869
								c1.475-0.081,2.77,0.07,3.892,0.397l-0.002-0.003c0.005-0.212-0.041-0.42-0.071-0.63
								C247.709,171.397,247.326,171.232,246.917,171.144z"/>
						</g>
						<path style="opacity:0.3;fill:#FFFFFF;" d="M233.694,153.908c-0.128,0.009-0.256,0.018-0.401,0.023
							c-7.893,0.614-17.029,6.571-20.763,13.539c-0.064,0.131-0.123,0.244-0.183,0.357c-1.18,2.315-1.582,4.435-1.345,6.257
							l0.62,0.814c-0.186-1.766,0.239-3.827,1.378-6.07c0.261-0.512,0.556-1.016,0.868-1.517c3.826-6.077,11.626-11.163,18.74-12.22
							c0.584-0.084,1.165-0.15,1.739-0.183c2.491-0.123,4.545,0.292,6.097,1.167l-0.492-0.868
							C238.38,154.256,236.278,153.769,233.694,153.908z M240.199,158.049c-1.099-0.249-2.355-0.352-3.747-0.276
							c-2.495,0.14-5.129,0.818-7.689,1.907c-3.326,1.396-6.527,3.483-9.146,5.964c-2.029,1.903-3.712,4.04-4.846,6.266
							c-0.631,1.244-1.043,2.434-1.269,3.547c-0.088,0.503-0.086,1.008-0.008,1.492c0.007,0.01,0.007,0.01,0.007,0.01
							c0.171,0.126,0.357,0.228,0.546,0.313c0.159-1.352,0.598-2.798,1.391-4.34c3.728-7.365,13.437-13.696,21.681-14.137
							c1.721-0.096,3.221,0.085,4.522,0.484c-0.008-0.218-0.027-0.428-0.063-0.643C241.166,158.37,240.695,158.171,240.199,158.049z
							"/>
						<path style="opacity:0.7;fill:#FFFFFF;" d="M219.136,168.956c-0.035,0.208,0.126,0.398,0.239,0.553
							c0.314,0.433,0.765,0.899,0.88,1.438c0.123,0.579-0.436,1.138-1.017,0.916c-0.502-0.192-0.784-0.799-1.048-1.227
							c-0.163-0.263-0.325-0.527-0.488-0.79c-0.125-0.202-0.242-0.429-0.435-0.577c-0.249-0.192-0.735-0.193-0.757,0.208
							c-0.011,0.198,0.108,0.365,0.161,0.548c0.068,0.237,0.008,0.482-0.137,0.677c-0.348,0.469-0.929,0.335-1.278-0.051
							c-0.406-0.449-0.522-1.063-0.847-1.563c-0.218-0.337-0.91-1.007-1.215-0.393c-0.001,0.003,0.003,0.011,0.005,0.007
							c0.281-0.466,0.845,0.032,1.025,0.314c0.172,0.271,0.277,0.583,0.399,0.878c0.162,0.391,0.36,0.771,0.696,1.041
							c0.278,0.224,0.654,0.354,1.002,0.224c0.335-0.124,0.575-0.468,0.594-0.822c0.01-0.199-0.066-0.36-0.134-0.542
							c-0.048-0.128-0.092-0.253,0.005-0.369c0.205-0.245,0.465,0.033,0.586,0.217c0.333,0.506,0.628,1.037,0.96,1.544
							c0.216,0.33,0.475,0.67,0.846,0.833c0.371,0.163,0.796,0.086,1.073-0.216c0.324-0.354,0.261-0.837,0.044-1.228
							c-0.135-0.242-0.308-0.46-0.472-0.682c-0.107-0.145-0.832-0.98-0.358-1.038c0.09-0.011,0.016-0.143-0.05-0.144
							C219.267,168.714,219.161,168.806,219.136,168.956z M221.041,172.874c-0.034-0.007-0.024,0.043-0.01,0.057
							c0.035,0.038,0.073,0.072,0.1,0.117c0.023,0.037,0.044,0.079,0.063,0.118c0.037,0.077,0.055,0.163,0.051,0.249
							c-0.009,0.183-0.124,0.354-0.288,0.434c-0.081,0.04-0.17,0.063-0.261,0.059c-0.045-0.002-0.096-0.009-0.136-0.03
							c-0.039-0.02-0.062-0.058-0.087-0.092c-0.095-0.131-0.206-0.295-0.171-0.466c0.021-0.105,0.094-0.2,0.177-0.264
							c0.091-0.07,0.191-0.126,0.297-0.168c0.02-0.008,0-0.055-0.02-0.052c-0.132,0.022-0.265,0.036-0.387,0.093
							c-0.116,0.055-0.214,0.135-0.25,0.262c-0.068,0.24,0.073,0.49,0.214,0.674c0.092,0.121,0.214,0.202,0.368,0.216
							c0.115,0.01,0.232-0.01,0.335-0.06c0.207-0.102,0.361-0.295,0.373-0.531c0.007-0.128-0.024-0.258-0.085-0.37
							c-0.035-0.066-0.084-0.12-0.143-0.167C221.14,172.92,221.094,172.884,221.041,172.874z M233.268,169.021
							c-0.071,0.269,0.001,0.531,0.104,0.781c0.122,0.296,0.262,0.585,0.391,0.878c0.232,0.526,0.44,1.164-0.012,1.641
							c-0.098,0.103-0.255,0.226-0.403,0.24c-0.173,0.017-0.327-0.159-0.44-0.269c-0.227-0.221-0.371-0.494-0.566-0.74
							c-0.154-0.195-0.368-0.351-0.628-0.292c-0.164,0.037-0.287,0.149-0.291,0.32c0,0.011,0.021,0.031,0.022,0.012
							c0.009-0.126,0.091-0.212,0.206-0.253c0.188-0.067,0.355,0.001,0.489,0.141c0.192,0.199,0.293,0.474,0.464,0.691
							c0.261,0.333,0.639,0.756,1.09,0.502c1.024-0.578,0.349-1.826,0.005-2.594c-0.137-0.307-0.299-0.636-0.236-0.981
							c0.033-0.181,0.09-0.332,0.271-0.404c0.144-0.058,0.276-0.031,0.41,0.04c0.023,0.012,0.024-0.021,0.014-0.034
							C233.884,168.353,233.36,168.676,233.268,169.021z M233.381,164.89c0.156,0.472,0.424,0.893,0.704,1.301
							c0.31,0.453,0.642,0.901,0.856,1.41c0.106,0.252,0.199,0.56,0.099,0.83c-0.095,0.257-0.375,0.442-0.644,0.337
							c-0.018-0.007-0.011,0.029,0.002,0.034c0.334,0.146,0.67-0.126,0.734-0.456c0.083-0.429-0.16-0.896-0.363-1.256
							c-0.292-0.517-0.664-0.984-0.964-1.496c-0.224-0.382-0.725-1.286-0.245-1.655c0.004-0.003-0.001-0.016-0.007-0.012
							C233.216,164.146,233.271,164.554,233.381,164.89z M224.077,148.341c-0.142-0.106-0.343-0.084-0.454,0.063
							c-0.155,0.204-0.05,0.514,0.02,0.729c0.234,0.719,0.656,1.352,1.084,1.969c0.411,0.591,1.058,1.322,1.043,2.086
							c-0.007,0.345-0.239,0.696-0.565,0.826c-0.412,0.165-0.745-0.183-0.972-0.48c-0.299-0.39-0.732-0.945-1.303-0.737
							c-0.547,0.199-0.321,0.865-0.133,1.24c0.366,0.729,0.833,1.451,1.052,2.243c0.093,0.334,0.131,0.724-0.048,1.037
							c-0.193,0.337-0.615,0.527-0.958,0.286c-0.34-0.239-0.571-0.695-0.79-1.037c-0.201-0.314-0.388-0.663-0.668-0.916
							c-0.35-0.316-1.079-0.414-1.231,0.164c-0.004,0.014,0.02,0.049,0.027,0.028c0.104-0.334,0.498-0.442,0.809-0.345
							c0.455,0.142,0.67,0.654,0.898,1.028c0.184,0.302,0.372,0.611,0.59,0.891c0.146,0.188,0.323,0.367,0.557,0.438
							c0.488,0.148,0.921-0.26,1.022-0.713c0.145-0.648-0.199-1.343-0.479-1.905c-0.159-0.318-0.323-0.633-0.485-0.949
							c-0.145-0.282-0.375-0.63-0.324-0.963c0.074-0.491,0.654-0.436,0.945-0.18c0.26,0.229,0.417,0.552,0.67,0.788
							c0.339,0.315,0.843,0.45,1.204,0.084c0.366-0.371,0.32-0.972,0.148-1.417c-0.275-0.712-0.795-1.326-1.201-1.965
							c-0.243-0.382-0.478-0.773-0.649-1.194c-0.08-0.196-0.172-0.416-0.191-0.628c-0.017-0.192,0.124-0.532,0.374-0.387
							C224.117,148.451,224.104,148.361,224.077,148.341z M226.501,154.563c-0.022,0.006,0.001,0.048,0.015,0.051
							c0.193,0.053,0.402,0.152,0.503,0.334c0.055,0.1,0.067,0.212,0.067,0.324c-0.001,0.11-0.007,0.24-0.045,0.344
							c-0.041,0.111-0.162,0.169-0.258,0.225c-0.086,0.05-0.179,0.104-0.273,0.136c-0.098,0.033-0.215,0.025-0.308-0.022
							c-0.112-0.057-0.174-0.19-0.209-0.305c-0.041-0.134-0.079-0.268-0.056-0.41c0.022-0.137,0.088-0.263,0.172-0.372
							c0.018-0.024-0.02-0.093-0.05-0.072c-0.254,0.176-0.286,0.5-0.207,0.777c0.071,0.247,0.269,0.498,0.544,0.51
							c0.121,0.005,0.259-0.019,0.37-0.067c0.113-0.05,0.253-0.108,0.342-0.196c0.104-0.102,0.122-0.279,0.138-0.417
							c0.016-0.144,0.001-0.292-0.061-0.425C227.067,154.732,226.788,154.48,226.501,154.563z"/>
					</g>
					<g>
						<g>
							<g>
								<path style="fill:#BA68C8;" d="M231.752,140.961c-1.605-0.634-3.54-0.906-5.727-0.787
									c-8.789,0.477-19.182,7.254-23.16,15.102c-1.983,3.909-2.124,7.521-0.397,10.17l0.727,1.116l0.678-2.032
									c-1.456-2.233-1.298-5.354,0.444-8.788c1.851-3.652,5.195-7.054,9.097-9.598c1.951-1.272,4.043-2.33,6.157-3.099
									c2.115-0.766,4.253-1.244,6.297-1.355c3.845-0.209,6.764,0.905,8.22,3.139l2.132,0.199l-0.727-1.115
									C234.628,142.587,233.355,141.594,231.752,140.961z"/>
							</g>
							<g style="opacity:0.45;">
								<path style="fill:#FFFFFF;" d="M231.752,140.961c-1.605-0.634-3.54-0.906-5.727-0.787
									c-8.789,0.477-19.182,7.254-23.16,15.102c-1.983,3.909-2.124,7.521-0.397,10.17l0.727,1.116l0.678-2.032
									c-1.456-2.233-1.298-5.354,0.444-8.788c1.851-3.652,5.195-7.054,9.097-9.598c1.951-1.272,4.043-2.33,6.157-3.099
									c2.115-0.766,4.253-1.244,6.297-1.355c3.845-0.209,6.764,0.905,8.22,3.139l2.132,0.199l-0.727-1.115
									C234.628,142.587,233.355,141.594,231.752,140.961z"/>
							</g>
							<g>
								<path style="fill:#BA68C8;" d="M232.48,142.076c-1.605-0.634-3.54-0.906-5.727-0.787
									c-8.789,0.477-19.182,7.254-23.16,15.102c-1.983,3.909-2.124,7.521-0.397,10.171l1.405-0.916
									c-1.456-2.233-1.298-5.354,0.444-8.788c1.851-3.652,5.195-7.054,9.097-9.598c1.951-1.272,4.043-2.33,6.157-3.099
									c2.115-0.766,4.253-1.244,6.297-1.355c3.845-0.209,6.764,0.905,8.22,3.139l1.405-0.916
									C235.355,143.702,234.082,142.71,232.48,142.076z"/>
								<path style="opacity:0.65;fill:#FFFFFF;" d="M232.48,142.076c-1.605-0.634-3.54-0.906-5.727-0.787
									c-8.789,0.477-19.182,7.254-23.16,15.102c-1.983,3.909-2.124,7.521-0.397,10.171l1.405-0.916
									c-1.456-2.233-1.298-5.354,0.444-8.788c1.851-3.652,5.195-7.054,9.097-9.598c1.951-1.272,4.043-2.33,6.157-3.099
									c2.115-0.766,4.253-1.244,6.297-1.355c3.845-0.209,6.764,0.905,8.22,3.139l1.405-0.916
									C235.355,143.702,234.082,142.71,232.48,142.076z"/>
							</g>
						</g>
					</g>
				</g>
				<g id="Fingers">
					<g>
						<path style="fill:#FFBDA7;" d="M247.568,159.415c-0.643-2.474-1.004-4.204-1.866-4.845c-1.113-0.828-4.371-2.001-5.791-1.706
							c-1.41,0.293-3.433,0.931-5.402,1.602c-1.969,0.671-2.954,1.143-2.381,2.268c0.573,1.125,1.916,2,3.626,1.963
							c1.71-0.037,5.066-0.672,5.642-0.768c0.248,0.644,0.25,1.35,0.25,1.35l0.444,0.811L247.568,159.415z"/>
						<g>
							<path style="fill:#F0997A;" d="M247.568,159.415c-0.675-1.68-0.698-3.994-2.406-4.969c-1.623-0.766-3.573-1.556-5.376-1.272
								c-1.236,0.287-2.461,0.678-3.679,1.079l-1.823,0.615c-0.718,0.316-1.873,0.49-2.031,1.305
								c0.125,0.812,0.909,1.518,1.645,1.878c2.317,0.966,5.11-0.036,7.558-0.22c0.16,0.439,0.251,1.046,0.225,1.429l0.407,0.831
								l-0.48-0.79c-0.042-0.455-0.119-0.921-0.297-1.338l0.099,0.057c-1.9,0.398-3.799,0.809-5.752,0.913
								c-1.685,0.054-3.659-0.945-3.977-2.744c-0.021-0.453,0.289-0.844,0.577-1.041c1.159-0.759,2.398-1.028,3.663-1.47
								c1.233-0.387,2.469-0.764,3.747-1.043c2.084-0.294,3.925,0.583,5.681,1.488C247.122,155.171,247.055,157.648,247.568,159.415
								L247.568,159.415z"/>
						</g>
						<path style="fill:#F0997A;" d="M241.362,157.839c1.193-0.209,1.928-0.868,1.928-0.868s-0.395,0.781-1.786,1.217
							L241.362,157.839z"/>
					</g>
					<g>
						<path style="fill:#FFBDA7;" d="M251.854,166.592c-0.359-3.163-0.866-6.219-1.924-7.118c-1.058-0.899-6.475-0.786-7.683-0.296
							c-1.209,0.49-6.155,2.958-6.995,3.969c-1.194,1.437,0.211,2.797,2.319,2.838c1.789,0.035,4.169-0.939,5.019-1.245
							c1.536-0.403,3.424-0.196,3.424-0.196l0.527,3.177C246.54,167.721,250.056,168.708,251.854,166.592z"/>
						<g>
							<path style="fill:#F0997A;" d="M251.854,166.592c-0.338-2.034-0.592-4.133-1.403-6.035c-0.28-0.614-0.647-1.105-1.354-1.224
								c-2.603-0.388-5.561-0.609-7.97,0.677c-1.82,0.93-3.719,1.85-5.359,3.057c-0.487,0.37-0.813,0.987-0.602,1.489
								c0.557,1.139,2.23,1.263,3.396,1.106c1.35-0.177,2.665-0.632,3.98-1.098c1.157-0.27,2.328-0.252,3.481-0.121l0.08,0.009
								l0.01,0.076l0.425,3.193l-0.628-3.16l0.09,0.085c-1.105-0.065-2.358,0-3.351,0.265c-2.388,0.87-6.225,2.637-8.01-0.145
								c-0.583-1.677,1.381-2.62,2.521-3.339c1.5-0.882,3.086-1.663,4.667-2.383c2.354-0.778,4.962-0.61,7.381-0.117
								C251.669,159.58,251.542,164.496,251.854,166.592L251.854,166.592z"/>
						</g>
						<path style="fill:#F0997A;" d="M246.041,164.468c0.73,0.084,2.157-0.102,2.912-0.483c-1.038,0.99-2.853,1.087-2.853,1.087
							L246.041,164.468z"/>
					</g>
					<g>
						<path style="fill:#FFBDA7;" d="M256.364,175.314c-0.899-4.559-1.205-5.778-1.697-7.02c-0.492-1.243-1.724-2.325-3.764-2.189
							c-1.769,0.117-5.091,0.515-6.184,0.921c-1.093,0.406-4.48,1.539-5.337,2.181c-0.856,0.642,0.285,2.541,2.367,2.938
							c2.082,0.397,4.397-0.806,5.378-0.881c0.98-0.074,3.117-0.114,3.117-0.114s0.234,3.29,1.335,4.251
							C252.679,176.36,256.364,175.314,256.364,175.314z"/>
						<g>
							<path style="fill:#F0997A;" d="M256.364,175.314c-0.557-2.235-0.963-4.528-1.764-6.688c-0.249-0.712-0.689-1.317-1.295-1.718
								c-1.284-0.872-2.883-0.482-4.339-0.352c-3.096,0.232-5.964,1.308-8.753,2.523c-0.324,0.155-0.718,0.351-0.78,0.52
								c-0.203,0.957,0.954,1.804,1.797,2.115c2.156,0.85,4.481-0.705,6.691-0.662c0,0,2.321-0.039,2.321-0.039l0.13-0.002
								c0.14,1.484,0.209,3.198,1.208,4.388c-1.081-1.097-1.241-2.782-1.469-4.241c0,0,0.137,0.125,0.137,0.125l-2.304,0.131
								c-2.348,0.062-4.443,1.723-6.9,0.814c-1.258-0.344-3.245-2.306-1.624-3.401c2.966-1.512,6.202-2.568,9.487-2.815
								C255.933,164.685,255.282,170.291,256.364,175.314L256.364,175.314z"/>
						</g>
						<path style="fill:#F0997A;" d="M250.324,171.021c1.365-0.098,2.264-0.503,2.264-0.503s-0.566,0.873-2.309,1.003
							L250.324,171.021z"/>
					</g>
				</g>
			</g>
			<path id="Mouth" style="fill:#B16668;" d="M203.345,127.569c-1.669,0.339-3.416,0.385-5.085,0.02
				c-1.634-0.358-3.133-0.987-4.641-1.715c-0.076-0.037-0.152-0.074-0.229-0.111c-0.141-0.068-0.337-0.124-0.43,0.002
				c-0.078,0.107-0.01,0.256,0.063,0.367c0.553,0.841,1.484,1.432,2.342,1.922c2.506,1.431,5.548,1.697,8.175,0.414
				C203.842,128.321,203.723,127.492,203.345,127.569z"/>
			<path id="Arm_00000108308045061716735170000012394667688472110988_" style="fill:#FFBDA7;" d="M144.662,164.533
				c-21.707,9.18-23.469,20.403-23.307,51.69c0.162,31.286-1.001,54.804-1.001,54.804c-0.232,4.692-0.549,9.372-0.694,14.07
				c-0.294,9.465-0.354,18.956-1.145,28.397c-0.269,3.209-0.369,7.414-2.485,10.152c-1.529,1.979-3.275,3.582-5.458,4.789
				c-2.262,1.25-2.929,1.286-7.636,2.425c-1.327,0.321-4.541,0.722-7.74,2.152c-1.472,0.658-2.859,1.691-4.457,1.943
				c-1.606,0.253-3.106,0.066-4.639,0.704c-1.632,0.68-2.809,1.648-4.02,2.927c-2.273,2.399-5.537,4.165-5.537,4.165
				c-4.862,0.147-5.832,2.596-3.831,4.637c2.332,2.379,6.769,2.992,9.948,3.093c9.141,0.289,14.416,0.344,23.387-1.5
				c3.006-0.617,7.338-2.078,9.965,0.235c2.635,2.32-2.544,3.294-4.077,3.756c-3.188,0.96-4.264,1.378-6.432,2.974
				c-4.824,3.55-3.671,10.094,2.466,7.293c4.097-1.87,5.659-1.426,10.015-2.429c4.258-0.98,9.306-2.207,12.636-5.24
				c1.437-1.309,2.684-3.002,3.932-4.521c1.628-1.983,4.273-3.744,5.214-6.136c1.328-3.375,1.543-7.228,1.324-10.802
				c-0.129-2.11-0.177-3.954,0.235-5.992c0.659-3.259,0.477-6.409,1.078-9.686c0.611-3.332,1.301-6.648,2.016-9.959
				c1.538-7.117,3.216-14.204,4.689-21.335c1.161-5.619,2.394-11.372,2.548-17.128c0.339-12.677,2.615-36.631,3.917-50.272
				C156.875,206.098,160.853,178.335,144.662,164.533z"/>
		</g>
	</g>
</g>
<g id="Hearts_00000043426260094486638850000014861373731864372111_">
	<g id="Hearts">
		<g id="Heart_00000069383553493809226000000003368433000453769864_">
			<path id="Heart" style="fill:#BA68C8;" d="M258.022,87.819c6.472-0.699,10.967,5.757,8.971,13.961
				c4.82-6.932,12.632-7.846,16.4-2.537c3.767,5.309-3.639,19.274-25.384,22.491C246.003,103.321,251.549,88.517,258.022,87.819z"/>
			<path id="Heart_00000103961879504357503510000012237064277265340339_" style="opacity:0.3;fill:#FFFFFF;" d="M258.022,87.819
				c6.472-0.699,10.967,5.757,8.971,13.961c4.82-6.932,12.632-7.846,16.4-2.537c3.767,5.309-3.639,19.274-25.384,22.491
				C246.003,103.321,251.549,88.517,258.022,87.819z"/>
		</g>
		<g id="Heart_00000083087190431557331500000005618583228632444331_">
			<path id="Heart_00000109719938057628772180000017296269183667469473_" style="fill:#BA68C8;" d="M276.671,134.725
				c3.926-0.911,7.17,2.723,6.553,7.914c2.447-4.62,7.181-5.763,9.892-2.78c2.711,2.983-0.803,12.118-13.93,15.714
				C270.436,145.148,272.744,135.636,276.671,134.725z"/>
		</g>
	</g>
</g>
</svg>
