<?xml version="1.0" encoding="utf-8"?>
<!-- Generator: Adobe Illustrator 27.5.0, SVG Export Plug-In . SVG Version: 6.00 Build 0)  -->
<svg version="1.1" id="BASE" xmlns="http://www.w3.org/2000/svg" xmlns:xlink="http://www.w3.org/1999/xlink" x="0px" y="0px"
	 viewBox="0 0 1817 2478" style="enable-background:new 0 0 1817 2478;" xml:space="preserve">
<g>
	<path style="fill:transparent;" d="M1377.512,1556.539c-13.95-23.935-42.185-46.011-81.392-65.079
		c-56.262-27.363-145.167-77.352-145.167-130.746v-62.661c0-11.776-5.654-22.616-14.753-29.374
		c-3.045-2.242-6.424-4.048-10.137-5.253c-18.969-6.256-40.815-12.613-65.304-18.166v-0.033h-0.002v-51.83
		c50.484-10.885,101.471-47.167,137.596-81.976c38.777-37.365,72.801-88.799,89.284-143.448c2.654,0.926,5.367,1.733,8.139,2.414
		c56.85,13.959,116.521-30.054,133.278-98.304c15.273-62.201-10.369-123.066-58.069-143.933c0.283-2.583,0.524-5.178,0.724-7.786
		c10.959-0.418,22.076-1.104,33.354-2.076c10.925-17.238,32.067-53.739,44.979-104.18c5.356-20.715,9.258-43.843,10.535-68.886
		c0.354-6.491,0.532-13.125,0.425-19.864c-0.036-7.414-0.319-14.97-0.887-22.666c-0.036-0.816-0.105-1.561-0.177-2.377
		c-8.301-102.833-85.345-187.504-188.178-208.964c-13.657-2.838-27.987-5.249-42.992-7.094c-27.278-3.299-52.747-4.186-75.874-3.618
		c-4.47,0.107-8.868,0.284-13.16,0.496c-15.602,0.78-30.005,2.21-43.047,3.957c-23.858-20.163-89.527-71.936-185.958-100.404
		c-44.233-13.089-94.957-21.247-151.073-19.225c-71.192,2.589-132.239,20.857-181.225,43.027
		c-91.553,41.467-158.026,130.536-174.024,237.448c-1.064,7.023-3.689,21.922-4.576,42.707
		c-2.341,55.442,8.407,105.387,24.262,148.059c14.524,39.049,33.335,71.983,50.359,97.494
		c-35.483,21.963-59.628,65.29-59.628,115.153c0,66.746,43.261,121.782,99.07,129.536c27.193,110.862,91.74,198.274,229.075,230.758
		v36.587c-22.515,5.286-42.787,11.241-60.585,17.095c-3.948,1.305-7.561,3.211-10.739,5.654
		c-8.932,6.759-14.452,17.397-14.452,29.073v69.112c0,51.898-89.001,100.636-142.727,128.503
		c-32.925,17.079-70.745,57.193-70.745,57.193c-161.168,123.728-224.975,589.956-68.837,672.13
		c109.408,116.573,967.047,116.044,1069.671-1.584C1595.562,2137.903,1534.271,1684.752,1377.512,1556.539z"/>
	<path style="fill:#F6E0D3;" d="M1377.512,1556.539c-13.95-23.935-42.185-46.011-81.392-65.079
		c-56.262-27.363-145.167-77.352-145.167-130.746v-62.661c0-11.776-5.654-22.616-14.753-29.374
		c-3.045-2.242-6.424-4.048-10.137-5.253c-18.969-6.256-40.815-12.613-65.304-18.166v-0.033h-0.002v-51.83
		c50.484-10.885,101.471-47.167,137.596-81.976c38.777-37.365,72.801-88.799,89.284-143.448c2.654,0.926,5.367,1.733,8.139,2.414
		c56.85,13.959,116.521-30.054,133.278-98.304c15.273-62.201-10.369-123.066-58.069-143.933c0.283-2.583,0.524-5.178,0.724-7.786
		c10.959-0.418,22.076-1.104,33.354-2.076c10.925-17.238,32.067-53.739,44.979-104.18c-26.225,18.392-55.705,28.722-86.248,32.28
		c-26.787,3.121-54.392,1.031-81.341-5.402c-5.982-1.428-11.931-3.07-17.833-4.916c-44.542-13.937-86.321-39.524-118.394-72.686
		c-0.841-0.87-1.67-1.748-2.492-2.632c7.102,3.875,14.25,7.56,21.422,11.045c30.941,15.035,63.936,25.981,97.849,31.682
		c12.31,2.069,24.74,3.447,37.239,4.079c26.469,1.337,53.22-0.952,79.122-6.563c25.391-5.5,59.956-12.698,76.514-33.959
		c3.016-3.871,1.418-10.238-4.231-10.218c-25.201,0.09-49.295,15.488-74.078,21.147c-25.349,5.788-51.374,7.808-77.326,6.424
		c-18.471-0.986-36.774-3.864-54.739-8.254c-29.635-7.243-58.354-18.604-85.398-32.383c-16.557-8.438-32.425-17.915-47.74-28.186
		c-10.155-20.125-16.915-41.837-20.308-64.026c13.292,7.198,27.589,12.405,42.447,16.232c30.867,7.951,64.156,9.957,95.886,11.532
		c28.631,1.422,57.271,0.181,85.689-3.57c38.566-5.091,85.306-11.865,118.362-33.373c9.952-6.476,3.229-19.886-7.688-18.234
		c-35.041,5.298-68.602,20.501-103.962,26.433c-27.604,4.63-55.657,6.649-83.641,6.092c-50.911-1.013-105.077-4.023-149.443-29.089
		c-2.339-53.375,14.434-107.198,50.025-146.426c-15.602,0.78-30.005,2.21-43.047,3.957
		c-23.858-20.163-89.527-71.936-185.958-100.404c7.896,17.719,13.124,36.837,15.352,56.136
		c-11.03-5.064-22.008-10.247-32.996-15.372c-60.752-28.334-123.231-54.415-191.531-51.18c-6.387,0.302-6.456,9.857,0,9.976
		c77.451,1.426,145.839,39.323,214.347,71.211c3.793,1.765,7.592,3.522,11.402,5.264c0.084,12.462-1.129,24.827-3.733,36.764
		c-1.856,8.516-4.255,16.658-7.143,24.444c-5.192-0.387-10.372-0.884-15.535-1.495c-63.157-7.46-118.306-35.608-178.351-53.935
		c-91.139-27.814-224.822-8.032-283.4,75.712c-1.699,2.429,1.67,5.758,4.095,4.095c48.889-33.533,91.693-63.829,152.182-73.111
		c69.168-10.614,127.795,12.166,190.871,37.094c39.006,15.415,80.069,26.427,121.861,30.481
		c-10.251,20.044-24.024,37.444-40.341,52.568c-50.8,3.862-100.735-2.242-150.91-10.717
		c-64.497-10.895-130.843-20.986-193.827,2.897c-52.746,20-93.124,59.216-119.513,108.432c-2.929,5.463,5.173,10.24,8.327,4.868
		c36.644-62.407,96.609-106.762,169.857-114.03c63.845-6.335,124.092,15.467,186.685,23.124c13.835,1.692,27.756,2.887,41.702,3.521
		c7.324,0.332,14.653,0.509,21.982,0.52c4.356,0.007,8.711-0.045,13.064-0.156c-8.353,6.019-17.147,11.598-26.286,16.773
		c-13.939,7.892-28.681,14.845-43.899,20.98c-22.507,0.886-45.091,1.357-67.648,2.336c-11.208,0.486-22.409,1.098-33.591,1.949
		c-64.369,4.898-129.325,21.668-175.447,69.539c-20.937,21.731-35.471,47.419-43.349,75.082
		c-12.718,11.929-23.693,24.722-30.862,38.245c14.524,39.049,33.335,71.983,50.359,97.494
		c-35.483,21.963-59.628,65.29-59.628,115.153c0,66.746,43.261,121.782,99.07,129.536c27.193,110.862,91.74,198.274,229.075,230.758
		v36.587c-22.515,5.286-42.787,11.241-60.585,17.095c-3.948,1.305-7.561,3.211-10.739,5.654
		c-8.932,6.759-14.452,17.397-14.452,29.073v69.112c0,51.898-89.001,100.636-142.727,128.503
		c-32.925,17.079-70.745,57.193-70.745,57.193c-161.168,123.728-224.975,589.956-68.837,672.13
		c109.408,116.573,967.047,116.044,1069.671-1.584C1595.562,2137.903,1534.271,1684.752,1377.512,1556.539z"/>
	<path style="fill:#D97E48;" d="M1370.984,728.148c0.283-2.583,0.524-5.178,0.724-7.786c-10.405,0.397-20.665,0.55-30.782,0.474
		c-3.024-0.023-6.035-0.068-9.033-0.132c-7.715-0.164-15.347-0.458-22.891-0.884c-24.284-1.371-47.684-4.067-70.2-7.894
		c-136.997-23.28-241.227-88.404-311.826-151.332c-29.761-6.513-54.399-21.354-68.547-40.703
		c-22.624,5.802-52.72,12.28-94.269,22.172c-113.757,27.065-133.658,24.972-167.072,43.169
		c-12.454,6.778-25.885,15.88-39.478,28.444c-7.74,7.154-15.531,15.432-23.225,25.043c-17.666,22.069-34.815,51.17-49.626,89.855
		c-1.505,3.932-2.987,7.964-4.442,12.096c-0.167,0.472-0.333,0.943-0.498,1.417c-1.763-2.545-3.556-5.177-5.367-7.892
		c-35.483,21.963-59.628,65.29-59.628,115.153c0,66.746,43.261,121.782,99.07,129.536c27.193,110.862,91.74,198.274,229.075,230.758
		v83.093c-19.785,5.423-37.212,11.268-52.021,16.789c5.456,10.611,14.003,28.427,24.624,51.188
		c20.145,43.168,47.751,104.122,75.88,167.445c-0.001-0.001-0.002-0.003-0.005-0.004c2.023,4.55,4.047,9.112,6.072,13.682
		c35.105,79.195,70.23,160.361,91.974,213.678c6.259,15.347,11.41,28.388,15.132,38.408c0.002-0.006,0.005-0.012,0.006-0.019
		c0.001,0.004,0.003,0.007,0.004,0.01c21.767-70.44,130.039-317.332,186.258-433.2c11.188-23.059,20.316-40.93,26.288-51.188
		c-15.626-5.821-34.56-12.149-56.423-17.962v-98.167c50.484-10.885,101.471-47.167,137.596-81.976
		c38.777-37.365,72.801-88.799,89.284-143.448c2.654,0.926,5.367,1.733,8.139,2.414c56.85,13.959,116.521-30.054,133.278-98.304
		C1444.326,809.88,1418.684,749.015,1370.984,728.148z"/>
	<path style="fill:#DD885D;" d="M1143.967,925.377c-5.35-21.794-29.137-36.048-59.687-38.825
		c33.5-32.874,24.571-76.378-8.926-99.469c-4.803-8.223-15.828-23.987-35.708-33.819c-47.962-23.719-96.76,12.166-102.764,18.226
		c-1.339,1.351-7.268,7.349-5.867,11.182c1.406,3.847,6.177,0.378,8.738-0.813c-3.869,2.788-7.024,7.868-9.951,11.604
		c-2.004,2.557-14.455,18.564-7.935,21.224c3.138,1.28,7.213-4.348,9.245-5.249c-0.817,1.727-1.491,3.506-2.053,5.318
		c-12.536,16.35-18.51,34.864-15.604,51.012c1.821,10.122,5.279,20.006,11.784,28.399c6.448,8.321,15.172,15.35,25.243,19.809
		c8.973,3.973,19.564,6.42,30.94,7.323c-14.656,14.666-21.769,32.027-17.763,48.347c1.734,7.061,5.404,13.33,10.611,18.674
		c5.384,5.526,12.412,10.063,20.645,13.461c-16.492,5.609-36.967-0.644-49.946-13.461c-2.761-2.727-5.183-5.75-7.155-9.02
		c-14.853-24.63-42.002-46.477-72.909-45.585c-6.278,0.181-11.85,0.978-16.686,2.369c-0.58-0.424-1.243-0.718-1.936-0.805
		c-25.612-3.215-54.554,6.535-65.031-26.896c-4.566-14.568-1.315-35.061-0.445-49.892c2.235-38.057,12.767-74.417,16.521-111.991
		c0.894-8.957-11.765-9.116-14.558-1.97c-10.134,25.921-12.279,56.845-14.564,84.501c-2.026,24.52-4.681,51.957-1.123,76.453
		c1.959,13.486,8.167,23.858,16.844,31.053c-19.029,6.607-35.136,23.865-44.986,42.763c-12.649,24.27-46.718,34.982-63.14,11.285
		c19.26-6.11,33.655-18.793,37.851-35.886c3.767-15.341-1.392-31.34-12.786-44.822c7.847-0.904,15.198-2.767,21.692-5.601
		c9.328-4.07,17.541-10.76,23.743-18.827c6.257-8.138,9.811-17.88,11.889-27.924c3.754-18.134-2.688-39.731-16.554-58.099
		c-2.61-12.88-6.561-21.273-6.561-21.273c-3.915-8.289-13.272-24.779-31.159-35.516c-42.533-25.53-88.33,8.459-94.036,14.285
		c-0.31,0.316-0.879,0.899-1.544,1.653c-2.071,2.344-5.091,6.358-4.251,9.296c1.113,3.897,5.591,0.613,7.964-0.478
		c-3.628,2.638-6.706,7.594-9.519,11.213c-1.571,2.02-9.816,12.705-9.665,18.16c-13.268,24.447-10.748,56.25,15.576,81.541
		c-24.672,4.298-43.901,18.347-48.865,38.564c-4.235,17.25,2.815,35.33,17.321,49.73c11.375,11.291,27.335,20.32,46.034,24.912
		c15.28,3.751,30.311,4.03,43.651,1.422c1.477,3.324,3.123,6.667,4.768,10.067c2.596,5.369,1.267,6.447,2.717,12.663
		c2.241,9.598,5.902,18.795,13.243,25.317c11.943,10.611,26.359,15.38,41.348,15.798c2.322,12.887,7.254,25.015,14.306,35.95
		c6.035,9.357,13.624,17.839,22.462,25.175c16.543,13.809,37.552,23.566,60.844,27.554c7.643,1.329,15.55,2.01,23.622,2.01
		c32.357,0,61.769-10.989,83.705-28.948c2.713-2.205,5.327-4.539,7.808-6.97c16.115-15.789,26.99-35.776,30.225-57.866
		c9.295-2.531,18.069-6.674,25.919-12.702c8.493-6.522,12.73-15.719,15.322-25.317c0.43-1.592,0.649-2.846,0.786-3.922
		c0.222-1.731,0.238-3.003,0.585-4.47c14.08,2.458,30.026,2.314,46.511-0.88c2.366-0.458,4.744-0.979,7.129-1.565
		C1117.676,992.602,1151.739,957.031,1143.967,925.377z"/>
	<path style="fill:#B1693B;" d="M1075.354,787.083c-4.803-8.223-15.828-23.987-35.708-33.819
		c-47.962-23.719-96.76,12.166-102.764,18.226c-1.339,1.351-7.268,7.349-5.867,11.182c1.406,3.847,6.177,0.378,8.738-0.813
		c-3.869,2.788-7.024,7.868-9.951,11.604c-2.004,2.557-14.455,18.564-7.935,21.224c3.138,1.28,7.213-4.348,9.245-5.249
		c-0.817,1.727-1.491,3.506-2.053,5.318c-12.536,16.35-18.51,34.864-15.604,51.012c1.821,10.122,5.279,20.006,11.784,28.399
		c6.448,8.321,15.172,15.35,25.243,19.809c8.973,3.973,19.564,6.42,30.94,7.323c12.945,1.027,26.905,0.052,40.662-2.956
		c0.608-0.076,1.214-0.157,1.82-0.247c12.099-1.809,22.31-5.709,30.729-11.133c12.216-6.011,22.029-12.937,29.646-20.412
		C1117.78,853.678,1108.85,810.174,1075.354,787.083z"/>
	<path style="fill:#2F0C00;" d="M1075.561,787.438c-0.068-0.117-0.136-0.235-0.207-0.355c-4.803-8.223-15.828-23.987-35.708-33.819
		c-47.962-23.719-96.76,12.166-102.764,18.226c-1.339,1.351-7.268,7.349-5.867,11.182c1.406,3.847,6.177,0.378,8.738-0.813
		c-3.869,2.788-7.024,7.868-9.951,11.604c-2.004,2.557-14.455,18.564-7.935,21.224c3.138,1.28,7.213-4.348,9.245-5.249
		c-0.817,1.727-1.491,3.506-2.053,5.318c-1.34,4.328-2.025,8.855-2.368,13.385c-0.633,8.366,0.638,17.325,2.554,25.464
		c1.99,8.448,6.049,21.476,12.867,27.494c1.99,3.516,4.235,6.803,6.721,9.772c9.601,11.471,23.525,20.106,38.975,24.609
		c10.989,3.203,22.75,4.314,34.277,2.865c0.608-0.076,1.214-0.157,1.82-0.247c12.099-1.809,22.31-5.709,30.729-11.133
		c8.633-5.562,15.379-12.727,20.335-20.896c5.818-9.59,9.169-20.558,10.208-31.927c0.833-3.805,1.764-9.179,2.07-15.654
		C1088.587,810.04,1075.561,787.438,1075.561,787.438z"/>
	<path style="fill:#FCF8FB;" d="M1084.929,841.608c-0.707-7.715-2.618-17.242-7.182-27.341c-2.178-4.82-7.884-17.103-20.161-27.731
		c-7.345-6.359-16.426-11.593-26.498-14.948c-13.371-4.454-28.487-5.597-43.617-1.653c-5.907,1.54-30.454,8.42-44.145,29.685
		c-1.176,1.826-2.272,3.758-3.269,5.801c-7.017,14.388-6.367,28.601-5.87,39.463c0.185,4.052,0.591,7.891,1.145,11.498
		c1.593,10.363,4.421,18.799,6.844,24.776c-0.022-0.019-0.043-0.04-0.065-0.059c1.99,3.516,4.235,6.803,6.721,9.772
		c9.601,11.471,23.525,20.106,38.975,24.609c10.989,3.203,22.75,4.314,34.277,2.865c0.608-0.076,1.214-0.157,1.82-0.247
		c12.099-1.809,22.31-5.709,30.729-11.133c8.633-5.562,15.379-12.727,20.335-20.896c5.818-9.59,9.169-20.558,10.208-31.927
		c-0.001,0.005-0.003,0.01-0.003,0.015C1085.34,851.005,1085.396,846.7,1084.929,841.608z"/>
	<path style="fill:#D9D6D9;" d="M1058.402,843.561c1.714-0.412,3.532-0.67,5.417-0.749c1.462-0.061,2.889-0.01,4.265,0.14
		c-0.764-12.075-4.117-24.141-9.824-34.508c11.488,8.743,20.632,20.33,26.669,33.163c-0.707-7.715-2.618-17.242-7.182-27.341
		c-2.178-4.82-7.884-17.103-20.161-27.731c-7.345-6.359-16.426-11.593-26.498-14.948c-13.371-4.454-28.487-5.597-43.617-1.653
		c-5.907,1.54-30.454,8.42-44.145,29.685c-1.176,1.826-2.272,3.758-3.269,5.801c-7.017,14.388-6.367,28.601-5.87,39.463
		c0.185,4.052,0.591,7.891,1.145,11.498c4.193-21.881,18.032-42.922,38.429-54.706c-6.89,9.528-11.401,21.139-12.381,32.996
		c-0.75,8.908-0.578,18.056,1.444,26.754c0.758,3.255,1.715,6.446,2.869,9.499c1.872,5.01,4.263,9.663,7.108,13.611
		c7.17,10,17.793,17.354,29.478,20.771c7.422,2.17,15.273,2.752,22.94,1.414c14.199-2.474,24.681-9.758,31.741-19.675
		c3.552-4.988,6.237-10.641,8.094-16.684c-0.017-0.249-0.037-0.499-0.056-0.748c-0.11,0.006-0.221,0.012-0.332,0.016
		c-10.822,0.45-19.785-5.189-20.02-12.594C1044.453,850.92,1050.274,845.513,1058.402,843.561z"/>
	<path style="fill:#3A1406;" d="M1064.666,869.63c-10.822,0.45-19.785-5.189-20.02-12.594c-0.193-6.116,5.627-11.523,13.755-13.475
		c1.714-0.412,3.532-0.67,5.417-0.749c1.462-0.061,2.889-0.01,4.265,0.14c-0.764-12.075-4.117-24.141-9.824-34.508
		c-5.849-10.624-14.167-19.463-24.71-24.69c-23.317-11.57-46.19-0.882-59.788,17.923c-6.89,9.528-11.401,21.139-12.381,32.996
		c-0.75,8.908-0.578,18.056,1.444,26.754c0.758,3.255,1.715,6.446,2.869,9.499c1.872,5.01,4.263,9.663,7.108,13.611
		c7.17,10,17.793,17.354,29.478,20.771c7.422,2.17,15.273,2.752,22.94,1.414c14.199-2.474,24.681-9.758,31.741-19.675
		c3.552-4.988,6.237-10.641,8.094-16.684c-0.017-0.249-0.037-0.499-0.056-0.748C1064.888,869.619,1064.777,869.625,1064.666,869.63z
		"/>
	<path style="fill:#2F0C00;" d="M1058.26,808.444c-5.849-10.624-14.167-19.463-24.71-24.69c-23.317-11.57-46.19-0.882-59.788,17.923
		c-6.89,9.528-11.401,21.139-12.381,32.996c-0.75,8.908-0.578,18.056,1.444,26.754c0.758,3.255,1.715,6.446,2.869,9.499
		c-0.008-2.636,0.13-5.279,0.36-7.888c1.26-15.259,8.822-30.08,19.84-39.913c0.499,2.597,2.484,4.538,4.859,4.538
		c2.752,0,4.982-2.603,4.982-5.814c0-1.85-0.741-3.496-1.893-4.561c1.512-0.894,3.066-1.698,4.657-2.406
		c1.707,2.015,4.076,3.263,6.696,3.263c3.928,0,7.293-2.807,8.706-6.795c6.195-0.14,12.648,1.221,19.138,4.442
		c11.35,5.63,19.928,15.767,25.364,27.77c1.714-0.412,3.532-0.67,5.417-0.749c1.462-0.061,2.889-0.01,4.265,0.14
		C1067.321,830.877,1063.967,818.811,1058.26,808.444z"/>
	<path style="fill:#B1693B;" d="M741.64,799.428c-2.61-12.88-6.561-21.273-6.561-21.273c-3.915-8.289-13.272-24.779-31.159-35.516
		c-42.533-25.53-88.33,8.459-94.036,14.285c-0.31,0.316-0.879,0.899-1.544,1.653c-2.071,2.344-5.091,6.358-4.251,9.296
		c1.113,3.897,5.591,0.613,7.964-0.478c-3.628,2.638-6.706,7.594-9.519,11.213c-1.571,2.02-9.816,12.705-9.665,18.16
		c-13.268,24.447-10.748,56.25,15.576,81.541c6.567,6.308,14.621,12.209,24.274,17.492c0.305,0.166,0.605,0.334,0.912,0.5
		c21.32,11.459,46.084,16.017,67.24,13.58c7.847-0.904,15.198-2.767,21.692-5.601c9.328-4.07,17.541-10.76,23.743-18.827
		c6.257-8.138,9.811-17.88,11.889-27.924C761.947,839.393,755.505,817.796,741.64,799.428z"/>
	<path style="fill:#2F0C00;" d="M741.64,799.428c-2.61-12.88-6.561-21.273-6.561-21.273c-3.915-8.289-13.272-24.779-31.159-35.516
		c-42.533-25.53-88.33,8.459-94.036,14.285c-0.31,0.316-0.879,0.899-1.544,1.653c-2.071,2.344-5.091,6.358-4.251,9.296
		c1.113,3.897,5.591,0.613,7.964-0.478c-3.628,2.638-6.706,7.594-9.519,11.213c-1.571,2.02-9.816,12.705-9.665,18.16
		c0.034,1.237,0.499,2.205,1.571,2.742c2.794,1.399,6.729-4.068,8.612-4.891c-2.756,5.738-4.088,12.115-4.799,18.517
		c-0.927,8.334-0.15,17.334,1.247,25.54c1.45,8.516,4.585,21.688,10.522,27.96c1.657,3.589,3.558,6.96,5.69,10.02
		c0.15,0.215,0.304,0.43,0.456,0.644c4.627,6.479,10.472,12.135,17.119,16.734c14.181,9.812,32.006,14.81,49.414,12.692
		c4.498-0.547,8.722-1.455,12.686-2.678c27.512-8.488,42.281-32.342,45.615-58.881c0.915-3.769,1.987-9.103,2.536-15.56
		C744.496,818.34,743.358,807.911,741.64,799.428z"/>
	<path style="fill:#FCF8FB;" d="M741.304,832.631c-0.318-7.734-1.652-17.326-5.37-27.588c-1.656-4.573-5.831-15.762-15.078-26.248
		c-0.658-0.747-1.341-1.491-2.053-2.229c-14.893-15.439-38.572-25.16-62.938-19.264c-1.531,0.371-4.429,1.11-8.096,2.445
		c-7.373,2.683-17.864,7.775-26.659,17.135c-3.669,3.902-7.041,8.545-9.77,14.065c-6.973,14.108-6.981,28.332-6.986,39.203
		c-0.002,4.055,0.205,7.906,0.556,11.531c1.01,10.414,3.221,18.953,5.17,25.017c-0.019-0.02-0.038-0.042-0.057-0.062
		c1.657,3.589,3.558,6.96,5.69,10.02c0.15,0.215,0.304,0.43,0.456,0.644c4.627,6.479,10.472,12.135,17.119,16.734
		c14.181,9.812,32.006,14.81,49.414,12.692c4.498-0.547,8.722-1.455,12.686-2.678c27.512-8.488,42.281-32.342,45.615-58.881
		c-0.002,0.006-0.003,0.011-0.005,0.016C741.281,842.038,741.513,837.739,741.304,832.631z"/>
	<path style="fill:#D9D6D9;" d="M741.304,832.631c-0.318-7.734-1.652-17.326-5.37-27.588c-1.656-4.573-5.831-15.762-15.078-26.248
		c-0.658-0.747-1.341-1.491-2.053-2.229c-14.893-15.439-38.572-25.16-62.938-19.264c-1.531,0.371-4.429,1.11-8.096,2.445
		c-7.373,2.683-17.864,7.775-26.659,17.135c-3.669,3.902-7.041,8.545-9.77,14.065c-6.973,14.108-6.981,28.332-6.986,39.203
		c-0.002,4.055,0.205,7.906,0.556,11.531c3.705-17.014,12.769-33.285,25.671-44.818c3.554-3.179,7.401-5.996,11.507-8.371
		c-3.557,4.946-6.521,10.513-8.722,16.427c-1.918,5.153-3.257,10.569-3.903,16.067c-1.055,8.871-1.283,18.018,0.186,26.786
		c0.551,3.281,1.286,6.506,2.205,9.6c1.489,5.076,3.462,9.818,5.878,13.87c0.199,0.334,0.401,0.665,0.607,0.994
		c1.384,2.221,2.922,4.319,4.591,6.278c10.495,12.319,26.172,19.169,41.445,16.895c0.119-0.018,0.236-0.037,0.354-0.056
		c19.32-3.017,31.569-17.026,37.328-34.749c-0.004-0.25-0.012-0.502-0.019-0.753c-0.101,0.002-0.2,0.008-0.302,0.008
		c-9.841,0.036-17.74-5.941-17.64-13.349c0.082-6.117,5.593-11.294,13.052-12.934c1.573-0.346,3.232-0.538,4.947-0.545
		c1.329-0.005,2.621,0.103,3.865,0.306c-0.185-12.096-2.721-24.279-7.465-34.856C728.551,807.655,736.364,819.58,741.304,832.631z"
		/>
	<path style="fill:#3A1406;" d="M717.146,833.575c1.573-0.346,3.232-0.538,4.947-0.545c1.329-0.005,2.621,0.103,3.865,0.306
		c-0.185-12.096-2.721-24.279-7.465-34.856c-4.862-10.838-12.04-19.987-21.389-25.612c-20.675-12.45-41.884-2.646-55.018,15.622
		c-3.557,4.946-6.521,10.513-8.722,16.427c-1.918,5.153-3.257,10.569-3.903,16.067c-1.055,8.871-1.283,18.018,0.186,26.786
		c0.551,3.281,1.286,6.506,2.205,9.6c1.489,5.076,3.462,9.818,5.878,13.87c0.199,0.334,0.401,0.665,0.607,0.994
		c1.384,2.221,2.922,4.319,4.591,6.278c10.495,12.319,26.172,19.169,41.445,16.895c0.119-0.018,0.236-0.037,0.354-0.056
		c19.32-3.017,31.569-17.026,37.328-34.749c-0.004-0.25-0.012-0.502-0.019-0.753c-0.101,0.002-0.2,0.008-0.302,0.008
		c-9.841,0.036-17.74-5.941-17.64-13.349C704.177,840.392,709.688,835.215,717.146,833.575z"/>
	<path style="fill:#2F0C00;" d="M718.493,798.481c-4.862-10.838-12.04-19.987-21.389-25.612
		c-20.675-12.45-41.884-2.646-55.018,15.622c-3.557,4.946-6.521,10.513-8.722,16.427c-1.918,5.153-3.257,10.569-3.903,16.067
		c-1.055,8.871-1.283,18.018,0.186,26.786c0.551,3.281,1.286,6.506,2.205,9.6c0.104-2.635,0.34-5.27,0.659-7.869
		c0.852-7.251,3.003-14.347,6.148-20.808c3.448-7.08,8.092-13.394,13.536-18.311c0.344,2.614,2.065,4.629,4.221,4.72
		c2.497,0.105,4.631-2.411,4.766-5.619c0.078-1.849-0.526-3.522-1.527-4.63c1.41-0.835,2.855-1.58,4.327-2.226
		c1.465,2.078,3.563,3.416,5.941,3.517c3.565,0.15,6.737-2.526,8.187-6.457c5.628,0.096,11.428,1.703,17.182,5.169
		c10.066,6.06,17.425,16.516,21.854,28.718c1.573-0.346,3.232-0.538,4.947-0.545c1.329-0.005,2.621,0.103,3.865,0.306
		C725.773,821.241,723.237,809.057,718.493,798.481z"/>
	<path style="fill:#2F0C00;" d="M1022.115,954.414c-1.37-2.037-4.679-0.683-4.185,1.698c0.876,4.216,1.418,8.602,1.689,10.316
		c1.028,6.51-2.066,13.414-5.31,19.091c-0.558,0.977-1.145,1.911-1.757,2.804c-4.65,6.776-10.801,11.137-17.636,13.461
		c-16.492,5.609-36.967-0.644-49.946-13.461c-2.761-2.727-5.183-5.75-7.155-9.02c-14.853-24.63-42.002-46.477-72.909-45.585
		c-6.278,0.181-11.85,0.978-16.686,2.369c2.178,1.594,3.17,5.045,0.028,6.446c-5.375,2.397-10.949,4.085-16.546,5.075
		c-0.456,0.08-0.911,0.157-1.367,0.228c-11.531,1.803-23.097,0.637-33.159-3.441c-2.768-1.123-5.421-2.467-7.93-4.028
		c-1.857-1.156-3.633-2.432-5.317-3.828c-19.029,6.607-35.136,23.865-44.986,42.763c-12.649,24.27-46.718,34.982-63.14,11.285
		c-1.069-1.543-2.064-3.229-2.972-5.069c-2.804-5.677-5.478-12.581-4.59-19.091c0.234-1.713,0.703-6.1,1.46-10.316
		c0.426-2.38-2.433-3.734-3.617-1.698c-8.143,14.005-4.999,26.139,0.501,38.519c1.477,3.324,3.123,6.667,4.768,10.067
		c2.596,5.369,1.267,6.447,2.717,12.663c2.241,9.598,5.902,18.795,13.243,25.317c11.943,10.611,26.359,15.38,41.348,15.798
		c4.732,0.133,9.52-0.168,14.306-0.856c0.18-0.026,0.359-0.053,0.538-0.08c4.761-0.713,9.515-1.808,14.208-3.237
		c22.798-6.944,44.094-21.792,57.136-39.261c0.385-0.515,0.776-1.05,1.173-1.602c3.1-4.316,6.533-9.738,9.644-15.711
		c1.296-2.488,2.536-5.07,3.673-7.709c0.635-1.474,1.237-2.965,1.801-4.467c0.651,1.502,1.348,2.993,2.083,4.467
		c1.216,2.439,2.535,4.831,3.911,7.144c3.688,6.196,7.796,11.824,11.496,16.275c0.458,0.552,0.912,1.087,1.357,1.602
		c18.446,21.353,51.157,38.791,83.873,42.662c7.446,0.881,14.89,1.059,22.169,0.42c5.311-0.465,10.534-1.364,15.602-2.745
		c9.295-2.531,18.069-6.674,25.919-12.702c8.493-6.522,12.73-15.719,15.322-25.317c0.43-1.592,0.649-2.846,0.786-3.922
		c0.222-1.731,0.238-3.003,0.585-4.47c0.28-1.18,0.775-2.489,1.772-4.272c2.784-4.975,5.574-9.825,7.744-14.678
		C1028.602,977.507,1030.364,966.678,1022.115,954.414z"/>
	<path style="fill:#B1693B;" d="M496.977,794.046c-2.399-3.193-4.785-7.529-7.205-12.987c-5.438-12.265-8.261-26.067-9.455-40.388
		c-0.167,0.472-0.333,0.943-0.498,1.417c-1.763-2.545-3.556-5.177-5.367-7.892c-35.483,21.963-59.628,65.29-59.628,115.153
		c0,66.746,43.261,121.782,99.07,129.536c-12.72-51.854-17.267-108.838-17.267-167.732
		C496.626,805.422,496.745,799.72,496.977,794.046z"/>
	<path style="fill:#2F0C00;" d="M534.385,638.719c-17.666,22.069-34.815,51.17-49.626,89.855c-1.505,3.932-2.987,7.964-4.442,12.096
		c1.194,14.321,4.017,28.123,9.455,40.388c2.419,5.458,4.806,9.794,7.205,12.987c8.118,10.805,16.381,8.482,26.549-8.148
		c11.676-19.096,19.798-41.307,25.21-64.694c8.188-35.388,10.171-73.468,8.875-107.528
		C549.871,620.83,542.079,629.108,534.385,638.719z"/>
	<path style="fill:#2F0C00;" d="M1340.926,720.836c-3.024-0.023-6.035-0.068-9.033-0.132c-7.715-0.164-15.347-0.458-22.891-0.884
		c-24.284-1.371-47.684-4.067-70.2-7.894c-4.021,23.137-4.813,47.39-0.674,71.645c2.752,16.126,7.682,32.253,15.294,48.056
		c16.038,33.295,43.285,24.962,64.854,6.8c9.171-7.723,17.315-17.223,23.134-26.056c17.39-26.398,26.309-54.488,29.575-84.224
		c0.283-2.583,0.524-5.178,0.724-7.786C1361.304,720.758,1351.043,720.912,1340.926,720.836z"/>
	<path style="fill:#03698E;" d="M1377.512,1556.539c-13.95-23.935-42.185-46.011-81.392-65.079
		c-56.262-27.363-145.167-77.352-145.167-130.746c0,5.152-1.104,10.237-3.211,14.954L932.734,1855.48
		c-7.604-4.22-15.841-6.53-24.443-6.53c-11.145,0-21.678,3.876-31.016,10.765L660.37,1375.667
		c-2.108-4.717-3.178-9.802-3.178-14.954v6.451c0,51.898-89.001,100.636-142.727,128.503
		c-32.925,17.079-70.745,57.193-70.745,57.193c-161.168,123.728-224.975,589.956-68.837,672.13
		c109.408,116.573,967.047,116.044,1069.671-1.584C1595.562,2137.903,1534.271,1684.752,1377.512,1556.539z M956.348,1846.404
		c0.386-1.186,1.045-2.212,1.978-3.078c0.866-0.933,1.892-1.592,3.078-1.978c1.14-0.599,2.368-0.873,3.685-0.824
		c1.727,0.005,3.336,0.441,4.828,1.306c0.646,0.498,1.291,0.997,1.936,1.496c1.185,1.194,2.006,2.601,2.461,4.221l0.341,2.543
		c0.049,1.317-0.225,2.545-0.824,3.686c-0.386,1.186-1.045,2.212-1.978,3.078c-0.866,0.933-1.892,1.592-3.078,1.978
		c-1.14,0.599-2.368,0.874-3.685,0.824c-1.727-0.006-3.336-0.441-4.828-1.307c-0.645-0.498-1.291-0.997-1.936-1.495
		c-1.186-1.193-2.005-2.601-2.461-4.221c-0.114-0.847-0.227-1.695-0.341-2.542C955.475,1848.773,955.749,1847.544,956.348,1846.404z
		 M888.103,1883.876c6.033-5.576,12.902-8.731,20.189-8.731c4.843,0,9.501,1.393,13.853,3.965
		c17.234,10.185,29.649,38.853,29.649,72.626c0,42.3-19.477,76.59-43.502,76.59s-43.502-34.291-43.502-76.59
		C864.79,1922.266,874.243,1896.684,888.103,1883.876z M655.432,1402.141c7.076,0,7.064,10.977,0,10.977
		C648.358,1413.119,648.369,1402.141,655.432,1402.141z M658.849,1439.074c-9.703,0-9.687-15.055,0-15.055
		C668.552,1424.019,668.536,1439.074,658.849,1439.074z M675.449,1470.6l-1.388,0.586l-1.545,0.207
		c-0.8,0.031-1.546-0.136-2.239-0.5l-1.282-0.747c-0.633-0.41-1.132-0.953-1.497-1.631l-0.586-1.388l-0.294-1.495
		c-0.291-1.084-0.291-2.168,0-3.251c0.291-1.036,0.815-1.936,1.573-2.699c0.554-0.597,1.21-1.018,1.969-1.264
		c0.728-0.383,1.514-0.559,2.356-0.527c1.657,0,3.128,0.693,4.325,1.792c0.759,0.763,1.282,1.663,1.574,2.699
		c0.291,1.084,0.291,2.168,0,3.251l-0.295,1.495c-0.179,0.757-0.526,1.415-1.04,1.976
		C676.67,1469.736,676.126,1470.235,675.449,1470.6z M692.036,1498.548l-0.427,1.328c-0.229,0.963-0.671,1.801-1.324,2.516
		c-0.522,0.805-1.214,1.441-2.076,1.906c-0.59,0.249-1.178,0.497-1.767,0.746l-1.967,0.265c-1.018,0.038-1.969-0.174-2.85-0.637
		c-0.627-0.175-1.172-0.493-1.633-0.951c-0.805-0.522-1.44-1.214-1.905-2.076c-0.249-0.589-0.497-1.179-0.746-1.768l-0.426-1.328
		c-0.846-2.633,0.103-5.715,2.017-7.629c0.71-0.765,1.551-1.305,2.523-1.621c0.935-0.492,1.941-0.717,3.021-0.676
		c1.416,0.004,2.735,0.361,3.958,1.07c0.529,0.409,1.057,0.818,1.586,1.226C691.99,1492.728,692.854,1496.001,692.036,1498.548z
		 M706.991,1545.412c-0.587,0.248-1.176,0.496-1.763,0.744c-0.654,0.088-1.308,0.175-1.962,0.264
		c-1.016,0.038-1.964-0.174-2.843-0.636c-0.625-0.175-1.168-0.491-1.629-0.948c-0.803-0.52-1.436-1.211-1.9-2.07
		c-0.248-0.589-0.496-1.176-0.744-1.764l-0.294-1.496c-0.366-1.361-0.366-2.724,0-4.086c0.365-1.302,1.023-2.432,1.976-3.391
		c0.696-0.75,1.521-1.279,2.473-1.589c0.915-0.481,1.903-0.702,2.961-0.662c1.387,0.004,2.68,0.354,3.878,1.049l1.555,1.202
		c0.953,0.959,1.611,2.089,1.977,3.391c0.365,1.362,0.365,2.724,0,4.086l-0.295,1.496c-0.228,0.96-0.668,1.797-1.321,2.51
		C708.541,1544.315,707.851,1544.948,706.991,1545.412z M716.933,1579.785c-10.512,0-10.494-16.309,0-16.309
		C727.445,1563.476,727.427,1579.785,716.933,1579.785z M732.308,1612.087c-10.309,0-10.292-15.996,0-15.996
		C742.617,1596.091,742.6,1612.087,732.308,1612.087z M758.993,1645.721c-0.423,1.302-1.148,2.429-2.172,3.381
		c-0.952,1.025-2.079,1.748-3.381,2.172c-1.253,0.658-2.602,0.96-4.048,0.905c-1.897-0.006-3.665-0.484-5.303-1.434
		c-0.709-0.548-1.417-1.095-2.127-1.643c-1.302-1.311-2.203-2.856-2.703-4.636c-0.125-0.931-0.25-1.862-0.375-2.793
		c-0.055-1.447,0.246-2.795,0.905-4.048c0.424-1.302,1.148-2.429,2.172-3.382c0.951-1.024,2.079-1.748,3.381-2.172
		c1.252-0.658,2.602-0.96,4.048-0.905c1.896,0.006,3.664,0.485,5.303,1.435c0.708,0.548,1.417,1.095,2.126,1.642
		c1.302,1.311,2.203,2.857,2.702,4.637l0.375,2.793C759.953,1643.119,759.651,1644.469,758.993,1645.721z M771.6,1696.736
		c-11.523,0-11.504-17.877,0-17.877C783.123,1678.858,783.103,1696.736,771.6,1696.736z M788.683,1740.839
		c-11.118,0-11.099-17.25,0-17.25C799.802,1723.589,799.783,1740.839,788.683,1740.839z M809.183,1781.526
		c-10.714,0-10.696-16.623,0-16.623C819.897,1764.903,819.879,1781.526,809.183,1781.526z M834.628,1817.452
		c-0.852,0.918-1.862,1.566-3.028,1.945c-1.122,0.59-2.33,0.859-3.625,0.81c-1.699-0.005-3.282-0.433-4.749-1.285
		c-0.635-0.49-1.269-0.98-1.904-1.47c-1.166-1.174-1.973-2.558-2.419-4.153c-0.112-0.833-0.224-1.667-0.336-2.501
		c-0.049-1.295,0.221-2.504,0.811-3.625c0.379-1.167,1.027-2.176,1.945-3.028c0.853-0.917,1.862-1.565,3.028-1.945
		c1.121-0.589,2.33-0.859,3.625-0.81c1.698,0.005,3.281,0.433,4.749,1.285c0.635,0.49,1.27,0.981,1.905,1.471
		c1.166,1.174,1.973,2.558,2.42,4.152c0.111,0.834,0.224,1.668,0.336,2.501c0.049,1.296-0.221,2.504-0.81,3.625
		C836.194,1815.589,835.545,1816.599,834.628,1817.452z M837.2,1850.09c-0.049-1.317,0.225-2.546,0.824-3.686
		c0.385-1.186,1.045-2.212,1.978-3.078c0.866-0.933,1.892-1.592,3.078-1.978c1.14-0.599,2.368-0.873,3.686-0.824
		c1.727,0.005,3.336,0.441,4.828,1.306c0.646,0.498,1.291,0.997,1.937,1.496c1.186,1.194,2.005,2.601,2.46,4.221l0.341,2.543
		c0.05,1.317-0.224,2.545-0.823,3.686c-0.386,1.186-1.046,2.212-1.978,3.078c-0.867,0.933-1.893,1.592-3.078,1.978
		c-1.14,0.599-2.369,0.874-3.686,0.824c-1.727-0.006-3.337-0.441-4.829-1.307c-0.645-0.498-1.29-0.997-1.935-1.495
		c-1.186-1.193-2.006-2.601-2.46-4.221C837.428,1851.785,837.314,1850.938,837.2,1850.09z M992.481,1814.423
		c-0.379,1.166-1.028,2.175-1.945,3.028c-0.852,0.918-1.862,1.566-3.028,1.945c-1.122,0.59-2.33,0.859-3.625,0.81
		c-1.699-0.005-3.281-0.433-4.749-1.285c-0.635-0.49-1.269-0.98-1.904-1.47c-1.166-1.174-1.973-2.558-2.419-4.153
		c-0.112-0.833-0.224-1.667-0.336-2.501c-0.049-1.295,0.221-2.504,0.81-3.625c0.379-1.167,1.028-2.176,1.945-3.028
		c0.853-0.917,1.862-1.565,3.028-1.945c1.121-0.589,2.33-0.859,3.625-0.81c1.698,0.005,3.281,0.433,4.749,1.285
		c0.635,0.49,1.27,0.981,1.904,1.471c1.166,1.174,1.973,2.558,2.42,4.152c0.111,0.834,0.224,1.668,0.336,2.501
		C993.34,1812.093,993.07,1813.302,992.481,1814.423z M1002.674,1781.526c-10.714,0-10.696-16.623,0-16.623
		C1013.387,1764.903,1013.37,1781.526,1002.674,1781.526z M1023.174,1740.839c-11.118,0-11.099-17.25,0-17.25
		C1034.292,1723.589,1034.274,1740.839,1023.174,1740.839z M1040.257,1696.736c-11.523,0-11.504-17.877,0-17.877
		C1051.78,1678.858,1051.761,1696.736,1040.257,1696.736z M1072.067,1645.721c-0.423,1.302-1.148,2.429-2.172,3.381
		c-0.952,1.025-2.079,1.748-3.381,2.172c-1.253,0.658-2.602,0.96-4.048,0.905c-1.896-0.006-3.665-0.484-5.303-1.434
		c-0.709-0.548-1.418-1.095-2.126-1.643c-1.302-1.311-2.203-2.856-2.703-4.636c-0.125-0.931-0.25-1.862-0.376-2.793
		c-0.054-1.447,0.248-2.795,0.905-4.048c0.424-1.302,1.148-2.429,2.173-3.382c0.951-1.024,2.079-1.748,3.381-2.172
		c1.253-0.658,2.601-0.96,4.048-0.905c1.896,0.006,3.664,0.485,5.303,1.435l2.127,1.642c1.302,1.311,2.203,2.857,2.702,4.637
		l0.375,2.793C1073.027,1643.119,1072.725,1644.469,1072.067,1645.721z M1079.549,1612.087c-10.309,0-10.292-15.996,0-15.996
		C1089.859,1596.091,1089.842,1612.087,1079.549,1612.087z M1094.924,1579.785c-10.511,0-10.494-16.309,0-16.309
		C1105.435,1563.476,1105.418,1579.785,1094.924,1579.785z M1116.001,1539.506l-0.294,1.496c-0.228,0.96-0.669,1.797-1.321,2.51
		c-0.52,0.803-1.211,1.437-2.07,1.9c-0.588,0.248-1.176,0.496-1.763,0.744c-0.653,0.088-1.307,0.175-1.961,0.264
		c-1.017,0.038-1.964-0.174-2.844-0.636c-0.625-0.175-1.167-0.491-1.628-0.948c-0.803-0.52-1.437-1.211-1.9-2.07
		c-0.248-0.589-0.496-1.176-0.744-1.764l-0.294-1.496c-0.366-1.361-0.366-2.724,0-4.086c0.365-1.302,1.024-2.432,1.976-3.391
		c0.696-0.75,1.521-1.279,2.474-1.589c0.915-0.481,1.902-0.702,2.961-0.662c1.387,0.004,2.679,0.354,3.878,1.049l1.556,1.202
		c0.952,0.959,1.611,2.089,1.976,3.391C1116.366,1536.783,1116.366,1538.145,1116.001,1539.506z M1134.944,1498.548l-0.427,1.328
		c-0.229,0.963-0.669,1.801-1.324,2.516c-0.521,0.805-1.214,1.441-2.076,1.906c-0.588,0.249-1.178,0.497-1.767,0.746l-1.967,0.265
		c-1.018,0.038-1.969-0.174-2.85-0.637c-0.627-0.175-1.17-0.493-1.632-0.951c-0.806-0.522-1.441-1.214-1.906-2.076
		c-0.248-0.589-0.497-1.179-0.746-1.768l-0.426-1.328c-0.845-2.633,0.103-5.715,2.016-7.629c0.71-0.765,1.551-1.305,2.523-1.621
		c0.934-0.492,1.941-0.717,3.021-0.676c1.416,0.004,2.735,0.361,3.958,1.07c0.529,0.409,1.058,0.818,1.586,1.226
		C1134.897,1492.728,1135.761,1496.001,1134.944,1498.548z M1145.239,1465.631l-0.294,1.495c-0.18,0.757-0.527,1.415-1.041,1.976
		c-0.41,0.633-0.953,1.132-1.63,1.497l-1.388,0.586l-1.545,0.207c-0.8,0.031-1.546-0.136-2.239-0.5l-1.282-0.747
		c-0.632-0.41-1.131-0.953-1.497-1.631l-0.586-1.388l-0.294-1.495c-0.291-1.084-0.291-2.168,0-3.251
		c0.29-1.036,0.815-1.936,1.572-2.699c0.554-0.597,1.211-1.018,1.969-1.264c0.729-0.383,1.514-0.559,2.357-0.527
		c1.657,0,3.128,0.693,4.325,1.792c0.758,0.763,1.282,1.663,1.573,2.699C1145.53,1463.463,1145.53,1464.547,1145.239,1465.631z
		 M1153.008,1439.074c-9.703,0-9.688-15.055,0-15.055C1162.71,1424.019,1162.695,1439.074,1153.008,1439.074z M1156.424,1413.119
		c-7.076,0-7.063-10.977,0-10.977C1163.499,1402.141,1163.488,1413.119,1156.424,1413.119z"/>
	<path style="fill:#EEDACD;" d="M1451.647,556.815c-25.201,0.09-49.295,15.488-74.078,21.147
		c-25.349,5.788-51.374,7.808-77.326,6.424c-18.471-0.986-36.774-3.864-54.739-8.254c-29.635-7.243-58.354-18.604-85.398-32.383
		c-16.557-8.438-32.425-17.915-47.74-28.186c-10.155-20.125-16.915-41.837-20.308-64.026c13.292,7.198,27.589,12.405,42.447,16.232
		c30.867,7.951,64.156,9.957,95.886,11.532c28.631,1.422,57.271,0.181,85.689-3.57c38.566-5.091,85.306-11.865,118.362-33.373
		c9.952-6.476,3.229-19.886-7.688-18.234c-35.041,5.298-68.602,20.501-103.962,26.433c-27.604,4.63-55.657,6.649-83.641,6.092
		c-50.911-1.013-105.077-4.023-149.443-29.089c-2.339-53.375,14.434-107.198,50.025-146.426c-15.602,0.78-30.005,2.21-43.047,3.957
		c0.162,0.137,0.323,0.273,0.481,0.407c-0.368,1.374-0.746,2.739-1.13,4.1c-1.364-1.296-3.331-2.051-5.589-1.816
		c-1.237-0.479-2.481-0.895-3.731-1.261c-11.504-3.355-23.56-2.26-35.981-4.026c-17.737-2.52-35.051-6.912-52.088-12.41
		c-24.869-8.026-48.843-18.37-72.568-29.264c-11.03-5.064-22.008-10.247-32.996-15.372c-60.752-28.334-123.231-54.415-191.531-51.18
		c-6.387,0.302-6.456,9.857,0,9.976c77.451,1.426,145.839,39.323,214.347,71.211c3.793,1.765,7.592,3.522,11.402,5.264
		c25.607,11.71,51.651,22.72,78.685,30.625c11.4,3.333,26.107,7.944,40.972,10.641c-13.016,5.402-26.077,10.879-39.779,13.939
		c-29.704,6.632-60.418,8.266-90.755,6.004c-5.192-0.387-10.372-0.884-15.535-1.495c-63.157-7.46-118.306-35.608-178.351-53.935
		c-91.139-27.814-224.822-8.032-283.4,75.712c-1.699,2.429,1.67,5.758,4.095,4.095c48.889-33.533,91.693-63.829,152.182-73.111
		c69.168-10.614,127.795,12.166,190.871,37.094c39.006,15.415,80.069,26.427,121.861,30.481c11.77,1.141,23.597,1.731,35.453,1.712
		c9.368-0.015,18.757-0.416,28.119-1.214c20.952-1.786,41.766-5.568,61.892-11.516c4.382-1.294,8.99-2.646,13.676-4.128
		c-17.532,13.002-34.875,26.235-55.198,35.896c-35.518,16.884-74.216,26.729-113.256,30.824c-3.263,0.342-6.521,0.64-9.776,0.897
		c-0.417,0.034-0.834,0.066-1.251,0.097c-50.8,3.862-100.735-2.242-150.91-10.717c-64.497-10.895-130.843-20.986-193.827,2.897
		c-52.746,20-93.124,59.216-119.513,108.432c-2.929,5.463,5.173,10.24,8.327,4.868c36.644-62.407,96.609-106.762,169.857-114.03
		c63.845-6.335,124.092,15.467,186.685,23.124c13.835,1.692,27.756,2.887,41.702,3.521c7.324,0.332,14.653,0.509,21.982,0.52
		c4.356,0.007,8.711-0.045,13.064-0.156c28.5-0.733,56.905-4.053,84.718-10.539c1.061-0.247,2.129-0.502,3.201-0.76
		c32.27-7.791,70.145-20.921,101.922-40.625c-16.916,15.397-35.035,29.227-54.773,41.003c-6.268-0.75-12.706-1.14-19.273-1.14
		c-6.966,0-13.788,0.439-20.415,1.28c-34.859,4.424-64.304,19.978-80.827,41.314c-4.587,5.924-8.178,12.292-10.613,18.991
		c-1.376,3.786-2.38,7.677-2.988,11.653c-0.452,2.956-0.686,5.958-0.686,9c0,13.675,4.69,26.57,12.987,37.916
		c14.148,19.349,38.786,34.19,68.547,40.703c70.598,62.929,174.829,128.052,311.826,151.332c22.516,3.827,45.916,6.523,70.2,7.894
		c7.544,0.426,15.177,0.72,22.891,0.884c2.998,0.064,6.009,0.109,9.033,0.132c10.117,0.076,20.378-0.078,30.782-0.474
		c10.959-0.418,22.076-1.104,33.354-2.076c10.925-17.238,32.067-53.739,44.979-104.18c-26.225,18.392-55.705,28.722-86.248,32.28
		c-26.787,3.121-54.392,1.031-81.341-5.402c-5.982-1.428-11.931-3.07-17.833-4.916c-44.542-13.937-86.321-39.524-118.394-72.686
		c-0.841-0.87-1.67-1.748-2.492-2.632c7.102,3.875,14.25,7.56,21.422,11.045c30.941,15.035,63.936,25.981,97.849,31.682
		c12.31,2.069,24.74,3.447,37.239,4.079c26.469,1.337,53.22-0.952,79.122-6.563c25.391-5.5,59.956-12.698,76.514-33.959
		C1458.894,563.162,1457.297,556.795,1451.647,556.815z M1071.346,351.051c-12.717,23.799-27.996,44.78-44.732,63.241
		c-6.692-3.294-13.897-6.099-21.512-8.341C1029.135,390.89,1051.377,372.721,1071.346,351.051z"/>
	<path style="fill:#F8AB24;" d="M1038.208,420.818c-3.661-2.345-7.532-4.526-11.594-6.526c-6.692-3.294-13.897-6.099-21.512-8.341
		c-7.885-2.322-16.208-4.041-24.858-5.074c-6.268-0.75-12.706-1.14-19.273-1.14c-6.966,0-13.788,0.439-20.415,1.28
		c-34.859,4.424-64.304,19.978-80.827,41.314c-4.587,5.924-8.178,12.292-10.613,18.991c-1.376,3.786-2.38,7.677-2.988,11.653
		c-0.452,2.956-0.686,5.958-0.686,9c0,13.675,4.69,26.57,12.987,37.916c14.148,19.349,38.786,34.19,68.547,40.703
		c10.748,2.352,22.163,3.619,33.995,3.619c49.505,0,91.736-22.165,108.18-53.314c3.631-6.878,6.005-14.193,6.921-21.805
		c0.283-2.346,0.429-4.72,0.429-7.119C1076.501,457.694,1061.717,435.872,1038.208,420.818z"/>
	<path style="fill:#B1693B;" d="M797.519,1541.836c35.105,79.195,70.23,160.361,91.974,213.678
		c6.259,15.347,11.41,28.388,15.132,38.408c0.002-0.006,0.005-0.012,0.006-0.019c11.783-38.082,48.812-127.76,89.252-220.416
		c-64.299,13.114-138.4-1.874-202.431-45.329c-0.001-0.001-0.002-0.003-0.005-0.004
		C793.469,1532.704,795.494,1537.266,797.519,1541.836z"/>
	<path style="fill:#B1693B;" d="M742.969,1250.443c45.833,12.244,100.699,17.664,166.205,14.888
		c44.642-1.89,87.576-10.595,127.553-25.134c8.136-2.959,16.151-6.159,24.031-9.593v-37.208
		c50.484-10.885,101.471-47.167,137.596-81.976c38.777-37.365,72.801-88.799,89.284-143.448c0.048-0.16,0.096-0.32,0.144-0.481
		c7.651-25.532,11.469-51.759,10.148-77.574c-0.136-2.683-4.341-3.579-4.928-0.667c-5.095,25.248-9.26,49.987-15.912,74.268
		c-3.911,14.273-8.681,28.39-15.009,42.358c-14.015,30.944-32.862,59.399-55.633,84.454c-6.409,7.051-13.128,13.834-20.14,20.325
		c-10.953,10.143-22.266,18.966-33.9,26.933c-28.783,19.706-59.53,34.16-91.65,50.319c-1.267,0.637-2.535,1.277-3.806,1.92
		c-0.598,0.303-0.93,0.746-1.054,1.229c-45.972,18.336-95.889,29.298-147.997,31.514c-64.142,2.727-118.666-1.984-164.932-12.927
		V1250.443z"/>
	<path style="fill:#B1693B;" d="M1342.736,888.94c0.401-13.81,17.231-38.993,30.097-17.677c3.775,6.255,12.451,0.792,9.592-5.606
		c-5.071-11.343-18.472-15.784-29.945-10.883c-4.316,1.843-7.736,4.6-10.4,7.939c1.078-10.809,3.867-21.398,8.43-31.539
		c3.972-8.826,9.244-20.208,18.253-24.924c10.113-5.292,17.24,1.092,25.648,3.025l0.167-0.094c0.33-0.994,0.658-1.988,0.987-2.982
		c0.372-1.123-0.041-2.504-0.876-3.313c-14.499-14.045-32.394-6.039-43.067,8.51c-16.203,22.086-20.669,50.935-17.563,77.544
		C1334.691,894.357,1342.569,894.667,1342.736,888.94z"/>
	<path style="fill:#FCF8FB;" d="M933.863,1056.006c-32.716-3.872-65.427-21.31-83.873-42.662c-0.445-0.515-0.898-1.05-1.357-1.602
		c-3.7-4.451-7.808-10.079-11.496-16.275c-1.377-2.313-2.695-4.705-3.911-7.144c-0.735-1.474-1.432-2.965-2.083-4.467
		c-0.563,1.502-1.166,2.993-1.801,4.467c-1.137,2.638-2.377,5.221-3.673,7.709c-3.112,5.973-6.544,11.395-9.644,15.711
		c-0.397,0.552-0.788,1.087-1.173,1.602c-13.042,17.468-34.338,32.317-57.136,39.261c-4.693,1.43-9.447,2.524-14.208,3.237
		c6.111,14.52,15.828,27.458,28.184,37.924c15.316,13.049,34.768,22.27,56.334,26.038c7.076,1.257,14.397,1.899,21.872,1.899
		c0.503,0,1.006-0.004,1.508-0.009c0.133-0.002,0.266-0.005,0.399-0.006c0.369-0.005,0.738-0.011,1.106-0.02
		c0.166-0.004,0.332-0.009,0.498-0.014c0.319-0.009,0.639-0.017,0.958-0.029c0.223-0.007,0.444-0.017,0.667-0.026
		c0.26-0.01,0.519-0.022,0.778-0.033c0.238-0.012,0.477-0.023,0.714-0.036c0.268-0.013,0.535-0.029,0.803-0.044
		c0.211-0.012,0.422-0.024,0.634-0.037c0.304-0.019,0.607-0.04,0.91-0.061c0.188-0.013,0.375-0.026,0.562-0.04
		c0.294-0.022,0.588-0.045,0.881-0.069c0.204-0.018,0.411-0.033,0.616-0.05c0.334-0.029,0.667-0.061,1-0.092
		c0.266-0.025,0.531-0.05,0.796-0.077c0.348-0.036,0.696-0.071,1.043-0.108c0.244-0.027,0.488-0.055,0.731-0.084
		c0.236-0.027,0.472-0.053,0.707-0.081c0.256-0.031,0.511-0.063,0.767-0.096c0.218-0.028,0.435-0.055,0.653-0.084
		c0.259-0.034,0.517-0.07,0.775-0.105c0.216-0.03,0.431-0.06,0.646-0.091c0.281-0.04,0.561-0.081,0.841-0.123l0.501-0.077
		c0.308-0.048,0.615-0.096,0.921-0.146c0.141-0.023,0.282-0.047,0.422-0.07c0.341-0.057,0.683-0.115,1.024-0.174
		c0.054-0.009,0.107-0.019,0.161-0.028c0.71-0.124,1.417-0.256,2.122-0.393c0.298-0.058,0.596-0.12,0.893-0.18
		c0.412-0.083,0.825-0.167,1.236-0.253c0.33-0.07,0.66-0.143,0.989-0.215c0.373-0.083,0.747-0.167,1.118-0.252
		c0.354-0.081,0.707-0.165,1.06-0.249c0.327-0.079,0.653-0.158,0.979-0.24c0.39-0.097,0.781-0.194,1.17-0.295
		c0.255-0.066,0.508-0.135,0.761-0.202c0.452-0.12,0.903-0.24,1.353-0.364c0.028-0.008,0.055-0.017,0.084-0.024
		c1.86-0.519,3.699-1.079,5.516-1.679c0.028-0.01,0.056-0.019,0.083-0.027c0.587-0.195,1.173-0.394,1.756-0.598
		c0.042-0.014,0.084-0.029,0.126-0.044c15.96-5.571,30.169-14.275,41.673-25.272c0.019-0.018,0.038-0.036,0.056-0.053
		c0.584-0.559,1.162-1.122,1.732-1.692c9.116-9.115,16.419-19.711,21.406-31.336
		C948.754,1057.066,941.309,1056.887,933.863,1056.006z"/>
	<path style="fill:#7F2820;" d="M933.863,1056.006c-43.177,21.547-138.453,20.412-176.148-3.402
		c-4.693,1.43-9.447,2.524-14.208,3.237c6.111,14.52,15.828,27.458,28.184,37.924c15.316,13.049,34.768,22.27,56.334,26.038
		c7.076,1.257,14.397,1.899,21.872,1.899c0.503,0,1.006-0.004,1.508-0.009c0.133-0.002,0.266-0.005,0.399-0.006
		c0.369-0.005,0.738-0.011,1.106-0.02c0.166-0.004,0.332-0.009,0.498-0.014c0.319-0.009,0.639-0.017,0.958-0.029
		c0.223-0.007,0.444-0.017,0.667-0.026c0.26-0.01,0.519-0.022,0.778-0.033c0.238-0.012,0.477-0.023,0.714-0.036
		c0.268-0.013,0.535-0.029,0.803-0.044c0.211-0.012,0.422-0.024,0.634-0.037c0.304-0.019,0.607-0.04,0.91-0.061
		c0.188-0.013,0.375-0.026,0.562-0.04c0.294-0.022,0.588-0.045,0.881-0.069c0.204-0.018,0.411-0.033,0.616-0.05
		c0.334-0.029,0.667-0.061,1-0.092c0.266-0.025,0.531-0.05,0.796-0.077c0.348-0.036,0.696-0.071,1.043-0.108
		c0.244-0.027,0.488-0.055,0.731-0.084c0.236-0.027,0.472-0.053,0.707-0.081c0.256-0.031,0.511-0.063,0.767-0.096
		c0.218-0.028,0.435-0.055,0.653-0.084c0.259-0.034,0.517-0.07,0.775-0.105c0.216-0.03,0.431-0.06,0.646-0.091
		c0.281-0.04,0.561-0.081,0.841-0.123l0.501-0.077c0.308-0.048,0.615-0.096,0.921-0.146c0.141-0.023,0.282-0.047,0.422-0.07
		c0.341-0.057,0.683-0.115,1.024-0.174c0.054-0.009,0.107-0.019,0.161-0.028c0.71-0.124,1.417-0.256,2.122-0.393
		c0.298-0.058,0.596-0.12,0.893-0.18c0.412-0.083,0.825-0.167,1.236-0.253c0.33-0.07,0.66-0.143,0.989-0.215
		c0.373-0.083,0.747-0.167,1.118-0.252c0.354-0.081,0.707-0.165,1.06-0.249c0.327-0.079,0.653-0.158,0.979-0.24
		c0.39-0.097,0.781-0.194,1.17-0.295c0.255-0.066,0.508-0.135,0.761-0.202c0.452-0.12,0.903-0.24,1.353-0.364
		c0.028-0.008,0.055-0.017,0.084-0.024c1.86-0.519,3.699-1.079,5.516-1.679c0.028-0.01,0.056-0.019,0.083-0.027
		c0.587-0.195,1.173-0.394,1.756-0.598c0.042-0.014,0.084-0.029,0.126-0.044c15.96-5.571,30.169-14.275,41.673-25.272
		c0.019-0.018,0.038-0.036,0.056-0.053c0.584-0.559,1.162-1.122,1.732-1.692c9.116-9.115,16.419-19.711,21.406-31.336
		C948.754,1057.066,941.309,1056.887,933.863,1056.006z"/>
	<path style="fill:#D98286;" d="M876.577,1076.49c-24.69,6.065-42.977,23.404-48.553,43.315c7.076,1.257,14.397,1.899,21.872,1.899
		c0.503,0,1.006-0.004,1.508-0.009c0.133-0.002,0.266-0.005,0.399-0.006c0.369-0.005,0.738-0.011,1.106-0.02
		c0.166-0.004,0.332-0.009,0.498-0.014c0.319-0.009,0.639-0.017,0.958-0.029c0.223-0.007,0.444-0.017,0.667-0.026
		c0.26-0.01,0.519-0.022,0.778-0.033c0.238-0.012,0.477-0.023,0.714-0.036c0.268-0.013,0.535-0.029,0.803-0.044
		c0.211-0.012,0.422-0.024,0.634-0.037c0.304-0.019,0.607-0.04,0.91-0.061c0.188-0.013,0.375-0.026,0.562-0.04
		c0.294-0.022,0.588-0.045,0.881-0.069c0.204-0.018,0.411-0.033,0.616-0.05c0.334-0.029,0.667-0.061,1-0.092
		c0.266-0.025,0.531-0.05,0.796-0.077c0.348-0.036,0.696-0.071,1.043-0.108c0.244-0.027,0.488-0.055,0.731-0.084
		c0.236-0.027,0.472-0.053,0.707-0.081c0.256-0.031,0.511-0.063,0.767-0.096c0.218-0.028,0.435-0.055,0.653-0.084
		c0.259-0.034,0.517-0.07,0.775-0.105c0.216-0.03,0.431-0.06,0.646-0.091c0.281-0.04,0.561-0.081,0.841-0.123l0.501-0.077
		c0.308-0.048,0.615-0.096,0.921-0.146c0.141-0.023,0.282-0.047,0.422-0.07c0.341-0.057,0.683-0.115,1.024-0.174
		c0.054-0.009,0.107-0.019,0.161-0.028c0.71-0.124,1.417-0.256,2.122-0.393c0.298-0.058,0.596-0.12,0.893-0.18
		c0.412-0.083,0.825-0.167,1.236-0.253c0.33-0.07,0.66-0.143,0.989-0.215c0.373-0.083,0.747-0.167,1.118-0.252
		c0.354-0.081,0.707-0.165,1.06-0.249c0.327-0.079,0.653-0.158,0.979-0.24c0.39-0.097,0.781-0.194,1.17-0.295
		c0.255-0.066,0.508-0.135,0.761-0.202c0.452-0.12,0.903-0.24,1.353-0.364c0.028-0.008,0.055-0.017,0.084-0.024
		c1.86-0.519,3.699-1.079,5.516-1.679c0.028-0.01,0.056-0.019,0.083-0.027c0.587-0.195,1.173-0.394,1.756-0.598
		c0.042-0.014,0.084-0.029,0.126-0.044c15.96-5.571,30.169-14.275,41.673-25.272c0.019-0.018,0.038-0.036,0.056-0.053
		c0.584-0.559,1.162-1.122,1.732-1.692C920.168,1075.969,898.541,1071.099,876.577,1076.49z"/>
	<ellipse style="fill:#2F0C00;" cx="1014.613" cy="850.559" rx="17.951" ry="25.674"/>
	<path style="fill:#FCF8FB;" d="M990.753,827.662c2.752,0,4.982-2.603,4.982-5.814c0-1.85-0.741-3.496-1.893-4.561
		c-0.849-0.784-1.921-1.254-3.088-1.254c-2.752,0-4.982,2.604-4.982,5.815c0,0.439,0.043,0.865,0.122,1.276
		C986.393,825.722,988.378,827.662,990.753,827.662z"/>
	<path style="fill:#FCF8FB;" d="M1005.195,818.144c3.928,0,7.293-2.807,8.706-6.795c0.458-1.293,0.713-2.71,0.713-4.196
		c0-6.071-4.217-10.992-9.418-10.992c-5.203,0-9.419,4.921-9.419,10.992c0,3.013,1.04,5.743,2.723,7.729
		C1000.206,816.895,1002.575,818.144,1005.195,818.144z"/>
	<path style="fill:#2F0C00;" d="M678.187,813.24c-8.997-0.378-16.776,10.799-17.372,24.966
		c-0.597,14.168,6.215,25.958,15.213,26.338c8.999,0.378,16.776-10.799,17.373-24.966
		C693.997,825.41,687.186,813.619,678.187,813.24z"/>
	<path style="fill:#FCF8FB;" d="M656.417,815.104c2.497,0.105,4.631-2.411,4.766-5.619c0.078-1.849-0.526-3.522-1.527-4.63
		c-0.738-0.815-1.691-1.325-2.75-1.37c-2.497-0.105-4.632,2.411-4.767,5.619c-0.018,0.439,0.003,0.867,0.057,1.28
		C652.54,812.998,654.26,815.013,656.417,815.104z"/>
	<path style="fill:#FCF8FB;" d="M669.923,806.145c3.565,0.15,6.737-2.526,8.187-6.457c0.47-1.275,0.76-2.68,0.823-4.166
		c0.255-6.065-3.366-11.143-8.086-11.342c-4.721-0.199-8.755,4.558-9.01,10.623c-0.126,3.011,0.702,5.778,2.146,7.825
		C665.448,804.706,667.546,806.045,669.923,806.145z"/>
	<path style="fill:#2F0C00;" d="M673.601,709.3c31.956-7.846,54.916-26.207,51.281-41.01c-3.635-14.803-32.487-20.443-64.443-12.596
		c-31.956,7.846-54.916,26.207-51.281,41.01C612.793,711.507,641.646,717.146,673.601,709.3z"/>
	<path style="fill:#2F0C00;" d="M1001.714,729.3c35.658,8.755,67.853,2.463,71.909-14.055c4.056-16.518-21.563-37.006-57.223-45.761
		c-35.658-8.755-67.853-2.463-71.909,14.054C940.436,700.058,966.055,720.545,1001.714,729.3z"/>
	<path style="fill:#280800;" d="M835.489,964.865c1.284,4.469,3.315,8.891,5.731,13.11c2.081,3.633,4.447,7.116,6.868,10.347
		c1.758,2.348,3.544,4.563,5.272,6.609c0.097,0.114,0.194,0.227,0.291,0.34c5.088,5.976,10.79,11.457,16.885,16.47
		c6.1,5.017,12.593,9.566,19.259,13.675c14.592,8.992,30.951,16.765,48.088,19.034c3.621,0.479,7.415,0.722,11.237,0.651
		c3.773-0.072,7.575-0.447,11.267-1.205c4.305-0.883,8.46-2.286,12.248-4.323c3.652-1.964,6.961-4.519,9.732-7.772
		c1.691-1.985-0.401-4.93-2.821-3.656c-2.794,1.471-5.582,2.801-8.379,3.97c-2.948,1.232-5.906,2.28-8.893,3.125
		c-2.639,0.746-5.299,1.331-7.996,1.737c-6.534,0.983-13.275,0.913-20.402-0.472c-15.503-3.013-30.1-10.422-43.528-18.533
		c-3.258-1.969-6.451-4.045-9.562-6.231c-6.883-4.837-13.354-10.231-19.181-16.309c-1.179-1.23-2.332-2.487-3.457-3.773
		c-0.954-1.092-1.885-2.206-2.791-3.338c-2.658-3.319-5.101-6.806-7.29-10.451c-0.779-1.297-1.526-2.611-2.238-3.946
		c-3.341-6.271-5.011-13.144-8.1-19.49c-0.653-1.343-2.383-1.187-3.233-0.249c-0.3,0.331-0.491,0.76-0.485,1.255
		C834.053,958.57,834.587,961.729,835.489,964.865z"/>
	<path style="fill:#280800;" d="M955.778,1015.854c-0.322-0.005-0.643-0.013-0.965-0.021c-4.125-0.116-8.283-0.537-12.479-1.335
		c-3.62-0.689-7.187-1.615-10.683-2.756c-8.394-2.742-16.377-6.734-23.684-11.721c-5.061-3.453-9.798-7.379-14.124-11.699
		c-0.893-0.891-1.768-1.798-2.625-2.722c-1.004-1.083-3.019,0.395-2.09,1.612c0.286,0.374,0.578,0.742,0.869,1.11
		c2.969,3.756,6.219,7.221,9.716,10.369c5.82,5.24,12.319,9.613,19.329,13.051c6.901,3.384,14.296,5.861,22.024,7.358
		c4.612,0.894,9.408,1.423,14.292,1.608c2.385,0.092,4.792,0.1,7.208,0.029c0.324-0.009,0.648-0.02,0.973-0.032
		c13.901-0.527,28.097-3.664,40.519-8.962c2.386-1.018,4.706-2.114,6.946-3.287c0.685-0.359,0.91-1.011,0.819-1.635
		c-0.14-0.951-1.019-1.835-2.143-1.506c-0.669,0.196-1.338,0.392-2.007,0.589c-6.94,2.041-13.885,4.115-20.872,5.839
		c-7.837,1.934-15.728,3.426-23.724,3.935C960.655,1015.832,958.221,1015.896,955.778,1015.854z"/>
	<path style="fill:#280800;" d="M858.66,947.528c15.778-1.547,28.4,10.564,38.421,21.135c4.884,5.152,10.242,11.24,16.401,15.719
		c2.113,1.537,4.32,2.884,6.635,3.94c3.447,1.571,7.128,2.495,11.094,2.432c0.561-0.009,0.98-0.38,1.163-0.837
		c0.216-0.542,0.1-1.205-0.519-1.539c-0.035-0.018-0.069-0.037-0.103-0.056c-6.514-3.515-12.891-7.476-18.472-12.39
		c-5.737-5.052-10.738-10.839-16.141-16.23c-10.515-10.495-23.595-19.759-39.171-17.291
		C855.096,942.866,855.736,947.815,858.66,947.528z"/>
	<path style="fill:#280800;" d="M778.732,946.57c-7.515,6.171-13.045,14.649-18.315,22.711c-4.195,6.42-8.579,13.135-13.659,19.042
		c-1.221,1.418-2.481,2.791-3.789,4.101c-6.86,6.871-15.022,12.042-25.51,13.298c-3.667,0.439-3.74,5.392,0,5.764
		c9.784,0.972,18.287-2.944,25.51-8.94c4.907-4.074,9.224-9.106,12.951-14.222c1.544-2.12,2.986-4.253,4.329-6.338
		c5.563-8.646,10.448-17.849,17.383-25.516c3.147-3.479,6.689-6.635,10.87-8.815c2.205-1.149,4.486-1.943,6.853-2.669
		c0.68-0.209,1.28-0.378,1.822-0.59c-2.768-1.123-5.421-2.467-7.93-4.028C785.367,941.618,781.855,944.005,778.732,946.57z"/>
	<path style="fill:#280800;" d="M728.411,1032.688c2.869-0.253,5.724-0.701,8.54-1.337c1.395-0.314,2.78-0.673,4.152-1.081
		c0.278-0.083,0.553-0.17,0.829-0.256c0.348-0.108,0.693-0.221,1.036-0.337c10.442-3.494,19.488-9.866,26.853-17.936
		c2.428-2.66,4.672-5.504,6.725-8.49c3.22-4.683,5.967-9.714,8.2-14.93c0.559-1.306,1.087-2.622,1.58-3.948
		c1.464-3.926,2.64-7.931,3.513-11.947c0.408-1.876-1.966-2.838-3.039-1.282c-3.38,4.901-6.201,10.164-9.048,15.418
		c-0.318,0.586-0.637,1.173-0.956,1.76c-2.35,4.309-4.76,8.583-7.559,12.613c-1.38,1.988-2.865,3.887-4.444,5.689
		c-1.579,1.805-3.255,3.512-5.021,5.117c-4.953,4.504-10.605,8.197-16.803,10.927c-0.284,0.125-0.568,0.248-0.855,0.369
		c-0.615,0.259-1.234,0.513-1.86,0.754c-1.273,0.491-2.562,0.935-3.861,1.335c-1.477,0.454-2.97,0.85-4.474,1.185
		c-8.607,1.917-17.586,1.87-26.211-0.27c-5.489-1.362-10.77-3.473-15.673-6.293c-5.082-2.922-9.02-7.143-13.803-10.377
		c-0.76-0.513-1.633,0.479-1.214,1.214c5.454,9.541,18.635,16.171,28.697,19.402
		C711.685,1032.544,720.111,1033.421,728.411,1032.688z"/>
	<path style="fill:#280800;" d="M740.622,1048.034c0.786-0.216,1.568-0.445,2.347-0.686c1.953-0.602,3.885-1.274,5.796-1.993
		c0.302-0.114,0.604-0.228,0.905-0.344c9.583-3.689,18.651-8.628,26.878-14.779c7.143-5.339,13.478-11.564,19.058-18.491
		c0.7-0.867,1.388-1.744,2.064-2.634c2.703-3.56,4.972-7.23,6.912-11.041c1.602-3.145,2.977-6.388,4.185-9.745
		c0.844-2.347,1.608-4.75,2.308-7.215c0.098-0.347,0.096-0.677,0.018-0.979c-0.409-1.597-2.912-2.406-3.766-0.601
		c-0.183,0.387-0.37,0.773-0.559,1.157c-1.257,2.583-2.612,5.132-4.058,7.639c-2.188,3.792-4.582,7.489-7.164,11.062
		c-3.121,4.319-6.512,8.456-10.128,12.358c-4.2,4.533-8.702,8.751-13.441,12.568c-7.33,5.905-15.561,10.843-24.204,14.569
		c-0.969,0.417-1.946,0.811-2.929,1.193c-0.622,0.242-1.247,0.478-1.875,0.707c-1.329,0.485-2.667,0.945-4.012,1.389
		c-1.592,0.526-3.189,1.029-4.791,1.523c-2.122,0.655-4.517,1.061-6.858,1.599c-2.443,0.56-4.827,1.261-6.777,2.532
		c-0.923,0.602-0.693,1.86,0.291,2.228c2.09,0.782,4.506,0.814,6.937,0.55c2.534-0.274,5.084-0.87,7.3-1.279
		C736.932,1048.975,738.786,1048.538,740.622,1048.034z"/>
	<path style="fill:#B1693B;" d="M797.177,944.395c10.061,4.078,21.628,5.244,33.159,3.441c0.456-0.071,0.911-0.148,1.367-0.228
		c5.596-0.99,11.171-2.678,16.546-5.075c3.142-1.401,2.15-4.852-0.028-6.446c-0.58-0.424-1.243-0.718-1.936-0.805
		c-25.612-3.215-54.554,6.535-65.031-26.896c-4.566-14.568-1.315-35.061-0.445-49.892c2.235-38.057,12.767-74.417,16.521-111.991
		c0.894-8.957-11.765-9.116-14.558-1.97c-10.134,25.921-12.279,56.845-14.564,84.501c-2.026,24.52-4.681,51.957-1.123,76.453
		c1.959,13.486,8.167,23.858,16.844,31.053c1.684,1.396,3.461,2.671,5.317,3.828C791.756,941.928,794.409,943.272,797.177,944.395z"
		/>
	<path style="fill:#AB352F;" d="M823.416,714.864c25.409,1.07,47.184-26.014,48.635-60.493c1.451-34.479-17.971-63.296-43.38-64.366
		c-25.41-1.07-47.184,26.014-48.635,60.493C778.584,684.977,798.007,713.795,823.416,714.864z"/>
	<path style="fill:#F18826;" d="M1051.235,468.692c-4.847-16.78-18.698-31.222-37.8-40.654c-8.93-4.41-19.007-7.723-29.849-9.671
		c-7.236-1.3-14.812-1.991-22.615-1.991c-3.885,0-7.714,0.172-11.472,0.504c-20.406,1.804-38.742,8.355-52.758,18.055
		c-8.755,6.058-15.825,13.345-20.66,21.468c-4.677,7.858-7.264,16.499-7.264,25.571c0,11.512,4.167,22.33,11.484,31.735
		c15.71,20.193,45.947,33.864,80.67,33.864c44.401,0,81.467-22.353,90.204-52.112c1.278-4.353,1.951-8.864,1.951-13.487
		C1053.126,477.424,1052.475,472.983,1051.235,468.692z"/>
	<path style="fill:#F49725;" d="M1038.65,462.106c-4.789-1.806-10.498,0.274-15.748,5.055c-4.758,4.332-9.139,10.882-12.113,18.775
		c-6.258,16.603-3.931,32.851,5.2,36.292c9.13,3.441,21.604-7.227,27.862-23.829c0.962-2.552,1.72-5.095,2.283-7.585
		C1049.231,477.104,1046.376,465.018,1038.65,462.106z"/>
	<path style="fill:#F49725;" d="M915.251,485.935c-6.258-16.602-18.732-27.271-27.862-23.829
		c-9.129,3.441-11.457,19.69-5.199,36.292c1.759,4.669,4.011,8.868,6.541,12.417c6.468,9.07,14.758,13.886,21.321,11.412
		c7.081-2.669,10.07-13.047,8.133-25.317C917.625,493.364,916.655,489.659,915.251,485.935z"/>
	<path style="fill:#F49725;" d="M962.428,480.101c5.771,5.15,18.042,0.817,27.406-9.676c8.83-9.895,11.923-21.732,7.411-27.369
		c-0.273-0.341-0.573-0.662-0.903-0.957c-5.771-5.15-18.041-0.819-27.406,9.676c-6.009,6.734-9.363,14.368-9.469,20.336
		C959.407,475.443,960.36,478.255,962.428,480.101z"/>
	<path style="fill:#EEDACD;" d="M828.113,446.217c-17.625,1.674-35.349,2.634-53.122,3.334c-22.507,0.886-45.091,1.357-67.648,2.336
		c-11.208,0.486-22.409,1.098-33.591,1.949c-64.369,4.898-129.325,21.668-175.447,69.539
		c-20.937,21.731-35.471,47.419-43.349,75.082c-7.536,26.459-8.982,54.725-4.099,83.068c1.131,6.569,12.594,5.122,11.758-1.592
		c-4.537-36.396,2.26-72.155,18.31-103.24c14.366-27.826,36.147-51.908,63.853-69.349c39.888-25.109,85.447-33.402,131.927-36.493
		c13.323-0.885,26.722-1.344,40.084-1.649c23.961-0.546,47.805-0.596,70.886-1.729c17.267-0.847,34.361-2.376,51.191-4.66
		c3.429-0.466,6.847-0.962,10.253-1.491c2.435-6.699,6.026-13.068,10.613-18.991C849.234,443.95,838.691,445.213,828.113,446.217z"
		/>
	<path style="fill:#32B5AF;" d="M838.748,1951.736c0,56.766,31.136,102.785,69.544,102.785c38.409,0,69.544-46.019,69.544-102.785
		c0-44.054-18.752-81.633-45.101-96.256c-7.604-4.22-15.841-6.53-24.443-6.53c-11.145,0-21.678,3.876-31.016,10.765
		C854.436,1876.565,838.748,1911.442,838.748,1951.736z M888.103,1883.876c6.033-5.576,12.902-8.731,20.189-8.731
		c4.843,0,9.501,1.393,13.853,3.965c17.234,10.185,29.649,38.853,29.649,72.626c0,42.3-19.477,76.59-43.502,76.59
		s-43.502-34.291-43.502-76.59C864.79,1922.266,874.243,1896.684,888.103,1883.876z"/>
</g>
</svg>
