<?xml version="1.0" encoding="utf-8"?>
<!-- Generator: Adobe Illustrator 27.5.0, SVG Export Plug-In . SVG Version: 6.00 Build 0)  -->
<svg version="1.1" xmlns="http://www.w3.org/2000/svg" xmlns:xlink="http://www.w3.org/1999/xlink" x="0px" y="0px"
	 viewBox="0 0 500 500" style="enable-background:new 0 0 500 500;" xml:space="preserve">
<g id="BACKGROUND">
	<g>
		<rect style="fill:#E5DED4;" width="500.001" height="500"/>
		<rect y="441.184" style="fill:#AD977F;" width="500" height="58.816"/>
	</g>
</g>
<g id="OBJECTS">
	<g>
		<path style="fill:#82705A;" d="M87.314,50.997c-6.971,2.547-2.52,199.762,0,201.91c2.52,2.148,321.525,2.577,322.877,0
			c1.353-2.578-2.007-198.473-6.207-201.91C399.784,47.56,93.193,48.849,87.314,50.997z"/>
		<g>
			<path style="fill:#C3D9F0;" d="M242.995,54.107c-72.854,0.17-144.864,0.977-147.613,1.981c-6.618,2.417-2.392,189.671,0,191.71
				c1.164,0.991,73.293,1.597,147.287,1.677C242.111,199.103,242.62,93.753,242.995,54.107z"/>
			<path style="fill:#C3D9F0;" d="M396.055,56.088c-1.945-1.593-72.261-2.117-144.404-1.999c0.013,37.07-2.536,157.24-3.368,195.391
				c76.448,0.054,153.023-0.455,153.666-1.683C403.233,245.351,400.043,59.351,396.055,56.088z"/>
		</g>
		<g>
			<path style="fill:#EEF3F6;" d="M242.667,101.785c0.061-11.783,0.129-22.62,0.197-31.871
				c-18.678-5.227-37.782-10.225-56.402-15.545c-25.556,0.181-48.39,0.435-64.816,0.741c40.12,15.016,79.626,30.335,118.509,45.657
				C240.993,101.105,241.83,101.446,242.667,101.785z"/>
			<path style="fill:#EEF3F6;" d="M242.454,159.277c0.013-6.189,0.03-12.382,0.049-18.515c-19.758-7.213-39.429-14.47-58.871-21.845
				c-30.894-11.778-61.305-24.051-91.24-36.601c-0.183,5.307-0.315,11.231-0.406,17.595c32.498,13.329,66.666,25.773,98.217,38.502
				C207.563,145.378,224.971,152.342,242.454,159.277z"/>
			<path style="fill:#EEF3F6;" d="M188.233,195.559c-31.254-11.119-64.066-21.121-96.075-31.655
				c0.061,4.078,0.13,8.126,0.205,12.115c42.613,14.318,86.818,27.459,129.39,42.063c6.921,2.35,13.833,4.705,20.74,7.063
				c-0.015-3.396-0.027-6.903-0.037-10.497C224.371,208.323,206.317,201.951,188.233,195.559z"/>
			<path style="fill:#EEF3F6;" d="M401.282,165.526c-0.323-15.001-0.719-30.454-1.171-44.852
				c-43.275-14.663-86.847-29.105-131.036-43.102c-5.769-1.779-11.625-3.507-17.54-5.204c-0.099,9.448-0.254,20.659-0.446,32.836
				C300.79,125.42,350.283,146.039,401.282,165.526z"/>
			<path style="fill:#EEF3F6;" d="M248.76,227.283c21.662,7.396,43.293,14.797,65.049,22.095c10.74-0.044,20.954-0.103,30.371-0.177
				c-32.09-10.475-63.712-21.288-95.202-32.273C248.902,220.538,248.829,223.999,248.76,227.283z"/>
			<path style="fill:#EEF3F6;" d="M250.426,143.66c-0.114,6.202-0.232,12.441-0.351,18.636
				c49.852,19.723,100.346,39.172,152.08,57.676c-0.057-6.289-0.143-13.378-0.259-20.998c-13.393-4.922-26.753-9.882-40.15-14.843
				C324.886,170.515,287.514,157.16,250.426,143.66z"/>
		</g>
	</g>
	<g>
		<path style="fill:#82705A;" d="M0,303.3c0,0,397.906-7.357,500-1.877v149.854H0V303.3z"/>
		<path style="fill:#AD977F;" d="M500,363.656v-16.243c-133.612,2.889-425.183,3.137-500,3.151v11.191
			C87.258,362.931,365.768,366.394,500,363.656z"/>
		<path style="fill:#D4C4AD;" d="M500,288.487c-102.094-5.953-500,2.039-500,2.039v60.038c74.817-0.015,366.388-0.263,500-3.151
			V288.487z"/>
		<path style="opacity:0.4;fill:#82705A;" d="M73.615,293.556c0,0-17.425,35.909,17.756,40.949
			c35.182,5.039,93.325,5.189,93.325,5.189l-10.822,10.869l-5.198,13.057l8.613,0.082l-35.614,77.481h14.773l-1.761,10.094h27.568
			l42.573-114.883l123.665-5.3l-62.152-8.833l-135.534-25.503L73.615,293.556z"/>
		<path style="opacity:0.4;fill:#82705A;" d="M449.462,309.063c0,4.218-19.872,7.636-44.385,7.636
			c-24.514,0-44.386-3.418-44.386-7.636c0-4.216,19.872-7.635,44.386-7.635C429.59,301.428,449.462,304.847,449.462,309.063z"/>
	</g>
	<g>
		<g>
			<g>
				<g>
					<g>
						<path style="fill:#FDAA78;" d="M246.462,294.485l31.498,20.008c0,0-0.832,12.484,1.333,12.484c2.164,0,65.02,0.334,68.348,0
							c3.328-0.333-42.16-17.003-42.16-17.003l-26.522-34.243L246.462,294.485z"/>
						<polygon style="fill:#F37744;" points="278.959,275.731 246.462,294.485 261.335,303.932 286.341,285.264 						"/>
					</g>
					<g>
						<path style="fill:#65894B;" d="M331.834,319.592c-0.083-0.581-0.621-0.987-1.201-0.906c-3.253,0.455-6.028,3.806-7.711,6.378
							c-1.224-7.049-5.777-11.514-5.999-11.728c-0.245-0.237-0.59-0.342-0.928-0.281c-0.337,0.061-0.622,0.28-0.768,0.589
							c-3.643,7.639-14.498,12.867-17.806,14.315c-7.732-12.375-18.393-14.128-18.871-14.292c-0.557-0.19-1.16,0.103-1.353,0.658
							c-0.191,0.555,0.104,1.161,0.657,1.353c0.113,0.038,10.572,1.716,17.92,13.656c-0.003,0.138,0.018,0.276,0.07,0.411
							c0.164,0.419,0.566,0.679,0.991,0.679c0.128,0,0.26-0.023,0.385-0.072c0.59-0.231,13.884-5.473,19.183-14.408
							c1.611,1.981,4.69,6.556,4.69,12.59c0,0.497,0.345,0.927,0.828,1.037c0.484,0.108,0.982-0.132,1.195-0.579
							c1.011-2.118,4.384-7.72,7.812-8.197C331.51,320.711,331.914,320.174,331.834,319.592z"/>
						<path style="fill:#3C5629;" d="M322.157,328.533c0-8.677-5.972-14.432-5.972-14.432c-4.532,9.508-19.35,15.258-19.35,15.258
							c-7.629-12.604-18.635-14.686-18.635-14.686c-0.309-0.111-0.654-0.21-1.017-0.299c-0.157,0.54,0.133,1.117,0.67,1.304
							c0.113,0.038,10.572,1.716,17.92,13.656c-0.003,0.138,0.018,0.276,0.07,0.411c0.164,0.419,0.566,0.679,0.991,0.679
							c0.128,0,0.26-0.023,0.385-0.072c0.59-0.231,13.884-5.473,19.183-14.408c1.611,1.981,4.69,6.556,4.69,12.59
							c0,0.497,0.345,0.927,0.828,1.037c0.484,0.108,0.982-0.132,1.195-0.579c1.011-2.118,4.384-7.72,7.812-8.197
							c0.582-0.082,0.986-0.619,0.906-1.201c-0.004-0.027-0.014-0.053-0.02-0.077c-0.626,0.12-1.033,0.225-1.033,0.225
							C326.026,320.404,322.157,328.533,322.157,328.533z"/>
						<g>
							<path style="fill:#1F2437;" d="M348.493,331.095h-70.476c-1.172,0-1.172-4.252,0-4.252h70.476
								C349.668,326.843,349.668,331.095,348.493,331.095z"/>
						</g>
					</g>
				</g>
				<g>
					<path style="fill:#4378BA;" d="M128.044,248.433c0,0,59.324-57.591,66.751-61.959c7.427-4.369,22.719-7.428,34.952,4.368
						c12.233,11.797,64.223,82.575,64.223,82.575l-46.841,29.997l-36.121-65.386l-45.921,58.544
						C165.086,296.572,132.071,288.111,128.044,248.433z"/>
					<path style="fill:#265FAE;" d="M211.007,238.028l36.121,65.386l0.425-0.272l-33.283-86.555l-57.821,76.355
						c4.999,2.69,8.637,3.63,8.637,3.63L211.007,238.028z"/>
				</g>
			</g>
			<g>
				<g>
					<g>
						<path style="fill:#FDAA78;" d="M167.786,419.848c0,0-6.394,35.923-6.745,43.428c-0.161,3.411-0.855,13.587,1.365,13.587
							c2.219,0,66.695,0.362,70.111,0c3.415-0.363-43.248-18.505-43.248-18.505l19.711-43.688L167.786,419.848z"/>
						<path style="fill:#F37744;" d="M200.591,433.263l8.388-18.593l-41.194,5.178c0,0-1.281,7.204-2.729,15.833L200.591,433.263z"
							/>
					</g>
					<g>
						<path style="fill:#65894B;" d="M216.359,467.855c-0.083-0.634-0.637-1.075-1.231-0.985c-3.339,0.493-6.185,4.14-7.912,6.939
							c-1.252-7.671-5.923-12.532-6.151-12.765c-0.253-0.259-0.605-0.371-0.951-0.306c-0.344,0.067-0.639,0.305-0.789,0.641
							c-3.737,8.315-14.87,14.004-18.264,15.581c-7.932-13.467-19.403-17.802-19.894-17.982c-0.57-0.206-1.19,0.112-1.387,0.718
							c-0.196,0.603,0.107,1.262,0.677,1.472c0.113,0.039,11.378,4.293,18.915,17.287c-0.005,0.149,0.018,0.302,0.072,0.448
							c0.168,0.457,0.58,0.739,1.018,0.739c0.129,0,0.265-0.027,0.394-0.08c0.606-0.249,14.241-5.954,19.677-15.679
							c1.654,2.155,4.81,7.133,4.81,13.701c0,0.539,0.354,1.008,0.851,1.129c0.496,0.117,1.004-0.144,1.224-0.631
							c1.038-2.306,4.497-8.401,8.013-8.922C216.027,469.071,216.442,468.488,216.359,467.855z"/>
						<path style="fill:#3C5629;" d="M206.433,477.585c0-9.443-6.125-15.708-6.125-15.708
							c-4.649,10.349-19.847,16.607-19.847,16.607c-7.826-13.718-19.65-18.411-19.65-18.411c-0.318-0.121-0.673-0.228-1.042-0.324
							c-0.163,0.589,0.134,1.215,0.688,1.419c0.113,0.039,11.378,4.293,18.915,17.287c-0.005,0.149,0.018,0.302,0.072,0.448
							c0.168,0.457,0.58,0.739,1.018,0.739c0.129,0,0.265-0.027,0.394-0.08c0.606-0.249,14.241-5.954,19.677-15.679
							c1.654,2.155,4.81,7.133,4.81,13.701c0,0.539,0.354,1.008,0.851,1.129c0.496,0.117,1.004-0.144,1.224-0.631
							c1.038-2.306,4.497-8.401,8.013-8.922c0.597-0.09,1.012-0.673,0.929-1.306c-0.003-0.029-0.015-0.057-0.02-0.085
							c-0.641,0.131-1.061,0.244-1.061,0.244C210.402,468.736,206.433,477.585,206.433,477.585z"/>
						<g>
							<path style="fill:#1F2437;" d="M233.45,480.373h-72.292c-1.204,0-1.204-4.628,0-4.628h72.292
								C234.655,475.745,234.655,480.373,233.45,480.373z"/>
						</g>
					</g>
				</g>
				<g>
					<path style="fill:#5FA4E9;" d="M67.529,267.484c0,0-7.136,50.325,27.242,57.571c34.378,7.249,92.172,7.353,92.172,7.353
						l-30.473,98.775h63.147c0,0,20.181-78.692,22.579-105.716c2.811-31.681-4.587-44.624-49.148-47.245
						c-33.494-1.972-45.876-1.312-45.876-1.312l-8.704-28.479L67.529,267.484z"/>
					<g>
						<g>
							<path style="fill:#4378BA;" d="M96.22,278.769c-0.028,0-0.057-0.001-0.085-0.003c-0.482-0.049-0.832-0.475-0.786-0.955
								c0.136-1.383,0.275-2.197,0.282-2.23c0.083-0.475,0.538-0.794,1.012-0.71c0.476,0.084,0.793,0.536,0.71,1.012
								c-0.001,0.008-0.136,0.789-0.264,2.098C97.045,278.432,96.664,278.769,96.22,278.769z"/>
						</g>
						<g>
							<path style="fill:#4378BA;" d="M191.263,316.778c-0.482,0-0.873-0.392-0.873-0.875c0-0.482,0.39-0.874,0.872-0.874
								c1.512,0,2.99-0.002,4.424-0.008c0.003,0,0.003,0,0.003,0c0.482,0,0.872,0.39,0.875,0.87
								c0.001,0.482-0.388,0.877-0.871,0.878C194.255,316.774,192.777,316.777,191.263,316.778
								C191.263,316.778,191.263,316.778,191.263,316.778z M186.836,316.775c-0.002,0-0.002,0-0.002,0
								c-1.454-0.003-2.933-0.007-4.432-0.015c-0.483-0.003-0.872-0.396-0.869-0.879c0.002-0.482,0.393-0.869,0.874-0.869
								c0.001,0,0.001,0,0.003,0c1.497,0.008,2.975,0.013,4.427,0.016c0.482,0,0.874,0.393,0.872,0.875
								C187.708,316.385,187.317,316.775,186.836,316.775z M200.116,316.75c-0.481,0-0.872-0.389-0.874-0.87
								c-0.003-0.482,0.387-0.876,0.869-0.878c1.542-0.009,3.021-0.02,4.426-0.03c0.002,0,0.003,0,0.005,0
								c0.48,0,0.869,0.385,0.876,0.866c0.003,0.482-0.385,0.878-0.869,0.882c-1.404,0.011-2.884,0.021-4.428,0.03
								C200.119,316.75,200.117,316.75,200.116,316.75z M177.979,316.733c-0.002,0-0.005,0-0.006,0
								c-1.466-0.011-2.943-0.025-4.431-0.041c-0.483-0.005-0.87-0.401-0.865-0.884c0.005-0.482,0.434-0.88,0.883-0.863
								c1.486,0.016,2.962,0.028,4.427,0.04c0.481,0.004,0.869,0.397,0.866,0.882C178.85,316.346,178.458,316.733,177.979,316.733z
								 M208.969,316.677c-0.478,0-0.869-0.385-0.873-0.863c-0.005-0.483,0.381-0.878,0.865-0.884
								c1.63-0.018,3.112-0.035,4.423-0.052c0.004,0,0.008,0,0.011,0c0.48,0,0.868,0.384,0.875,0.863
								c0.005,0.482-0.38,0.879-0.862,0.885c-1.313,0.016-2.797,0.034-4.428,0.051C208.976,316.677,208.972,316.677,208.969,316.677
								z M169.123,316.637c-0.005,0-0.01,0-0.014,0c-1.473-0.022-2.952-0.047-4.432-0.071c-0.482-0.012-0.866-0.408-0.857-0.891
								c0.007-0.477,0.398-0.857,0.874-0.857c0.004,0,0.01,0,0.014,0c1.478,0.025,2.955,0.05,4.426,0.071
								c0.482,0.006,0.868,0.403,0.861,0.887C169.989,316.253,169.599,316.637,169.123,316.637z M160.267,316.475
								c-0.005,0-0.014,0-0.02-0.001c-1.482-0.031-2.96-0.068-4.43-0.108c-0.482-0.012-0.863-0.415-0.849-0.895
								c0.013-0.483,0.419-0.881,0.896-0.85c1.469,0.039,2.944,0.073,4.422,0.108c0.482,0.011,0.864,0.41,0.854,0.894
								C161.129,316.097,160.74,316.475,160.267,316.475z M151.414,316.236c-0.009,0-0.019,0-0.028,0
								c-1.491-0.05-2.968-0.101-4.431-0.158c-0.483-0.018-0.858-0.424-0.839-0.907c0.017-0.47,0.405-0.839,0.872-0.839
								c0.011,0,0.022,0,0.035,0.001c1.457,0.056,2.933,0.108,4.419,0.157c0.483,0.017,0.862,0.419,0.844,0.901
								C152.27,315.864,151.884,316.236,151.414,316.236z M142.565,315.893c-0.014,0-0.027,0-0.042-0.001
								c-1.502-0.069-2.983-0.143-4.431-0.223c-0.481-0.025-0.851-0.438-0.824-0.921c0.025-0.482,0.438-0.852,0.92-0.823
								c1.443,0.079,2.917,0.152,4.415,0.222c0.482,0.021,0.855,0.431,0.833,0.913C143.415,315.529,143.029,315.893,142.565,315.893
								z M133.72,315.407c-0.018,0-0.039,0-0.059-0.002c-1.522-0.098-3.001-0.206-4.43-0.319c-0.48-0.04-0.84-0.46-0.802-0.941
								c0.038-0.48,0.465-0.836,0.941-0.802c1.421,0.113,2.891,0.22,4.405,0.317c0.481,0.031,0.846,0.448,0.815,0.929
								C134.561,315.052,134.176,315.407,133.72,315.407z M124.891,314.696c-0.028,0-0.057-0.001-0.086-0.002
								c-1.575-0.156-3.063-0.323-4.426-0.495c-0.478-0.062-0.817-0.499-0.756-0.977c0.061-0.478,0.5-0.813,0.977-0.758
								c1.346,0.17,2.819,0.336,4.378,0.49c0.48,0.047,0.831,0.475,0.783,0.954C125.716,314.36,125.335,314.696,124.891,314.696z
								 M116.122,313.509c-0.062,0-0.124-0.007-0.187-0.023c-1.526-0.332-2.994-0.77-4.363-1.303
								c-0.45-0.175-0.671-0.682-0.497-1.132c0.176-0.45,0.685-0.671,1.131-0.497c1.284,0.5,2.664,0.913,4.1,1.225
								c0.471,0.103,0.77,0.569,0.668,1.039C116.884,313.23,116.521,313.509,116.122,313.509z M107.938,310.276
								c-0.159,0-0.318-0.042-0.462-0.132c-1.302-0.812-2.525-1.753-3.633-2.799c-0.351-0.331-0.368-0.884-0.035-1.235
								c0.329-0.352,0.882-0.368,1.234-0.035c1.023,0.966,2.152,1.836,3.357,2.585c0.411,0.254,0.536,0.794,0.281,1.204
								C108.515,310.129,108.23,310.276,107.938,310.276z M101.548,304.249c-0.271,0-0.542-0.128-0.712-0.368
								c-0.86-1.208-1.636-2.535-2.308-3.944c-0.208-0.437-0.021-0.957,0.415-1.166c0.436-0.206,0.957-0.02,1.165,0.414
								c0.626,1.319,1.351,2.558,2.152,3.685c0.28,0.393,0.188,0.938-0.205,1.218C101.9,304.196,101.724,304.249,101.548,304.249z
								 M97.723,296.309c-0.373,0-0.718-0.241-0.835-0.617c-0.429-1.396-0.786-2.88-1.062-4.405
								c-0.085-0.475,0.231-0.93,0.706-1.015c0.473-0.088,0.929,0.23,1.015,0.705c0.262,1.457,0.602,2.871,1.012,4.2
								c0.142,0.462-0.117,0.951-0.579,1.093C97.895,296.295,97.808,296.309,97.723,296.309z M96.127,287.615
								c-0.452,0-0.834-0.349-0.871-0.807c-0.099-1.29-0.15-2.617-0.15-3.945l0.003-0.559c0.004-0.478,0.396-0.865,0.874-0.865
								c0.002,0,0.005,0,0.009,0c0.48,0.007,0.868,0.399,0.864,0.883l-0.003,0.541c0,1.281,0.049,2.564,0.146,3.81
								c0.038,0.481-0.323,0.9-0.804,0.939C96.173,287.614,96.15,287.615,96.127,287.615z"/>
						</g>
						<g>
							<path style="fill:#4378BA;" d="M219.366,318.619c-0.083,0-0.167-0.012-0.249-0.037c-0.462-0.138-0.727-0.624-0.589-1.088
								l0.284-0.949l-0.989,0.018c-0.006,0-0.01,0-0.015,0c-0.477,0-0.866-0.382-0.874-0.86c-0.008-0.481,0.377-0.878,0.86-0.887
								l2.179-0.037c0.269-0.005,0.542,0.119,0.712,0.345c0.168,0.222,0.222,0.51,0.141,0.777l-0.623,2.095
								C220.09,318.374,219.743,318.618,219.366,318.619z"/>
						</g>
						<g>
							<path style="fill:#4378BA;" d="M189.899,417.497c-0.081,0-0.167-0.011-0.249-0.035c-0.464-0.138-0.727-0.625-0.588-1.088
								l1.227-4.12c0.138-0.46,0.624-0.725,1.087-0.588c0.462,0.138,0.725,0.625,0.587,1.088l-1.227,4.12
								C190.623,417.253,190.276,417.497,189.899,417.497z M192.354,409.257c-0.083,0-0.167-0.011-0.249-0.036
								c-0.462-0.139-0.727-0.625-0.588-1.086l1.228-4.121c0.139-0.462,0.624-0.728,1.087-0.588
								c0.461,0.138,0.726,0.625,0.586,1.086l-1.227,4.121C193.079,409.014,192.732,409.257,192.354,409.257z M194.811,401.018
								c-0.082,0-0.166-0.014-0.25-0.037c-0.461-0.138-0.726-0.623-0.586-1.087l1.226-4.119c0.138-0.462,0.622-0.728,1.086-0.589
								c0.463,0.138,0.727,0.625,0.588,1.088l-1.227,4.12C195.535,400.772,195.186,401.018,194.811,401.018z M197.266,392.778
								c-0.081,0-0.165-0.012-0.249-0.037c-0.463-0.139-0.727-0.625-0.588-1.087l1.228-4.119c0.137-0.463,0.621-0.727,1.086-0.588
								c0.463,0.138,0.725,0.624,0.588,1.087l-1.229,4.118C197.99,392.532,197.642,392.778,197.266,392.778z M199.721,384.538
								c-0.083,0-0.167-0.012-0.249-0.035c-0.464-0.139-0.728-0.626-0.588-1.089l1.229-4.12c0.136-0.462,0.623-0.726,1.086-0.586
								c0.462,0.136,0.725,0.624,0.586,1.085l-1.227,4.121C200.446,384.293,200.099,384.538,199.721,384.538z M202.176,376.299
								c-0.083,0-0.167-0.013-0.249-0.039c-0.463-0.137-0.726-0.625-0.588-1.086l1.228-4.12c0.137-0.461,0.622-0.725,1.087-0.588
								c0.462,0.138,0.725,0.625,0.587,1.087l-1.227,4.12C202.901,376.053,202.554,376.299,202.176,376.299z M204.631,368.058
								c-0.082,0-0.165-0.012-0.249-0.036c-0.462-0.14-0.725-0.625-0.587-1.088l1.227-4.119c0.139-0.462,0.623-0.727,1.087-0.59
								c0.463,0.139,0.726,0.626,0.588,1.088l-1.228,4.12C205.355,367.813,205.008,368.058,204.631,368.058z M207.088,359.819
								c-0.083,0-0.167-0.013-0.249-0.037c-0.463-0.139-0.726-0.625-0.588-1.087l1.229-4.12c0.136-0.463,0.621-0.727,1.085-0.589
								c0.463,0.138,0.726,0.626,0.587,1.087l-1.229,4.12C207.813,359.573,207.464,359.819,207.088,359.819z M209.543,351.577
								c-0.082,0-0.167-0.011-0.249-0.034c-0.463-0.14-0.726-0.625-0.588-1.088l1.229-4.119c0.137-0.463,0.622-0.728,1.085-0.59
								c0.463,0.139,0.727,0.625,0.587,1.088l-1.227,4.119C210.268,351.332,209.92,351.577,209.543,351.577z M211.998,343.337
								c-0.081,0-0.166-0.011-0.249-0.034c-0.462-0.14-0.726-0.626-0.587-1.089l1.227-4.12c0.139-0.462,0.623-0.727,1.088-0.588
								c0.461,0.139,0.725,0.625,0.587,1.087l-1.228,4.12C212.723,343.092,212.376,343.337,211.998,343.337z M214.456,335.097
								c-0.083,0-0.167-0.011-0.249-0.036c-0.464-0.136-0.726-0.624-0.588-1.087l1.227-4.12c0.138-0.46,0.623-0.727,1.086-0.588
								c0.463,0.139,0.727,0.625,0.588,1.087l-1.227,4.122C215.18,334.853,214.832,335.097,214.456,335.097z M216.91,326.859
								c-0.082,0-0.166-0.012-0.25-0.038c-0.462-0.138-0.725-0.624-0.588-1.088l1.229-4.118c0.136-0.462,0.622-0.727,1.085-0.588
								c0.465,0.138,0.726,0.624,0.589,1.088l-1.227,4.119C217.635,326.613,217.287,326.859,216.91,326.859z"/>
						</g>
						<g>
							<path style="fill:#4378BA;" d="M188.048,423.711c-0.082,0-0.166-0.013-0.249-0.036c-0.463-0.139-0.727-0.625-0.588-1.087
								l0.623-2.094c0.137-0.463,0.623-0.729,1.086-0.588c0.462,0.136,0.726,0.623,0.589,1.086l-0.625,2.094
								C188.77,423.465,188.424,423.711,188.048,423.711z"/>
						</g>
					</g>
				</g>
			</g>
		</g>
		<g>
			<g>
				<g>
					<path style="fill:#623019;" d="M106.956,91.542c3.318-9.585,1.47-21.789-6.978-27.978c-7.683-5.697-17.292-1.448-21.177,6.506
						c-3.429,7.527,2.235,16.066,8.797,19.59c5.462,2.995,12.705,4.073,18.647,5.212L106.956,91.542z"/>
				</g>
				<g>
					<path style="fill:#441F14;" d="M100.674,75.967c-4.091,2.121-8.485,4.394-13.181,2.576c-4.855-1.857-7.017-6.607-6.869-11.413
						c-0.696,0.907-1.308,1.889-1.823,2.94c-3.429,7.527,2.235,16.066,8.797,19.59c5.462,2.995,12.705,4.073,18.647,5.212
						l0.71-3.331c2.025-5.851,2.113-12.671-0.037-18.511C104.752,73.837,102.668,74.837,100.674,75.967z"/>
				</g>
				<path style="fill:#623019;" d="M158.909,118.998c0,0,9.04-11.212,5.555-25.909c-3.485-14.698-39.36-32.578-60.817-12.274
					c-21.457,20.304-11.793,52.862,6.119,62.121l12.878-15.754L158.909,118.998z"/>
				<path style="fill:#441F14;" d="M109.766,142.937l12.878-15.754l36.265-8.185c0,0,3.046-3.786,4.92-9.836
					c-2.912-8.194-6.554-13.908-6.554-13.908s-9.653,28.892-27.375,29.493c-17.721,0.601-17.126-15.098-17.126-15.098
					s-9.932,13.75-10.89,27.178C104.237,139.363,106.894,141.453,109.766,142.937z"/>
			</g>
			<g>
				<path style="fill:#FDAA78;" d="M122.75,172.975l4.428-32.983l-14.955-12.318l-16.746,30.654
					C95.477,158.327,100.953,174.558,122.75,172.975z"/>
				<path style="fill:#F37744;" d="M111.329,129.312l15.849,10.679l-1.728,12.856C119.874,146.805,112.694,137.186,111.329,129.312z
					"/>
			</g>
			<g>
				<path style="fill:#FDAA78;" d="M157.275,95.254c4.124,15.783,7.604,39.447-9.127,49.608
					c-16.729,10.16-36.819-15.549-36.819-15.549l1.445-19.663C112.774,109.648,133.049,120.035,157.275,95.254z"/>
				<g>
					<g>
						<path style="fill:#F25949;" d="M145.307,141.482c-2.482-0.511-4.084-3.342-3.517-5.75c0.132-0.562,0.978-0.267,0.846,0.288
							c-0.466,1.98,0.991,4.209,2.962,4.615C146.161,140.751,145.861,141.596,145.307,141.482L145.307,141.482z"/>
					</g>
					<path style="opacity:0.5;fill:#F25949;" d="M136.832,128.449c0.766,1.457,2.466,2.074,3.797,1.374
						c1.331-0.7,1.79-2.446,1.025-3.904c-0.766-1.458-2.466-2.074-3.798-1.374C136.528,125.243,136.068,126.99,136.832,128.449z"/>
					<path style="fill:#441F14;" d="M147.431,125.493c-0.323,1.311-1.155,2.232-1.862,2.058c-0.706-0.173-1.018-1.376-0.697-2.687
						c0.323-1.31,1.156-2.233,1.862-2.059C147.441,122.979,147.752,124.183,147.431,125.493z"/>
					<path style="fill:#441F14;" d="M158.794,127.738c-0.289,1.178-1.039,2.006-1.673,1.85c-0.635-0.156-0.916-1.237-0.626-2.416
						c0.29-1.178,1.039-2.007,1.674-1.852C158.804,125.477,159.084,126.56,158.794,127.738z"/>
					<path style="fill:#FFF4EE;" d="M160.971,120.446c-3.205-0.79-5.469,1.852-6.647,4.587c-0.809-0.713-1.869-0.94-2.935-0.732
						c0.719-3.521,0.01-7.985-3.987-8.906c-4.393-1.009-7.359,4.18-8.008,7.708c-0.005,0.024,0.002,0.045,0.001,0.068
						c-0.004,0.019-0.014,0.033-0.017,0.052c-0.404,3.288,0.899,7.058,4.407,7.915c3.652,0.893,6.365-2.7,7.345-5.837
						c1.023-0.325,2.124-0.226,2.837,0.645c-0.061,0.177-0.118,0.354-0.169,0.528c-0.604,2.644-0.284,6.115,2.484,7.381
						c3.057,1.398,5.632-2.126,6.619-4.491C163.923,126.915,164.519,121.319,160.971,120.446z M143.502,130.137
						c-2.811-0.688-3.499-4.417-3.227-6.834c0.617-3.293,2.671-6.951,6.418-7.073c4.311-0.14,4.299,5.62,3.68,8.503
						c-0.044,0.079-0.064,0.164-0.063,0.251C149.55,128.023,146.84,130.953,143.502,130.137z M162.218,128.563
						c-0.638,2.433-3.109,5.594-5.931,4.304c-2.102-0.96-2.037-4.309-1.617-6.152c0.07-0.237,0.151-0.479,0.238-0.722
						c0.008-0.02,0.017-0.04,0.021-0.06c0.806-2.218,2.311-4.531,4.838-4.768C163.612,120.804,162.776,126.433,162.218,128.563z"/>
					<path style="fill:#F25949;" d="M153.084,125.488c0.56,0.315,2.583,9.005,1.837,9.987c-0.742,0.982-4.719,1.295-4.92,0.068
						C149.799,134.318,151.928,124.836,153.084,125.488z"/>
				</g>
			</g>
			<g>
				<path style="fill:#FDAA78;" d="M107.266,129.405c3.671,1.034,7.468-0.71,9.15-3.973c0.24-0.466,0.763-6.278-0.544-8.15
					c-1.01-1.447-2.505-2.562-4.333-3.077c-4.2-1.18-8.555,1.267-9.739,5.465C100.623,123.866,103.066,128.225,107.266,129.405z"/>
				<path style="fill:#F37744;" d="M106.706,124.721c1.657,1.534,4.206,1.474,5.698-0.136c1.486-1.606,1.352-4.155-0.304-5.69
					c-1.66-1.537-4.208-1.477-5.701,0.13C104.91,120.635,105.046,123.184,106.706,124.721z"/>
			</g>
		</g>
		<g>
			<path style="fill:#E3E0D7;" d="M122.153,165.485c0,0,25.388,48.831,27.72,49.043c2.331,0.211,37.071-36.647,37.071-36.647
				l-6.984,48.934l-42.845,43.637c0,0-32.044-32.411-32.732-31.774C103.694,239.313,98.247,177.026,122.153,165.485z"/>
			<g>
				<path style="fill:#F9F9F7;" d="M94.1,153.282c0,0-52.043,36.654-30.768,118.076l83.896-12.922c0,0-11.514-52.025-22.346-93.982
					L94.1,153.282z"/>
				<path style="fill:#E3E0D7;" d="M142.892,239.226c-8.425,5.544-15.609,8.87-17.8,5.992c-6.273-8.241,11.881-90.619-20.591-75.496
					c-18.783,8.749-50.684,52.608-30.685,99.229c0.106,0.251,0.224,0.492,0.334,0.741l73.079-11.257
					C147.229,258.436,145.559,250.886,142.892,239.226z"/>
			</g>
			<g>
				<polygon style="fill:#3C5629;" points="168.676,201.892 192.233,205.241 226.494,199.277 240.534,141.024 238.887,140.337 
					209.507,154.251 184.275,154.245 				"/>
				<polygon style="fill:#65894B;" points="224.387,197.575 192.248,203.226 169.26,200.107 168.676,201.892 192.233,205.241 
					226.494,199.277 240.534,141.024 238.887,140.337 				"/>
				<path style="fill:#FFFFFF;" d="M168.12,198.104c0,0,21.614,2.535,25.281,3.405c0,0,17.595-4.483,28.237-5.793l14.703-54.174
					l-4.668-1.848c0,0-15.253,4.716-21.113,12.235c0,0-12.415-6.534-26.406-0.608l-15.945,42.124L168.12,198.104z"/>
				<polygon style="fill:#FFEDDF;" points="190.422,200.301 209.507,154.251 196.601,198.734 193.401,201.509 				"/>
				<path style="fill:#F8CDAD;" d="M168.208,193.445l-0.088,4.659c0,0,21.614,2.535,25.281,3.405c0,0,17.595-4.483,28.237-5.793
					l14.703-54.174l-4.668-1.848L216.9,188.767c0,0-18.723,3.022-23.735,11.133C193.165,199.9,186.658,192.591,168.208,193.445z"/>
			</g>
			<g>
				<path style="fill:#FDAA78;" d="M179.96,207.044l7.061-5.535c0,0-2.604-3.348,2.131-10.321
					c5.839-8.602,11.882-8.646,11.493-5.605c-0.68,5.304-4.638,9.477-4.414,11.01c0.227,1.534,2.989,6.692,2.989,6.692l11.997-1.349
					c0,0-3.745,6.694-17.971,8.319l-5.89,14.557L179.96,207.044z"/>
				<g>
					<path style="fill:#F9F9F7;" d="M104.5,169.722c-17.895,10.443-45.619,57.057-21.406,101.636
						c24.211,44.582,87.988,31.7,107.05-48.331l-8.045-19.215c0,0-43.127,46.815-50.134,39.188
						C124.956,235.371,135.442,151.669,104.5,169.722z"/>
					<path style="fill:#FFFFFF;" d="M182.099,203.812c0,0-43.127,46.815-50.134,39.188c-5.914-6.436,0.627-67.03-15.772-74.964
						c0,0-6.566,92.326,7.564,99.392c14.13,7.063,63.186-52.045,63.186-52.045L182.099,203.812z"/>
				</g>
			</g>
			<path style="fill:#FDAA78;" d="M174.658,176.41c0,0-2.577-9.931,1.617-13.824c4.194-3.894,9.715-3.593,10.669-0.898
				c0.954,2.694-7.316,5.737-8.214,6.185C177.831,168.323,174.658,176.41,174.658,176.41z"/>
		</g>
	</g>
	<g>
		<g>
			<path style="fill:#AB4D4E;" d="M385.281,307.746c-10.505-8.022-5.921-53.092-4.392-55.434c1.527-2.342,16.993-5.68,36.285-5.68
				c19.293,0,34.759,3.338,36.286,5.68c1.527,2.342,6.111,47.412-4.393,55.434C438.563,315.766,395.784,315.766,385.281,307.746z"/>
			<path style="fill:#441F14;" d="M383.412,253.023c-0.159,1.272,8.014,6.318,33.762,6.318c25.749,0,34.628-5.438,34.628-6.318
				c0-0.88-12.723-4.879-34.195-4.879C396.134,248.144,383.573,251.744,383.412,253.023z"/>
			<path style="fill:#8E3A3A;" d="M453.732,253.061c-0.382,8.321-2.813,32.733-18.088,42.676
				c-13.468,8.766-38.897,10.327-51.835,10.524c0.455,0.581,0.943,1.082,1.472,1.485c10.503,8.021,53.282,8.021,63.786,0
				C459.003,300.159,455.439,259.424,453.732,253.061z"/>
		</g>
		<g>
			<g>
				<g>
					<path style="fill:#65894B;" d="M436.017,252.169c-6.899-2.128-9.644-13.751-4.87-19.289c4.201-4.774,8.403-9.358,7.448-16.424
						c-0.383-3.056-2.101-5.729-2.292-8.785c-0.19-3.82,0.764-7.64,2.101-11.077c3.438-8.212,12.642-16.19,21.581-11.649
						c7.799,3.962-1.336,14.323-1.336,20.435c0,5.156,3.245,9.548,3.818,14.514c1.528,14.324-14.896,15.279-18.907,25.783
						C442.604,248.54,439.307,253.182,436.017,252.169z"/>
				</g>
				<g>
					<path style="fill:#3C5629;" d="M436.017,252.169c3.29,1.014,6.588-3.629,7.543-6.493c4.011-10.504,20.435-11.458,18.907-25.783
						c-0.573-4.965-3.818-9.357-3.818-14.514c0-6.112,9.135-16.473,1.336-20.435c0,0-12.031,6.493-12.987,16.997
						c-0.955,10.504,9.363,16.099,0,25.591C433.247,241.473,436.017,252.169,436.017,252.169z"/>
				</g>
			</g>
			<g>
				<g>
					<path style="fill:#3C5629;" d="M400.622,149.39c9.331-3.479,18.62,11.078,18.62,19.48c0,3.056-1.528,7.448-0.764,10.504
						c1.146,4.011,7.065,6.685,10.121,8.976c6.876,5.348,12.224,14.133,10.887,23.3c-1.147,7.066-6.876,10.313-9.741,16.233
						c-2.291,5.156,1.911,9.74,1.72,15.087c-0.382,5.73-9.082,11.655-14.801,11.268c-9.385-0.635-12.509-14.324-10.6-21.39
						c2.291-8.594,7.639-16.615,6.302-26.164C409.884,189.114,374.137,159.262,400.622,149.39z"/>
				</g>
				<g>
					<path style="fill:#65894B;" d="M416.664,254.238c-9.385-0.635-12.509-14.324-10.6-21.39c2.291-8.594,7.639-16.615,6.302-26.164
						c-2.482-17.57-38.229-47.422-11.744-57.294c0,0,7.161,7.067,6.97,17.379c-0.19,10.313,0.956,17.187,9.932,28.646
						c8.976,11.459,6.493,20.435,1.91,30.366C414.85,235.713,416.664,254.238,416.664,254.238z"/>
				</g>
			</g>
			<g>
				<g>
					<path style="fill:#3C5629;" d="M405.655,254.488c6.594-2.94,7.924-14.808,2.519-19.734c-4.743-4.235-9.465-8.281-9.364-15.411
						c0.012-3.08,1.397-5.94,1.221-8.997c-0.268-3.815-1.676-7.493-3.415-10.745c-4.397-7.74-14.493-14.556-22.823-8.975
						c-7.267,4.87,3.046,14.059,3.779,20.127c0.619,5.119-2.077,9.869-2.049,14.867c0.202,14.404,16.621,13.38,21.864,23.328
						C398.679,251.676,402.511,255.89,405.655,254.488z"/>
				</g>
				<g>
					<path style="fill:#65894B;" d="M405.655,254.488c-3.145,1.402-6.977-2.811-8.268-5.54c-5.243-9.947-21.662-8.924-21.864-23.328
						c-0.028-4.999,2.668-9.749,2.049-14.867c-0.733-6.068-11.046-15.257-3.779-20.127c0,0,12.724,5.003,14.933,15.316
						c2.209,10.313-7.363,17.106,3.071,25.406C407.121,243.539,405.655,254.488,405.655,254.488z"/>
				</g>
			</g>
		</g>
	</g>
</g>
</svg>
