<?xml version="1.0" encoding="utf-8"?>
<!-- Generator: Adobe Illustrator 27.5.0, SVG Export Plug-In . SVG Version: 6.00 Build 0)  -->
<svg version="1.1" xmlns="http://www.w3.org/2000/svg" xmlns:xlink="http://www.w3.org/1999/xlink" x="0px" y="0px"
	 viewBox="0 0 500 500" style="enable-background:new 0 0 500 500;" xml:space="preserve">
<g id="BACKGROUND">
	<rect x="0" style="fill:transparent;" width="500" height="500"/>
</g>
<g id="OBJECTS">
	<g>
		<path style="fill:#E3EDFC;" d="M465.107,194.854c-6.072-68.656-68.144-120.116-136.733-113.329
			c-41.655,4.122-76.497,28.259-95.941,61.94c-11.244,19.476-33.011,30.224-55.271,27.026c-9.929-1.426-20.193-1.671-30.628-0.598
			c-67.817,6.972-117.85,67.788-111.609,135.676c6.353,69.107,67.745,119.715,136.693,112.893
			c41.772-4.133,76.693-28.395,96.105-62.224c11.194-19.508,33.377-29.764,55.654-26.665c9.605,1.336,19.52,1.567,29.596,0.57
			C421.188,323.392,471.132,262.97,465.107,194.854z"/>
	</g>
	<g>
		<g>
			<g>
				<path style="fill:#EAA98C;" d="M332.448,422.798c0,0-43.713-64.285-27.722-129.177l-137.174,53.887
					c30.96-1.885,35.382,41.289,34.346,73.927c-23.954,36.485-18.583,55.633-18.583,55.633l43.024-27.298L332.448,422.798z"/>
				<path style="fill:#B28170;" d="M243.376,317.722l-29.074,11.421l-46.749,18.365c22.633-1.378,31.082,21.325,33.586,46.388
					C215.667,347.058,243.376,317.722,243.376,317.722z"/>
				<g>
					<path style="fill:#1C1C26;" d="M231.506,361.341c-0.367,3.064-1.066,6.015-1.829,8.944c-0.806,2.915-1.677,5.808-2.714,8.645
						c-0.498,1.425-0.998,2.85-1.551,4.257c-0.526,1.416-1.087,2.82-1.671,4.216c-1.168,2.792-2.394,5.565-3.847,8.261
						c0.482-3.024,1.191-5.972,1.959-8.9c0.384-1.464,0.79-2.92,1.232-4.365c0.415-1.453,0.883-2.889,1.352-4.324
						c0.899-2.884,1.963-5.711,3.092-8.517C228.701,366.768,229.937,363.998,231.506,361.341z"/>
				</g>
				<path style="fill:none;stroke:#1C1C26;stroke-width:3.15;stroke-miterlimit:10;" d="M332.448,422.798
					c0,0-43.713-64.285-27.722-129.177l-137.174,53.887c30.96-1.885,35.382,41.289,34.346,73.927
					c-23.954,36.485-18.583,55.633-18.583,55.633l43.024-27.298L332.448,422.798z"/>
			</g>
		</g>
		<g>
			<g>
				<path style="fill:#99604A;" d="M162.579,135.854c-47.303-26.372-27.936-62.478-11.042-61.937c0,0,2.472-40.527,26.921-38.604
					c0,0,31.635-31.316,59.77,3.846c0,0,9.73-4.945,17.146,6.043c0,0,34.442-2.735,46.425,24.723c0,0,34.613-7.117,51.095,20.478
					c0,0,22.8,7.15,37.359,27.949c14.559,20.798,24.449,90.848-3.846,119.417L162.579,135.854z"/>
				<path style="fill:#BA7661;" d="M215.869,109.276c0,0,27.686-41.096,23.3-70.5c-0.601,0.209-0.941,0.382-0.941,0.382
					c-9.496-11.868-19.389-16.156-28.331-16.638C231.882,31.834,244.901,62.156,215.869,109.276z"/>
				<path style="fill:#BA7661;" d="M172.897,86.014c-2.608-8.396-12.905-12.255-23.693-11.943
					c-8.526,1.368-16.875,11.444-16.287,24.352c6.528-18.21,40.086-13.536,33.867,27.542
					C166.783,125.964,178.599,104.369,172.897,86.014z"/>
				<path style="fill:#BA7661;" d="M191.507,95.266l7.005-1.854c0,0,12.678-23.454,1.396-44.448
					c-4.651-8.654-12.813-12.698-21.291-13.805c-0.101,0.096-0.159,0.153-0.159,0.153c-12.073-0.95-18.785,8.453-22.489,18.214
					C174.146,40.947,202.378,65.662,191.507,95.266z"/>
				<path style="fill:#7F523C;" d="M390.254,118.351c-14.559-20.798-37.36-27.949-37.36-27.949
					C336.413,62.808,301.8,69.925,301.8,69.925c-5.715-13.095-16.535-19.315-26.294-22.247c-1.95,5.724-4.178,15.396-0.764,23.483
					c0,0-4.629-6.254-4.533-15.521c0,0-3.453,11.812,2.438,21.839c0,0-6.696-6.181-8.276-13.048c0,0-12.13,27.758,25.904,84.821
					c12.791,19.191,29.086,42.622,45.083,65.272l51.05,23.244C414.703,209.199,404.814,139.15,390.254,118.351z"/>
				<path style="fill:#664436;" d="M390.254,118.351c-14.559-20.798-37.36-27.949-37.36-27.949
					C336.413,62.808,301.8,69.925,301.8,69.925c-1.711-3.92-3.885-7.213-6.346-9.997c0.953,7.748,3.043,17.236,7.629,22.359
					c0,0-7.738-6.5-14.194-18.702c0,0,0.137,14.17,15.521,23.647c0,0-11.4-4.258-17.032-11.263c0,0,2.262,17.052,30.044,42.383
					c19.969,18.207,54.749,81.152,72.732,115.115C413.761,202.713,404.128,138.171,390.254,118.351z"/>
				<path style="fill:none;stroke:#1C1C26;stroke-width:2.6612;stroke-miterlimit:10;" d="M162.579,135.854
					c-47.303-26.372-27.936-62.478-11.042-61.937c0,0,2.472-40.527,26.921-38.604c0,0,31.635-31.316,59.77,3.846
					c0,0,9.73-4.945,17.146,6.043c0,0,34.442-2.735,46.425,24.723c0,0,34.613-7.117,51.095,20.478c0,0,22.8,7.15,37.359,27.949
					c14.559,20.798,24.449,90.848-3.846,119.417L162.579,135.854z"/>
				<path style="fill:none;stroke:#1C1C26;stroke-width:2.6612;stroke-miterlimit:10;" d="M238.229,39.158
					c7.532,37.909-29.828,82.892-72.942,97.928"/>
				<path style="fill:none;stroke:#1C1C26;stroke-width:2.6612;stroke-miterlimit:10;" d="M255.375,45.201
					c0,0,7.417,70.049-74.991,98.759"/>
				<path style="fill:none;stroke:#1C1C26;stroke-width:2.6612;stroke-miterlimit:10;" d="M178.458,35.312
					c49.721,10.713,21.289,83.51-22.43,96.552"/>
				<path style="fill:none;stroke:#1C1C26;stroke-width:2.6612;stroke-miterlimit:10;" d="M151.538,73.916
					c36.81,3.151,24.016,42.328-1.041,53.918"/>
				<path style="fill:none;stroke:#1C1C26;stroke-width:2.6612;stroke-miterlimit:10;" d="M137.625,81.942
					c21.02-9.854,45.367,13.798,27.167,34.988"/>
				<path style="fill:none;stroke:#1C1C26;stroke-width:2.6612;stroke-miterlimit:10;" d="M157.963,48.964
					c16.538-15.849,53.872,5.571,44.051,34.624"/>
				<path style="fill:none;stroke:#1C1C26;stroke-width:2.6612;stroke-miterlimit:10;" d="M197.224,24.229
					c39.197-3.751,45.745,43.284,22.281,74.055"/>
			</g>
			<g>
				<path style="fill:#FFC4A4;" d="M387.857,195.263c-7.322-76.64-77.407-99.055-145.434-104.86
					c-109.538-9.348-112.386,88.517-113.355,103.781c-10.739,18.447-27.328,38.623-38.927,56.221
					c-7.005,10.628,4.121,23.289,24.723,25.056c0,0-5.059,49.564,11.652,68.004c15.293,16.876,46.38,26.209,107.596-6.55
					c2.724,0.151,5.491,0.237,8.311,0.237C315.22,337.152,397.203,293.097,387.857,195.263z"/>
				<g>
					<path style="fill:#1C1C26;" d="M155.722,280.791c-5.166,7.485-11.609,12.902-41.576,11.548
						c0.003,9.262,0.653,20.954,3.173,31.407l0.002,0.001C163.3,325.155,155.722,280.791,155.722,280.791z"/>
					<path style="fill:#F37F8A;" d="M152.636,305.596c-11.115-0.022-20.779,5.709-26.628,17.82
						C141.148,321.695,148.83,313.994,152.636,305.596z"/>
					<path style="fill:#AA616C;" d="M135.387,311.37c-3.695,2.892-6.886,6.884-9.378,12.046c7.964-0.905,13.848-3.474,18.206-6.92
						C138.792,316.933,133.752,315.414,135.387,311.37z"/>
					<path style="fill:#FFFFFF;" d="M114.146,292.339c0.001,3.685,0.108,7.758,0.391,11.981c25.019-0.348,35.451-3.122,40.705-6.933
						c1.794-8.888,0.48-16.596,0.48-16.596C150.556,288.276,144.113,293.693,114.146,292.339z"/>
					<path style="fill:#E3EDFC;" d="M155.722,280.791c-5.166,7.485-11.609,12.902-41.576,11.548c0.001,1.58,0.025,3.243,0.07,4.947
						c29.439-0.255,37.511-1.958,41.868-6.446C156.441,285.029,155.722,280.791,155.722,280.791z"/>
					<path style="fill:none;stroke:#1C1C26;stroke-width:2.9897;stroke-miterlimit:10;" d="M155.722,280.791
						c-5.166,7.485-11.609,12.902-41.576,11.548c0.003,9.262,0.653,20.954,3.173,31.407l0.002,0.001
						C163.3,325.155,155.722,280.791,155.722,280.791z"/>
					<path style="fill:#1C1C26;" d="M147.184,276.419l16.44,7.427C163.624,283.846,161.051,271.927,147.184,276.419z"/>
				</g>
				<path style="fill:#EAA98C;" d="M233.838,204.773c0,0-33.85,35.747-30.331,40.277c3.52,4.53,36.231,20.326,37.868,18.677
					c1.638-1.648,11.664-34.887,11.664-34.887L233.838,204.773z"/>
				<path style="fill:#EAA98C;" d="M242.423,337.152c45.949,0,95.549-17.561,123.541-55.111
					c-18.457-24.905-43.229-46.249-62.486-18.738c-35.132,50.189-61.475,28.794-65.162,31.159
					c-3.687,2.365-32.937,43.573-60.137,48.243c-27.199,4.67-40.555-4.395-40.555-4.395c11.108-5.156,17.344-15.795,17.344-15.795
					s-26.092,10.026-34.91,10.037c1.669,4.214,3.783,7.964,6.457,10.914c15.293,16.876,46.38,26.209,107.596-6.55
					C236.837,337.066,239.603,337.152,242.423,337.152z"/>
				<path style="fill:#EAA98C;" d="M114.372,282.686c17.583-5.751,24.097-20.999-0.206-20.619
					c-16.688,0.261-24.34-2.861-25.12-9.665c-4.492,10.159,6.494,21.4,25.819,23.058
					C114.865,275.461,114.583,278.224,114.372,282.686z"/>
				<g>
					<path style="fill:#1C1C26;" d="M352.6,294.844c7.113-6.953,13.358-14.785,18.45-23.317c5.135-8.512,8.919-17.802,11.545-27.384
						c2.615-9.595,3.987-19.522,4.286-29.482c0.032-1.245,0.108-2.49,0.105-3.736l-0.072-3.74l-0.074-3.74l-0.264-3.734
						l-0.263-3.734c-0.094-1.244-0.29-2.472-0.429-3.709l-0.457-3.705l-0.664-3.669c-1.817-9.762-4.817-19.341-9.468-28.101
						l-1.757-3.274c-0.609-1.078-1.297-2.109-1.941-3.167c-1.249-2.142-2.764-4.107-4.189-6.133
						c-0.705-1.019-1.543-1.937-2.307-2.911c-0.799-0.946-1.523-1.956-2.391-2.843c-1.68-1.822-3.325-3.678-5.154-5.357
						c-3.523-3.494-7.421-6.593-11.412-9.546c-2.054-1.4-4.054-2.878-6.198-4.147c-1.06-0.651-2.103-1.33-3.177-1.958l-3.258-1.826
						c-8.71-4.845-18.024-8.576-27.513-11.704c-9.501-3.124-19.265-5.452-29.111-7.319c-9.852-1.856-19.803-3.219-29.799-4.174
						c-5.006-0.54-9.983-0.733-14.971-1.009l-7.481,0.021c-1.249-0.03-2.49,0.068-3.732,0.155l-3.727,0.248
						c-9.915,0.798-19.752,2.732-29.014,6.249c-1.149,0.458-2.343,0.812-3.456,1.353l-3.361,1.569l-1.681,0.784
						c-0.562,0.258-1.081,0.598-1.624,0.892l-3.224,1.829c-1.1,0.57-2.083,1.325-3.115,2.003l-3.062,2.085l-2.895,2.312
						l-1.448,1.155c-0.481,0.387-0.912,0.832-1.37,1.245l-2.713,2.524c-0.899,0.847-1.697,1.796-2.55,2.688
						c-1.739,1.76-3.228,3.741-4.792,5.655c-2.951,3.965-5.722,8.089-7.991,12.505l-0.884,1.636
						c-0.287,0.549-0.537,1.119-0.807,1.677l-1.587,3.367c-0.938,2.3-1.951,4.57-2.752,6.926c-0.89,2.322-1.594,4.711-2.35,7.081
						c-0.661,2.4-1.345,4.794-1.888,7.227c-2.295,9.718-3.453,19.626-3.957,29.673l-0.018,0.369l-0.194,0.331
						c-4.721,8.041-9.984,15.693-15.372,23.216L98.815,240.63c-1.33,1.878-2.665,3.754-3.962,5.651l-1.94,2.847l-0.958,1.43
						l-0.479,0.715l-0.397,0.66c-1.036,1.767-1.549,3.751-1.413,5.723c0.124,1.974,0.911,3.909,2.098,5.612
						c2.411,3.43,6.225,5.908,10.27,7.597c4.087,1.682,8.505,2.618,12.966,3.011l0.001,0l1.581,0.165l-0.134,1.582
						c-0.321,3.789-0.473,7.669-0.555,11.511c-0.085,3.851-0.055,7.703,0.088,11.546c0.289,7.683,1.073,15.349,2.658,22.798
						c0.809,3.716,1.834,7.38,3.248,10.853c1.416,3.464,3.22,6.752,5.574,9.508c4.909,5.596,11.347,9.81,18.396,12.297
						c7.062,2.539,14.737,3.308,22.327,2.945l1.426-0.026c0.475-0.024,0.949-0.091,1.424-0.135l2.847-0.294l2.849-0.293
						c0.946-0.134,1.885-0.332,2.827-0.494c1.881-0.355,3.774-0.653,5.648-1.054l5.583-1.418c0.928-0.246,1.868-0.449,2.787-0.731
						l2.748-0.885l5.497-1.769c3.612-1.341,7.207-2.741,10.799-4.151c3.534-1.556,7.115-3.01,10.699-4.482
						c3.538-1.573,7.11-3.091,10.794-4.435c-3.239,2.177-6.591,4.178-9.976,6.125c-3.426,1.865-6.97,3.511-10.498,5.185
						c-1.777,0.811-3.62,1.474-5.427,2.218c-1.82,0.713-3.621,1.476-5.458,2.148l-5.571,1.868l-2.786,0.933
						c-0.933,0.298-1.892,0.519-2.837,0.782l-5.691,1.518c-1.916,0.434-3.859,0.766-5.789,1.153
						c-0.968,0.179-1.93,0.392-2.903,0.542l-2.942,0.34l-2.943,0.339c-0.491,0.051-0.98,0.125-1.473,0.156l-1.485,0.047
						c-7.884,0.469-15.992-0.221-23.613-2.852c-7.597-2.638-14.576-7.189-19.928-13.269c-2.702-3.152-4.668-6.768-6.196-10.478
						c-1.522-3.721-2.601-7.566-3.451-11.433c-1.688-7.745-2.351-15.609-2.609-23.44c-0.228-7.848-0.02-15.646,0.747-23.498
						l1.447,1.747l-0.001,0c-4.729-0.418-9.451-1.406-13.913-3.243c-4.416-1.859-8.714-4.554-11.665-8.72
						c-1.446-2.07-2.491-4.563-2.66-7.213c-0.19-2.645,0.529-5.317,1.83-7.527l0.497-0.823l0.485-0.723l0.969-1.447l1.96-2.876
						c1.309-1.915,2.652-3.802,3.99-5.692l16.26-22.435c5.365-7.488,10.577-15.074,15.21-22.965l-0.213,0.7
						c0.94-20.176,4.956-40.735,14.591-58.882c2.344-4.557,5.211-8.833,8.275-12.945c1.622-1.99,3.171-4.042,4.977-5.876
						c0.887-0.928,1.719-1.912,2.653-2.794l2.822-2.627c0.477-0.43,0.926-0.892,1.427-1.295l1.507-1.203l3.015-2.405l3.186-2.172
						c1.074-0.705,2.1-1.488,3.241-2.083l3.352-1.903c0.564-0.306,1.106-0.657,1.688-0.926l1.745-0.815l3.49-1.628
						c1.156-0.56,2.389-0.93,3.581-1.404c9.596-3.644,19.733-5.629,29.892-6.447l3.817-0.254c1.272-0.089,2.545-0.187,3.818-0.158
						l7.64-0.021c5.075,0.278,10.178,0.481,15.198,1.023c10.074,0.962,20.119,2.337,30.081,4.214
						c9.957,1.888,19.849,4.245,29.506,7.42c9.645,3.18,19.138,6.979,28.06,11.94l3.337,1.871c1.101,0.644,2.172,1.34,3.259,2.008
						c2.197,1.302,4.257,2.821,6.366,4.261c4.107,3.037,8.122,6.231,11.762,9.839c1.887,1.735,3.59,3.651,5.326,5.536
						c0.896,0.918,1.648,1.961,2.474,2.941c0.792,1.007,1.656,1.959,2.387,3.013c1.477,2.095,3.041,4.132,4.337,6.348
						c0.667,1.094,1.378,2.163,2.008,3.279l1.819,3.388c4.811,9.068,7.907,18.958,9.773,28.99l0.681,3.771l0.47,3.799
						c0.143,1.267,0.342,2.532,0.439,3.801l0.269,3.808l0.268,3.808l0.077,3.819l0.072,3.819c0.003,1.273-0.073,2.547-0.106,3.82
						c-0.306,10.184-1.711,20.363-4.397,30.222c-2.697,9.845-6.594,19.408-11.878,28.17c-5.24,8.783-11.666,16.84-18.971,23.979
						L352.6,294.844z"/>
				</g>
			</g>
			<g>
				<g>
					<path style="fill:#7F523C;" d="M159.091,115.652c20.741-6.719,32.935,11.145,37.33,32.022c0,0,0.855,18.877,27.913,29.934
						c0,0,1.103,0.188,7.692,3.121c10.576,4.708-10.336,56.078-10.336,56.078l30.228,9.752c0,0,26.834,6.089,38.358,19.801
						c11.524,13.712-1.936,48.05,3.833,61.785l5.219-11.538c0,0-3.022,23.899,23.624,38.458c0,0-1.374-20.603,12.362-31.866
						c13.735-11.263,63.456-47.382,56.039-126.018c-7.417-78.636-73.36-102.654-113.528-109.805
						C237.657,80.226,163.142,88.858,159.091,115.652z"/>
					<path style="fill:#664436;" d="M257.586,248.111c0.701-14.836,1.361-47.016,1.361-47.016l-8.883,18.679
						c2.809-10.23,2.427-25.547,2.427-25.547l-7.417,20.328v-8.516l-6.757,16.556c4.78-17.095,4.285-31.664,4.285-31.664
						c-2.884,12.636-8.104,22.451-8.104,22.451s-0.252-5.514-1.388-11.537c-3.681,15.952-11.42,34.962-11.42,34.962l30.228,9.752
						C251.917,246.559,254.146,247.066,257.586,248.111z"/>
					<path style="fill:#99604A;" d="M321.779,114.469c0.49,0.441,0.973,0.885,1.448,1.331l-29.393-10.027l28.569,26.091
						l-15.109-9.196c0,0,20.603,23.762,26.509,37.772c0,0-35.025-20.877-69.225-26.646l6.456,5.631l-9.34-2.339l21.839,17.997
						l-23.487-9.889l16.619,14.559l-28.157-11.263c0,0,19.627,22.663,29.318,30.355c0,0-24.236-9.34-42.366-24.723
						c0,0,9.96,12.499,20.089,18.68c0,0-25.786,1.601-40.381-13.003c-14.595-14.604-20.226-39.602-20.226-39.602l12.087,13.735
						l-7.692-20.053c0,0,18.376,6.318,33.774,20.053c0,0-6.166-7.829-16.605-16.208l21.015,7.005c0,0-15.383-12.087-30.217-17.856
						c0,0,25.959-1.236,56.177,6.868l-16.482-7.829c0,0,17.781,1.099,28.6,5.082l-22.007-8.928l19.779,2.472L247.684,93
						c0,0,6.049-0.69,14.899-0.736C284.371,92.151,305.588,99.887,321.779,114.469z"/>
					<path style="fill:#664436;" d="M304.736,94.123c18.582,12.314,44.204,32.294,56.538,55.424c0,0-19.985-23.522-50.271-32.618
						c0,0,17.512,13.155,28.844,28.813l-17.718-11.744c0,0,25.135,28.02,26.99,61.19c0,0-20.823-39.557-71.292-49.035
						c0,0,18.549,10.301,31.529,26.371l-24.517-14.216l16.688,17.306l-34.407-12.156c0,0,22.869,23.487,45.326,39.145
						c0,0-35.51-15.246-44.229-23.899c0,0,13.326,24.86,31.662,41.068l-13.805,42.43c1.541,1.3,2.964,2.681,4.203,4.155
						c11.524,13.712-1.936,48.05,3.833,61.785l5.219-11.538c0,0-3.022,23.899,23.624,38.458c0,0-1.373-20.603,12.362-31.866
						c13.735-11.263,63.456-47.382,56.039-126.018C385.44,134.492,342.329,106.515,304.736,94.123z"/>
					<path style="fill:#664436;" d="M159.091,115.652c7.456-2.415,13.801-1.642,19.083,1.294c4.538-3.232,12.371-1.558,12.371-1.558
						s-2.198-2.472-8.379-5.631c0,0,14.01-1.236,23.762,2.198c0,0-6.73-7.005-16.62-9.889c0,0,37.36-2.198,53.567,0.549
						c0,0-17.856-6.315-28.706-8.034c0,0,25.931-6.816,58.478-8.01C231.587,80.977,162.974,89.97,159.091,115.652z"/>
					<path style="fill:none;stroke:#1C1C26;stroke-width:2.6612;stroke-miterlimit:10;" d="M159.091,115.652
						c20.741-6.719,32.935,11.145,37.33,32.022c0,0,0.855,18.877,27.913,29.934c0,0,1.103,0.188,7.692,3.121
						c10.576,4.708-10.336,56.078-10.336,56.078l30.228,9.752c0,0,26.834,6.089,38.358,19.801
						c11.524,13.712-1.936,48.05,3.833,61.785l5.219-11.538c0,0-3.022,23.899,23.624,38.458c0,0-1.374-20.603,12.362-31.866
						c13.735-11.263,63.456-47.382,56.039-126.018c-7.417-78.636-73.36-102.654-113.528-109.805
						C237.657,80.226,163.142,88.858,159.091,115.652z"/>
				</g>
				<g>
					<path style="fill:#1C1C26;" d="M277.825,146.155c5.895,0.684,11.715,2.109,17.357,4.021c5.654,1.897,11.151,4.291,16.418,7.133
						c5.256,2.861,10.288,6.158,14.994,9.887c4.701,3.735,9.044,7.93,12.982,12.482c3.921,4.575,7.253,9.628,10.181,14.88
						l2.074,4.008l1.806,4.133c0.641,1.361,1.115,2.788,1.625,4.201c0.482,1.421,1.071,2.808,1.463,4.257
						c3.481,11.487,4.792,23.57,3.86,35.403c-0.374-2.955-0.551-5.902-0.916-8.827l-0.62-4.375l-0.286-2.184l-0.421-2.163
						l-0.815-4.321c-0.273-1.438-0.707-2.842-1.03-4.266c-0.599-2.866-1.579-5.623-2.41-8.417c-0.406-1.401-1.006-2.736-1.499-4.106
						c-0.52-1.361-1.004-2.736-1.651-4.042l-1.822-3.967l-2.075-3.837c-2.845-5.064-6.098-9.912-9.877-14.334
						c-7.505-8.88-16.657-16.374-26.801-22.198C300.209,153.712,289.282,149.158,277.825,146.155z"/>
				</g>
				<g>
					<path style="fill:#1C1C26;" d="M349.323,173.74c4.993,6.559,8.676,14.053,11.666,21.743c1.493,3.855,2.742,7.803,3.821,11.796
						c0.49,2.009,1.007,4.012,1.473,6.028l1.1,6.106c0.415,2.028,0.587,4.092,0.838,6.144c0.206,2.057,0.517,4.103,0.559,6.173
						l0.282,6.19c0.059,2.063-0.074,4.13-0.102,6.191c0.004,4.129-0.548,8.23-0.983,12.319c-0.165,2.051-0.655,4.064-0.998,6.088
						c-0.363,2.023-0.769,4.036-1.172,6.045c0.179-2.049,0.355-4.093,0.574-6.127c0.177-2.039,0.499-4.059,0.496-6.11
						c0.102-4.089,0.439-8.153,0.234-12.231c0.021-8.149-0.933-16.253-2.211-24.265c-1.312-8.021-3.45-15.88-5.994-23.596
						c-1.253-3.869-2.747-7.655-4.287-11.433C352.995,181.062,351.299,177.344,349.323,173.74z"/>
				</g>
				<g>
					<path style="fill:#1C1C26;" d="M225.351,237.892l4.449-11.466c1.49-3.822,3.002-7.635,4.443-11.475
						c1.507-3.816,2.918-7.666,4.318-11.522c1.391-3.859,2.749-7.73,3.853-11.695c-0.56,4.086-1.565,8.1-2.626,12.081
						c-1.069,3.983-2.287,7.92-3.527,11.848c-1.299,3.908-2.6,7.816-4.01,11.684c-1.409,3.87-2.852,7.719-4.429,11.533
						L225.351,237.892z"/>
				</g>
				<g>
					<path style="fill:#1C1C26;" d="M317.422,330.961c-0.848-10.309,0.629-20.712,2.707-30.816
						c2.117-10.126,4.87-20.066,7.177-30.049c2.305-9.979,4.095-20.052,4.439-30.208c0.165-5.075-0.074-10.16-0.771-15.208
						c-0.704-5.046-1.898-10.038-3.489-14.951c4.649,9.244,6.783,19.76,6.843,30.188c0.107,10.468-1.804,20.797-4.213,30.84
						c-2.412,10.066-5.435,19.911-7.941,29.858C319.652,310.549,317.632,320.638,317.422,330.961z"/>
				</g>
				<g>
					<path style="fill:#1C1C26;" d="M311.003,116.93c4.311,0.949,8.521,2.373,12.605,4.073c4.092,1.69,8.068,3.673,11.903,5.9
						c3.843,2.217,7.523,4.712,11.078,7.372c3.554,2.662,6.962,5.533,10.111,8.673c6.38,6.196,11.829,13.347,16.149,21.102
						c0.57,0.953,1.065,1.946,1.559,2.94c0.488,0.997,1.02,1.971,1.47,2.984c0.875,2.039,1.822,4.044,2.543,6.143
						c1.603,4.132,2.63,8.473,3.249,12.839c-2.91-8.314-5.793-16.565-10.347-24.031l-1.694-2.789l-1.835-2.699
						c-0.593-0.912-1.258-1.773-1.914-2.64c-0.669-0.857-1.279-1.758-1.995-2.578l-2.085-2.505l-2.179-2.424
						c-0.71-0.822-1.477-1.592-2.237-2.369c-0.763-0.774-1.504-1.568-2.308-2.3c-6.275-6.016-13.245-11.303-20.69-15.83
						C326.941,124.26,319.16,120.257,311.003,116.93z"/>
				</g>
				<g>
					<path style="fill:#1C1C26;" d="M362.388,295.408l2.817-4.771l1.421-2.376c0.233-0.398,0.483-0.787,0.702-1.193l0.616-1.239
						l2.468-4.952c0.891-1.619,1.546-3.345,2.262-5.044c0.691-1.708,1.46-3.388,2.089-5.12l1.753-5.246
						c0.639-1.733,1.035-3.536,1.528-5.313c0.449-1.787,1.026-3.548,1.327-5.37l1.073-5.432l0.734-5.489
						c0.394-3.671,0.64-7.361,0.697-11.057c0.141-7.394-0.257-14.813-1.51-22.192c2.495,7.089,3.46,14.667,3.618,22.19
						c0.108,3.771-0.123,7.543-0.426,11.302l-0.631,5.627l-0.977,5.579c-0.27,1.873-0.818,3.686-1.24,5.527
						c-0.453,1.834-0.86,3.684-1.504,5.463l-1.771,5.386c-0.636,1.779-1.413,3.504-2.113,5.258
						c-1.315,3.552-3.179,6.852-4.874,10.226l-0.646,1.261c-0.229,0.413-0.488,0.808-0.73,1.213l-1.479,2.415l-2.982,4.811
						L362.388,295.408z"/>
				</g>
				<g>
					<path style="fill:#1C1C26;" d="M207.302,106.872c9.107-0.919,18.303-0.534,27.402,0.411c9.101,0.985,18.164,2.484,27.057,4.742
						c2.23,0.536,4.437,1.164,6.644,1.789c2.19,0.686,4.389,1.341,6.553,2.11c2.181,0.714,4.319,1.556,6.471,2.354
						c2.122,0.876,4.258,1.721,6.336,2.702c4.198,1.865,8.271,4.005,12.249,6.299l2.931,1.811c0.951,0.645,1.892,1.306,2.812,1.994
						c1.877,1.32,3.585,2.885,5.246,4.47c-4.121-2.085-7.965-4.438-11.953-6.589c-3.955-2.192-7.999-4.233-12.165-6
						c-8.294-3.618-16.918-6.464-25.685-8.739c-8.769-2.285-17.706-3.946-26.71-5.091
						C225.477,108.025,216.425,107.277,207.302,106.872z"/>
				</g>
				<g>
					<path style="fill:#1C1C26;" d="M321.029,191.735c3.956,3.331,7.136,7.503,9.902,11.872c1.366,2.203,2.618,4.48,3.726,6.825
						l1.602,3.547l1.359,3.646c0.486,1.204,0.806,2.464,1.206,3.697c0.36,1.245,0.76,2.479,1.018,3.751l0.859,3.788
						c0.246,1.27,0.4,2.558,0.604,3.833c0.455,2.545,0.534,5.14,0.71,7.706c0.112,1.282,0.033,2.577,0.017,3.862
						c-0.023,1.286-0.074,2.57-0.126,3.849c-0.178-1.276-0.355-2.546-0.504-3.815c-0.185-1.266-0.239-2.538-0.508-3.79
						c-0.464-2.508-0.786-5.023-1.41-7.486c-0.994-4.971-2.548-9.791-4.219-14.543c-1.731-4.74-3.858-9.319-6.217-13.783
						C326.697,200.218,324.055,195.892,321.029,191.735z"/>
				</g>
				<path style="fill:#7F523C;" d="M321.029,184.933c0,0,24.472,19.664,28.294,51.018
					C349.323,235.951,356.412,199.858,321.029,184.933z"/>
				<path style="fill:#7F523C;" d="M345.929,156.983c0,0,24.249,30.012,28.12,64.167
					C374.049,221.15,380.518,180.983,345.929,156.983z"/>
				<path style="fill:#7F523C;" d="M346.336,258.596c0,0-1.683,22.362-12.533,45.761
					C333.803,304.358,352.891,287.659,346.336,258.596z"/>
			</g>
			<path style="fill:#EAA98C;" d="M144.393,184.933c21.487-23.439,42.698-5.971,48.798,14.962c6.1,20.933-40.341,1.941-40.341,1.941
				L144.393,184.933z"/>
			<g>
				<path style="fill:#FFFFFF;" d="M149.185,241.901c28.63,0,33.859-31.287,33.859-31.287s-12.255-25.752-33.859-25.752
					c0,0-8.706,5.729-8.706,28.519C140.479,236.172,149.185,241.901,149.185,241.901z"/>
				<path style="fill:#E3EDFC;" d="M149.185,184.863c0,0-4.549,2.999-7.07,13.27c7.641,6.431,30.336,0.372,40.836,12.966
					c0.062-0.304,0.093-0.484,0.093-0.484S170.789,184.863,149.185,184.863z"/>
				<ellipse style="fill:#1C1C26;" cx="149.316" cy="213.382" rx="11.691" ry="28.449"/>
				<ellipse style="fill:#FFFFFF;" cx="160.057" cy="204.773" rx="4.113" ry="6.196"/>
				<path style="fill:#1C1C26;" d="M181.047,205.231c-0.884-1.701-1.891-3.339-2.96-4.946c-2.168-3.191-4.731-6.159-7.68-8.769
					c-0.762-0.622-1.465-1.327-2.285-1.883l-2.431-1.724c-0.833-0.543-1.722-1.002-2.587-1.508
					c-0.438-0.243-0.869-0.503-1.315-0.733l-1.38-0.602c-4.12-2.024-9.229-2.989-13.24-3.613l-7.103,8.099l8.273-1.712
					c3.458,0.216,6.99,0.548,10.308,1.76l1.269,0.384c0.412,0.158,0.812,0.345,1.221,0.516c0.808,0.36,1.646,0.672,2.441,1.072
					l2.348,1.298c0.8,0.414,1.5,0.986,2.261,1.472c2.973,2.048,5.73,4.499,8.17,7.275c1.206,1.398,2.371,2.846,3.428,4.377
					c1.073,1.527,2.048,3.097,3.258,4.619C182.741,208.686,181.958,206.909,181.047,205.231z"/>
				<g>
					<path style="fill:#1C1C26;" d="M145.633,184.301c0.58-0.896,1.33-1.651,2.159-2.261c0.836-0.607,1.754-1.031,2.68-1.389
						c1.873-0.654,3.818-0.879,5.724-0.876c3.823,0.037,7.525,1.017,10.941,2.518c3.415,1.518,6.553,3.606,9.257,6.137
						c1.355,1.262,2.58,2.653,3.708,4.107c1.117,1.465,2.068,3.043,2.941,4.646c-1.028-1.514-2.169-2.935-3.363-4.297
						c-1.221-1.341-2.539-2.58-3.916-3.74c-2.784-2.283-5.897-4.14-9.209-5.464c-3.318-1.287-6.855-2.053-10.346-1.996
						c-1.74,0.043-3.459,0.327-5.032,0.891c-0.768,0.314-1.513,0.672-2.151,1.153c-0.631,0.483-1.171,1.05-1.579,1.695
						L145.633,184.301z"/>
				</g>
			</g>
			<g>
				<path style="fill:#7F523C;" d="M203.507,186.536c0,0-22.085-19.826-27.743-24.771c-5.657-4.945-33.265,0.893-44.116-2.129
					c-10.851-3.022-7.142,11.812,0,14.834c7.142,3.022,40.244-1.648,42.167-0.824C175.739,174.47,203.507,186.536,203.507,186.536z"
					/>
				<path style="fill:#5B3C31;" d="M131.649,174.47c7.142,3.022,40.244-1.648,42.167-0.824c1.435,0.615,17.265,7.491,25.204,10.94
					l-27.361-18.447l1.923,3.365c-5.013-3.434-14.492-3.434-14.492-3.434l6.196,2.404c-12.21-3.022-23.844-1.511-23.844-1.511
					l8.104,4.509c-6.524-0.298-14.079-4.303-14.079-4.303l4.599,4.121c0,0-3.945,2.14-15.197-8.257
					C124.5,166.946,127.489,172.71,131.649,174.47z"/>
				<path style="fill:none;stroke:#1C1C26;stroke-width:2.6612;stroke-miterlimit:10;" d="M203.507,186.536
					c0,0-22.085-19.826-27.743-24.771c-5.657-4.945-33.265,0.893-44.116-2.129c-10.851-3.022-7.142,11.812,0,14.834
					c7.142,3.022,40.244-1.648,42.167-0.824C175.739,174.47,203.507,186.536,203.507,186.536z"/>
			</g>
			<g>
				<g>
					<g>
						<path style="fill:#FFC4A4;" d="M312.694,240.512l-0.001-0.001c1.008-4.007,1.351-8.278,0.879-12.695
							c-1.846-17.259-16.119-30.884-33.444-31.95c-20.87-1.284-38.197,15.262-38.197,35.855c0,1.746,0.298,12.426-1.461,15.611
							c-9.365,16.961-9.887,39.702,5.451,47.295c20.529,10.163,52.861-8.771,65.916-51.253c0.32-0.933,0.609-1.88,0.852-2.846
							C312.69,240.524,312.692,240.518,312.694,240.512z"/>
						<g>
							<path style="fill:#1C1C26;" d="M245.921,294.628c2.02,0.445,3.946,0.846,5.884,1.073c1.934,0.228,3.855,0.324,5.777,0.301
								c3.845-0.032,7.688-0.797,11.33-2.129c7.302-2.676,13.846-7.301,19.392-12.84c5.59-5.526,10.265-11.987,14.055-18.924
								c1.881-3.477,3.64-7.033,5.136-10.708c0.759-1.833,1.467-3.688,2.119-5.564l0.978-2.838c0.353-0.969,0.634-1.82,0.909-2.815
								l0.001-0.002l0.613,1.423l-0.001,0l-0.845-0.431l0.224-0.965c1.218-5.257,1.259-10.791,0.033-16.019
								c-1.209-5.233-3.692-10.141-7.089-14.284c-3.408-4.143-7.802-7.458-12.691-9.642c-4.901-2.135-10.293-3.222-15.647-2.929
								c-5.347,0.28-10.612,1.913-15.181,4.729c-4.585,2.801-8.428,6.776-11.293,11.368c-2.876,4.605-4.758,9.784-6.053,15.114
								c-0.631,2.675-1.063,5.402-1.414,8.155c-0.338,2.756-0.487,5.539-0.657,8.349c-0.868-5.555-0.873-11.279,0.031-16.911
								c0.936-5.621,2.874-11.139,5.884-16.072c3.001-4.926,7.091-9.262,12.035-12.356c4.925-3.11,10.652-4.956,16.478-5.32
								c5.824-0.372,11.732,0.693,17.06,3.078c5.32,2.392,10.083,6.009,13.775,10.519c7.532,8.959,10.188,21.647,7.129,32.825
								l-0.621-1.395l0.001,0.001l0.9,0.494l-0.287,0.93l-0.001,0.002c-2.057,7.863-4.951,15.536-8.799,22.748
								c-3.883,7.182-8.685,13.925-14.522,19.728c-5.868,5.727-12.791,10.606-20.698,13.284c-3.933,1.339-8.106,2.113-12.307,2.029
								C253.385,298.509,249.128,297.258,245.921,294.628z"/>
						</g>
					</g>
					<path style="fill:#EAA98C;" d="M294.582,254.986c16.59-31.813-2.408-46.58-18.787-43.284
						c-13.977,2.813-23.212,22.217-7.142,31.969c16.07,9.752,3.296,26.509-4.258,19.916c-7.554-6.593-19.229,0.961-7.554,16.482
						C256.84,280.069,274.224,287.453,294.582,254.986z"/>
					<path style="fill:#B28170;" d="M300.907,230.776c-1.036-14.89-13.702-21.37-25.112-19.073
						c-13.977,2.813-23.212,22.217-7.142,31.969c0.014,0.009,0.026,0.018,0.04,0.027
						C268.436,229.919,287.337,220.738,300.907,230.776z"/>
					<g>
						<path style="fill:#1C1C26;" d="M256.84,280.069c-1.641-0.948-2.908-2.29-3.907-3.826c-0.97-1.553-1.654-3.304-2.098-5.16
							c-0.42-1.853-0.558-3.897,0.071-5.907c0.612-1.995,2.112-3.844,4.095-4.747c1.975-0.929,4.215-0.913,6.169-0.344
							c0.986,0.287,1.899,0.74,2.748,1.27c0.422,0.27,0.826,0.56,1.204,0.881l0.282,0.227l0.203,0.152
							c0.137,0.096,0.262,0.219,0.405,0.299c1.114,0.693,2.421,0.864,3.72,0.401c1.298-0.426,2.504-1.395,3.398-2.591
							c0.902-1.197,1.509-2.643,1.745-4.134c0.219-1.495,0.107-3.046-0.415-4.488c-1.019-2.908-3.376-5.318-6.152-7.064
							c-1.462-0.941-3.07-2.001-4.389-3.309c-1.339-1.307-2.511-2.822-3.384-4.517c-1.782-3.387-2.175-7.443-1.309-11.109
							c0.845-3.687,2.786-7.024,5.358-9.709c2.576-2.683,5.837-4.751,9.469-5.786c3.631-0.969,7.397-1.087,11.055-0.353
							c3.625,0.77,7.169,2.338,9.961,4.872c1.402,1.247,2.636,2.681,3.659,4.25c0.998,1.586,1.778,3.291,2.366,5.049
							c1.105,3.542,1.426,7.262,1.056,10.859c-0.348,3.603-1.27,7.096-2.592,10.387c-1.317,3.295-2.989,6.417-4.977,9.312
							c2.412-6.571,4.623-13.164,5.02-19.893c0.102-1.674,0.074-3.342-0.087-4.99c-0.191-1.643-0.528-3.258-1.043-4.807
							c-0.545-1.537-1.247-3.007-2.128-4.361c-0.905-1.337-1.983-2.546-3.201-3.595c-2.431-2.112-5.452-3.515-8.628-4.181
							c-3.174-0.651-6.558-0.536-9.66,0.289c-6.173,1.719-11.405,7.045-12.898,13.292c-0.749,3.109-0.44,6.416,1.009,9.23
							c0.714,1.41,1.687,2.694,2.832,3.83c1.163,1.156,2.468,2.043,3.933,2.987c3.093,1.917,5.98,4.688,7.327,8.403
							c0.682,1.835,0.851,3.863,0.593,5.813c-0.276,1.951-1.027,3.833-2.192,5.437c-1.164,1.596-2.747,2.978-4.757,3.692
							c-1.975,0.785-4.483,0.516-6.307-0.672c-0.234-0.138-0.434-0.313-0.65-0.47l-0.546-0.426c-0.287-0.245-0.591-0.461-0.905-0.66
							c-0.629-0.388-1.291-0.717-1.983-0.914c-1.377-0.4-2.837-0.355-4.051,0.185c-1.217,0.538-2.125,1.589-2.575,2.908
							c-0.448,1.326-0.457,2.883-0.153,4.424c0.28,1.556,0.926,3.066,1.581,4.59C255.749,276.644,256.411,278.214,256.84,280.069z"
							/>
					</g>
				</g>
				<g>
					<path style="fill:#1C1C26;" d="M261.056,221.483c1.365-1.927,3.312-3.401,5.431-4.352c2.128-0.961,4.452-1.332,6.729-1.326
						c2.283,0.016,4.554,0.431,6.677,1.249c2.116,0.832,4.086,2.04,5.773,3.565c3.391,3.06,5.427,7.438,5.841,11.824
						c0.444,4.41-0.555,8.742-2.252,12.606c0.633-4.183,0.968-8.36,0.189-12.309c-0.735-3.925-2.619-7.567-5.607-10.046
						c-1.466-1.256-3.166-2.233-4.98-2.894c-1.803-0.691-3.739-1.035-5.658-1.042c-1.919-0.002-3.828,0.339-5.57,1.039
						c-1.734,0.721-3.26,1.844-4.44,3.274L261.056,221.483z"/>
				</g>
			</g>
		</g>
		<g>
			<g>
				<path style="fill:#D3ED64;" d="M336.113,400.968c24,3.951,38.568,52.049,38.568,99.032H144.205l28.951-49.516l20.892-13.049
					L336.113,400.968z"/>
			</g>
			<path style="fill-rule:evenodd;clip-rule:evenodd;fill:#A0BF41;" d="M189.017,463.107L155.722,500h56.966
				c6.143-13.247,15.382-29.949,24.844-35.21c16.457-9.15,104.461-51.503,104.461-51.503l6.174-6.112
				c-3.691-3.33-7.718-5.492-12.055-6.206l-142.064,36.467l-13.187,8.237L189.017,463.107z"/>
			<path style="fill:#1C1C26;" d="M336.356,399.493l-0.311-0.052l-142.368,36.545l-0.224,0.058l-21.401,13.367L142.473,500h3.464
				l28.324-48.444l20.384-12.73l141.529-36.33c23.176,4.216,37.013,52.764,37.013,97.505h2.99
				C376.176,454.454,362.22,403.751,336.356,399.493z"/>
		</g>
		<g>
			<path style="fill:#D3ED64;" d="M351.947,409.665l-19.665-40.935c0,0-90.972,2.511-158.538,64.446l28.138,37.55
				C201.882,470.727,284.495,433.87,351.947,409.665z"/>
			<path style="fill:none;stroke:#1C1C26;stroke-width:2.9897;stroke-miterlimit:10;" d="M351.947,409.665l-19.665-40.935
				c0,0-90.972,2.511-158.538,64.446l28.138,37.55C201.882,470.727,284.495,433.87,351.947,409.665z"/>
		</g>
		<path style="fill:none;stroke:#1C1C26;stroke-width:2;stroke-miterlimit:10;" d="M184.951,423.595l22.452,31.646
			c0,0,99.926-42.852,139.938-55.162"/>
		
			<line style="fill:none;stroke:#1C1C26;stroke-width:2.9897;stroke-miterlimit:10;" x1="275.613" y1="439.285" x2="271.662" y2="473.048"/>
		<path style="fill:#1C1C26;" d="M263.458,471.128c-18.71,1.083-35.406,11.538-47.148,28.872h3.651
			c11.143-15.552,26.533-24.895,43.67-25.888c19.359-1.121,38.105,8.559,51.438,25.888h3.738
			C304.807,480.74,284.49,469.894,263.458,471.128z"/>
		<path style="fill:#1C1C26;" d="M220.762,478.751c-1.849,2.206-3.758,4.38-5.489,6.692c-1.632,2.382-3.43,4.662-4.848,7.193
			l-1.646,2.733l0.521-1.197l1.922-3.79l0.963-1.896c0.337-0.624,0.715-1.225,1.066-1.841l2.123-3.694
			c0.681-1.25,1.507-2.411,2.254-3.622l2.259-3.635c1.606-2.358,3.207-4.73,4.743-7.176c-1.98,2.079-3.918,4.215-5.809,6.396
			c-1.736,2.296-3.533,4.563-5.146,6.96c-1.511,2.461-3.192,4.829-4.48,7.428l-2.052,3.831l-1.806,3.959
			c-0.418,0.962-0.814,1.934-1.2,2.91h4.913l1.237-2.493l2.11-3.689l1.057-1.845c0.368-0.606,0.776-1.187,1.157-1.785l2.306-3.583
			c0.742-1.214,1.626-2.332,2.433-3.504l2.439-3.517c1.722-2.274,3.44-4.563,5.097-6.928
			C224.803,474.632,222.76,476.668,220.762,478.751z"/>
		<path style="fill:none;stroke:#1C1C26;stroke-width:2.9897;stroke-miterlimit:10;" d="M313.896,496.105
			c39.83-5.444,58.497-28.405,58.497-28.405"/>
		<polygon style="fill:#1C1C26;" points="171.192,500 174.774,500 198.035,464.753 195.54,463.107 		"/>
	</g>
</g>
</svg>
