<?xml version="1.0" encoding="utf-8"?>
<!-- Generator: Adobe Illustrator 27.5.0, SVG Export Plug-In . SVG Version: 6.00 Build 0)  -->
<svg version="1.1" xmlns="http://www.w3.org/2000/svg" xmlns:xlink="http://www.w3.org/1999/xlink" x="0px" y="0px"
	 viewBox="0 0 500 500" style="enable-background:new 0 0 500 500;" xml:space="preserve">
<g id="BACKGROUND">
	<rect x="0" style="fill:#FFFFFF;" width="500" height="500"/>
</g>
<g id="OBJECTS">
	<g>
		<path style="fill:#E3EDFC;" d="M465.107,194.854c-6.072-68.656-68.144-120.116-136.733-113.329
			c-41.655,4.122-76.497,28.259-95.941,61.94c-11.244,19.476-33.011,30.224-55.271,27.026c-9.929-1.426-20.193-1.671-30.628-0.598
			c-67.817,6.972-117.85,67.788-111.609,135.676c6.353,69.107,67.745,119.715,136.693,112.893
			c41.772-4.133,76.693-28.395,96.105-62.224c11.194-19.508,33.377-29.764,55.654-26.665c9.605,1.336,19.52,1.567,29.596,0.57
			C421.188,323.392,471.132,262.97,465.107,194.854z"/>
	</g>
	<g>
		<g>
			<g>
				<path style="fill:#C6946D;" d="M208.833,435.774C187.342,443.188,159.701,500,159.701,500h120.421l-18.334-64.226H208.833z"/>
				<path style="fill:none;stroke:#1C1C26;stroke-width:2.1214;stroke-miterlimit:10;" d="M280.121,500l-18.334-64.226h-52.955
					C187.342,443.188,159.701,500,159.701,500"/>
			</g>
			<g>
				<polygon style="fill:#83A1CC;" points="205.408,409.014 185.464,434.757 190.513,482.166 219.911,465.988 				"/>
				<polygon style="fill:none;stroke:#1C1C26;stroke-width:2.1214;stroke-miterlimit:10;" points="205.408,409.014 185.464,434.757 
					190.513,482.166 219.911,465.988 				"/>
			</g>
		</g>
		<g>
			<path style="fill:#EAA98C;" d="M176.84,363.411c37.678-3.701,26.786,86.044,26.786,86.044s137.865-18.13,135.238-24.195
				c-28.242-65.194-23.009-96.938-23.009-96.938L176.84,363.411z"/>
			<path style="fill:#EAA98C;" d="M176.84,363.411c37.678-3.701,26.786,86.044,26.786,86.044s137.865-18.13,135.238-24.195
				c-28.242-65.194-23.009-96.938-23.009-96.938L176.84,363.411z"/>
			<path style="fill:#CE8D76;" d="M258.481,342.804l-81.64,20.607c0.003,0,0.006,0,0.009,0
				c37.666-3.685,26.776,86.044,26.776,86.044s4.639-0.61,12.18-1.642C243.34,422.727,227.547,374.873,258.481,342.804z"/>
			<path style="fill:#1C1C26;" d="M237.882,369.103c-5.299,14.914-22.371,37.482-22.371,37.482S232.976,394.025,237.882,369.103z"/>
			<path style="fill:none;stroke:#1C1C26;stroke-width:2.7128;stroke-miterlimit:10;" d="M176.84,363.411
				c37.678-3.701,26.786,86.044,26.786,86.044s137.865-18.13,135.238-24.195c-28.242-65.194-23.009-96.938-23.009-96.938
				L176.84,363.411z"/>
		</g>
		<path style="fill:#EFAC8F;" d="M382.789,208.706c-7.053-73.834-74.335-101.022-140.11-101.022
			c-81.456,0-105.607,40.578-109.249,100.717c-5.117,22.663-10.794,28.732-29.768,53.469c-7.27,9.478-6.968,21.817,13.614,23.672
			c0,0-2.36,48.175,13.739,65.94c16.099,17.766,64.056,35.444,134.509-7.571l-0.001-0.002
			C328.801,335.657,390.823,292.809,382.789,208.706z"/>
		<path style="fill:#CE8D76;" d="M220.585,222.209c18.387,53.419,61.936,33.484,61.936,33.484l-3.549-19.935L220.585,222.209z"/>
		<path style="fill:#CE8D76;" d="M134.472,292.932c57.9,20.89,72.52-15.657,86.113-42.932h14.318c0,0,0.872,77.283-26.07,80.598
			C181.891,333.914,134.472,292.932,134.472,292.932z"/>
		<path style="fill:#CE8D76;" d="M124.178,278.279c-8.832-0.442-19.789-2.088-24.804-6.253c-0.419,6.513,4.332,12.294,17.902,13.517
			c0,0-0.152,3.109-0.115,8.034C128.392,289.748,138.968,279.019,124.178,278.279z"/>
		<path style="fill:#FFBDA6;" d="M111.114,257.772c-10.355,10.115-5.419,13.115,4.936,1.308
			C126.404,247.274,119.63,250.173,111.114,257.772z"/>
		<path style="fill:#CE8D76;" d="M327.526,222.91c0.46,65.29-36.391,93.936-36.391,93.936l9.552-2.839
			c0,0-12.958,22.71-6.506,35.097l1.853-7.405c0,0,2.965,16.633,31.483,14.745c28.518-1.888,59.251-72.63,59.151-73.405
			C386.567,282.265,327.526,222.91,327.526,222.91z"/>
		<path style="fill:#FFBDA6;" d="M139.385,182.521c0.171,2.089,2.564,3.172,4.251,1.928c6.665-4.915,20.292-8.216,30.211-11.374
			c11.55-3.677,23.743-41.223,20.453-41.999s-34.452,7.547-34.645,8.515c-0.194,0.968-18.957,35.419-20.027,39.871
			C139.36,180.576,139.31,181.604,139.385,182.521z"/>
		<g>
			<path style="fill:#1C1C26;" d="M362.288,289.333c2.611-3.782,5.045-7.686,7.187-11.754c0.55-1.009,1.023-2.057,1.539-3.083
				c0.514-1.028,1.015-2.061,1.454-3.124l1.371-3.162l1.224-3.223c0.427-1.067,0.789-2.158,1.139-3.253
				c0.351-1.094,0.731-2.18,1.059-3.281c0.595-2.221,1.285-4.416,1.75-6.671c1.105-4.467,1.768-9.031,2.365-13.593
				c1.008-9.155,1.038-18.415,0.27-27.608c-0.774-9.18-2.491-18.276-5.415-26.991c-2.967-8.693-7.149-16.96-12.434-24.46
				c-5.243-7.539-11.741-14.157-18.905-19.899c-7.16-5.769-15.124-10.512-23.458-14.429c-8.338-3.921-17.067-7.027-26.004-9.35
				c-17.875-4.67-36.434-6.654-54.929-6.451c-9.249,0.081-18.496,0.699-27.605,2.152c-9.093,1.475-18.093,3.706-26.558,7.265
				l-3.15,1.382c-1.058,0.445-2.051,1.02-3.08,1.523c-2.072,0.986-4.004,2.218-5.986,3.361c-3.845,2.477-7.523,5.211-10.887,8.308
				c-3.328,3.131-6.38,6.546-9.119,10.21c-2.675,3.711-5.036,7.643-7.107,11.732c-2.019,4.118-3.72,8.389-5.202,12.74
				c-1.39,4.383-2.619,8.824-3.555,13.34c-1.917,9.022-2.946,18.233-3.542,27.464l-0.007,0.109l-0.022,0.096
				c-0.927,4.013-1.956,8.017-3.267,11.957c-1.306,3.938-2.934,7.801-4.92,11.462c-1.977,3.667-4.263,7.131-6.644,10.491
				c-2.383,3.361-4.859,6.635-7.35,9.884l-7.479,9.73c-1.238,1.573-2.27,3.192-3.061,4.949c-0.772,1.746-1.292,3.598-1.32,5.426
				c-0.059,1.829,0.424,3.602,1.398,5.097c0.97,1.504,2.435,2.696,4.079,3.62c3.352,1.811,7.324,2.585,11.274,2.967l0.001,0
				l1.195,0.131l-0.03,1.208c-0.214,8.785,0.132,17.669,1.04,26.428c0.957,8.749,2.5,17.48,5.435,25.661
				c1.474,4.072,3.398,7.98,5.966,11.315c1.277,1.642,2.835,3.147,4.417,4.581c1.644,1.38,3.331,2.723,5.15,3.892
				c7.21,4.791,15.518,7.868,24.033,9.692c4.269,0.898,8.608,1.498,12.977,1.772c4.37,0.243,8.758,0.255,13.138-0.027
				c8.759-0.575,17.452-2.175,25.949-4.489c16.996-4.786,33.027-12.388,48.862-20.517c-14.534,10.311-30.867,18.22-48.124,23.148
				c-8.636,2.422-17.504,4.127-26.489,4.785c-4.493,0.323-9.008,0.346-13.516,0.129c-4.508-0.249-9.002-0.834-13.438-1.732
				c-8.866-1.791-17.514-5.075-25.141-10.13c-3.81-2.534-7.349-5.49-10.289-9.168c-2.855-3.72-4.879-7.907-6.424-12.18
				c-3.094-8.577-4.514-17.525-5.412-26.434c-0.841-8.935-1.1-17.864-0.696-26.849l1.165,1.339l-0.001,0
				c-4.155-0.411-8.4-1.189-12.285-3.277c-1.909-1.071-3.726-2.518-4.986-4.465c-1.269-1.931-1.889-4.287-1.812-6.546
				c0.132-4.565,2.335-8.588,4.911-11.884l7.477-9.727c2.486-3.242,4.946-6.495,7.294-9.807c2.347-3.312,4.574-6.689,6.48-10.227
				c3.871-7.053,6.131-14.856,7.944-22.767l-0.029,0.205c0.602-9.327,1.642-18.658,3.593-27.841
				c0.953-4.595,2.206-9.13,3.629-13.613c1.516-4.455,3.261-8.838,5.34-13.076c2.132-4.211,4.569-8.271,7.337-12.109
				c2.832-3.792,5.995-7.331,9.444-10.574c3.485-3.209,7.293-6.04,11.268-8.598c2.045-1.182,4.043-2.452,6.176-3.468
				c1.059-0.519,2.086-1.11,3.173-1.568l3.239-1.422c8.7-3.657,17.893-5.931,27.144-7.432c9.267-1.478,18.636-2.101,27.985-2.184
				c18.695-0.204,37.467,1.797,55.607,6.535c9.068,2.358,17.943,5.514,26.441,9.509c8.493,3.992,16.629,8.835,23.965,14.744
				c7.339,5.881,14.012,12.677,19.4,20.423c5.431,7.707,9.728,16.204,12.77,25.119c2.998,8.934,4.753,18.247,5.541,27.598
				c0.78,9.342,0.752,18.771-0.278,28.113c-0.608,4.657-1.287,9.316-2.416,13.885c-0.476,2.304-1.18,4.552-1.79,6.823
				c-0.335,1.127-0.724,2.238-1.083,3.358c-0.358,1.121-0.729,2.237-1.166,3.33l-1.254,3.299l-1.404,3.239
				c-0.45,1.088-0.964,2.147-1.489,3.2c-0.528,1.052-1.014,2.125-1.577,3.158c-2.194,4.167-4.687,8.167-7.362,12.04L362.288,289.333
				z"/>
		</g>
		<g>
			<path style="fill:#604B3C;" d="M125.504,338.057c0,0-5.658,10.29-4.829,19.839l2.373-3.613c0,0-3.606,18.921,10.07,36.041v-6.498
				c0,0,6.353,11.231,18.918,15.102l-1.18-5.382c0,0,14.84,6.707,35.538,3.207c20.698-3.5,60.881-18.561,72.837-45.979l-3.846,2.448
				c0,0,9.656-14.592-4.693-54.895c-14.349-40.303,0-76.214,0-76.214l-29.187-4.976c0,0-6.452,27.027-5.678,61.938l-2.968-8.664
				c0,0-3.226,7.225-2.968,19.032l-1.161-3.419c0,0-5.129,10.032-3.194,23c1.936,12.968-14.226,2.113-24.097,11.653l1.871-12.216
				c0,0-3.742,1.563-6.193,4.144l2.21-5.419l-5.041,0.847l3.089-5.398c0,0-12.162-6.094-25.339-6.675l6.952-1.842
				c0,0-25.766-5.358-38.819-1.854c0,0-6.407,4.328-8.472,14.464l2.064-0.693l0.258,3.765l4.456-0.065l3.544,1.709l1.936-0.516
				l3.226,2.065l2.452-1.419l8.516,3.097l6.839,1.336c0,0,5.677,5.275,16.516,11.969c0,0,0.119,16.243-11.811,18.049
				c-11.931,1.806-12.705-11.613-12.705-11.613l-1.773,3.08l-4.391-6.435L125.504,338.057z"/>
			<path style="fill:#3D3128;" d="M244.649,269.546c-1.523-20.153,2.535-36.495,4.734-43.596l-28.129-7.7
				c-0.506,2.323-1.707,8.207-2.859,16.624c5.204,20.626,12.816,24.885,12.816,24.885l-3.484-11.033c0,0,6.201,15.096,9.875,18
				l-1.165-5.806C236.436,260.919,239.66,264.968,244.649,269.546z"/>
			<path style="fill:#3D3128;" d="M186.394,396.752c20.698-3.5,60.881-18.561,72.837-45.979l-3.846,2.448
				c0,0,9.655-14.592-4.693-54.894c-0.151-0.425-0.281-0.846-0.426-1.27c-2.9,6.197-5.724,14.013-6.915,22.663l-1.072-6.807
				l-4.307,13.5l1.984-26.969c0,0-10.323,13.566-12.387,34.727l-2.064-11.613c0,0-5.678,7.45-6.968,16.499l1.032-12.645
				c0,0-7.742,7.162-10.581,13.267l2.416-11.186c0,0-4.851,3.355-7.375,8l1.347-5.935c0,0-16.258,4.903-22.968,11.355l5.935-7.742
				c0,0-9.677,4.903-12.322,7.742l5.871-8l-7.605,1.548l6.314-5.677l-6.314,0.258v-3.065l-2.627,2.032l1.651-7.355l-16.064-6.495
				h5.845c0,0-13.587-5.849-25.006-7.129l14.727-2.276c0,0-11.472-3.207-25.68-0.428l5.297-2.382l-9.054,1.962l2.129-2.994
				l-5.806,2.994l-5.093-6.073c-1.176,2.086-2.257,4.7-2.907,7.892l2.064-0.693l0.258,3.765l4.456-0.065l3.544,1.709l1.936-0.516
				l3.226,2.064l2.452-1.419l8.516,3.097l6.839,1.336c0,0,5.678,5.274,16.516,11.969c0,0,0.119,16.243-11.811,18.049
				c-11.931,1.806-12.705-11.613-12.705-11.613l-1.773,3.08l-4.391-6.435l-5.319,7c0,0-5.658,10.29-4.829,19.839l2.373-3.613
				c0,0-3.606,18.921,10.07,36.041v-6.498c0,0,6.353,11.231,18.918,15.102l-1.18-5.382
				C150.856,393.546,165.696,400.253,186.394,396.752z"/>
			<path style="fill:#302822;" d="M189.984,374.346c4.839,3.492,12.703,3.863,12.703,3.863c-30.071,6.387-45.8-3.863-45.8-3.863
				l6.194,6.96c-18.968-5.419-22.064-21.677-22.064-21.677c-1.936,5.419-3.678,13.742-3.678,13.742l-1.355-8.129l-1.513,3.861
				l-3.027-10.249c-3.663,7.239-5.103,13.864-5.624,18.731c1.584,4.147,3.909,8.498,7.297,12.738v-6.498
				c0,0,6.353,11.231,18.918,15.102l-1.18-5.382c0,0,14.84,6.707,35.538,3.207c20.698-3.5,60.881-18.561,72.837-45.979l-3.846,2.448
				c0,0,3.986-6.052,3.018-21.085c-4.361,10.271-11.321,15.856-11.321,15.856v-6.171c-7.936,11.032-21.097,15.871-21.097,15.871
				h8.918C217.692,374.919,189.984,374.346,189.984,374.346z"/>
			<path style="fill:none;stroke:#1C1C26;stroke-width:2.5;stroke-miterlimit:10;" d="M125.504,338.057
				c0,0-5.658,10.29-4.829,19.839l2.373-3.613c0,0-3.606,18.921,10.07,36.041v-6.498c0,0,6.353,11.231,18.918,15.102l-1.18-5.382
				c0,0,14.84,6.707,35.538,3.207c20.698-3.5,60.881-18.561,72.837-45.979l-3.846,2.448c0,0,9.656-14.592-4.693-54.895
				c-14.349-40.303,0-76.214,0-76.214l-29.187-4.976c0,0-6.452,27.027-5.678,61.938l-2.968-8.664c0,0-3.226,7.225-2.968,19.032
				l-1.161-3.419c0,0-5.129,10.032-3.194,23c1.936,12.968-14.226,2.113-24.097,11.653l1.871-12.216c0,0-3.742,1.563-6.193,4.144
				l2.21-5.419l-5.041,0.847l3.089-5.398c0,0-12.162-6.094-25.339-6.675l6.952-1.842c0,0-25.766-5.358-38.819-1.854
				c0,0-6.407,4.328-8.472,14.464l2.064-0.693l0.258,3.765l4.456-0.065l3.544,1.709l1.936-0.516l3.226,2.065l2.452-1.419
				l8.516,3.097l6.839,1.336c0,0,5.677,5.275,16.516,11.969c0,0,0.119,16.243-11.811,18.049
				c-11.931,1.806-12.705-11.613-12.705-11.613l-1.773,3.08l-4.391-6.435L125.504,338.057z"/>
		</g>
		<g>
			<g>
				<polygon style="fill:#B3CEFF;" points="203.075,432.168 172.089,500 319.715,500 290.81,427.917 				"/>
				<polygon style="fill:#83A1CC;" points="200.873,436.987 192.791,454.68 201.708,495.196 277.014,475.159 237.591,430.495 
					206.728,431.991 				"/>
				<polyline style="fill:none;stroke:#1C1C26;stroke-width:2.1214;stroke-miterlimit:10;" points="319.715,500 290.81,427.917 
					203.075,432.168 172.089,500 				"/>
			</g>
			<g>
				<polygon style="fill:#B3CEFF;" points="325.299,375.485 198.911,431.333 204.455,482.166 347.635,427.377 				"/>
				<polygon style="fill:#D2E3FC;" points="207.003,481.191 206.612,434.429 327.209,379.921 325.299,375.485 198.911,431.333 
					204.455,482.166 				"/>
				<polygon style="fill:none;stroke:#1C1C26;stroke-width:2.1214;stroke-miterlimit:10;" points="325.299,375.485 198.911,431.333 
					204.455,482.166 347.635,427.377 				"/>
			</g>
			<g>
				<g>
					<path style="fill:#EFAC75;" d="M335.395,398.236C341.942,421.29,271.93,418.417,208.833,500h183.474
						c0,0-17.08-60.768-21.022-69.958C367.343,420.852,335.395,398.236,335.395,398.236z"/>
					<path style="fill:#C6946D;" d="M262.399,500h24.799c5.22-12.324,18.243-33.449,49.947-52.759
						C287.838,471.461,269.271,490.278,262.399,500z"/>
					<path style="fill:#FFC192;" d="M312.34,429.513c39.789-18.605,45.841,0.871,45.841,0.871s2.987-3.574,5.53-9.476
						c-10.682-10.188-28.316-22.673-28.316-22.673C341.942,421.29,271.93,418.417,208.833,500h26.885
						C249.583,464.597,279.159,445.028,312.34,429.513z"/>
					<path style="fill:none;stroke:#1C1C26;stroke-width:2.1214;stroke-miterlimit:10;" d="M392.307,500
						c0,0-17.08-60.768-21.022-69.958c-3.942-9.19-35.89-31.806-35.89-31.806C341.942,421.29,271.93,418.417,208.833,500"/>
				</g>
				<path style="fill:none;stroke:#1C1C26;stroke-width:2.1214;stroke-miterlimit:10;" d="M261.787,500
					c32.964-41.922,96.655-52.113,101.105-79.864"/>
			</g>
		</g>
		<path style="fill:#CE8D76;" d="M157.943,202.506c20.701-22.581,41.135-5.752,47.011,14.414c5.876,20.167-38.864,1.87-38.864,1.87
			L157.943,202.506z"/>
		<g>
			<g>
				<path style="fill:#604B3C;" d="M154.563,128.681c-31.659-30.891-7.142-76.1,35.66-72.079c0,0,43.127-27.429,99.517-8.147
					c56.39,19.282,122.603,91.525,131.84,123.683c9.237,32.158-18.397,108.5-27.075,122.2l-2.968-9.532
					c0,0-16.024,38.12-30.451,53.435c-14.427,15.315-5.694,26.96-5.694,26.96s-9.527-1.059-12.703-9.527
					c0,0,0.265,12.968,5.425,18.658c0,0-17.335,1.323-25.539-20.643c0,0,3.043,11.512,8.998,17.467c0,0-19.385-3.75-19.385-38.76
					c0,0-0.842,2.491-7.534,6.401c0,0,8.658-13.223,12.628-31.651c0,0-3.44,3.636-6.881,4.778c0,0,29.254-45.189,12.113-80.378
					c-17.141-35.189-40.702,17.164-69.022,14.624c-21.287-1.909-42.753-18.805-37.78-62.891c0,0-5.424,12.814-4.356,33.177
					c0,0-5.359-21.403,5.756-51.308c0,0-9.66,7.391-11.248,15.066c0,0-3.308-13.61,14.556-28.582
					c12.844-10.765,20.067-48.225-53.013-20.404C162.991,132.908,157.947,131.982,154.563,128.681z"/>
				<path style="fill:#3D3128;" d="M419.281,165.86c-1.443-3.328-3.325-6.941-5.59-10.767
					c-22.502,9.341-63.381,16.689-113.133-17.742C349.591,179.5,393.632,174.872,419.281,165.86z"/>
				<path style="fill:#332A24;" d="M174.638,128.923c7.443-43.468,27.716-46.611,45.947-37.745
					c18.23,8.866,37.285,28.53,37.285,28.53s-29.74-22.046-46.115-23.535C195.38,94.684,184.88,107.002,182.149,117
					C179.417,126.998,174.638,128.923,174.638,128.923z"/>
				<path style="fill:#332A24;" d="M201.673,67.425c-59.586-3.705-48.761,52.282-48.761,52.282l6.901,11.301h3.563
					C163.374,131.008,148.931,83.039,201.673,67.425z"/>
				<path style="fill:#775E4D;" d="M322.516,99.536c-20.025-23.095-27.53-43.385-46.208-54.885
					c-21.769-4.913-40.994-3.226-55.722,0.223c86.484,4.988,66.684,76.7,66.684,76.7c49.512,42.968,98.493,33.204,98.493,33.204
					S360.818,143.71,322.516,99.536z"/>
				<path style="fill:#3D3128;" d="M312.189,332.395c0,35.01,19.385,38.76,19.385,38.76c-5.954-5.955-8.998-17.467-8.998-17.467
					c8.204,21.966,25.538,20.643,25.538,20.643c-5.16-5.69-5.425-18.658-5.425-18.658c3.176,8.469,12.703,9.527,12.703,9.527
					s-8.733-11.644,5.694-26.96c14.427-15.316,30.451-53.435,30.451-53.435l2.968,9.532c7.803-12.317,30.922-75.267,28.797-111.219
					c-8.522,4.377-25.031,10.441-48.854,8.597c-36.257-2.808-101.501-66.265-111.673-72.007
					c-9.129-5.153-66.892-35.758-85.715,8.063c62.746-20.948,55.611,13.594,43.363,23.86
					c-17.864,14.972-14.556,28.582-14.556,28.582c1.588-7.675,11.248-15.066,11.248-15.066
					c-11.115,29.905-5.756,51.308-5.756,51.308c-1.069-20.363,4.356-33.177,4.356-33.177c-4.973,44.086,16.492,60.982,37.78,62.891
					c28.321,2.539,51.881-49.814,69.022-14.624c17.141,35.189-12.113,80.378-12.113,80.378c3.44-1.142,6.881-4.778,6.881-4.778
					c-3.97,18.427-12.628,31.651-12.628,31.651C311.347,334.886,312.189,332.395,312.189,332.395z"/>
				<path style="fill:#332A24;" d="M331.574,371.155c-5.954-5.955-8.998-17.467-8.998-17.467
					c8.204,21.966,25.538,20.643,25.538,20.643c-5.16-5.69-5.425-18.658-5.425-18.658c3.176,8.469,12.703,9.527,12.703,9.527
					s-8.733-11.644,5.694-26.96c14.427-15.316,30.451-53.435,30.451-53.435l2.968,9.532c3.946-6.229,11.807-25.407,18.341-47.492
					c-10.251,16.616-20.403,22.572-20.403,22.572c1.323-29.905-3.176-44.229-3.176-44.229c-1.059,28.284-6.048,46.149-6.048,46.149
					c2.95-22.163-9.831-55.562-9.831-55.562c6.352,44.012-4.234,67.202-4.234,67.202c1.588-12.906-1.853-31.93-1.853-31.93
					c-1.853,29.53-9.527,46.024-9.527,46.024s12.174-57.559-13.232-87.037c-25.406-29.478-74.101-40.389-74.101-40.389
					c18.525,21.436,45.255,33.149,45.255,33.149c-40.226-9.989-63.515-40.294-63.515-40.294
					c4.234,20.907,22.863,39.362,22.863,39.362c-36.154-22.566-34.507-60.534-34.507-60.534
					c-23.289,46.313,5.914,97.773,5.914,97.773c-31.666-17.613-23.116-65.074-23.116-65.074c-3.755,9.631-6.765,30.577-1.33,52.271
					c7.336,12.9,19.439,18.79,31.49,19.87c28.321,2.539,51.881-49.814,69.022-14.624c17.141,35.189-12.113,80.378-12.113,80.378
					c3.44-1.142,6.881-4.778,6.881-4.778c-3.97,18.427-12.628,31.651-12.628,31.651c6.691-3.91,7.534-6.401,7.534-6.401
					C312.189,367.405,331.574,371.155,331.574,371.155z"/>
				<g>
					<path style="fill:#1C1C26;" d="M238.948,149.481c-0.559,8.874-0.857,17.728-0.123,26.503l0.321,3.282l0.165,1.639l0.236,1.629
						l0.471,3.258l0.65,3.223l0.327,1.611l0.416,1.589l0.851,3.171c0.696,2.073,1.325,4.17,2.191,6.177
						c3.235,8.104,8.071,15.575,14.392,21.577c3.146,3.012,6.68,5.602,10.416,7.841c3.744,2.187,7.806,4.033,11.932,5.123
						l-0.332,1.635c-4.512-1.003-8.64-2.818-12.603-5.007c-3.936-2.215-7.638-4.875-10.921-7.991
						c-3.3-3.096-6.235-6.577-8.757-10.331c-2.55-3.742-4.533-7.837-6.199-12.02c-0.876-2.081-1.508-4.245-2.206-6.386l-0.849-3.266
						l-0.413-1.635l-0.323-1.654l-0.639-3.308l-0.455-3.335l-0.227-1.667c-0.067-0.557-0.09-1.117-0.136-1.676l-0.243-3.352
						C236.394,167.162,237.212,158.201,238.948,149.481z"/>
				</g>
				<path style="fill:none;stroke:#1C1C26;stroke-width:2.5638;stroke-miterlimit:10;" d="M154.563,128.681
					c-31.659-30.891-7.142-76.1,35.66-72.079c0,0,43.127-27.429,99.517-8.147c56.39,19.282,122.603,91.525,131.84,123.683
					c9.237,32.158-18.397,108.5-27.075,122.2l-2.968-9.532c0,0-16.024,38.12-30.451,53.435c-14.427,15.315-5.694,26.96-5.694,26.96
					s-9.527-1.059-12.703-9.527c0,0,0.265,12.968,5.425,18.658c0,0-17.335,1.323-25.539-20.643c0,0,3.043,11.512,8.998,17.467
					c0,0-19.385-3.75-19.385-38.76c0,0-0.842,2.491-7.534,6.401c0,0,8.658-13.223,12.628-31.651c0,0-3.44,3.636-6.881,4.778
					c0,0,30.884-46.03,12.113-80.378c-21.243-38.872-34.74,19.147-69.022,14.624c-21.189-2.796-42.753-18.805-37.78-62.891
					c0,0-5.05,15.611-4.356,31.763c0,0-5.359-19.989,5.756-49.895c0,0-9.66,7.391-11.248,15.066c0,0-3.308-13.61,14.556-28.582
					c12.844-10.765,20.067-48.225-53.013-20.404C162.991,132.908,157.947,131.982,154.563,128.681z"/>
			</g>
			<path style="fill:none;stroke:#1C1C26;stroke-width:2.5638;stroke-miterlimit:10;" d="M163.32,132.037
				c-18.057-45.888,42.625-119.589,219.9-16.378"/>
			<path style="fill:none;stroke:#1C1C26;stroke-width:2.5638;stroke-miterlimit:10;" d="M160.269,131.746
				c-34.458-55.124,14.128-73.778,58.015-67.627"/>
			<path style="fill:none;stroke:#1C1C26;stroke-width:2.5638;stroke-miterlimit:10;" d="M205.073,62.996
				c20.378-24.087,104.146-11.313,146.817,22.989"/>
			<path style="fill:none;stroke:#1C1C26;stroke-width:2.5638;stroke-miterlimit:10;" d="M177.848,127.51
				c23.255-43.61,73.538-22.18,135.466,33.267s109.955,21.758,109.955,21.758"/>
			<g>
				<path style="fill:#1C1C26;" d="M287.269,158.001c11.193,1.583,22.263,4.632,32.596,9.494l3.855,1.865l3.728,2.119l1.854,1.08
					c0.601,0.387,1.187,0.801,1.781,1.2c1.18,0.811,2.376,1.6,3.543,2.43c4.591,3.44,8.793,7.396,12.525,11.762
					c7.435,8.784,12.41,19.535,14.662,30.723c1.122,5.599,1.65,11.309,1.489,16.992c-0.044,2.841-0.276,5.674-0.619,8.486
					c-0.348,2.811-0.848,5.607-1.598,8.332c1.002-5.557,1.358-11.205,1.171-16.814c-0.176-5.609-0.865-11.191-2.171-16.619
					c-2.551-10.861-7.569-21.096-14.797-29.527c-3.615-4.213-7.745-7.951-12.146-11.346c-1.126-0.814-2.282-1.59-3.421-2.388
					c-0.574-0.393-1.138-0.8-1.72-1.182l-1.797-1.066l-3.582-2.157l-3.721-1.92l-1.862-0.961c-0.627-0.307-1.274-0.574-1.91-0.865
					l-3.834-1.711c-1.262-0.613-2.612-1.01-3.911-1.537l-3.932-1.509l-8.029-2.602C292.708,159.543,289.99,158.787,287.269,158.001z
					"/>
			</g>
			<g>
				<path style="fill:#1C1C26;" d="M172.64,128.864c-0.055-5.687,0.313-11.407,1.411-17.033c1.099-5.614,2.949-11.156,5.903-16.165
					c2.993-4.961,7.199-9.321,12.337-12.16c5.153-2.797,11.016-4.187,16.803-4.137c5.798-0.014,11.513,1.102,16.946,2.885
					c5.441,1.789,10.62,4.243,15.548,7.079c9.886,5.65,18.697,12.965,26.852,20.732c8.222,7.692,16.216,15.613,24.212,23.501
					c3.993,3.948,7.991,7.884,12.048,11.745c4.031,3.888,8.122,7.704,12.364,11.326c8.435,7.257,17.547,13.883,27.912,17.898
					c10.336,4.048,21.792,4.934,32.91,3.314c-5.491,1.208-11.154,1.746-16.818,1.529c-5.662-0.26-11.305-1.333-16.707-3.152
					c-5.399-1.845-10.49-4.491-15.313-7.488c-4.816-3.022-9.386-6.406-13.726-10.036c-4.343-3.628-8.514-7.436-12.613-11.303
					c-4.07-3.899-8.066-7.86-12.049-11.825c-7.948-7.948-15.862-15.905-23.998-23.624c-8.06-7.754-16.707-14.866-26.351-20.395
					c-4.804-2.765-9.833-5.144-15.07-6.866c-5.229-1.717-10.683-2.771-16.131-2.757c-5.447-0.049-10.848,1.257-15.577,3.816
					c-4.71,2.607-8.577,6.599-11.38,11.235c-2.761,4.685-4.532,9.947-5.587,15.342c-1.056,5.405-1.417,10.954-1.363,16.498
					L172.64,128.864z"/>
			</g>
			<g>
				<path style="fill:#1C1C26;" d="M245.564,83.37c2.607,2.546,5.212,5.088,7.784,7.659l7.945,7.476l8.116,7.277
					c2.775,2.343,5.53,4.709,8.335,7.01c11.314,9.08,23.142,17.544,35.797,24.552c12.629,7.014,26.096,12.598,40.189,15.65
					c3.518,0.778,7.081,1.326,10.66,1.746c3.585,0.33,7.187,0.573,10.796,0.509c3.603-0.092,7.215-0.331,10.784-0.933
					c3.56-0.611,7.113-1.455,10.445-2.931c-3.188,1.789-6.726,2.886-10.287,3.72c-3.571,0.824-7.217,1.364-10.885,1.596
					c-3.669,0.228-7.351,0.182-11.023-0.054c-3.661-0.316-7.326-0.721-10.933-1.441c-7.227-1.375-14.306-3.474-21.143-6.156
					c-6.846-2.658-13.486-5.835-19.852-9.467c-1.619-0.86-3.184-1.814-4.75-2.764c-1.557-0.964-3.164-1.85-4.678-2.88
					c-3.052-2.022-6.126-4.01-9.069-6.186c-5.999-4.192-11.643-8.852-17.221-13.563C265.472,104.696,255.192,94.297,245.564,83.37z"
					/>
			</g>
			<path style="fill:none;stroke:#1C1C26;stroke-width:2.5638;stroke-miterlimit:10;" d="M246.449,112.965
				c-25.977-20.423-54.079-30.389-67.254,12.145"/>
		</g>
		<g>
			<path style="fill:#604B3C;" d="M208.498,192.211c-18.261-12.505-19.462-15.332-30.77-15.01
				c-11.309,0.322-29.18-4.326-34.125-3.06c-14.764,3.779-9.471,21.393,0.718,19.996c10.189-1.397,30.057-7.199,35.01-6.812
				C184.282,187.712,208.498,192.211,208.498,192.211z"/>
			<path style="fill:#3D3128;" d="M144.321,194.137c10.189-1.397,30.057-7.199,35.01-6.812c4.76,0.372,27.31,4.541,29.049,4.864
				c-9.932-3.457-25.396-8.587-31.135-9.108c-8.734-0.794-15.78,2.779-21.058,1.92c-5.278-0.859-7.623-5.691-7.623-5.691
				c-1.39,4.069,2.183,7.741,2.183,7.741c-4.863-0.695-6.451-6.748-6.451-6.748c-1.786,4.565,0.893,7.245,0.893,7.245
				c-3.607-1.382-5.876-7.052-0.865-13.534c-0.261,0.033-0.507,0.073-0.722,0.128C128.839,177.92,134.132,195.534,144.321,194.137z"
				/>
			<path style="fill:none;stroke:#1C1C26;stroke-width:2.5638;stroke-miterlimit:10;" d="M208.498,192.211
				c-18.261-12.505-19.462-15.332-30.77-15.01c-11.309,0.322-29.18-4.326-34.125-3.06c-14.764,3.779-9.471,21.393,0.718,19.996
				c10.189-1.397,30.057-7.199,35.01-6.812C184.282,187.712,208.498,192.211,208.498,192.211z"/>
		</g>
		<g>
			<g>
				<path style="fill:#EFAC8F;" d="M262.826,241.366c-5.105-36.575,50.347-48.383,62.03-11.131
					c8.927,28.465-17.771,82.668-40.478,81.812c-22.708-0.856-17.771-22.845-17.113-28.123
					C267.923,278.646,262.826,241.366,262.826,241.366z"/>
				<path style="fill:#CE8D76;" d="M291.154,292.932c3.044-7.772-0.821-12.521-3.837-15.711c-3.017-3.19,8.998-1.588,15.482-5.028
					c6.484-3.441,9.924-5.611,9.924-5.611S309.15,289.191,291.154,292.932z"/>
				<path style="fill:#CE8D76;" d="M312.723,230.872c-11.115-9.889-17.704,2.256-13.285,18.744
					c4.419,16.489-14.635,21.252-14.635,21.252s3.855-5.152-1.513-11.111c-5.368-5.959-8.234-18.138-2.964-30.574
					S303.328,214.959,312.723,230.872z"/>
				<path style="fill:#BA7B67;" d="M306.462,223.564c-9.548-7.502-21.888-4.403-26.136,5.62c-4.754,11.216-2.879,22.207,1.471,28.63
					C283.047,229.952,294.158,221.897,306.462,223.564z"/>
				<g>
					<path style="fill:#1C1C26;" d="M265.183,259.758c-1.621-4.887-2.439-9.861-3.083-14.861c-0.162-1.256-0.347-2.483-0.489-3.762
						l-0.188-1.948c-0.07-0.649-0.131-1.299-0.105-1.956c0.008-1.31-0.032-2.623,0.166-3.928c0.08-0.652,0.122-1.31,0.236-1.958
						l0.419-1.932c0.074-0.321,0.133-0.646,0.219-0.964l0.311-0.94l0.629-1.879l0.82-1.805l0.416-0.9l0.501-0.855
						c0.338-0.568,0.662-1.146,1.016-1.704l1.172-1.599c0.373-0.549,0.818-1.036,1.262-1.525c0.449-0.483,0.865-1.001,1.343-1.454
						c1.894-1.838,3.986-3.463,6.249-4.809c2.28-1.301,4.663-2.452,7.18-3.21c4.989-1.66,10.342-2.102,15.573-1.52
						c0.652,0.092,1.301,0.214,1.951,0.321c0.652,0.1,1.3,0.222,1.935,0.407l1.917,0.499l1.871,0.659l0.934,0.335
						c0.306,0.126,0.603,0.274,0.904,0.411l1.802,0.838c0.581,0.318,1.148,0.663,1.722,0.995c0.577,0.327,1.147,0.667,1.672,1.075
						c4.347,3.036,7.971,7.149,10.329,11.876c1.192,2.359,2.169,4.799,2.87,7.346c0.754,2.542,1.085,5.151,1.358,7.747
						c0.375,5.206,0.005,10.394-0.81,15.474c-0.822,5.083-2.1,10.068-3.717,14.931c-3.264,9.71-7.807,19.011-13.88,27.334
						c-3.04,4.15-6.487,8.066-10.628,11.302c-0.507,0.415-1.026,0.816-1.584,1.174c-0.549,0.367-1.085,0.751-1.647,1.102
						c-1.16,0.655-2.305,1.331-3.565,1.827c-2.471,1.043-5.201,1.705-7.994,1.604c-2.628-0.168-5.279-0.524-7.851-1.413
						c-2.55-0.922-4.99-2.412-6.851-4.494c-1.893-2.061-3.005-4.701-3.469-7.314c-0.462-2.629-0.356-5.274,0.268-7.783
						c0.541,2.531,1.044,4.964,1.859,7.222c0.814,2.248,1.886,4.33,3.431,5.993c1.527,1.678,3.521,2.888,5.716,3.669
						c2.22,0.747,4.606,1.055,7.011,1.194c2.272,0.061,4.552-0.496,6.708-1.424c1.093-0.434,2.117-1.054,3.152-1.645
						c0.505-0.321,0.992-0.679,1.49-1.016c0.504-0.326,0.98-0.7,1.446-1.089c3.802-3.014,7.072-6.763,9.956-10.77
						c5.749-8.048,10.183-17.092,13.339-26.505c1.564-4.714,2.794-9.539,3.58-14.422c0.781-4.878,1.121-9.826,0.767-14.694
						c-0.251-2.416-0.533-4.843-1.209-7.149c-0.621-2.321-1.516-4.594-2.584-6.745c-2.122-4.329-5.363-8.029-9.258-10.796
						c-0.469-0.374-0.982-0.682-1.502-0.979l-1.547-0.911l-1.626-0.767c-0.272-0.125-0.539-0.263-0.815-0.379l-0.846-0.307
						l-1.694-0.612L302,209.908c-0.577-0.175-1.167-0.289-1.763-0.383c-0.594-0.1-1.185-0.218-1.781-0.307
						c-4.782-0.549-9.725-0.223-14.34,1.264c-2.33,0.669-4.532,1.71-6.642,2.878c-2.091,1.213-4.021,2.68-5.769,4.336
						c-0.442,0.408-0.822,0.877-1.237,1.312c-0.411,0.44-0.824,0.878-1.165,1.374l-1.084,1.44c-0.326,0.504-0.623,1.026-0.937,1.538
						l-0.467,0.771l-0.385,0.814l-0.766,1.631l-0.589,1.704l-0.296,0.853c-0.081,0.289-0.137,0.586-0.208,0.879l-0.405,1.762
						c-0.112,0.592-0.153,1.197-0.234,1.796c-0.199,1.195-0.17,2.411-0.194,3.624c-0.035,0.607,0.017,1.213,0.077,1.82l0.154,1.821
						c0.122,1.23,0.298,2.501,0.445,3.749C265.056,249.595,265.521,254.634,265.183,259.758z"/>
				</g>
			</g>
			<g>
				<path style="fill:#1C1C26;" d="M277.361,276.956c2.183-2.922,4.728-5.292,6.278-8.033c0.733-1.378,1.03-2.829,0.707-4.256
					c-0.301-1.434-1.133-2.839-2.127-4.174c-0.498-0.67-1.04-1.327-1.6-1.982l-0.854-0.979c-0.296-0.365-0.66-0.786-0.908-1.201
					c-1.096-1.674-1.705-3.467-2.181-5.263c-0.906-3.603-1.117-7.291-0.817-10.939c0.329-3.642,1.179-7.268,2.739-10.648
					c1.546-3.365,3.898-6.499,7.054-8.664c1.573-1.065,3.28-1.953,5.138-2.492c1.849-0.535,3.783-0.743,5.689-0.643
					c3.824,0.206,7.472,1.632,10.531,3.771c3.073,2.143,5.576,5.002,7.436,8.189c1.86,3.195,3.081,6.722,3.721,10.319
					c1.287,7.227,0.31,14.618-1.853,21.45c-1.093,3.4-2.209,6.766-3.645,10.037c-1.447,3.258-3.151,6.409-5.061,9.429
					c-1.907,3.019-4.082,5.889-6.622,8.411c-1.263,1.264-2.634,2.426-4.114,3.424c-1.486,0.972-3.065,1.871-4.794,2.261
					c1.667-0.581,3.101-1.634,4.434-2.738c1.314-1.141,2.529-2.384,3.644-3.712c2.227-2.661,4.064-5.622,5.723-8.661
					c1.667-3.041,3.006-6.253,4.315-9.465c1.307-3.209,2.602-6.459,3.67-9.755c2.042-6.55,2.902-13.535,1.678-20.206
					c-0.607-3.322-1.745-6.539-3.44-9.421c-1.696-2.875-3.955-5.417-6.671-7.29c-2.704-1.873-5.873-3.073-9.096-3.229
					c-1.607-0.076-3.216,0.107-4.746,0.557c-1.525,0.44-2.978,1.199-4.312,2.101c-2.667,1.83-4.708,4.518-6.09,7.528
					c-1.39,3.015-2.178,6.339-2.477,9.696c-0.301,3.354-0.157,6.791,0.621,10.025c0.396,1.601,0.937,3.189,1.764,4.473
					c0.199,0.345,0.419,0.589,0.668,0.912l0.867,1.02c0.575,0.689,1.144,1.397,1.687,2.146c1.07,1.49,2.102,3.178,2.513,5.211
					c0.201,1.006,0.22,2.081,0.02,3.097c-0.193,1.018-0.57,1.97-1.039,2.832c-0.943,1.725-2.247,3.108-3.682,4.241
					C280.674,275.447,279.111,276.368,277.361,276.956z"/>
			</g>
			<path style="fill:#1C1C26;" d="M289.075,276.712c-2.039,3.882-6.079,5.775-9.023,4.228c-2.944-1.547-1.785-6.094,1.641-8.384
				c3.645-2.437,2.8-7.219,5.744-5.673C290.381,268.43,291.114,272.831,289.075,276.712z"/>
		</g>
		<g>
			<path style="fill:#FFFFFF;" d="M160.75,257.837c26.896,0,31.808-29.392,31.808-29.392s-11.513-24.192-31.808-24.192
				c0,0-8.179,5.382-8.179,26.792C152.571,252.455,160.75,257.837,160.75,257.837z"/>
			<path style="fill:#E3EDFC;" d="M160.75,204.253c0,0-4.274,2.818-6.642,12.467c7.178,6.041,28.499,0.349,38.363,12.181
				c0.058-0.285,0.087-0.455,0.087-0.455S181.045,204.253,160.75,204.253z"/>
			<ellipse style="fill:#1C1C26;" cx="160.873" cy="231.045" rx="10.983" ry="26.726"/>
			<path style="fill:#FFFFFF;" d="M174.826,222.957c0,3.215-1.73,5.82-3.863,5.82c-2.134,0-3.863-2.606-3.863-5.82
				c0-3.214,1.73-5.82,3.863-5.82C173.097,217.137,174.826,219.743,174.826,222.957z"/>
			<path style="fill:#1C1C26;" d="M190.682,223.388c-0.83-1.598-1.777-3.137-2.781-4.647c-2.037-2.998-4.444-5.786-7.215-8.238
				c-0.716-0.584-1.377-1.247-2.147-1.769l-2.284-1.619c-0.783-0.51-1.618-0.942-2.431-1.416c-0.411-0.229-0.817-0.472-1.235-0.688
				l-1.297-0.565c-3.87-1.901-8.671-2.808-12.438-3.394l-6.673,7.608l7.772-1.608c3.249,0.203,6.567,0.515,9.684,1.653l1.192,0.361
				c0.387,0.148,0.763,0.324,1.147,0.484c0.759,0.339,1.546,0.632,2.294,1.007l2.206,1.219c0.751,0.389,1.41,0.926,2.124,1.383
				c2.793,1.924,5.383,4.227,7.675,6.835c1.133,1.313,2.228,2.673,3.221,4.112c1.008,1.434,1.924,2.909,3.061,4.339
				C192.273,226.633,191.537,224.964,190.682,223.388z"/>
			<g>
				<path style="fill:#1C1C26;" d="M157.413,203.726c0.545-0.842,1.25-1.551,2.028-2.124c0.785-0.57,1.647-0.969,2.518-1.305
					c1.76-0.615,3.587-0.826,5.377-0.823c3.592,0.035,7.069,0.955,10.278,2.365c3.208,1.426,6.156,3.388,8.697,5.766
					c1.273,1.186,2.424,2.492,3.483,3.858c1.05,1.376,1.943,2.858,2.763,4.365c-0.966-1.422-2.037-2.757-3.16-4.036
					c-1.147-1.26-2.386-2.424-3.678-3.514c-2.616-2.145-5.54-3.889-8.651-5.133c-3.117-1.209-6.44-1.928-9.719-1.875
					c-1.634,0.04-3.249,0.307-4.727,0.837c-0.721,0.294-1.422,0.632-2.02,1.083c-0.593,0.454-1.1,0.986-1.483,1.592L157.413,203.726
					z"/>
			</g>
		</g>
		<g>
			<g>
				<path style="fill:#1C1C26;" d="M120.048,319.225c1.71,1.436,3.684,2.588,5.862,3.299c2.195,0.647,4.5,0.986,6.833,1.007
					c2.333-0.002,4.68-0.25,6.986-0.721c2.29-0.459,4.618-1.139,6.708-1.999l1.032,2.541c-2.44,0.866-4.82,1.415-7.285,1.869
					c-2.456,0.413-4.948,0.677-7.463,0.652c-2.514-0.067-5.041-0.379-7.506-1.075c-2.461-0.735-4.786-1.926-6.912-3.457
					L120.048,319.225z"/>
			</g>
			<path style="fill:#1C1C26;" d="M140.183,320.649l10.292,4.649C150.475,325.298,148.864,317.836,140.183,320.649z"/>
		</g>
	</g>
</g>
</svg>
